<?xml version="1.0" encoding="UTF-8"?>
<svg width="25px" height="29px" viewBox="0 0 25 29" version="1.1" xmlns="http://www.w3.org/2000/svg" xmlns:xlink="http://www.w3.org/1999/xlink">
    <title>Customer Icon</title>
    <g id="Page-1" stroke="none" stroke-width="1" fill="none" fill-rule="evenodd">
        <g id="Manage" transform="translate(-63.000000, -404.000000)" fill="#DBAC38" fill-rule="nonzero">
            <g id="Customers" transform="translate(34.000000, 393.000000)">
                <path d="M41.1173033,29.0011448 C41.3822898,29.0144545 41.6315811,29.1431634 41.810203,29.3588883 C43.2383714,31.1072583 44.0194843,33.3806232 43.9996306,35.7310374 C43.9996306,38.1652118 40.7756373,40 36.4998787,40 C32.2241201,40 29,38.1652118 29.0003267,35.7309274 C28.9818032,33.3966158 29.751471,31.1378053 31.1602553,29.3919981 C31.3996153,29.1001443 31.7623367,28.9709308 32.1117859,29.053031 C32.461235,29.1351313 32.7443222,29.4160723 32.8544113,29.7900263 C32.9645004,30.1639804 32.8848662,30.5741349 32.6455062,30.8659886 C31.5756878,32.2120551 30.990433,33.9421113 31.0000606,35.7300474 C31.0000606,36.4594527 33.0883915,37.8000141 36.4998787,37.8000141 C39.9113658,37.8000141 41.9996968,36.4604427 41.9996968,35.7310374 C42.0187756,33.9292829 41.4241176,32.1849193 40.3327519,30.8412388 C40.1540178,30.6258385 40.0604341,30.3411284 40.0726062,30.049796 C40.0847782,29.7584635 40.201708,29.4843964 40.3976498,29.2879387 C40.5933999,29.0910178 40.8523168,28.9878351 41.1173033,29.0011448 Z M51.6814231,22.3710632 C53.193346,24.1175852 54.0203623,26.3882481 53.999619,28.7359217 C53.999619,31.167311 50.5860106,33 46.0587787,33 C45.4740314,33 45,32.5080799 45,31.9012656 C45,31.2944513 45.4740314,30.8025312 46.0587787,30.8025312 C49.6709082,30.8025312 51.8820616,29.4644925 51.8820616,28.7359217 C51.9020876,26.9362604 51.2724785,25.1939562 50.1170775,23.8517176 C49.8551644,23.5628768 49.7635858,23.1499738 49.877466,22.7713756 C49.9913463,22.3927773 50.2930075,22.1072547 50.6667491,22.0243185 C51.0404906,21.9413822 51.4282955,22.0739069 51.6814231,22.3710632 Z M37,18 C39.7614237,18 42,20.4624339 42,23.5 C42,26.5375661 39.7614237,29 37,29 C34.239924,28.9964237 32.0032511,26.5360836 32,23.5 C32,20.4624339 34.2385763,18 37,18 Z M37,20.2 C35.3438997,20.2020006 34.0018187,21.6782896 34,23.5 C34,25.3225397 35.3431458,26.8 37,26.8 C38.6568542,26.8 40,25.3225397 40,23.5 C40,21.6774603 38.6568542,20.2 37,20.2 Z M46,11 C48.7614237,11 51,13.4624339 51,16.5 C51,19.5375661 48.7614237,22 46,22 C43.239924,21.9964237 41.0032511,19.5360836 41,16.5 C41,13.4624339 43.2385763,11 46,11 Z M46,13.2 C44.3438997,13.2020006 43.0018187,14.6782896 43,16.5 C43,18.3225397 44.3431458,19.8 46,19.8 C47.6568542,19.8 49,18.3225397 49,16.5 C49,14.6774603 47.6568542,13.2 46,13.2 Z" id="Customer-Icon"></path>
            </g>
        </g>
    </g>
</svg>