<?xml version="1.0" encoding="UTF-8"?>
<svg width="28px" height="30px" viewBox="0 0 28 30" version="1.1" xmlns="http://www.w3.org/2000/svg" xmlns:xlink="http://www.w3.org/1999/xlink">
    <title>orders icon</title>
    <g id="Page-1" stroke="none" stroke-width="1" fill="none" fill-rule="evenodd">
        <g id="Manage" transform="translate(-63.000000, -480.000000)" fill="#5DE3FF" fill-rule="nonzero">
            <g id="Orders" transform="translate(34.000000, 469.000000)">
                <g id="orders-icon" transform="translate(29.000000, 11.000000)">
                    <path d="M9.68385047,20.5913235 C9.05544323,20.5913235 8.54601851,21.1324739 8.54601851,21.8000167 C8.54601851,22.4675595 9.05544323,23.0087099 9.68385047,23.0087099 L23.3214624,23.0087099 C23.4279647,23.0087099 23.5306667,23.0259945 23.627218,23.058067 C25.2918374,23.2218044 26.595799,24.7100135 26.595799,26.5217462 C26.595799,28.4427327 25.1298285,30 23.3214624,30 C21.5130962,30 20.0471258,28.4427327 20.0471258,26.5217462 C20.0471258,26.0468999 20.1366999,25.5942778 20.298878,25.1819067 L15.0312139,25.1819067 C15.1933919,25.5942778 15.282966,26.0468999 15.282966,26.5217462 C15.282966,28.4427327 13.8169956,30 12.0086295,30 C10.2002633,30 8.73429286,28.4427327 8.73429286,26.5217462 C8.73429286,26.0179694 8.8351143,25.5392073 9.01649231,25.1069866 C7.57797214,24.7820486 6.49955814,23.4248143 6.49955814,21.8000167 C6.49955814,20.3947677 7.30622371,19.1896591 8.4544942,18.6787142 C8.16346088,18.2341266 7.94735158,17.7262854 7.82566446,17.1739392 L6.47477918,11.3436859 C6.43822858,11.2635131 6.41053168,11.1775241 6.3931422,11.086995 L4.92787657,4.33048704 C4.64923016,3.06294631 3.58284331,2.16825183 2.35752235,2.17396969 L1.02323019,2.17396969 C0.458115758,2.17396969 0,1.68732367 0,1.08701538 C0,0.486707096 0.458115758,3.0422179e-05 1.02323019,3.0422179e-05 L2.35752235,3.0422179e-05 C4.5351114,-0.0080197473 6.42945881,1.58236413 6.92522189,3.83483588 L7.35781986,5.84437221 C8.13833408,5.0494947 9.18533882,4.60067549 10.2814169,4.60864073 L23.7880553,4.60864073 C25.0768605,4.59927493 26.2978176,5.22145203 27.0974741,6.29516578 C27.8971307,7.36887952 28.1861912,8.77423123 27.8809761,10.1043883 L26.2438078,17.1913304 C25.7884797,19.2079227 24.0783513,20.6200552 22.1263295,20.5913235 L9.68385047,20.5913235 Z M12.0086295,25.1826185 C11.3214503,25.1826185 10.7643815,25.7743801 10.7643815,26.5043549 C10.7643815,27.2343298 11.3214503,27.8260914 12.0086295,27.8260914 C12.6958086,27.8260914 13.2528774,27.2343298 13.2528774,26.5043549 C13.2528774,25.7743801 12.6958086,25.1826185 12.0086295,25.1826185 Z M23.3214624,25.1826185 C22.6353669,25.1874135 22.0824079,25.7812815 22.0854001,26.5101139 C22.0884166,27.2389464 22.6462502,27.8276475 23.3323589,27.8260628 C24.0184676,27.8244718 24.5738961,27.2331944 24.5738961,26.5043549 C24.5738961,26.1522968 24.4416902,25.8147834 24.206575,25.5666583 C23.9714598,25.3185331 23.6528735,25.1803023 23.3214624,25.1826185 Z M23.7634978,6.78265226 L10.2323019,6.78265226 C9.57678877,6.78478121 8.95818486,7.10524287 8.55298153,7.65261131 C8.19907227,8.13068921 8.04190145,8.73600614 8.10947049,9.33280415 L8.354,10.462 L9.79026641,16.678288 C10.0185714,17.7008915 10.8801233,18.4215271 11.8694701,18.4174324 L22.1263295,18.4174324 C23.1156763,18.4215271 23.9772283,17.7008915 24.2055333,16.678288 L25.8427016,9.5913459 C25.9986898,8.91376246 25.8526926,8.19761774 25.4467848,7.64929774 C25.0408771,7.10097774 24.4201525,6.78139713 23.7634978,6.78265226 Z" id="Combined-Shape"></path>
                </g>
            </g>
        </g>
    </g>
</svg>