<?xml version="1.0" encoding="UTF-8"?>
<svg width="27px" height="22px" viewBox="0 0 27 22" version="1.1" xmlns="http://www.w3.org/2000/svg" xmlns:xlink="http://www.w3.org/1999/xlink">
    <title>Product Icon</title>
    <g id="Page-1" stroke="none" stroke-width="1" fill="none" fill-rule="evenodd">
        <g id="Manage" transform="translate(-59.000000, -334.000000)" fill="#3D88D3" fill-rule="nonzero">
            <g id="Products" transform="translate(32.000000, 319.000000)">
                <path d="M53.0200642,15 C53.4483328,15 53.818621,15.2631023 53.9497326,15.637109 L53.9873342,15.7822628 L54,15.9321557 L54,21.4237071 C54,21.8314666 53.7230365,22.1835776 53.3300575,22.3081299 L53.1775664,22.3438344 L53.0200642,22.3558628 L52.0738363,22.3389657 L52.0738363,36.0678443 C52.0738363,36.4756038 51.7968727,36.8277149 51.4038937,36.9522671 L51.2514027,36.9879716 L51.0939005,37 L29.9060995,37 C29.4778309,37 29.1075428,36.7368977 28.9764311,36.362891 L28.9388296,36.2177372 L28.9261637,36.0678443 L28.9430177,22.3558628 L27.9799358,22.3558628 C27.5516672,22.3558628 27.181379,22.0927604 27.0502674,21.7187538 L27.0126658,21.5736 L27,21.4237071 L27,15.9321557 C27,15.5243962 27.2769635,15.1722851 27.6699425,15.0477329 L27.8224336,15.0120284 L27.9799358,15 L53.0200642,15 Z M30.0175153,22 L30,34.9828571 L50,35 L49.9994996,22.0165714 L30.0175153,22 Z M43.1135657,24 C43.6029529,24 44,24.447492 44,25 C44,25.4374371 43.7494632,25.8151756 43.3939806,25.948793 L43.2560397,25.9870961 L43.1135657,26 L37.8864343,26 C37.3970471,26 37,25.552508 37,25 C37,24.5625629 37.2505368,24.1848244 37.6060194,24.051207 L37.7439603,24.0129039 L37.8864343,24 L43.1135657,24 Z M28.0175128,18 L28,20.9861538 L52,21 L51.9997498,18.0133846 L28.0175128,18 Z" id="Product-Icon"></path>
            </g>
        </g>
    </g>
</svg>