<svg width="14" height="12" viewBox="0 0 14 12" fill="none" xmlns="http://www.w3.org/2000/svg">
    <path fill-rule="evenodd" clip-rule="evenodd" d="M13.9739 0.640056C13.906 0.446622 13.7139 0.310547 13.4919 0.310547H0.508115L0.426447 0.316768L0.347378 0.335234C0.143611 0.399652 0 0.581762 0 0.792653V3.63285L0.00656748 3.71038L0.0260646 3.78545C0.0940484 3.97888 0.28605 4.11496 0.508115 4.11496H1.00749L0.998752 11.2067L1.00532 11.2842L1.02482 11.3593C1.0928 11.5527 1.2848 11.6888 1.50687 11.6888H12.4931L12.5748 11.6826L12.6539 11.6641C12.8576 11.5997 13.0012 11.4176 13.0012 11.2067V4.10622L13.4919 4.11496L13.5736 4.10874L13.6526 4.09027C13.8564 4.02585 14 3.84374 14 3.63285V0.792653L13.9934 0.715129L13.9739 0.640056ZM2.00624 10.7246L2.01498 4.10621L11.9848 4.11466L11.985 10.7333L2.00624 10.7246ZM8.49813 5.04423C8.77866 5.04423 9.00625 5.25997 9.00625 5.52634C9.00625 5.73723 8.86264 5.91934 8.65887 5.98376L8.5798 6.00222L8.49813 6.00844H5.50188C5.22136 6.00844 4.99377 5.7927 4.99377 5.52634C4.99377 5.31545 5.13738 5.13334 5.34114 5.06892L5.42021 5.05045L5.50188 5.04423H8.49813ZM1.00747 3.15074L1.01621 1.26601L12.9836 1.27446L12.9837 3.15948L1.00747 3.15074Z" fill="currentColor" fill-opacity="0.6"/>
</svg>
