<svg width="16" height="14" viewBox="0 0 16 14" fill="none" xmlns="http://www.w3.org/2000/svg">
    <path d="M13.735 7.97211C13.6091 7.94562 13.4832 8.02736 13.4562 8.1545C12.9161 10.724 10.6154 12.5894 7.98537 12.5894C5.68407 12.5894 3.6246 11.174 2.78633 9.04824L3.82049 8.60467C3.8976 8.57168 3.95166 8.49999 3.96112 8.41648C3.97116 8.33297 3.93581 8.25113 3.86874 8.20061L1.69577 6.57587C1.6287 6.52584 1.53928 6.51531 1.46227 6.5482C1.38516 6.58168 1.33109 6.65348 1.32164 6.7364L1.00169 9.43071C0.99164 9.51422 1.02699 9.59606 1.09465 9.64658C1.13582 9.6778 1.18526 9.69366 1.23528 9.69366C1.2665 9.69366 1.29821 9.68716 1.32825 9.67426L2.35472 9.23425C3.26656 11.5326 5.49552 13.0615 7.98613 13.0615C10.8375 13.0615 13.3317 11.0391 13.9176 8.25202C13.9439 8.12419 13.8626 7.9995 13.735 7.97243L13.735 7.97211ZM1.74029 7.19619L3.26035 8.33266L1.51674 9.08032L1.74029 7.19619Z" fill="white" fill-opacity="0.6" stroke="currentColor" stroke-opacity="0.6" stroke-width="0.3"/>
    <path d="M7.96339 4.24609C7.8334 4.24609 7.72812 4.35137 7.72812 4.48136V4.79671C7.46577 4.8426 7.224 4.95792 7.03224 5.13617C6.77864 5.37204 6.64049 5.6856 6.64462 6.01856C6.64817 6.35095 6.79225 6.66155 7.05115 6.8915C7.30357 7.11624 7.63534 7.23856 7.98712 7.23442C8.21598 7.23265 8.43943 7.31094 8.60479 7.45797C8.76364 7.5992 8.85188 7.7868 8.85365 7.98504C8.85601 8.16979 8.78127 8.34972 8.64418 8.48977C8.48297 8.65512 8.24948 8.75093 8.00357 8.7533C8.00002 8.7533 7.99648 8.75389 7.99293 8.75389C7.52405 8.75389 7.14057 8.41856 7.13585 8.00328C7.13467 7.87328 7.00172 7.77096 6.89822 7.77037C6.76822 7.77214 6.66413 7.8786 6.66531 8.00801C6.67181 8.598 7.12768 9.08745 7.72773 9.20042V9.51694C7.72773 9.64694 7.83301 9.75221 7.963 9.75221C8.093 9.75221 8.19827 9.64635 8.19827 9.51694V9.20455C8.49707 9.16102 8.77538 9.02926 8.98012 8.8192C9.20544 8.58856 9.32776 8.29095 9.3242 7.97974C9.32066 7.64678 9.17599 7.33676 8.91767 7.10623C8.66576 6.88149 8.34687 6.76272 7.98221 6.76391C7.74635 6.7645 7.52929 6.6868 7.36454 6.54036C7.20569 6.39913 7.11745 6.21211 7.11568 6.01329C7.1139 5.81446 7.19801 5.62567 7.35331 5.48091C7.51453 5.33092 7.73277 5.24682 7.96625 5.24387H7.97688C8.44515 5.24387 8.82864 5.5786 8.83338 5.99448C8.83515 6.12388 8.94043 6.22739 9.06865 6.22739H9.07161C9.2016 6.2262 9.3051 6.11916 9.30451 5.98975C9.29742 5.38733 8.81151 4.885 8.19916 4.79083L8.19925 4.48142C8.19866 4.35201 8.09339 4.24615 7.96339 4.24615V4.24609Z" fill="currentColor" fill-opacity="0.6" stroke="currentColor" stroke-opacity="0.6" stroke-width="0.3"/>
    <path d="M14.9055 4.32044C14.8384 4.27042 14.7484 4.26047 14.6726 4.29277L13.6096 4.74864C12.6937 2.46093 10.467 0.938477 7.98474 0.938477C5.11747 0.938477 2.62031 2.97387 2.04676 5.77877C2.02086 5.90581 2.10319 6.03058 2.23032 6.05639C2.24618 6.05935 2.26213 6.06112 2.27799 6.06112C2.3874 6.06112 2.48568 5.9846 2.50863 5.87292C3.03748 3.28701 5.3406 1.40929 7.98525 1.40929C10.2783 1.40929 12.3354 2.81816 13.1777 4.93481L12.1794 5.3631C12.1018 5.39658 12.0482 5.46838 12.0382 5.5513C12.0282 5.63481 12.0641 5.71714 12.1312 5.76776L14.3041 7.39191C14.3453 7.42313 14.3947 7.43899 14.4448 7.43899C14.4766 7.43899 14.5077 7.43249 14.5377 7.41959C14.6148 7.38659 14.6683 7.3149 14.6784 7.23139L14.9983 4.53833C15.0082 4.45305 14.9729 4.37072 14.9053 4.32069L14.9055 4.32044ZM14.2596 6.76996L12.7395 5.63349L14.4837 4.88583L14.2596 6.76996Z" fill="currentColor" fill-opacity="0.6" stroke="white" stroke-opacity="0.6" stroke-width="0.3"/>
</svg>
