<?xml version="1.0" encoding="UTF-8"?>
<svg width="27px" height="27px" viewBox="0 0 27 27" version="1.1" xmlns="http://www.w3.org/2000/svg" xmlns:xlink="http://www.w3.org/1999/xlink">
    <title>Blog icon</title>
    <g id="Page-1" stroke="none" stroke-width="1" fill="none" fill-rule="evenodd">
        <g id="Create" transform="translate(-62.000000, -498.000000)" fill="#2166E3" fill-rule="nonzero">
            <g id="Blogs" transform="translate(32.000000, 486.000000)">
                <g id="Blog-icon" transform="translate(30.000000, 12.000000)">
                    <path d="M26.7306939,10.8351962 C26.0187005,7.30010452 23.9737958,4.25432639 20.9716737,2.25899842 C18.1034492,0.35257904 14.6559159,-0.381892336 11.2578492,0.188314369 C11.2353308,0.19168931 11.2128651,0.19506425 11.1903467,0.19843919 C3.85661915,1.47279554 -1.07227819,8.4754802 0.202095673,15.806536 C0.303349462,16.3936701 0.446159494,16.9796441 0.622773525,17.5419936 C1.36625057,19.9568161 1.18293902,22.5448679 0.107592136,24.8303353 C-0.0802547372,25.226258 -0.0183950004,25.6963766 0.26395541,26.0327105 C0.54630582,26.3689916 0.993931946,26.5073642 1.42136005,26.3937764 L6.46274402,25.0170644 C8.59761688,26.32401 11.0080899,27 13.4691898,27 C14.3633873,27 15.2643879,26.9111442 16.1619605,26.7300575 C19.6972471,26.0181033 22.7431931,23.9733114 24.7386311,20.9713547 C26.734069,17.9693981 27.4415799,14.3702352 26.7306939,10.8351962 Z M22.8647504,19.7251581 C21.2011823,22.227729 18.6624545,23.9328121 15.7177095,24.5255887 C12.7752322,25.1149377 9.77311009,24.5278563 7.2704012,22.8643271 C7.08366179,22.7406144 6.86659898,22.6764906 6.64726851,22.6764906 C6.54828238,22.6764906 6.44818879,22.6899903 6.35147033,22.7158825 L2.91743752,23.6527975 C3.49785377,21.4404187 3.45508459,19.0975774 2.77119963,16.8716988 C2.62158661,16.3970451 2.50234972,15.9111591 2.4180243,15.4218983 C1.35955305,9.32802175 5.4414519,3.50857006 11.523324,2.42431776 C11.5435748,2.42205023 11.5638255,2.41867529 11.5840763,2.41530035 C14.4309426,1.92377194 17.3217383,2.53453066 19.7265685,4.13166841 C22.2292774,5.79514482 23.933347,8.33373271 24.5261036,11.2783154 C25.1188601,14.2240581 24.5283185,17.2237472 22.8647504,19.7251581 Z" id="Shape"></path>
                    <path d="M17.8999948,10 L9.10000516,10 C8.49169906,10 8,10.446997 8,11 C8,11.553003 8.49169906,12 9.10000516,12 L17.8999948,12 C18.5072179,12 19,11.553003 19,11 C19,10.446997 18.5083009,10 17.8999948,10 Z" id="Path"></path>
                    <path d="M17.8999948,15 L9.10000516,15 C8.49169906,15 8,15.446997 8,16 C8,16.553003 8.49169906,17 9.10000516,17 L17.8999948,17 C18.5072179,17 19,16.553003 19,16 C19,15.446997 18.5083009,15 17.8999948,15 Z" id="Path"></path>
                </g>
            </g>
        </g>
    </g>
</svg>