<?xml version="1.0" encoding="UTF-8"?>
<svg width="32px" height="29px" viewBox="0 0 32 29" version="1.1" xmlns="http://www.w3.org/2000/svg" xmlns:xlink="http://www.w3.org/1999/xlink">
    <title>channles-icon</title>
    <g id="Page-1" stroke="none" stroke-width="1" fill="none" fill-rule="evenodd">
        <g id="Create" transform="translate(-54.000000, -194.000000)" fill="currentColor" fill-rule="nonzero" stroke="#000000" stroke-width="0.2">
            <g id="Channels" transform="translate(30.000000, 184.000000)">
                <path d="M32.2222808,11 C31.8739518,10.9959899 31.5238217,11.1093586 31.2542399,11.3418045 C30.7038805,11.8164063 30.7027699,12.6002839 31.2516632,13.0762974 L33.3075883,14.9018284 L35.095872,16.4897084 L36.1451389,17.4213908 L31.3209048,17.4213908 C29.3273209,17.4213908 27.6915895,18.6144939 26.6404777,20.1963405 C25.5893684,21.7781872 25,23.8328717 25,26.0914825 L25,29.3310905 C25,31.5897014 25.5893684,33.6432036 26.6404777,35.2250526 C27.6915895,36.806897 29.3273209,38 31.3209048,38 L48.6737662,38 C50.6673504,38 52.3084104,36.806897 53.3595197,35.2250526 C54.4106316,33.6432036 55,31.5897014 55,29.3310905 L55,26.0914825 C55,23.8328717 54.4106316,21.7781872 53.3595197,20.1963405 C52.3084104,18.6144939 50.6673504,17.4213908 48.6737662,17.4213908 L43.8548582,17.4213908 L44.9041251,16.4897084 L46.6924088,14.9018284 L48.7483339,13.0762974 C49.2971396,12.6002839 49.2960291,11.8164063 48.7457572,11.3418045 C48.4761728,11.1093563 48.1260427,10.9960242 47.7777137,11 C47.4293847,11.0042266 47.0829032,11.1255803 46.8203224,11.36427 L44.7643972,13.1898011 L42.9761162,14.7776811 L40.0000849,17.4213908 L37.024051,14.7776811 L35.2357699,13.1898011 L33.1798448,11.36427 C32.9172665,11.1255826 32.5707824,11.0041923 32.2224535,11 L32.2222808,11 Z M30.6593963,20 L48.3351756,20 C49.1024751,20 49.9591076,20.4788036 50.7141916,21.6126179 C51.4692782,22.7464323 52,24.448485 52,26.3543375 L52,29.646864 C52,31.5527165 51.4692782,33.2547723 50.7141916,34.3885843 C49.9591076,35.5223986 49.1024751,36 48.3351756,36 L30.6593963,36 C29.8920971,36 29.0354672,35.5223986 28.2803806,34.3885843 C27.525294,33.2547723 27,31.5527165 27,29.646864 L27,26.3543375 C27,24.448485 27.525294,22.7464323 28.2803806,21.6126179 C29.0354672,20.4788036 29.8920971,20 30.6593963,20 Z M37.1714622,25.0001314 C36.145039,25.0002653 35.1178827,25.3819859 34.3426965,26.1454915 L33.4015094,27.073056 C32.8759127,27.5783426 32.8649496,28.4068233 33.3768223,28.9256191 C33.8991291,29.4549068 34.7623779,29.4555192 35.2865312,28.9280983 L35.2865312,28.9268165 L36.2277182,28.0005338 C36.7594691,27.4767944 37.5819765,27.4770473 38.1139945,28.0005338 L39.0564839,28.9280983 L39.9989708,29.8556603 C41.550104,31.3819253 44.1061247,31.3813948 45.6564996,29.8543785 L46.5976867,28.9280983 L46.5989891,28.9280983 C47.1355414,28.4123122 47.1331331,27.5628997 46.5949585,27.0486284 C46.0678126,26.5449087 45.2260038,26.5556982 44.7125869,27.0729246 L43.7700975,27.9992049 C43.2383441,28.5229467 42.4158391,28.5239756 41.8838212,28.0004867 L40.9413318,27.0729246 L39.9988449,26.1440809 C39.2232783,25.3809471 38.1978048,24.9998686 37.1713816,25 L37.1714622,25.0001314 Z" id="channles-icon"></path>
            </g>
        </g>
    </g>
</svg>