<?xml version="1.0" encoding="UTF-8"?>
<svg width="29px" height="29px" viewBox="0 0 29 29" version="1.1" xmlns="http://www.w3.org/2000/svg" xmlns:xlink="http://www.w3.org/1999/xlink">
    <title>Communities Icon</title>
    <g id="Page-1" stroke="none" stroke-width="1" fill="none" fill-rule="evenodd">
        <g id="Create" transform="translate(-62.000000, -649.000000)" fill="currentColor" fill-rule="nonzero" stroke="currentColor" stroke-width="0.1">
            <g id="Communiies" transform="translate(32.000000, 639.000000)">
                <path d="M35,14.5 C35,12.5670025 36.5670025,11 38.5,11 C40.4329975,11 42,12.5670025 42,14.5 C42,15.62833 41.466075,16.631955 40.6371,17.272 C40.6121625,17.2903925 40.5873825,17.3090125 40.5627775,17.327825 C39.9843325,17.7505025 39.271295,18 38.5,18 C36.5670025,18 35,16.4329975 35,14.5 Z M39,13 C37.89544,13 37,13.89544 37,15 C37,16.10456 37.89544,17 39,17 C40.10456,17 41,16.10456 41,15 C41,13.89544 40.10456,13 39,13 Z M48.3629,17.272 C47.533925,16.631955 47,15.62833 47,14.5 C47,12.5670025 48.5670025,11 50.5,11 C52.43305,11 54,12.5670025 54,14.5 C54,16.4329975 52.43305,18 50.5,18 C49.728775,18 49.01565,17.75052 48.4372225,17.3278425 C48.4126175,17.3090125 48.3878375,17.2903925 48.3629,17.272 Z M50,13 C48.8954,13 48,13.89544 48,15 C48,16.10456 48.8954,17 50,17 C51.1046,17 52,16.10456 52,15 C52,13.89544 51.1046,13 50,13 Z M34.2368158,21 L40,21 C39.7614219,21.6043928 39.6316239,22.254775 39.6316239,22.9323257 L34.2368158,22.9323257 C33.6409964,22.9323257 33.157906,23.3649154 33.157906,23.8984885 C33.157906,25.4770246 33.8582112,26.6476662 34.966447,27.4442095 C35.4760149,27.8104625 36.0862707,28.1070551 36.7761101,28.3226447 C36.2750443,28.8007987 35.8814207,29.3702551 35.6297225,30 C34.8961208,29.7327594 34.2173946,29.3835881 33.6157057,28.9511336 C31.9904141,27.7829848 31,26.0551185 31,23.8984885 C31,22.2977692 32.4491633,21 34.2368158,21 Z M41.46823,20.75 C41.1704325,21.2647975 41,21.8624925 41,22.5 C41,23.976195 41.913885,25.2389425 43.2067675,25.75332 C43.606835,25.9124825 44.0431975,26 44.5,26 C44.9568025,26 45.3931825,25.9124825 45.79325,25.75332 C47.086115,25.238925 48,23.976195 48,22.5 C48,21.8624925 47.8295675,21.2647975 47.53177,20.75 C46.9266025,19.70385 45.79549,19 44.5,19 C43.20451,19 42.0733975,19.70385 41.46823,20.75 Z M44.55126,21.05054 C44.69552,21.01746 44.84572,21 45,21 C45.15428,21 45.30448,21.01746 45.44874,21.05054 C46.33724,21.25422 47,22.04972 47,23 C47,23.15428 46.98254,23.30448 46.94946,23.44874 C46.74578,24.33724 45.95028,25 45,25 C44.04972,25 43.25422,24.33724 43.05054,23.44874 C43.01748,23.3045 43,23.15428 43,23 C43,22.04972 43.66276,21.25422 44.55126,21.05054 Z M54.0335435,27.4442095 C53.5240607,27.8104625 52.9138034,28.1070551 52.2239192,28.3226447 C52.7249862,28.8007987 53.1185892,29.3702551 53.3702016,30 C54.1038914,29.7327594 54.7825545,29.3835881 55.3843959,28.9511336 C57.0095188,27.7829848 58,26.0551185 58,23.8984885 C58,22.2976919 56.5507469,21 54.7631333,21 L49,21 C49.2384492,21.6043928 49.3683554,22.254775 49.3683554,22.9323257 L54.7631333,22.9323257 C55.3589326,22.9323257 55.8420889,23.3648961 55.8420889,23.8984885 C55.8420889,25.4770246 55.1418467,26.6476662 54.0335435,27.4442095 Z M50,28 C51.2518,28 52.3244,28.7666 52.7742,29.856 C52.9196,30.2086 53,30.595 53,31 C53,33.2322 52.082,35.0206 50.5758,36.2296 C49.0932,37.4196 47.10616,38 45,38 C42.89384,38 40.90684,37.4196 39.4243,36.2296 C37.91794,35.0206 37,33.2322 37,31 C37,30.595 37.0803,30.2086 37.22584,29.856 C37.67556,28.7666 38.74824,28 39.99996,28 L50,28 Z M50.0833333,31 L40.91663,31 C40.4104283,31 40,31.4478 40,32 C40,33.6338 40.5949717,34.8454 41.5365167,35.6698 C42.4998967,36.5134 43.8868133,37 45.5,37 C47.1131867,37 48.5001033,36.5134 49.4634833,35.6698 C50.4050833,34.8454 51,33.6338 51,32 C51,31.4478 50.5895167,31 50.0833333,31 Z" id="Communities-Icon"></path>
            </g>
        </g>
    </g>
</svg>