<?xml version="1.0" encoding="UTF-8"?>
<svg width="32px" height="29px" viewBox="0 0 32 29" version="1.1" xmlns="http://www.w3.org/2000/svg" xmlns:xlink="http://www.w3.org/1999/xlink">
    <title>Group 4</title>
    <g id="Page-1" stroke="none" stroke-width="1" fill="none" fill-rule="evenodd">
        <g id="Create" transform="translate(-56.000000, -270.000000)">
            <g id="Events-Tab" transform="translate(30.000000, 260.000000)">
                <g id="Group-4" transform="translate(27.000000, 11.000000)">
                    <path d="M15.5890803,0.661994841 L19.1250279,7.64503307 C19.2983872,7.9960074 19.6395981,8.24135573 20.0366394,8.30052899 L27.9510845,9.42423629 C28.2722546,9.46727037 28.562361,9.63279885 28.7568983,9.88401647 C28.9514358,10.1352341 29.0342786,10.4513166 28.9870066,10.7619831 C28.9472407,11.017356 28.8209029,11.2526649 28.6278869,11.4308565 L22.8957845,16.8888633 C22.6060746,17.1578486 22.476191,17.5503281 22.5504771,17.9323059 L23.9317066,25.6243499 C24.031655,26.2581533 23.5895382,26.8528731 22.9372214,26.9620967 C22.6682452,27.002904 22.3928296,26.9607864 22.1499205,26.8416995 L15.0918377,23.2164057 C14.739261,23.0283728 14.3118062,23.0283728 13.9592295,23.2164057 L6.85970985,26.8684544 C6.26406746,27.1644782 5.53336418,26.944437 5.21604673,26.3734881 C5.09232649,26.1432785 5.04872352,25.8805122 5.09173608,25.6243499 L6.47296559,17.9323059 C6.53977267,17.5508108 6.4109928,17.1616665 6.12765821,16.8888633 L0.354118863,11.4308565 C-0.118039621,10.9672547 -0.118039621,10.2222748 0.354118863,9.75867299 C0.546816594,9.5858751 0.786383305,9.46986266 1.04473362,9.42423629 L8.95917869,8.30052899 C9.35434435,8.23704212 9.69371019,7.99302048 9.87079018,7.64503307 L13.4067377,0.661994841 C13.5464527,0.37885296 13.7983055,0.162354942 14.1051695,0.0616079713 C14.4120335,-0.039139 14.7479009,-0.0155962528 15.0365885,0.126896127 C15.2747706,0.243886035 15.4682877,0.431311086 15.5890803,0.661994841 Z" id="Path" stroke="#F1E044" stroke-width="1.26315789" stroke-linecap="round" stroke-linejoin="round"></path>
                    <g id="star" transform="translate(2.000000, 0.000000)"></g>
                </g>
            </g>
        </g>
    </g>
</svg>