<?xml version="1.0" encoding="UTF-8"?>
<svg width="31px" height="31px" viewBox="0 0 31 31" version="1.1" xmlns="http://www.w3.org/2000/svg" xmlns:xlink="http://www.w3.org/1999/xlink">
    <title>Meetings Icon</title>
    <g id="Page-1" stroke="none" stroke-width="1" fill="none" fill-rule="evenodd">
        <g id="Create" transform="translate(-59.000000, -723.000000)" fill="#609AD3" fill-rule="nonzero" stroke="#000000" stroke-width="0.3">
            <g id="Meetings" transform="translate(32.000000, 714.000000)">
                <path d="M52.65,12.9 L49.75,12.9 L49.75,11.45 C49.75,10.6491871 49.1008129,10 48.3,10 C47.4991871,10 46.85,10.6491871 46.85,11.45 L46.85,12.9 L38.15,12.9 L38.15,11.45 C38.15,10.6491871 37.5008129,10 36.7,10 C35.8991871,10 35.25,10.6491871 35.25,11.45 L35.25,12.9 L32.35,12.9 C29.9475613,12.9 28,14.8475613 28,17.25 L28,34.65 C28,37.0524387 29.9475613,39 32.35,39 L52.65,39 C55.0524387,39 57,37.0524387 57,34.65 L57,17.25 C57,14.8475613 55.0524387,12.9 52.65,12.9 Z M54,34.625 C54,35.3843915 53.3564093,36 52.5625,36 L32.4375,36 C31.6435907,36 31,35.3843915 31,34.625 L31,25 L54,25 L54,34.625 Z M54,21 L31,21 L31,16.5 C31,15.6715729 31.6435907,15 32.4375,15 L35.3125,15 L35.3125,16.5 C35.3125,17.3284271 35.9560907,18 36.75,18 C37.5439093,18 38.1875,17.3284271 38.1875,16.5 L38.1875,15 L46.8125,15 L46.8125,16.5 C46.8125,17.3284271 47.4560907,18 48.25,18 C49.0439093,18 49.6875,17.3284271 49.6875,16.5 L49.6875,15 L52.5625,15 C53.3564093,15 54,15.6715729 54,16.5 L54,21 Z" id="Meetings-Icon"></path>
            </g>
        </g>
    </g>
</svg>