<svg width="11" height="11" viewBox="0 0 11 11" fill="none" xmlns="http://www.w3.org/2000/svg">
    <path d="M2.75031 2.1217V7.69765C2.37898 7.48907 1.94345 7.41353 1.52019 7.48428C0.747774 7.61 0.12752 8.22472 0.0190518 8.97373C-0.0196835 9.23128 0.000806687 9.49391 0.0790652 9.74295C0.157324 9.99199 0.291428 10.2213 0.471843 10.4146C0.652257 10.6079 0.874551 10.7605 1.12292 10.8614C1.37128 10.9623 1.63962 11.0091 1.90884 10.9985C2.904 10.9602 3.66694 10.1211 3.66694 9.15907V3.92516L10.0834 2.88517V7.69735C9.71204 7.48878 9.27651 7.41323 8.85325 7.48398C8.08083 7.6097 7.46058 8.22443 7.35211 8.97344C7.31337 9.23099 7.33386 9.49362 7.41212 9.74265C7.49038 9.99169 7.62449 10.221 7.8049 10.4143C7.98532 10.6076 8.20761 10.7602 8.45597 10.8611C8.70434 10.962 8.97267 11.0088 9.2419 10.9982C10.2371 10.9602 11 10.1211 11 9.15907V1.17998C11 1.00846 10.9612 0.839 10.8865 0.683412C10.8117 0.527823 10.7028 0.389842 10.5672 0.279077C10.4316 0.168311 10.2726 0.0874241 10.1014 0.0420475C9.93012 -0.00332917 9.75068 -0.0121045 9.57555 0.0163326L3.77022 0.957167C3.4851 1.00344 3.22618 1.14582 3.03946 1.35902C2.85274 1.57223 2.75029 1.84245 2.75031 2.1217ZM1.83368 10.1147C1.32831 10.1147 0.917046 9.71743 0.917046 9.2293C0.917046 8.74118 1.32831 8.34395 1.83368 8.34395C2.33905 8.34395 2.75031 8.74118 2.75031 9.2293C2.75031 9.71743 2.33905 10.1147 1.83368 10.1147ZM9.16674 10.1147C8.66137 10.1147 8.2501 9.71743 8.2501 9.2293C8.2501 8.74118 8.66137 8.34395 9.16674 8.34395C9.67211 8.34395 10.0834 8.74118 10.0834 9.2293C10.0834 9.71743 9.67211 10.1147 9.16674 10.1147ZM10.0834 1.99982L3.66694 3.03981V2.10901C3.66696 2.0392 3.69261 1.97165 3.73932 1.91837C3.78603 1.8651 3.85078 1.82954 3.92207 1.81802L9.72741 0.87719C9.77118 0.870116 9.81603 0.872339 9.85882 0.883704C9.90162 0.895068 9.94134 0.915301 9.97521 0.942995C10.0091 0.97069 10.0363 1.00518 10.055 1.04407C10.0737 1.08296 10.0834 1.12531 10.0834 1.16818V1.99982Z" fill="currentColor" fill-opacity="0.6"/>
</svg>

