<svg width="9" height="14" viewBox="0 0 9 14" fill="none" xmlns="http://www.w3.org/2000/svg">
    <path d="M4.34351 9.68991C5.81372 9.68991 7.01662 8.48703 7.01662 7.0168V2.6731C7.01662 1.2029 5.81375 0 4.34351 0C2.87328 0 1.67041 1.20287 1.67041 2.6731V7.0168C1.67041 8.487 2.87328 9.68991 4.34351 9.68991ZM2.67286 2.67316C2.67286 1.75427 3.42462 1.00251 4.34351 1.00251C5.2624 1.00251 6.01417 1.75427 6.01417 2.67316V7.01686C6.01417 7.93575 5.2624 8.68751 4.34351 8.68751C3.42462 8.68751 2.67286 7.93575 2.67286 7.01686V2.67316Z" fill="currentColor" fill-opacity="0.6"/>
    <path d="M3.84256 11.4939V12.9974H2.92367C2.63968 12.9974 2.42245 13.2147 2.42245 13.4987C2.42245 13.7827 2.63967 13.9999 2.92367 13.9999H5.78055C6.06454 13.9999 6.28177 13.7827 6.28177 13.4987C6.28177 13.2147 6.06455 12.9974 5.78055 12.9974H4.84501V11.4939C7.00009 11.2767 8.68751 9.63948 8.68751 7.68482C8.68751 7.40082 8.47029 7.18359 8.18629 7.18359C7.90228 7.18359 7.68506 7.40081 7.68506 7.68482C7.68506 9.25526 6.18153 10.5249 4.34376 10.5249C2.50598 10.5249 1.00245 9.25523 1.00245 7.68482C1.00245 7.40082 0.785231 7.18359 0.501226 7.18359C0.217221 7.18359 0 7.40081 0 7.68482C0 9.63948 1.68742 11.2767 3.8425 11.4939H3.84256Z" fill="currentColor" fill-opacity="0.6"/>
</svg>
