<svg width="16" height="12" viewBox="0 0 16 12" fill="none" xmlns="http://www.w3.org/2000/svg">
    <path d="M3.11968 0.316406H12.8803C13.4636 0.316406 13.9934 0.554852 14.3776 0.938803C14.7614 1.32265 15 1.8528 15 2.43609V9.56458C15 10.1479 14.7616 10.6776 14.3776 11.0619C13.9938 11.4457 13.4636 11.6843 12.8803 11.6843H3.11968C2.53637 11.6843 2.00662 11.4458 1.6224 11.0619C1.23855 10.678 1 10.1479 1 9.56458V2.43609C1 1.85278 1.23845 1.32303 1.6224 0.938803C2.00624 0.554959 2.5364 0.316406 3.11968 0.316406ZM6.83149 3.31057L10.3781 5.72964C10.5274 5.83176 10.566 6.03549 10.4639 6.18469C10.4391 6.22119 10.4081 6.2512 10.3729 6.27394L6.8138 8.70159C6.6645 8.80371 6.46077 8.76512 6.35875 8.61583C6.32015 8.55918 6.3017 8.49486 6.3017 8.43143H6.30081V3.56924C6.30081 3.38823 6.4479 3.24113 6.62892 3.24113C6.70531 3.24113 6.77522 3.26725 6.83136 3.31103L6.83149 3.31057ZM9.61197 5.9999L6.9571 4.18906V7.81074L9.61197 5.9999ZM12.8803 0.972272H3.11968C2.71779 0.972272 2.35189 1.13702 2.0864 1.40199C1.82094 1.66745 1.65617 2.03335 1.65617 2.43527V9.56376C1.65617 9.96566 1.82092 10.3316 2.0864 10.597C2.35187 10.8625 2.71738 11.0268 3.11968 11.0268H12.8803C13.2822 11.0268 13.6481 10.862 13.9136 10.597C14.1791 10.3316 14.3438 9.96568 14.3438 9.56376V2.43527C14.3438 2.03338 14.1791 1.66748 13.9136 1.40199C13.6481 1.13653 13.2826 0.972272 12.8803 0.972272Z" fill="white" fill-opacity="0.6"/>
    <path d="M6.88187 3.22389L6.88784 3.22795L10.4345 5.64703L10.4346 5.6471C10.6292 5.78026 10.6799 6.04614 10.5464 6.24111M6.88187 3.22389L6.35875 8.61583C6.46077 8.76512 6.6645 8.80371 6.8138 8.70159L6.87014 8.7842L6.87025 8.78413L10.4283 6.35721C10.4744 6.32726 10.5145 6.28807 10.5464 6.24111M6.88187 3.22389C6.87429 3.21835 6.86652 3.21304 6.85857 3.20799L6.7718 3.14881L6.76762 3.16418C6.72417 3.14926 6.67754 3.14113 6.62892 3.14113C6.39267 3.14113 6.20081 3.33301 6.20081 3.56924V8.43143V8.53143H6.21359L6.88187 3.22389ZM10.5464 6.24111C10.5465 6.24105 10.5465 6.24099 10.5466 6.24094L10.4639 6.18469L10.5464 6.24117C10.5464 6.24115 10.5464 6.24113 10.5464 6.24111ZM14.4483 0.868092L14.4483 0.868067C14.0462 0.466314 13.4914 0.216406 12.8803 0.216406H3.11968C2.50861 0.216406 1.95337 0.46641 1.55169 0.868092L1.55166 0.868117C1.14991 1.27016 0.9 1.82497 0.9 2.43609V9.56458C0.9 10.1757 1.15 10.7309 1.55169 11.1326L1.55171 11.1326C1.95375 11.5344 2.50857 11.7843 3.11968 11.7843H12.8803C13.4914 11.7843 14.0466 11.5343 14.4483 11.1326L14.4483 11.1326C14.8501 10.7305 15.1 10.1757 15.1 9.56458V2.43609C15.1 1.82501 14.85 1.26977 14.4483 0.868092ZM7.0571 7.62149V4.37831L9.4345 5.9999L7.0571 7.62149ZM3.11968 1.07227H12.8803C13.2548 1.07227 13.5953 1.22508 13.8429 1.4727C14.0906 1.7204 14.2438 2.06124 14.2438 2.43527V9.56376C14.2438 9.93782 14.0906 10.2787 13.8429 10.5263C13.5952 10.7735 13.2543 10.9268 12.8803 10.9268H3.11968C2.74517 10.9268 2.40474 10.774 2.15712 10.5263C1.90942 10.2786 1.75617 9.9378 1.75617 9.56376V2.43527C1.75617 2.06125 1.90941 1.72044 2.15705 1.47277C2.40477 1.22553 2.74564 1.07227 3.11968 1.07227Z" stroke="white" stroke-opacity="0.6" stroke-width="0.2"/>
</svg>
