<svg width="14" height="12" viewBox="0 0 14 12" fill="none" xmlns="http://www.w3.org/2000/svg">
<path d="M12.4112 0.182617C12.0012 0.185834 11.591 0.343583 11.2805 0.653098L7.39275 4.52642C7.33048 4.58869 7.28533 4.6659 7.26166 4.7508L6.67535 6.85712C6.64295 6.9735 6.65295 7.09759 6.70339 7.2073C6.75382 7.31714 6.8416 7.40538 6.95098 7.45662C7.06047 7.50774 7.18444 7.51843 7.30105 7.48683L9.41701 6.89973C9.5018 6.87629 9.57912 6.83149 9.64139 6.76944L13.5268 2.897C14.1479 2.2782 14.1623 1.2592 13.5421 0.641101C13.2318 0.332035 12.8213 0.179238 12.4113 0.182679L12.4112 0.182617ZM12.4161 1.19676C12.5631 1.19549 12.7089 1.25271 12.8214 1.36484C13.0464 1.589 13.046 1.93412 12.8061 2.1731L12.6895 2.28891L11.8885 1.48868L12.0003 1.37689C12.1202 1.25741 12.269 1.19789 12.4161 1.19674L12.4161 1.19676ZM1.13641 1.46216C0.513806 1.46216 0 1.97596 0 2.59856V10.937V10.9395C0.000344684 11.3138 0.242423 11.6268 0.543659 11.7518C0.844901 11.8768 1.23553 11.826 1.5015 11.5628L3.3159 10.0645H11.1067C11.7287 10.0645 12.2471 9.55311 12.2471 8.9305V5.96985C12.2466 5.8607 12.2028 5.75615 12.1253 5.67917C12.0478 5.60231 11.9429 5.55934 11.8337 5.5598C11.6072 5.56014 11.4236 5.7434 11.4227 5.96984V8.9302C11.4227 9.10966 11.2885 9.24065 11.1066 9.24065H3.17028C3.07378 9.24007 2.98014 9.27339 2.90569 9.33474L0.95138 10.9521C0.941844 10.9608 0.932768 10.9699 0.924036 10.9794C0.893473 11.0096 0.884858 11.0019 0.859696 10.9916C0.834534 10.9811 0.823504 10.9792 0.823504 10.9369V2.59848C0.823504 2.41902 0.954942 2.28563 1.13636 2.28563H8.35594C8.58216 2.28471 8.7653 2.10157 8.76609 1.87535C8.76655 1.7662 8.72358 1.66131 8.6466 1.58375C8.56974 1.5062 8.46519 1.46243 8.35593 1.46197L1.13641 1.46216ZM11.3046 2.07017L12.1056 2.87119L9.01876 5.94832L7.90006 6.26197L8.20968 5.15533L11.3046 2.07017ZM2.27937 4.1218C2.17023 4.12226 2.06556 4.16604 1.9887 4.24359C1.91172 4.32103 1.86875 4.42592 1.86921 4.53519C1.87013 4.7613 2.05327 4.94443 2.27937 4.94534H5.99415C6.10342 4.9458 6.20831 4.90283 6.28575 4.82586C6.3633 4.74899 6.40708 4.64444 6.40754 4.53518C6.408 4.42546 6.36457 4.31999 6.2869 4.24243C6.20935 4.16477 6.10387 4.12134 5.99415 4.1218L2.27937 4.1218ZM2.37106 6.58118C2.26134 6.58072 2.15587 6.62415 2.07831 6.70182C2.00065 6.77937 1.95722 6.88485 1.95768 6.99457C1.95814 7.10383 2.00191 7.20838 2.07946 7.28524C2.1569 7.36222 2.26179 7.40519 2.37106 7.40473H5.34671C5.45597 7.40519 5.56087 7.36222 5.63831 7.28524C5.71586 7.20838 5.75964 7.10383 5.7601 6.99457C5.76055 6.88484 5.71713 6.77937 5.63946 6.70182C5.56191 6.62415 5.45643 6.58072 5.34671 6.58118H2.37106Z" fill="currentColor" fill-opacity="0.6"/>
</svg>
