<?xml version="1.0" encoding="UTF-8"?>
<svg width="19px" height="18px" viewBox="0 0 19 18" version="1.1" xmlns="http://www.w3.org/2000/svg" xmlns:xlink="http://www.w3.org/1999/xlink">
    <title>Blog icon</title>
    <g id="Page-1" stroke="none" stroke-width="1" fill="none" fill-rule="evenodd">
        <g id="Blogs" transform="translate(-42.000000, -543.000000)" fill="#9DAAD8" fill-rule="nonzero">
            <g id="Left-Menu-Buttons" transform="translate(29.000000, 116.000000)">
                <g id="Blogs-Button" transform="translate(0.000000, 413.000000)">
                    <g id="Blog-icon" transform="translate(13.989587, 14.268293)">
                        <path d="M17.0462163,7.04728211 C16.5921767,4.74803546 15.2881369,2.76704156 13.3736777,1.46926727 C11.5446053,0.229319701 9.34610649,-0.248385259 7.1791527,0.122480891 C7.16479266,0.124675974 7.15046625,0.126871057 7.1361062,0.12906614 C2.45937365,0.9579158 -0.683793919,5.51250745 0.12887681,10.2806738 C0.193446551,10.6625497 0.28451679,11.043671 0.397143907,11.4094267 C0.871260684,12.980043 0.754362548,14.6633287 0.0686117177,16.1498116 C-0.0511786044,16.4073222 -0.0117305281,16.7130905 0.168324886,16.9318442 C0.3483803,17.1505637 0.633832365,17.2405621 0.906404111,17.1666838 L4.12130463,16.2712614 C5.48271727,17.1213073 7.01988067,17.5609756 8.58932894,17.5609756 C9.15956047,17.5609756 9.73413028,17.5031832 10.3065141,17.3854033 C12.5609734,16.9223436 14.5033792,15.5923976 15.7758739,13.6399055 C17.0483686,11.6874134 17.4995497,9.34649447 17.0462163,7.04728211 Z M14.5808965,12.8293711 C13.5200358,14.4570595 11.9010841,15.5660566 10.0232144,15.9516024 C8.14679081,16.3349188 6.23233161,15.9530772 4.6363492,14.8711071 C4.51726511,14.7906435 4.37884373,14.748937 4.23897625,14.748937 C4.17585261,14.748937 4.11202273,14.7577173 4.05034517,14.7745577 L1.86045567,15.3839333 C2.23058826,13.9449878 2.20331427,12.4211885 1.76719947,10.9734626 C1.67179096,10.6647448 1.59575336,10.3487214 1.54197887,10.0305029 C0.866989665,6.06700602 3.47002462,2.28199679 7.34844649,1.57679204 C7.36136044,1.57531722 7.37427439,1.57312214 7.38718833,1.57092705 C9.2026406,1.25123378 11.0461067,1.64847522 12.5796717,2.687264 C14.1756541,3.76919989 15.2623427,5.42031396 15.6403447,7.33548966 C16.0183467,9.25141993 15.6417572,11.2024372 14.5808965,12.8293711 Z" id="Shape"></path>
                        <path d="M11.4764371,6.58494273 L5.73810404,6.58494273 C5.34143733,6.58494273 5.02080821,6.91194152 5.02080821,7.31648848 C5.02080821,7.72103543 5.34143733,8.04803422 5.73810404,8.04803422 L11.4764371,8.04803422 C11.8723976,8.04803422 12.193733,7.72103543 12.193733,7.31648848 C12.193733,6.91194152 11.8731039,6.58494273 11.4764371,6.58494273 Z" id="Path"></path>
                        <path d="M11.4764371,9.5110914 L5.73810404,9.5110914 C5.34143733,9.5110914 5.02080821,9.83809019 5.02080821,10.2426371 C5.02080821,10.6471841 5.34143733,10.9741829 5.73810404,10.9741829 L11.4764371,10.9741829 C11.8723976,10.9741829 12.193733,10.6471841 12.193733,10.2426371 C12.193733,9.83809019 11.8731039,9.5110914 11.4764371,9.5110914 Z" id="Path"></path>
                    </g>
                </g>
            </g>
        </g>
    </g>
</svg>