<?xml version="1.0" encoding="UTF-8"?>
<svg width="19px" height="18px" viewBox="0 0 19 18" version="1.1" xmlns="http://www.w3.org/2000/svg" xmlns:xlink="http://www.w3.org/1999/xlink">
    <title>Communities Icon</title>
    <g id="Page-1" stroke="none" stroke-width="1" fill="none" fill-rule="evenodd">
        <g id="Blogs" transform="translate(-42.000000, -687.000000)" fill="#9DAAD8" fill-rule="nonzero" stroke="#E6E7E8" stroke-width="0.1">
            <g id="Left-Menu-Buttons" transform="translate(29.000000, 116.000000)">
                <g id="Communities-Button" transform="translate(0.000000, 556.000000)">
                    <path d="M16.4048846,17.6091518 C16.4048846,16.2501362 17.5031594,15.1484375 18.8579514,15.1484375 C20.2127435,15.1484375 21.3110183,16.2501362 21.3110183,17.6091518 C21.3110183,18.4024369 20.9368029,19.1080467 20.355794,19.5580375 C20.3383159,19.5709686 20.3209482,19.5840596 20.3037032,19.5972859 C19.8982848,19.8944541 19.3985338,20.0698661 18.8579514,20.0698661 C17.5031594,20.0698661 16.4048846,18.9681674 16.4048846,17.6091518 Z M18.8579514,16.3787946 C18.1805615,16.3787946 17.631418,16.9296501 17.631418,17.6091518 C17.631418,18.2886534 18.1805615,18.8395089 18.8579514,18.8395089 C19.5353413,18.8395089 20.0844848,18.2886534 20.0844848,17.6091518 C20.0844848,16.9296501 19.5353413,16.3787946 18.8579514,16.3787946 Z M24.7193094,19.5580375 C24.1383005,19.1080467 23.7640851,18.4024369 23.7640851,17.6091518 C23.7640851,16.2501362 24.86236,15.1484375 26.217152,15.1484375 C27.5719808,15.1484375 28.6702188,16.2501362 28.6702188,17.6091518 C28.6702188,18.9681674 27.5719808,20.0698661 26.217152,20.0698661 C25.6766187,20.0698661 25.1768063,19.8944664 24.7714002,19.5972982 C24.7541552,19.5840596 24.7367875,19.5709686 24.7193094,19.5580375 Z M26.217152,16.3787946 C25.5397376,16.3787946 24.9906186,16.9296501 24.9906186,17.6091518 C24.9906186,18.2886534 25.5397376,18.8395089 26.217152,18.8395089 C26.8945664,18.8395089 27.4436854,18.2886534 27.4436854,17.6091518 C27.4436854,16.9296501 26.8945664,16.3787946 26.217152,16.3787946 Z M15.7915933,21.3002232 L19.0673329,21.3002232 C18.9317274,21.6850543 18.8579514,22.0991679 18.8579514,22.5305804 L15.7915933,22.5305804 C15.4529352,22.5305804 15.1783511,22.8060204 15.1783511,23.1457589 C15.1783511,24.15085 15.576398,24.8962249 16.2063088,25.4034028 C16.4959424,25.6366047 16.8428061,25.8254522 17.2349043,25.9627231 C16.9501032,26.267175 16.7263712,26.6297613 16.5833084,27.0307346 C16.1663361,26.8605763 15.7805545,26.6382507 15.4385602,26.3628968 C14.5147598,25.619109 13.9518177,24.5189359 13.9518177,23.1457589 C13.9518177,22.1265434 14.7755085,21.3002232 15.7915933,21.3002232 Z M20.4126561,21.3002232 C20.2039369,21.6621574 20.0844848,22.0823736 20.0844848,22.5305804 C20.0844848,23.5684358 20.7250051,24.4562246 21.6311558,24.8178635 C21.9115536,24.9297645 22.2173897,24.9912946 22.5375517,24.9912946 C22.8577137,24.9912946 23.1635621,24.9297645 23.4439599,24.8178635 C24.3500983,24.4562123 24.9906186,23.5684358 24.9906186,22.5305804 C24.9906186,22.0823736 24.8711665,21.6621574 24.6624473,21.3002232 C24.2382997,20.5647157 23.4455299,20.0698661 22.5375517,20.0698661 C21.6295735,20.0698661 20.8368037,20.5647157 20.4126561,21.3002232 Z M22.2623544,21.3313143 C22.3508243,21.3109642 22.4429369,21.3002232 22.5375517,21.3002232 C22.6321665,21.3002232 22.7242792,21.3109642 22.812749,21.3313143 C23.3576365,21.4566139 23.7640851,21.9459885 23.7640851,22.5305804 C23.7640851,22.6254901 23.7533775,22.7178899 23.7330906,22.8066356 C23.6081805,23.3532218 23.1203268,23.7609375 22.5375517,23.7609375 C21.9547766,23.7609375 21.4669229,23.3532218 21.3420128,22.8066356 C21.3217382,22.7179022 21.3110183,22.6254901 21.3110183,22.5305804 C21.3110183,21.9459885 21.7174669,21.4566139 22.2623544,21.3313143 Z M28.8687946,25.4034028 C28.5792101,25.6366047 28.2323464,25.8254522 27.8402237,25.9627231 C28.1250247,26.267175 28.3487444,26.6297613 28.4917582,27.0307346 C28.9087796,26.8605763 29.2945243,26.6382507 29.6366045,26.3628968 C30.5603068,25.619109 31.1232857,24.5189359 31.1232857,23.1457589 C31.1232857,22.1264942 30.2995458,21.3002232 29.2834855,21.3002232 L26.0077827,21.3002232 C26.1433147,21.6850543 26.217152,22.0991679 26.217152,22.5305804 L29.2834855,22.5305804 C29.6221314,22.5305804 29.8967523,22.8060081 29.8967523,23.1457589 C29.8967523,24.15085 29.4987422,24.8962249 28.8687946,25.4034028 Z M25.6038853,26.2216518 C26.3715725,26.2216518 27.0293624,26.6932477 27.3052098,27.3634232 C27.3943788,27.5803352 27.4436854,27.8180402 27.4436854,28.0671875 C27.4436854,29.4403891 26.8807066,30.5405745 25.9570042,31.2843254 C25.047775,32.0163879 23.8291895,32.3734375 22.5375517,32.3734375 C21.2459139,32.3734375 20.0273529,32.0163879 19.1181605,31.2843254 C18.19436,30.5405745 17.631418,29.4403891 17.631418,28.0671875 C17.631418,27.8180402 17.6806633,27.5803352 17.7699182,27.3634232 C18.0457165,26.6932477 18.7035554,26.2216518 19.4711936,26.2216518 L25.6038853,26.2216518 Z M25.6038853,27.4520089 L19.4711936,27.4520089 C19.1325355,27.4520089 18.8579514,27.7274859 18.8579514,28.0671875 C18.8579514,29.0722663 19.2559983,29.8176166 19.8859091,30.3247698 C20.5304279,30.8437345 21.4583004,31.1430804 22.5375517,31.1430804 C23.616803,31.1430804 24.5446755,30.8437345 25.1891943,30.3247698 C25.8191419,29.8176166 26.217152,29.0722663 26.217152,28.0671875 C26.217152,27.7274859 25.9425311,27.4520089 25.6038853,27.4520089 Z" id="Communities-Icon"></path>
                </g>
            </g>
        </g>
    </g>
</svg>