<?xml version="1.0" encoding="UTF-8"?>
<svg width="20px" height="21px" viewBox="0 0 20 21" version="1.1" xmlns="http://www.w3.org/2000/svg" xmlns:xlink="http://www.w3.org/1999/xlink">
    <title>share-signal-user_1</title>
    <g id="Page-1" stroke="none" stroke-width="1" fill="none" fill-rule="evenodd">
        <g id="Blogs" transform="translate(-41.000000, -759.000000)" fill="#9DAAD8" fill-rule="nonzero">
            <g id="Left-Menu-Buttons" transform="translate(29.000000, 116.000000)">
                <g id="Me-Button" transform="translate(0.000000, 631.000000)">
                    <g id="share-signal-user_1" transform="translate(12.926125, 12.918750)">
                        <path d="M10.6029895,12.91875 L8.80830856,12.91875 C6.32449969,12.91875 4.30870821,14.9862036 4.30870821,17.5336692 L4.30870821,19.378125 L15.0804787,19.378125 L15.0804787,17.5374488 C15.0767936,14.9862036 13.0573169,12.91875 10.6029895,12.91875 Z" id="XMLID_3_"></path>
                        <path d="M5.86647192,11.9464979 C4.71822105,10.2657221 4.85660959,7.90397623 6.28537778,6.40033135 C7.88245635,4.71955553 10.4893972,4.71955553 12.0864758,6.40033135 C13.515244,7.90397623 13.6573728,10.2657221 12.5053817,11.9464979 C13.0664163,12.1826725 13.5975291,12.5369344 14.0762786,12.91875 C15.6172537,10.5018967 15.3928399,7.16789877 13.3469336,5.04232747 C11.0504319,2.62547418 7.26531826,2.62547418 4.96507629,5.04232747 C2.91917002,7.19545247 2.69475617,10.4979605 4.23573127,12.91875 C4.77058429,12.5369344 5.3054373,12.1826725 5.86647192,11.9464979 Z" id="XMLID_4_"></path>
                        <path d="M3.20876357,13.3345369 C2.30594615,12.1015873 1.82820527,10.6482012 1.82820527,9.07899263 C1.82820527,7.14737156 2.5880766,5.29794714 3.97239663,3.92675772 C6.82003324,1.09844602 11.4695429,1.09844602 14.3472735,3.92675772 C16.9127796,6.47485359 17.1648161,10.4800717 15.1071448,13.3345369 C15.5021274,13.8389254 15.8406839,14.4255105 16.0663883,15.0419853 C19.1961553,11.4851125 19.0532092,6.05639796 15.6450735,2.66765462 C12.0638977,-0.889218208 6.25953409,-0.889218208 2.67835834,2.66765462 C0.959243506,4.37510303 0,6.67287277 0,9.10888231 C0,11.3207192 0.78996524,13.4204698 2.2532818,15.071875 C2.47522442,14.4255105 2.81378095,13.8650789 3.20876357,13.3345369 Z" id="XMLID_5_"></path>
                        <ellipse id="XMLID_6_" cx="9.15600495" cy="9.15078125" rx="2.69294263" ry="2.69140625"></ellipse>
                    </g>
                </g>
            </g>
        </g>
    </g>
</svg>