<?xml version="1.0" encoding="UTF-8"?>
<svg width="28px" height="28px" viewBox="0 0 28 28" version="1.1" xmlns="http://www.w3.org/2000/svg" xmlns:xlink="http://www.w3.org/1999/xlink">
    <title>downloads-73</title>
    <g id="Page-1" stroke="none" stroke-width="1" fill="none" fill-rule="evenodd">
        <g id="Purchases" transform="translate(-663.000000, -536.000000)" fill="#9137DF" fill-rule="nonzero">
            <g id="Downloads" transform="translate(641.000000, 524.000000)">
                <g id="downloads-73" transform="translate(22.000000, 12.000000)">
                    <path d="M2.79886071,14.0227519 L2.79886071,23.8060672 C2.79886071,24.5796316 3.42547131,25.2053088 4.20018988,25.2053088 L23.7960125,25.2053088 C24.570731,25.2053088 25.1973417,24.5796316 25.1973417,23.8060672 L25.1973417,14.0227519 C25.1973417,13.2491874 25.8239523,12.6235103 26.5986708,12.6235103 C27.3733894,12.6235103 28,13.2491874 28,14.0227519 L28,25.2053088 C28,26.7486457 26.7467788,28 25.2011393,28 L2.79886071,28 C1.25322121,28 0,26.7486457 0,25.2053088 L0,14.0227519 C0,13.2491874 0.626610606,12.6235103 1.40132917,12.6235103 C2.1722501,12.6273023 2.79886071,13.2529794 2.79886071,14.0227519 Z M14.0854469,22.3613218 C14.0550658,22.3613218 14.0284823,22.3651138 13.9981012,22.3651138 C13.9677201,22.3651138 13.9373389,22.3651138 13.9107555,22.3613218 C13.5651702,22.3537378 13.219585,22.2172264 12.9575478,21.9517876 L7.01424115,16.0249187 C6.46738098,15.4788732 6.46738098,14.5953413 7.01424115,14.0492958 C7.56110132,13.5032503 8.44595144,13.5032503 8.99281161,14.0492958 L12.5929744,17.6440953 L12.5929744,1.3992416 C12.5929744,0.62567714 13.219585,0 13.9943035,0 C14.7690221,0 15.3956327,0.62567714 15.3956327,1.3992416 L15.3956327,17.6403034 L18.9957955,14.0455038 C19.5426556,13.4994583 20.4275058,13.4994583 20.9743659,14.0455038 C21.5212261,14.5915493 21.5212261,15.4750813 20.9743659,16.0211268 L15.0386546,21.9517876 C14.7728197,22.2172264 14.4310321,22.3537378 14.0854469,22.3613218 Z" id="Shape"></path>
                </g>
            </g>
        </g>
    </g>
</svg>