<?xml version="1.0" encoding="UTF-8"?>
<svg width="28px" height="31px" viewBox="0 0 28 31" version="1.1" xmlns="http://www.w3.org/2000/svg" xmlns:xlink="http://www.w3.org/1999/xlink">
    <title>all-orders-14</title>
    <g id="Page-1" stroke="none" stroke-width="1" fill="none" fill-rule="evenodd">
        <g id="Purchases" transform="translate(-660.000000, -382.000000)" fill="#455998" fill-rule="nonzero">
            <g id="Orders" transform="translate(639.000000, 374.000000)">
                <g id="all-orders-14" transform="translate(21.000000, 8.000000)">
                    <path d="M23.4769231,2.43869596 L21.3704615,2.43869596 C20.9224615,1.0238129 19.6215385,0 18.0923077,0 L9.90769231,0 C8.37415385,0 7.07323077,1.0238129 6.62953846,2.43869596 L4.52307692,2.43869596 C2.02892308,2.43869596 0,4.50829199 0,7.05244507 L0,29.9014883 C0,30.5078668 0.482461538,31 1.07692308,31 L26.9230769,31 C27.5175385,31 28,30.5078668 28,29.9014883 L28,7.05244507 C28,4.50829199 25.9710769,2.43869596 23.4769231,2.43869596 Z M9.90769231,2.19702339 L18.0923077,2.19702339 C18.8030769,2.19702339 19.3846154,2.7902197 19.3846154,3.51523742 C19.3846154,4.24025514 18.8030769,4.83345145 18.0923077,4.83345145 L9.90769231,4.83345145 C9.19692308,4.83345145 8.61538462,4.24025514 8.61538462,3.51523742 C8.61538462,2.7902197 9.19692308,2.19702339 9.90769231,2.19702339 Z M25.8461538,28.8029766 L2.15384615,28.8029766 L2.15384615,7.05244507 C2.15384615,5.7210489 3.21784615,4.63571935 4.52307692,4.63571935 L6.64246154,4.63571935 C7.10338462,6.02423813 8.39138462,7.03047484 9.90769231,7.03047484 L18.0923077,7.03047484 C19.6086154,7.03047484 20.8966154,6.02423813 21.3575385,4.63571935 L23.4769231,4.63571935 C24.7821538,4.63571935 25.8461538,5.7210489 25.8461538,7.05244507 L25.8461538,28.8029766 Z" id="Shape"></path>
                    <path d="M4.12612613,12.1523179 L18.0675676,12.1523179 C18.6891892,12.1523179 19.1936937,11.6701987 19.1936937,11.0761589 C19.1936937,10.4821192 18.6891892,10 18.0675676,10 L4.12612613,10 C3.5045045,10 3,10.4821192 3,11.0761589 C3,11.6701987 3.5045045,12.1523179 4.12612613,12.1523179 Z M21.8738739,15.4238411 L4.12612613,15.4238411 C3.5045045,15.4238411 3,15.9059603 3,16.5 C3,17.0940397 3.5045045,17.5761589 4.12612613,17.5761589 L21.8738739,17.5761589 C22.4954955,17.5761589 23,17.0940397 23,16.5 C23,15.9059603 22.4954955,15.4238411 21.8738739,15.4238411 Z M15.1576577,20.8476821 L4.12612613,20.8476821 C3.5045045,20.8476821 3,21.3298013 3,21.9238411 C3,22.5178808 3.5045045,23 4.12612613,23 L15.1576577,23 C15.7792793,23 16.2837838,22.5178808 16.2837838,21.9238411 C16.2837838,21.3298013 15.7837838,20.8476821 15.1576577,20.8476821 Z" id="Shape"></path>
                </g>
            </g>
        </g>
    </g>
</svg>