<?xml version="1.0" encoding="UTF-8"?>
<svg width="28px" height="28px" viewBox="0 0 28 28" version="1.1" xmlns="http://www.w3.org/2000/svg" xmlns:xlink="http://www.w3.org/1999/xlink">
    <title>overview-19</title>
    <g id="Page-1" stroke="none" stroke-width="1" fill="none" fill-rule="evenodd">
        <g id="Purchases" transform="translate(-666.000000, -311.000000)" fill="#25B8CD" fill-rule="nonzero">
            <g id="Overview" transform="translate(639.000000, 298.000000)">
                <g id="overview-19" transform="translate(27.000000, 13.000000)">
                    <path d="M14,0 C6.28205128,0 0,6.28205128 0,14 C0,21.7179487 6.28205128,28 14,28 C21.7179487,28 28,21.7179487 28,14 C28,6.28205128 21.7179487,0 14,0 Z M26.025641,12.025641 L15.2564103,13.4615385 L22.2564103,5.20512821 C24.2307692,7 25.4871795,9.33333333 26.025641,12.025641 Z M21,4.12820513 L13.8205128,12.5641026 L6.82051282,4.12820513 C8.79487179,2.69230769 11.3076923,1.79487179 14,1.79487179 C16.5128205,1.79487179 19.025641,2.69230769 21,4.12820513 Z M14,26.2051282 C7.35897436,26.2051282 1.79487179,20.8205128 1.79487179,14 C1.79487179,10.5897436 3.23076923,7.53846154 5.38461538,5.38461538 L14,15.6153846 L14,15.6153846 L14,15.6153846 L14,15.6153846 L14,15.6153846 L26.2051282,13.8205128 C26.2051282,14 26.2051282,14 26.2051282,14 C26.2051282,20.6410256 20.6410256,26.2051282 14,26.2051282 Z" id="Shape"></path>
                </g>
            </g>
        </g>
    </g>
</svg>