<?xml version="1.0" encoding="UTF-8"?>
<svg width="86px" height="83px" viewBox="0 0 86 83" version="1.1" xmlns="http://www.w3.org/2000/svg" xmlns:xlink="http://www.w3.org/1999/xlink">
    <title>add-account</title>
    <defs>
        <filter x="-30.3%" y="-98.9%" width="160.5%" height="297.8%" filterUnits="objectBoundingBox" id="filter-1">
            <feOffset dx="0" dy="10" in="SourceAlpha" result="shadowOffsetOuter1"></feOffset>
            <feGaussianBlur stdDeviation="6.5" in="shadowOffsetOuter1" result="shadowBlurOuter1"></feGaussianBlur>
            <feColorMatrix values="0 0 0 0 0.129411765   0 0 0 0 0.4   0 0 0 0 0.890196078  0 0 0 0.15 0" type="matrix" in="shadowBlurOuter1" result="shadowMatrixOuter1"></feColorMatrix>
            <feMerge>
                <feMergeNode in="shadowMatrixOuter1"></feMergeNode>
                <feMergeNode in="SourceGraphic"></feMergeNode>
            </feMerge>
        </filter>
    </defs>
    <g id="Page-1" stroke="none" stroke-width="1" fill="none" fill-rule="evenodd">
        <g id="Creator_event" transform="translate(-1212.000000, -2.000000)" fill="#F3215E" fill-rule="nonzero">
            <g id="Group-2" filter="url(#filter-1)" transform="translate(1222.000000, 21.000000)">
                <g id="add-account" transform="translate(23.400000, 14.400000)">
                    <path d="M7.6,0 C10.1405098,0 12.2,2.05949015 12.2,4.6 C12.2000134,5.8298642 11.6990991,7.0028509 10.8192068,7.85210914 L10.6382114,8.01756535 L10.165685,8.42658605 L10.7350002,8.68438312 L10.9867695,8.80397037 C13.5585313,10.0835911 15.1972336,12.7119655 15.2000002,15.6003831 C15.2000002,15.9313708 14.9313708,16.2 14.6,16.2 C14.2686292,16.2 14,15.9313708 14,15.6 C14,12.0653776 11.1346224,9.2 7.6,9.2 C4.06537764,9.2 1.2,12.0653776 1.2,15.6 C1.2,15.9313708 0.93137085,16.2 0.6,16.2 C0.26862915,16.2 0,15.9313708 0,15.6 C0.00276637375,12.7119536 1.64146867,10.0835907 4.21323046,8.80397036 L4.46499982,8.68438312 L5.03431502,8.42658605 L4.56178862,8.01756535 L4.38079324,7.85210915 C3.50090086,7.00285092 2.99998656,5.82986448 3,4.60000437 C3,2.05949015 5.05949015,0 7.6,0 Z M16.6,5 C16.9313708,5 17.2,5.26862915 17.2,5.6 L17.2,5.6 L17.2,7 L18.6,7 L18.6973231,7.00785299 C18.9824104,7.05435325 19.2,7.30176624 19.2,7.6 C19.2,7.93137085 18.9313708,8.2 18.6,8.2 L18.6,8.2 L17.2,8.2 L17.2,9.6 L17.192147,9.69732312 C17.1456468,9.98241039 16.8982338,10.2 16.6,10.2 C16.2686292,10.2 16,9.93137085 16,9.6 L16,9.6 L16,8.2 L14.6,8.2 L14.5026769,8.19214701 C14.2175896,8.14564675 14,7.89823376 14,7.6 C14,7.26862915 14.2686292,7 14.6,7 L14.6,7 L16,7 L16,5.6 L16.007853,5.50267688 C16.0543532,5.21758961 16.3017662,5 16.6,5 Z M7.6,1.2 C5.72223185,1.2 4.2,2.72223185 4.2,4.6 C4.2,6.47776815 5.72223185,8 7.6,8 C8.50173607,8 9.36653937,7.64178674 10.0041631,7.00416306 C10.6417867,6.36653937 11,5.50173607 11,4.6 C11,2.72223185 9.47776815,1.2 7.6,1.2 Z" id="Combined-Shape"></path>
                </g>
            </g>
        </g>
    </g>
</svg>