<?xml version="1.0" encoding="UTF-8"?>
<svg width="10px" height="8px" viewBox="0 0 10 8" version="1.1" xmlns="http://www.w3.org/2000/svg" xmlns:xlink="http://www.w3.org/1999/xlink">
    <title>Group 2</title>
    <g id="Symbols" stroke="none" stroke-width="1" fill="none" fill-rule="evenodd">
        <g id="pagination/left_arrow" transform="translate(-10.000000, -11.000000)" fill="#FFFFFF" fill-rule="nonzero">
            <g id="83544" transform="translate(10.000000, 11.000000)">
                <path d="M3.75967263,7.82122433 C4.01094659,8.0596326 4.41835527,8.05955118 4.66954343,7.82122433 C4.92090318,7.58265321 4.92090318,7.19605401 4.66945765,6.95748289 L2.19703859,4.61093646 L9.35667347,4.61028507 C9.71200865,4.61020365 10,4.33686466 10,3.9994453 C10,3.66218879 9.71192286,3.38893123 9.35658768,3.38893123 L2.19669543,3.38958261 L4.66971501,1.04254764 C4.92098897,0.804057948 4.92098897,0.417295897 4.66971501,0.178887627 C4.54403514,0.0596834912 4.37940737,0 4.21469382,0 C4.05006606,0 3.88543829,0.0596834912 3.75975842,0.178806203 L0.188476914,3.56830739 C0.0677727639,3.68278896 0,3.83806375 0,4.00009669 C0,4.16212963 0.0678585522,4.317323 0.188562703,4.43204883 L3.75967263,7.82122433 Z" id="Path"></path>
            </g>
        </g>
    </g>
</svg>