<?xml version="1.0" encoding="UTF-8"?>
<svg width="18px" height="19px" viewBox="0 0 18 19" version="1.1" xmlns="http://www.w3.org/2000/svg" xmlns:xlink="http://www.w3.org/1999/xlink">
    <title>arrow</title>
    <g id="Page-1" stroke="none" stroke-width="1" fill="none" fill-rule="evenodd">
        <g id="Events-Detail" transform="translate(-1117.000000, -173.000000)" fill="#FFFFFF" fill-rule="nonzero" stroke="#FFFFFF">
            <g id="Group-6" transform="translate(1076.000000, 154.000000)">
                <g id="arrow" transform="translate(41.500000, 20.000000)">
                    <path d="M14.6735815,10.2054475 L14.6735815,15.5958165 C14.6735815,15.9085396 14.4200693,16.1620517 14.1073462,16.1620517 L1.37514269,16.1620517 C1.06241961,16.1620517 0.808907468,15.9085396 0.808907468,15.5958165 L0.808907468,2.8474348 C0.810675147,2.53544685 1.06315474,2.28296725 1.37514269,2.28119957 L6.73962665,2.28119957 C6.96300028,2.28119957 7.14408038,2.10011947 7.14408038,1.87674584 C7.14408038,1.65337221 6.96300028,1.4722921 6.73962665,1.4722921 L1.37514269,1.4722921 C0.616410455,1.47407109 0.00177898093,2.08870256 0,2.8474348 L0,15.5958165 C0.00886113914,16.3489613 0.621945716,16.954781 1.37514269,16.954781 L14.1073462,16.954781 C14.8605432,16.954781 15.4736278,16.3489613 15.4824889,15.5958165 L15.4824889,10.2151544 C15.4851042,10.1062148 15.4436496,10.0008289 15.3675145,9.92286657 C15.2913794,9.84490423 15.1870062,9.80096237 15.0780352,9.80099376 C14.8546616,9.80099376 14.6735815,9.98207387 14.6735815,10.2054475 Z" id="Path"></path>
                    <path d="M16.9870568,0.388356098 C16.9854397,0.304095036 16.9571159,0.222522423 16.9061661,0.155390747 L16.8511604,0.0971494095 C16.7767314,0.032685387 16.6810478,-0.00189905816 16.5826031,0 L10.5610959,0 C10.5065233,-0.000789911985 10.4524175,0.0102520968 10.40255,0.0324368121 C10.3583244,0.05096034 10.3177771,0.0772612752 10.2828317,0.110091929 C10.2828317,0.110091929 10.2828317,0.110091929 10.2828317,0.110091929 C10.24885,0.147219566 10.2214896,0.189901814 10.201941,0.236281494 C10.1823789,0.283448038 10.1724767,0.334059343 10.1728203,0.385120468 C10.1721129,0.436214963 10.1820294,0.486899109 10.201941,0.533959442 C10.2210254,0.583086813 10.2508777,0.627312389 10.289303,0.663384637 L13.0137033,3.38778499 L8.06318964,8.33829869 C7.94951027,8.45474328 7.915968,8.62763875 7.97785817,8.77814439 C8.03974834,8.92865004 8.18521501,9.02793435 8.34792507,9.03072348 C8.45577812,9.02952374 8.55897958,8.98661977 8.63589612,8.91100518 L13.5864098,3.96049147 L16.3108102,6.68489183 C16.426854,6.79992312 16.600714,6.83383116 16.7514785,6.77083566 C16.902243,6.70784016 17.0002937,6.56031686 17,6.39692077 L17,0.388356098 L16.9870568,0.388356098 Z" id="Path"></path>
                </g>
            </g>
        </g>
    </g>
</svg>