<?xml version="1.0" encoding="UTF-8"?>
<svg width="16px" height="15px" viewBox="0 0 16 15" version="1.1" xmlns="http://www.w3.org/2000/svg" xmlns:xlink="http://www.w3.org/1999/xlink">
    <title>book</title>
    <g id="Page-1" stroke="none" stroke-width="1" fill="none" fill-rule="evenodd">
        <g id="Creator_attachment" transform="translate(-49.000000, -785.000000)" fill="#E6E7E8" fill-rule="nonzero">
            <g id="Group-3" transform="translate(49.000000, 783.000000)">
                <g id="book" transform="translate(0.000000, 2.000000)">
                    <path d="M8,15 C7.89888,15 7.79712,14.9749937 7.70368,14.9256391 C5.58344266,13.7884998 3.05655734,13.7884998 0.93632,14.9256391 C0.737791288,15.0314167 0.500012489,15.0232304 0.308809858,14.9040351 C0.117607226,14.7848398 0.000591687854,14.5718481 0,14.3419393 L0,1.8387861 C0,1.62334201 0.102545386,1.42153684 0.27456,1.29851827 C2.6944,-0.432839422 5.9456,-0.432839422 8.36608,1.29851827 C8.5376,1.42157562 8.64,1.62360025 8.64,1.8387861 L8.64,14.3419393 C8.64,14.7053762 8.35346224,15 8,15 Z M4.32,12.7566711 C5.3504,12.7566711 6.38144,12.9468506 7.36,13.3272097 L7.36,2.19413887 C5.49341575,1.02280972 3.14658425,1.02280972 1.28,2.19413887 L1.28,13.3272097 C2.25151225,12.9498361 3.28147358,12.7565359 4.32,12.7566711 L4.32,12.7566711 Z" id="Shape"></path>
                    <path d="M15.36,15 C15.25888,15 15.15712,14.9749937 15.06368,14.9256391 C12.9434427,13.7884998 10.4165573,13.7884998 8.29632,14.9256391 C8.09779129,15.0314167 7.86001249,15.0232304 7.66880986,14.9040351 C7.47760723,14.7848398 7.36059169,14.5718481 7.36,14.3419393 L7.36,1.8387861 C7.36,1.62334201 7.46254539,1.42153684 7.63456,1.29851827 C10.0544,-0.432839422 13.3056,-0.432839422 15.72608,1.29851827 C15.8976,1.42157562 16,1.62360025 16,1.8387861 L16,14.3419393 C16,14.7053762 15.7134622,15 15.36,15 Z M11.68,12.7566711 C12.7104,12.7566711 13.74144,12.9468506 14.72,13.3272097 L14.72,2.19413887 C12.8534158,1.02280972 10.5065842,1.02280972 8.64,2.19413887 L8.64,13.3272097 C9.61151225,12.9498361 10.6414736,12.7565359 11.68,12.7566711 L11.68,12.7566711 Z" id="Shape"></path>
                </g>
            </g>
        </g>
    </g>
</svg>