<?xml version="1.0" encoding="UTF-8"?>
<svg width="20px" height="20px" viewBox="0 0 20 20" version="1.1" xmlns="http://www.w3.org/2000/svg" xmlns:xlink="http://www.w3.org/1999/xlink">
    <title>calendar</title>
    <g id="Page-1" stroke="none" stroke-width="1" fill="none" fill-rule="evenodd">
        <g id="Events-Detail" transform="translate(-180.000000, -222.000000)" fill="#FFFFFF" fill-rule="nonzero">
            <g id="Group-7" transform="translate(180.000000, 135.000000)">
                <g id="Group-3" transform="translate(0.000000, 82.000000)">
                    <g id="calendar" transform="translate(0.000000, 5.000000)">
                        <path d="M17.421875,1.5625 L15.625,1.5625 L15.625,0.625 C15.625,0.27984375 15.3451953,0 15,0 C14.6548047,0 14.375,0.27984375 14.375,0.625 L14.375,1.5625 L5.625,1.5625 L5.625,0.625 C5.625,0.27984375 5.34519531,0 5,0 C4.65480469,0 4.375,0.27984375 4.375,0.625 L4.375,1.5625 L2.578125,1.5625 C1.15652344,1.5625 0,2.71902344 0,4.140625 L0,17.421875 C0,18.8434766 1.15652344,20 2.578125,20 L17.421875,20 C18.8434766,20 20,18.8434766 20,17.421875 L20,4.140625 C20,2.71902344 18.8434766,1.5625 17.421875,1.5625 Z M18.75,17.421875 C18.75,18.1553906 18.1553906,18.75 17.421875,18.75 L2.578125,18.75 C1.84460937,18.75 1.25,18.1553906 1.25,17.421875 L1.25,7.0703125 C1.25,6.96246094 1.33746094,6.875 1.4453125,6.875 L18.5546875,6.875 C18.6625391,6.875 18.75,6.96246094 18.75,7.0703125 L18.75,17.421875 Z" id="Shape"></path>
                    </g>
                </g>
            </g>
        </g>
    </g>
</svg>