<?xml version="1.0" encoding="UTF-8"?>
<svg width="20px" height="22px" viewBox="0 0 20 22" version="1.1" xmlns="http://www.w3.org/2000/svg" xmlns:xlink="http://www.w3.org/1999/xlink">
    <title>Shape</title>
    <g id="Page-1" stroke="none" stroke-width="1" fill="none" fill-rule="evenodd" opacity="0.755654978">
        <g id="Coach_products" transform="translate(-1449.000000, -34.000000)" fill="#FFFFFF" fill-rule="nonzero">
            <g id="bell-(4)" transform="translate(1397.000000, 34.000000)">
                <path d="M71.5905384,16.2299517 L70.2318126,14.2974405 C70.0463415,14.0347376 69.9465323,13.7222561 69.9457651,13.4018865 L69.9457651,7.85573652 C69.9457651,3.51713304 66.3883249,0 62,0 C57.6116751,0 54.0542349,3.51713304 54.0542349,7.85573652 L54.0542349,13.4018865 C54.0534677,13.7222561 53.9536585,14.0347376 53.7681874,14.2974405 L52.4094616,16.2299517 C51.9891709,16.6903546 51.882148,17.3521156 52.1362799,17.9191315 C52.3904119,18.4861474 52.9581396,18.8523049 53.5854348,18.8537677 L58.1065751,18.8537677 C58.4825627,20.6844088 60.1105911,22 62,22 C63.8894089,22 65.5174373,20.6844088 65.8934249,18.8537677 L70.4145652,18.8537677 C71.0418604,18.8523049 71.6095881,18.4861474 71.8637201,17.9191315 C72.117852,17.3521156 72.0108291,16.6903546 71.5905384,16.2299517 L71.5905384,16.2299517 Z M62,20.424915 C60.9922744,20.4221149 60.0952001,19.7931006 59.7592942,18.8537677 L64.2407058,18.8537677 C63.9047999,19.7931006 63.0077256,20.4221149 62,20.424915 L62,20.424915 Z M53.5854348,17.2826203 C53.6213485,17.249668 53.6533388,17.2127689 53.680784,17.17264 L55.0712929,15.1929944 C55.4422351,14.6675886 55.6418536,14.0426257 55.6433879,13.4018865 L55.6433879,7.85573652 C55.643388,4.38485377 58.4893401,1.5711474 62,1.5711474 C65.5106599,1.5711474 68.356612,4.38485377 68.3566121,7.85573652 L68.3566121,13.4018865 C68.3581464,14.0426257 68.5577649,14.6675886 68.9287071,15.1929944 L70.319216,17.17264 C70.3466612,17.2127689 70.3786515,17.249668 70.4145652,17.2826203 L53.5854348,17.2826203 Z" id="Shape"></path>
            </g>
        </g>
    </g>
</svg>