<?xml version="1.0" encoding="UTF-8"?>
<svg width="18px" height="18px" viewBox="0 0 18 18" version="1.1" xmlns="http://www.w3.org/2000/svg" xmlns:xlink="http://www.w3.org/1999/xlink">
    <title>live-2</title>
    <g id="Page-1" stroke="none" stroke-width="1" fill="none" fill-rule="evenodd">
        <g id="Coach_Order" transform="translate(-48.000000, -490.000000)" fill="#E6E7E8" fill-rule="nonzero" stroke="#0B0B0B" stroke-width="0.2">
            <g id="Group-19" transform="translate(49.000000, 490.000000)">
                <g id="live-2" transform="translate(0.000000, 1.000000)">
                    <path d="M3.8518831,6.08829128e-05 C3.66610764,-0.00231544851 3.47937157,0.0648657397 3.33559461,0.202610903 C3.04206957,0.483855355 3.04147727,0.948373668 3.33422036,1.23045466 L4.43071378,2.3122467 L5.38446505,3.25320906 L5.94407407,3.80531505 L3.37114925,3.80531505 C2.30790448,3.80531505 1.43551441,4.51233638 0.874921419,5.44972343 C0.314329835,6.38711048 0,7.60469664 0,8.94312759 L0,10.862888 C0,12.201319 0.314329835,13.4182046 0.874921419,14.355593 C1.43551441,15.2929787 2.30790448,16 3.37114925,16 L12.6260086,16 C13.6892535,16 14.5644856,15.2929787 15.1250772,14.355593 C15.6856702,13.4182046 16,12.201319 16,10.862888 L16,8.94312759 C16,7.60469664 15.6856702,6.38711048 15.1250772,5.44972343 C14.5644856,4.51233638 13.6892535,3.80531505 12.6260086,3.80531505 L10.0559244,3.80531505 L10.6155334,3.25320906 L11.5692847,2.3122467 L12.6657781,1.23045466 C12.9584745,0.948373668 12.9578822,0.483855355 12.6644038,0.202610903 C12.5206255,0.0648643839 12.3338894,-0.00229511112 12.148114,6.08829128e-05 C11.9623385,0.00256552581 11.7775484,0.0744785475 11.6375053,0.21592376 L10.5410119,1.29771585 L9.58726197,2.23867821 L8.00004527,3.80531505 L6.41282719,2.23867821 L5.4590773,1.29771585 L4.36258388,0.21592376 C4.22254214,0.0744799033 4.03775064,0.00254518842 3.85197518,6.08829128e-05 L3.8518831,6.08829128e-05 Z M3.37110253,5.23812913 L12.6259619,5.23812913 C13.0277121,5.23812913 13.4762363,5.51730323 13.8715906,6.17839189 C14.2669463,6.83948054 14.5448269,7.83188973 14.5448269,8.94312759 L14.5448269,10.862888 C14.5448269,11.9741259 14.2669463,12.9665368 13.8715906,13.6276241 C13.4762363,14.2887128 13.0277121,14.5671859 12.6259619,14.5671859 L3.37110253,14.5671859 C2.96935242,14.5671859 2.52082966,14.2887128 2.12547395,13.6276241 C1.73011823,12.9665368 1.45507963,11.9741259 1.45507963,10.862888 L1.45507963,8.94312759 C1.45507963,7.83188973 1.73011823,6.83948054 2.12547395,6.17839189 C2.52082966,5.51730323 2.96935242,5.23812913 3.37110253,5.23812913 Z M6.45676614,8.26210287 C5.89681768,8.26217609 5.33646931,8.47093129 4.91357909,8.88847695 L4.40012981,9.39574305 C4.11339907,9.67207399 4.10741833,10.1251531 4.38666214,10.408872 C4.67159811,10.6983287 5.14252942,10.6986636 5.42847271,10.4102278 L5.42847271,10.4095268 L5.94192199,9.9029617 C6.23201003,9.61653935 6.68071557,9.61667765 6.97094927,9.9029617 L7.48510905,10.4102278 L7.99926744,10.9174926 C8.84546291,11.7521758 10.2398584,11.7518856 11.0856402,10.9167916 L11.5990895,10.4102278 L11.5997999,10.4102278 C11.8925073,10.1281549 11.8911935,9.66362855 11.5976011,9.3823841 C11.3100252,9.10691004 10.8507902,9.1128106 10.5707039,9.3956712 L10.0565442,9.90223498 C9.76645477,10.1886587 9.3177506,10.1892214 9.0275169,9.90293594 L8.51335712,9.3956712 L7.99919873,8.88770549 C7.576101,8.4703632 7.01667063,8.26195916 6.45672217,8.262031 L6.45676614,8.26210287 Z" id="rect1084"></path>
                </g>
            </g>
        </g>
    </g>
</svg>