<?xml version="1.0" encoding="UTF-8"?>
<svg width="16px" height="17px" viewBox="0 0 16 17" version="1.1" xmlns="http://www.w3.org/2000/svg" xmlns:xlink="http://www.w3.org/1999/xlink">
    <title>group</title>
    <g id="Page-1" stroke="none" stroke-width="1" fill="none" fill-rule="evenodd">
        <g id="Coach_Order" transform="translate(-48.000000, -199.000000)" fill="#FFFFFF" fill-rule="nonzero">
            <g id="group" transform="translate(48.000000, 199.000000)">
                <path d="M7.91344549,10.4494098 C8.0865002,10.4573116 8.24930487,10.533724 8.36595745,10.6617964 C9.29865113,11.6997758 9.80877242,13.0494363 9.7958066,14.4448397 C9.7958066,15.8899701 7.69031372,16.9792546 4.89794469,16.9792546 C2.10557565,16.9792546 0,15.8899701 0.000213382263,14.4447744 C-0.0118837681,13.0589309 0.490763038,11.7179111 1.41079761,10.6814532 C1.56711643,10.5081843 1.80399884,10.4314723 2.03221354,10.4802139 C2.26042824,10.5289555 2.44530397,10.6957457 2.51719984,10.9177562 C2.58909571,11.1397667 2.53708902,11.3832689 2.38077019,11.5565378 C1.68210404,12.355676 1.29989182,13.3827828 1.30617928,14.4442519 C1.30617928,14.8772882 2.67000526,15.6731581 4.89794469,15.6731581 C7.12588411,15.6731581 8.48971009,14.877876 8.48971009,14.4448397 C8.50216988,13.3751668 8.11381666,12.3395659 7.40107865,11.5418443 C7.28435279,11.4139646 7.22323612,11.2449367 7.23118532,11.0719773 C7.23913452,10.8990179 7.3154978,10.7363086 7.44346148,10.6196748 C7.57130002,10.502766 7.74039079,10.4415081 7.91344549,10.4494098 Z M14.5699159,6.74350689 C15.5024607,7.78157683 16.0125593,9.13117727 15.999765,10.5265501 C15.999765,11.9716806 13.8942721,13.0609651 11.1019031,13.0609651 C10.7412345,13.0609651 10.4488549,12.7685854 10.4488549,12.4079168 C10.4488549,12.0472483 10.7412345,11.7548686 11.1019031,11.7548686 C13.3298425,11.7548686 14.6936685,10.9595864 14.6936685,10.5265501 C14.7060204,9.45689614 14.3176814,8.42133311 13.6050371,7.62355472 C13.4434907,7.45187811 13.3870055,7.2064634 13.4572462,6.9814382 C13.5274868,6.75641299 13.7135496,6.5867086 13.9440711,6.53741429 C14.1745927,6.48811998 14.4137883,6.56688786 14.5699159,6.74350689 Z M4.89794469,3.91828953 C6.70128765,3.91828953 8.16318596,5.38018785 8.16318596,7.18353081 C8.16318596,8.98687377 6.70128765,10.4487721 4.89794469,10.4487721 C3.0954819,10.4466489 1.63482656,8.9859936 1.63270341,7.18353081 C1.63270341,5.38018785 3.09460173,3.91828953 4.89794469,3.91828953 Z M4.89794469,5.22438604 C3.81643126,5.22557375 2.93998763,6.10201738 2.93879992,7.18353081 C2.93879992,8.26553658 3.81593891,9.14267557 4.89794469,9.14267557 C5.97995046,9.14267557 6.85708945,8.26553658 6.85708945,7.18353081 C6.85708945,6.10152503 5.97995046,5.22438604 4.89794469,5.22438604 Z M11.1019031,0 C12.9052461,0 14.3671444,1.46189831 14.3671444,3.26524128 C14.3671444,5.06858424 12.9052461,6.53048255 11.1019031,6.53048255 C9.29944032,6.5283594 7.83878499,5.06770407 7.83666183,3.26524128 C7.83666183,1.46189831 9.29856015,0 11.1019031,0 Z M11.1019031,1.30609651 C10.0203897,1.30728422 9.14394605,2.18372785 9.14275835,3.26524128 C9.14275835,4.34724705 10.0198973,5.22438604 11.1019031,5.22438604 C12.1839089,5.22438604 13.0610479,4.34724705 13.0610479,3.26524128 C13.0610479,2.1832355 12.1839089,1.30609651 11.1019031,1.30609651 Z" id="Combined-Shape"></path>
            </g>
        </g>
    </g>
</svg>