<?xml version="1.0" encoding="UTF-8"?>
<svg width="20px" height="20px" viewBox="0 0 20 20" version="1.1" xmlns="http://www.w3.org/2000/svg" xmlns:xlink="http://www.w3.org/1999/xlink">
    <title>clock</title>
    <g id="Page-1" stroke="none" stroke-width="1" fill="none" fill-rule="evenodd">
        <g id="Events-Detail" transform="translate(-373.000000, -222.000000)" fill="#E6E7E8" fill-rule="nonzero">
            <g id="Group-7" transform="translate(180.000000, 135.000000)">
                <g id="Group-2" transform="translate(193.000000, 82.000000)">
                    <g id="clock" transform="translate(0.000000, 5.000000)">
                        <path d="M10,0 C4.4771525,0 0,4.4771525 0,10 C0,15.5228475 4.4771525,20 10,20 C15.5228475,20 20,15.5228475 20,10 C19.9934877,4.47985222 15.5201478,0.00651227333 10,0 L10,0 Z M10,18.1818182 C5.48130659,18.1818182 1.81818182,14.5186934 1.81818182,10 C1.81818182,5.48130659 5.48130659,1.81818182 10,1.81818182 C14.5186934,1.81818182 18.1818182,5.48130659 18.1818182,10 C18.1763082,14.5164091 14.5164091,18.1763082 10,18.1818182 L10,18.1818182 Z" id="Shape"></path>
                        <path d="M10.9090909,9.62363636 L10.9090909,4.54545455 C10.9090909,4.0433775 10.502077,3.63636364 10,3.63636364 C9.49792295,3.63636364 9.09090909,4.0433775 9.09090909,4.54545455 L9.09090909,10 C9.09096058,10.2410862 9.1867733,10.4722793 9.35727273,10.6427273 L12.0845455,13.37 C12.4412535,13.7145202 13.0082589,13.7095931 13.358926,13.358926 C13.7095931,13.0082589 13.7145202,12.4412535 13.37,12.0845455 L10.9090909,9.62363636 Z" id="Path"></path>
                    </g>
                </g>
            </g>
        </g>
    </g>
</svg>