<svg width="18" height="19" viewBox="0 0 18 19" fill="none" xmlns="http://www.w3.org/2000/svg">
<path d="M17.7792 17.2418C17.9675 17.4255 18.0425 17.6962 17.9755 17.9506C17.9085 18.205 17.7098 18.4037 17.4554 18.4707C17.2011 18.5377 16.9303 18.4627 16.7466 18.2744L9.00249 10.5298L1.25799 18.2744C1.07499 18.4658 0.802709 18.5431 0.54642 18.4765C0.290131 18.4098 0.090016 18.2096 0.0234579 17.9533C-0.0431002 17.697 0.0343327 17.4247 0.225814 17.2418L7.96995 9.49724L0.225814 1.75265C-0.0450696 1.46532 -0.0384318 1.01468 0.240797 0.735451C0.520025 0.456219 0.970654 0.449581 1.25799 0.720467L9.00249 8.46469L16.747 0.720467C16.9306 0.532104 17.2014 0.457092 17.4558 0.524106C17.7102 0.59112 17.9089 0.7898 17.9759 1.04419C18.0429 1.29859 17.9679 1.56937 17.7795 1.75302L10.035 9.49724L17.7792 17.2418Z" fill="#CCCCCC"/>
</svg>
