<?xml version="1.0" encoding="UTF-8"?>
<svg width="13px" height="13px" viewBox="0 0 13 13" version="1.1" xmlns="http://www.w3.org/2000/svg" xmlns:xlink="http://www.w3.org/1999/xlink">
    <title>Group 4</title>
    <g id="Page-1" stroke="none" stroke-width="1" fill="none" fill-rule="evenodd">
        <g id="Creator_Add_library" transform="translate(-1015.000000, -101.000000)" fill="#E6E7E8" fill-rule="nonzero">
            <g id="Group-10" transform="translate(547.000000, 76.000000)">
                <g id="Group-2-Copy" transform="translate(468.857143, 25.857143)">
                    <path d="M11.85278,11.1612151 C11.9783544,11.2836476 12.0283619,11.4641656 11.9836861,11.6337622 C11.9390103,11.8033588 11.8065588,11.9358117 11.6369639,11.980488 C11.4673691,12.0251643 11.286853,11.9751562 11.1644217,11.8495805 L6.0016612,6.68652309 L0.8386573,11.8495805 C0.716663098,11.9771926 0.535139123,12.0287509 0.364279987,11.9843179 C0.193420851,11.939885 0.0600106582,11.8064262 0.0156386082,11.6355496 C-0.0287334418,11.464673 0.0228884724,11.2831654 0.150542358,11.1612151 L5.31330287,5.99815762 L0.150542358,0.835100168 C-0.0300463742,0.643543699 -0.025621186,0.34312132 0.160531184,0.156967019 C0.346683554,-0.029187282 0.647102818,-0.0336125162 0.8386573,0.146978089 L6.0016612,5.30979215 L11.1646651,0.146978089 C11.2870964,0.0214023865 11.4676125,-0.0286056343 11.6372073,0.0160706403 C11.8068022,0.0607469149 11.9392537,0.19319981 11.9839295,0.362796432 C12.0286053,0.532393055 11.9785978,0.712911022 11.8530234,0.835343562 L6.69001953,5.99815762 L11.85278,11.1612151 Z" id="Path"></path>
                </g>
            </g>
        </g>
    </g>
</svg>