<?xml version="1.0" encoding="UTF-8"?>
<svg width="18px" height="18px" viewBox="0 0 18 18" version="1.1" xmlns="http://www.w3.org/2000/svg" xmlns:xlink="http://www.w3.org/1999/xlink">
    <title>networks</title>
    <g id="Page-1" stroke="none" stroke-width="1" fill="none" fill-rule="evenodd">
        <g id="Coach_Order" transform="translate(-48.000000, -373.000000)" fill="#E6E7E8" fill-rule="nonzero" stroke="#E6E7E8" stroke-width="0.1">
            <g id="networks" transform="translate(49.000000, 374.000000)">
                <path d="M2.28571429,2.28571429 C2.28571429,1.02334857 3.30906286,0 4.57142857,0 C5.83379429,0 6.85714286,1.02334857 6.85714286,2.28571429 C6.85714286,3.02258286 6.50845714,3.67801143 5.96708571,4.096 C5.9508,4.10801143 5.93461714,4.12017143 5.91854857,4.13245714 C5.54078857,4.40849143 5.07513143,4.57142857 4.57142857,4.57142857 C3.30906286,4.57142857 2.28571429,3.54808 2.28571429,2.28571429 Z M4.57142857,1.14285714 C3.94025143,1.14285714 3.42857143,1.65453714 3.42857143,2.28571429 C3.42857143,2.91689143 3.94025143,3.42857143 4.57142857,3.42857143 C5.20260571,3.42857143 5.71428571,2.91689143 5.71428571,2.28571429 C5.71428571,1.65453714 5.20260571,1.14285714 4.57142857,1.14285714 Z M10.0329143,4.096 C9.49154286,3.67801143 9.14285714,3.02258286 9.14285714,2.28571429 C9.14285714,1.02334857 10.1662057,0 11.4285714,0 C12.6909714,0 13.7142857,1.02334857 13.7142857,2.28571429 C13.7142857,3.54808 12.6909714,4.57142857 11.4285714,4.57142857 C10.9249143,4.57142857 10.4592,4.40850286 10.0814514,4.13246857 C10.0653829,4.12017143 10.0492,4.10801143 10.0329143,4.096 Z M11.4285714,1.14285714 C10.7973714,1.14285714 10.2857143,1.65453714 10.2857143,2.28571429 C10.2857143,2.91689143 10.7973714,3.42857143 11.4285714,3.42857143 C12.0597714,3.42857143 12.5714286,2.91689143 12.5714286,2.28571429 C12.5714286,1.65453714 12.0597714,1.14285714 11.4285714,1.14285714 Z M1.71426286,5.71428571 L4.76652571,5.71428571 C4.64017143,6.07174857 4.57142857,6.45641143 4.57142857,6.85714286 L1.71426286,6.85714286 C1.39870857,6.85714286 1.14285714,7.11299429 1.14285714,7.42857143 C1.14285714,8.36218286 1.51374857,9.05454857 2.10068571,9.52565714 C2.37056,9.74227429 2.69376,9.91769143 3.05910857,10.0452 C2.79373714,10.328 2.58526857,10.6648 2.45196571,11.0372571 C2.06344,10.8792 1.70397714,10.6726857 1.38531429,10.4169143 C0.524537143,9.72602286 0,8.70409143 0,7.42857143 C0,6.48184 0.767497143,5.71428571 1.71426286,5.71428571 Z M6.02006857,5.71428571 C5.82558857,6.05048 5.71428571,6.44081143 5.71428571,6.85714286 C5.71428571,7.82118857 6.31110857,8.64584 7.15544,8.98176 C7.41670857,9.08570286 7.70168,9.14285714 8,9.14285714 C8.29832,9.14285714 8.58330286,9.08570286 8.84457143,8.98176 C9.68889143,8.64582857 10.2857143,7.82118857 10.2857143,6.85714286 C10.2857143,6.44081143 10.1744114,6.05048 9.97993143,5.71428571 C9.58472,5.03108571 8.84603429,4.57142857 8,4.57142857 C7.15396571,4.57142857 6.41528,5.03108571 6.02006857,5.71428571 Z M7.74357714,5.74316571 C7.82601143,5.72426286 7.91184,5.71428571 8,5.71428571 C8.08816,5.71428571 8.17398857,5.72426286 8.25642286,5.74316571 C8.76413714,5.85955429 9.14285714,6.31412571 9.14285714,6.85714286 C9.14285714,6.94530286 9.13288,7.03113143 9.11397714,7.11356571 C8.99758857,7.62128 8.54301714,8 8,8 C7.45698286,8 7.00241143,7.62128 6.88602286,7.11356571 C6.86713143,7.03114286 6.85714286,6.94530286 6.85714286,6.85714286 C6.85714286,6.31412571 7.23586286,5.85955429 7.74357714,5.74316571 Z M13.8993143,9.52565714 C13.6294857,9.74227429 13.3062857,9.91769143 12.9409143,10.0452 C13.2062857,10.328 13.4147429,10.6648 13.548,11.0372571 C13.9365714,10.8792 14.296,10.6726857 14.6147429,10.4169143 C15.4754286,9.72602286 16,8.70409143 16,7.42857143 C16,6.48179429 15.2324571,5.71428571 14.2857143,5.71428571 L11.2334857,5.71428571 C11.3597714,6.07174857 11.4285714,6.45641143 11.4285714,6.85714286 L14.2857143,6.85714286 C14.6012571,6.85714286 14.8571429,7.11298286 14.8571429,7.42857143 C14.8571429,8.36218286 14.4862857,9.05454857 13.8993143,9.52565714 Z M10.8571429,10.2857143 C11.5724571,10.2857143 12.1853714,10.7237714 12.4424,11.3462857 C12.5254857,11.5477714 12.5714286,11.7685714 12.5714286,12 C12.5714286,13.2755429 12.0468571,14.2974857 11.1861714,14.9883429 C10.3389714,15.6683429 9.20352,16 8,16 C6.79648,16 5.66105143,15.6683429 4.81388571,14.9883429 C3.95310857,14.2974857 3.42857143,13.2755429 3.42857143,12 C3.42857143,11.7685714 3.47445714,11.5477714 3.55762286,11.3462857 C3.81460571,10.7237714 4.42756571,10.2857143 5.14283429,10.2857143 L10.8571429,10.2857143 Z M10.8571429,11.4285714 L5.14283429,11.4285714 C4.82728,11.4285714 4.57142857,11.6844571 4.57142857,12 C4.57142857,12.9336 4.94232,13.6259429 5.52925714,14.0970286 C6.12980571,14.5790857 6.99437714,14.8571429 8,14.8571429 C9.00562286,14.8571429 9.87019429,14.5790857 10.4707429,14.0970286 C11.0577143,13.6259429 11.4285714,12.9336 11.4285714,12 C11.4285714,11.6844571 11.1726857,11.4285714 10.8571429,11.4285714 Z" id="Shape"></path>
            </g>
        </g>
    </g>
</svg>