<svg width="16" height="10" viewBox="0 0 16 10" fill="none" xmlns="http://www.w3.org/2000/svg">
    <mask id="path-1-outside-1_704_829" maskUnits="userSpaceOnUse" x="0" y="-0.549805" width="16" height="11" fill="black">
        <rect fill="currentColor" y="-0.549805" width="16" height="11"/>
        <path d="M1.86053 4.07927V9.35796C1.86053 9.45362 1.93698 9.54928 2.05185 9.54928C2.16658 9.54928 2.24316 9.47283 2.24316 9.35796V4.23228L3.52458 4.78685V7.48361C3.52458 7.56006 3.56287 7.61756 3.63931 7.65571L7.9426 9.51091C7.96168 9.52998 7.99997 9.52998 8.01905 9.52998C8.03812 9.52998 8.07641 9.52998 8.09549 9.51091L12.3988 7.65571C12.4752 7.61742 12.5135 7.56006 12.5135 7.48361L12.5136 4.78685L14.8853 3.75413C14.9617 3.71584 15 3.65848 15 3.58203C15 3.50559 14.9617 3.44809 14.8853 3.40993L8.07651 0.464503C8.03822 0.445426 7.98085 0.445426 7.92349 0.464503L1.11473 3.40979C1.03829 3.44808 1 3.50545 1 3.5819C1 3.65834 1.03829 3.71584 1.11473 3.754L1.86053 4.07927ZM12.1119 7.36889L7.99989 9.14751L3.88786 7.36889V4.95898L7.92339 6.71855H7.99983C8.01891 6.71855 8.0572 6.71855 8.07628 6.69947L12.1118 4.93991L12.1119 7.36889ZM7.99989 0.847024L14.3305 3.60116L7.99989 6.33607L1.66928 3.58193L7.99989 0.847024Z"/>
    </mask>
    <path d="M1.86053 4.07927V9.35796C1.86053 9.45362 1.93698 9.54928 2.05185 9.54928C2.16658 9.54928 2.24316 9.47283 2.24316 9.35796V4.23228L3.52458 4.78685V7.48361C3.52458 7.56006 3.56287 7.61756 3.63931 7.65571L7.9426 9.51091C7.96168 9.52998 7.99997 9.52998 8.01905 9.52998C8.03812 9.52998 8.07641 9.52998 8.09549 9.51091L12.3988 7.65571C12.4752 7.61742 12.5135 7.56006 12.5135 7.48361L12.5136 4.78685L14.8853 3.75413C14.9617 3.71584 15 3.65848 15 3.58203C15 3.50559 14.9617 3.44809 14.8853 3.40993L8.07651 0.464503C8.03822 0.445426 7.98085 0.445426 7.92349 0.464503L1.11473 3.40979C1.03829 3.44808 1 3.50545 1 3.5819C1 3.65834 1.03829 3.71584 1.11473 3.754L1.86053 4.07927ZM12.1119 7.36889L7.99989 9.14751L3.88786 7.36889V4.95898L7.92339 6.71855H7.99983C8.01891 6.71855 8.0572 6.71855 8.07628 6.69947L12.1118 4.93991L12.1119 7.36889ZM7.99989 0.847024L14.3305 3.60116L7.99989 6.33607L1.66928 3.58193L7.99989 0.847024Z" fill="currentColor" fill-opacity="0.6"/>
    <path d="M1.86053 4.07927H2.16053V3.88282L1.98047 3.80428L1.86053 4.07927ZM2.24316 4.23228L2.36231 3.95695L1.94316 3.77555V4.23228H2.24316ZM3.52458 4.78685H3.82458V4.5898L3.64373 4.51153L3.52458 4.78685ZM3.63931 7.65571L3.50534 7.92413L3.51284 7.92788L3.52055 7.9312L3.63931 7.65571ZM7.9426 9.51091L8.15473 9.29877L8.11412 9.25816L8.06137 9.23542L7.9426 9.51091ZM8.09549 9.51091L7.97672 9.23542L7.92398 9.25816L7.88336 9.29877L8.09549 9.51091ZM12.3988 7.65571L12.5175 7.9312L12.5254 7.9278L12.5331 7.92395L12.3988 7.65571ZM12.5135 7.48361L12.2135 7.4836V7.48361H12.5135ZM12.5136 4.78685L12.3939 4.5118L12.2137 4.59027L12.2136 4.78684L12.5136 4.78685ZM14.8853 3.75413L15.005 4.02919L15.0124 4.02597L15.0196 4.02237L14.8853 3.75413ZM14.8853 3.40993L15.0192 3.14151L15.0119 3.13785L15.0044 3.13459L14.8853 3.40993ZM8.07651 0.464503L7.94272 0.733019L7.94997 0.73663L7.9574 0.739844L8.07651 0.464503ZM7.92349 0.464503L7.82882 0.179832L7.8164 0.183963L7.80438 0.189161L7.92349 0.464503ZM1.11473 3.40979L0.995627 3.13445L0.987905 3.13779L0.980383 3.14156L1.11473 3.40979ZM1.11473 3.754L0.980757 4.02242L0.987694 4.02588L0.994802 4.02898L1.11473 3.754ZM12.1119 7.36889L12.231 7.64424L12.4119 7.56599L12.4119 7.36888L12.1119 7.36889ZM7.99989 9.14751L7.88079 9.42286L7.99989 9.47438L8.11899 9.42286L7.99989 9.14751ZM3.88786 7.36889H3.58786V7.56599L3.76876 7.64424L3.88786 7.36889ZM3.88786 4.95898L4.00776 4.68399L3.58786 4.5009V4.95898H3.88786ZM7.92339 6.71855L7.80348 6.99355L7.86083 7.01855H7.92339V6.71855ZM8.07628 6.69947L7.95637 6.42447L7.90431 6.44718L7.86415 6.48734L8.07628 6.69947ZM12.1118 4.93991L12.4118 4.93989L12.4118 4.48183L11.9919 4.66491L12.1118 4.93991ZM7.99989 0.847024L8.11957 0.57193L8.00031 0.520045L7.88091 0.571625L7.99989 0.847024ZM14.3305 3.60116L14.4495 3.87656L15.0847 3.60213L14.4502 3.32607L14.3305 3.60116ZM7.99989 6.33607L7.88021 6.61116L7.99947 6.66305L8.11887 6.61147L7.99989 6.33607ZM1.66928 3.58193L1.5503 3.30653L0.915054 3.58097L1.5496 3.85703L1.66928 3.58193ZM1.56053 4.07927V9.35796H2.16053V4.07927H1.56053ZM1.56053 9.35796C1.56053 9.59939 1.75205 9.84928 2.05185 9.84928V9.24928C2.08262 9.24928 2.11273 9.26368 2.13246 9.28483C2.14938 9.30296 2.16053 9.32774 2.16053 9.35796H1.56053ZM2.05185 9.84928C2.17733 9.84928 2.30527 9.80617 2.40261 9.70888C2.49997 9.61157 2.54316 9.48359 2.54316 9.35796H1.94316C1.94316 9.34721 1.94806 9.31488 1.97845 9.28451C2.00881 9.25416 2.0411 9.24928 2.05185 9.24928V9.84928ZM2.54316 9.35796V4.23228H1.94316V9.35796H2.54316ZM2.124 4.5076L3.40543 5.06217L3.64373 4.51153L2.36231 3.95695L2.124 4.5076ZM3.22458 4.78685V7.48361H3.82458V4.78685H3.22458ZM3.22458 7.48361C3.22458 7.5744 3.24817 7.66717 3.30364 7.7504C3.35789 7.8318 3.43131 7.88718 3.50534 7.92413L3.77329 7.38729C3.77088 7.38609 3.78692 7.39365 3.80292 7.41764C3.82013 7.44348 3.82458 7.46927 3.82458 7.48361H3.22458ZM3.52055 7.9312L7.82383 9.7864L8.06137 9.23542L3.75808 7.38022L3.52055 7.9312ZM7.73047 9.72304C7.80665 9.79922 7.89668 9.81773 7.93162 9.82354C7.9736 9.83052 8.01123 9.82998 8.01905 9.82998V9.22998C8.00779 9.22998 8.01673 9.22945 8.03003 9.23166C8.03768 9.23293 8.05343 9.23608 8.07331 9.24419C8.09315 9.25229 8.12422 9.26826 8.15473 9.29877L7.73047 9.72304ZM8.01905 9.82998C8.02686 9.82998 8.06449 9.83052 8.10647 9.82354C8.14141 9.81773 8.23144 9.79922 8.30762 9.72304L7.88336 9.29877C7.91387 9.26826 7.94494 9.25229 7.96478 9.24419C7.98466 9.23608 8.00041 9.23293 8.00806 9.23166C8.02136 9.22945 8.03031 9.22998 8.01905 9.22998V9.82998ZM8.21426 9.7864L12.5175 7.9312L12.28 7.38022L7.97672 9.23542L8.21426 9.7864ZM12.5331 7.92395C12.6069 7.88702 12.6802 7.83174 12.7344 7.75042C12.7899 7.6672 12.8135 7.57444 12.8135 7.48361H12.2135C12.2135 7.46923 12.218 7.44338 12.2352 7.41753C12.2512 7.39357 12.2671 7.38612 12.2644 7.38748L12.5331 7.92395ZM12.8135 7.48363L12.8136 4.78687L12.2136 4.78684L12.2135 7.4836L12.8135 7.48363ZM12.6334 5.06191L15.005 4.02919L14.7655 3.47908L12.3939 4.5118L12.6334 5.06191ZM15.0196 4.02237C15.0934 3.98544 15.1667 3.93015 15.2209 3.84883C15.2764 3.76561 15.3 3.67286 15.3 3.58203H14.7C14.7 3.56765 14.7045 3.5418 14.7217 3.51595C14.7377 3.49199 14.7536 3.48454 14.7509 3.4859L15.0196 4.02237ZM15.3 3.58203C15.3 3.49125 15.2764 3.39848 15.2209 3.31525C15.1667 3.23385 15.0933 3.17846 15.0192 3.14151L14.7513 3.67835C14.7537 3.67956 14.7377 3.672 14.7217 3.648C14.7044 3.62217 14.7 3.59637 14.7 3.58203H15.3ZM15.0044 3.13459L8.19562 0.189163L7.9574 0.739844L14.7662 3.68527L15.0044 3.13459ZM8.2103 0.195988C8.076 0.129075 7.93003 0.146173 7.82882 0.179832L8.01816 0.749175C8.01933 0.748784 8.01607 0.750195 8.00715 0.750195C7.99984 0.750195 7.97526 0.749233 7.94272 0.733019L8.2103 0.195988ZM7.80438 0.189161L0.995627 3.13445L1.23384 3.68514L8.04259 0.739846L7.80438 0.189161ZM0.980383 3.14156C0.906652 3.17849 0.833337 3.23377 0.779107 3.31509C0.723612 3.39831 0.7 3.49107 0.7 3.5819H1.3C1.3 3.59627 1.29553 3.62213 1.27829 3.64798C1.26232 3.67194 1.24637 3.67939 1.24908 3.67803L0.980383 3.14156ZM0.7 3.5819C0.7 3.67268 0.72359 3.76545 0.779062 3.84868C0.833312 3.93008 0.906724 3.98547 0.980757 4.02242L1.24871 3.48557C1.2463 3.48437 1.26234 3.49193 1.27834 3.51593C1.29555 3.54176 1.3 3.56756 1.3 3.5819H0.7ZM0.994802 4.02898L1.7406 4.35425L1.98047 3.80428L1.23467 3.47901L0.994802 4.02898ZM11.9928 7.09355L7.88079 8.87217L8.11899 9.42286L12.231 7.64424L11.9928 7.09355ZM8.11899 8.87217L4.00696 7.09355L3.76876 7.64424L7.88079 9.42286L8.11899 8.87217ZM4.18786 7.36889V4.95898H3.58786V7.36889H4.18786ZM3.76796 5.23398L7.80348 6.99355L8.04329 6.44355L4.00776 4.68399L3.76796 5.23398ZM7.92339 7.01855H7.99983V6.41855H7.92339V7.01855ZM7.99983 7.01855C8.00766 7.01855 8.04528 7.01908 8.08726 7.0121C8.1222 7.00629 8.21223 6.98778 8.28841 6.91161L7.86415 6.48734C7.89466 6.45682 7.92572 6.44086 7.94556 6.43276C7.96544 6.42464 7.98119 6.4215 7.98884 6.42023C8.00214 6.41802 8.01108 6.41855 7.99983 6.41855V7.01855ZM8.19618 6.97447L12.2317 5.2149L11.9919 4.66491L7.95637 6.42447L8.19618 6.97447ZM11.8118 4.93992L11.8119 7.36891L12.4119 7.36888L12.4118 4.93989L11.8118 4.93992ZM7.88021 1.12212L14.2108 3.87626L14.4502 3.32607L8.11957 0.57193L7.88021 1.12212ZM14.2115 3.32576L7.88091 6.06067L8.11887 6.61147L14.4495 3.87656L14.2115 3.32576ZM8.11957 6.06098L1.78896 3.30684L1.5496 3.85703L7.88021 6.61116L8.11957 6.06098ZM1.78825 3.85733L8.11887 1.12242L7.88091 0.571625L1.5503 3.30653L1.78825 3.85733Z" fill="currentColor" fill-opacity="0.6" mask="url(#path-1-outside-1_704_829)"/>
</svg>
