<svg width="25" height="19" viewBox="0 0 25 19" fill="none" xmlns="http://www.w3.org/2000/svg">
<path d="M22.5232 10.9876L24.527 3.40286C24.6717 2.85523 24.1878 2.33375 23.535 2.33375H6.88573L6.4972 0.69976C6.40038 0.292485 5.98379 0 5.50053 0H1.15452C0.592667 0 0.137207 0.391815 0.137207 0.875156V1.45859C0.137207 1.94194 0.592667 2.33375 1.15452 2.33375H4.11673L7.0944 14.8571C6.38203 15.2095 5.90198 15.8703 5.90198 16.628C5.90198 17.7558 6.96474 18.67 8.27571 18.67C9.58669 18.67 10.6494 17.7558 10.6494 16.628C10.6494 16.0564 10.3762 15.54 9.93631 15.1694H18.8228C18.383 15.54 18.1097 16.0564 18.1097 16.628C18.1097 17.7558 19.1725 18.67 20.4835 18.67C21.7945 18.67 22.8572 17.7558 22.8572 16.628C22.8572 15.8195 22.3109 15.1208 21.5186 14.79L21.7525 13.9047C21.8972 13.3571 21.4133 12.8356 20.7605 12.8356H9.38276L9.10533 11.6687H21.5312C22.0062 11.6687 22.4179 11.386 22.5232 10.9876Z" fill="#D1D1D1"/>
</svg>
