<?xml version="1.0" encoding="UTF-8"?>
<svg width="20px" height="20px" viewBox="0 0 20 20" version="1.1" xmlns="http://www.w3.org/2000/svg" xmlns:xlink="http://www.w3.org/1999/xlink">
    <title>dashboard</title>
    <g id="Page-1" stroke="none" stroke-width="1" fill="none" fill-rule="evenodd">
        <g id="Creator_channels" transform="translate(-1527.000000, -31.000000)">
            <g id="dashboard" transform="translate(1527.000000, 31.000000)">
                <polygon id="Path" points="0 0 20 0 20 20 0 20"></polygon>
                <path d="M3.33333333,10.8333333 L8.13658523,10.8333333 C8.59491856,10.8333333 8.96991856,10.4583333 8.96991856,10 L8.96991856,3.33333333 C8.96991856,2.875 8.59491856,2.5 8.13658523,2.5 L3.33333333,2.5 C2.875,2.5 2.5,2.875 2.5,3.33333333 L2.5,10 C2.5,10.4583333 2.875,10.8333333 3.33333333,10.8333333 Z M3.33333333,17.5 L8.13658523,17.5 C8.59491856,17.5 8.96991856,17.125 8.96991856,16.6666667 L8.96991856,13.8403499 C8.96991856,13.3820166 8.59491856,13.0070166 8.13658523,13.0070166 L3.33333333,13.0070166 C2.875,13.0070166 2.5,13.3820166 2.5,13.8403499 L2.5,16.6666667 C2.5,17.125 2.875,17.5 3.33333333,17.5 Z M11.8636334,17.5 L16.6666667,17.5 C17.125,17.5 17.5,17.125 17.5,16.6666667 L17.5,10 C17.5,9.54166667 17.125,9.16666667 16.6666667,9.16666667 L12.0606002,9.16666667 C11.6022669,9.16666667 11.0303001,9.54166667 11.0303001,10 L11.0303001,16.6666667 C11.0303001,17.125 11.4053001,17.5 11.8636334,17.5 Z M11.0303001,3.33333333 L11.0303001,6.21055165 C11.0303001,6.66888498 11.4053001,7.04388498 11.8636334,7.04388498 L16.6666667,7.04388498 C17.125,7.04388498 17.5,6.66888498 17.5,6.21055165 L17.5,3.33333333 C17.5,2.875 17.125,2.5 16.6666667,2.5 L11.8636334,2.5 C11.4053001,2.5 11.0303001,2.875 11.0303001,3.33333333 Z" id="Shape" stroke="currentColor" stroke-width="1.3" fill-rule="nonzero"></path>
            </g>
        </g>
    </g>
</svg>