<?xml version="1.0" encoding="UTF-8"?>
<svg width="18px" height="17px" viewBox="0 0 18 17" version="1.1" xmlns="http://www.w3.org/2000/svg" xmlns:xlink="http://www.w3.org/1999/xlink">
    <title>star</title>
    <g id="Page-1" stroke="none" stroke-width="1" fill="none" fill-rule="evenodd" stroke-linecap="round" stroke-linejoin="round">
        <g id="Coach_Order" transform="translate(-48.000000, -432.000000)" stroke="#E6E7E8" stroke-width="1.26315789">
            <g id="star" transform="translate(49.000000, 433.000000)">
                <path d="M8.60087191,0.367774912 L10.5517395,4.24724059 C10.647386,4.44222634 10.8356403,4.57853096 11.0546976,4.61140499 L15.421288,5.23568683 C15.5984853,5.25959465 15.758544,5.35155492 15.8658749,5.49112026 C15.973206,5.6306856 16.0189123,5.806287 15.9928312,5.97887949 C15.9708914,6.12075334 15.9011878,6.25148052 15.7946962,6.35047582 L12.632157,9.38270184 C12.472317,9.53213809 12.4006571,9.75018226 12.4416425,9.96239217 L13.2037002,14.2357499 C13.2588441,14.5878629 13.0149176,14.9182628 12.6550187,14.9789426 C12.506618,15.0016133 12.3546646,14.9782147 12.2206458,14.9120553 L8.32653115,12.8980032 C8.13200607,12.7935404 7.89616896,12.7935404 7.70164387,12.8980032 L3.7846675,14.9269191 C3.45603722,15.0913768 3.05289058,14.9691317 2.87781889,14.6519378 C2.80955944,14.5240436 2.78550263,14.3780623 2.8092337,14.2357499 L3.57129136,9.96239217 C3.60815044,9.75045042 3.53709948,9.53425917 3.38077694,9.38270184 L0.195375924,6.35047582 C-0.0651253081,6.09291927 -0.0651253081,5.67904154 0.195375924,5.42148499 C0.301691914,5.32548617 0.433866651,5.26103481 0.576404754,5.23568683 L4.94299514,4.61140499 C5.16101757,4.57613451 5.3482539,4.44056694 5.4459532,4.24724059 L7.3968208,0.367774912 C7.47390495,0.210473867 7.6128582,0.0901971901 7.78216247,0.0342266507 C7.95146675,-0.0217438889 8.13677291,-0.0086645849 8.29604885,0.0704978483 C8.42745962,0.135492242 8.5342277,0.23961727 8.60087191,0.367774912 Z" id="Path"></path>
            </g>
        </g>
    </g>
</svg>