<?xml version="1.0" encoding="UTF-8"?>
<svg width="16px" height="18px" viewBox="0 0 16 18" version="1.1" xmlns="http://www.w3.org/2000/svg" xmlns:xlink="http://www.w3.org/1999/xlink">
    <title>feed</title>
    <g id="Page-1" stroke="none" stroke-width="1" fill="none" fill-rule="evenodd">
        <g id="Coach_Order" transform="translate(-49.000000, -316.000000)" fill-rule="nonzero">
            <g id="feed" transform="translate(50.000000, 316.000000)">
                <path d="M12.0909091,17 L1.90909091,17 C0.854729114,17 0,16.1733216 0,15.1535621 L0,7.15233113 C0,6.13257163 0.854729114,5.30589321 1.90909091,5.30589321 L12.0909091,5.30589321 C13.1452709,5.30589321 14,6.13257163 14,7.15233113 L14,15.1535621 C14,16.1733216 13.1452709,17 12.0909091,17 Z" id="Shape" stroke="#E6E7E8" stroke-width="1.3"></path>
                <path d="M10.8181818,3.07739652 C10.4667279,3.07739652 10.1818182,2.80183705 10.1818182,2.46191722 L10.1818182,1.84643791 C10.1818182,1.50651808 9.89690848,1.23095861 9.54545455,1.23095861 L4.45454545,1.23095861 C4.10309152,1.23095861 3.81818182,1.50651808 3.81818182,1.84643791 L3.81818182,2.46191722 C3.81818182,2.80183705 3.53327211,3.07739652 3.18181818,3.07739652 C2.83036425,3.07739652 2.54545455,2.80183705 2.54545455,2.46191722 L2.54545455,1.84643791 C2.54545455,0.826678412 3.40018366,0 4.45454545,0 L9.54545455,0 C10.5998163,0 11.4545455,0.826678412 11.4545455,1.84643791 L11.4545455,2.46191722 C11.4545455,2.80183705 11.1696357,3.07739652 10.8181818,3.07739652 Z" id="Path" fill="#E6E7E8"></path>
                <path d="M12.0909091,5.53808278 C11.7394552,5.53808278 11.4545455,5.26252331 11.4545455,4.92260348 L11.4545455,3.69164487 C11.4545455,3.35172503 11.1696357,3.07616556 10.8181818,3.07616556 L3.18181818,3.07616556 C2.83036425,3.07616556 2.54545455,3.35172503 2.54545455,3.69164487 L2.54545455,4.92260348 C2.54545455,5.26252331 2.26054484,5.53808278 1.90909091,5.53808278 C1.55763698,5.53808278 1.27272727,5.26252331 1.27272727,4.92260348 L1.27272727,3.69164487 C1.27272727,2.67188537 2.12745639,1.84520695 3.18181818,1.84520695 L10.8181818,1.84520695 C11.8725436,1.84520695 12.7272727,2.67188537 12.7272727,3.69164487 L12.7272727,4.92260348 C12.7272727,5.26252331 12.442363,5.53808278 12.0909091,5.53808278 L12.0909091,5.53808278 Z" id="Path" fill="#E6E7E8"></path>
            </g>
        </g>
    </g>
</svg>