<svg width="15" height="15" viewBox="0 0 15 15" fill="none" xmlns="http://www.w3.org/2000/svg">
<g clip-path="url(#clip0_704_733)">
<path d="M0.761878 7.62891C0.855628 7.62891 0.937659 7.59375 1.00797 7.52344L7.23063 1.26562C7.30094 1.19531 7.39469 1.14844 7.50016 1.14844C7.59391 1.14844 7.68766 1.18359 7.76969 1.26562L13.9923 7.5C14.0627 7.57031 14.1447 7.60547 14.2384 7.60547C14.3322 7.60547 14.4142 7.57031 14.4728 7.51172C14.5431 7.45312 14.5783 7.38281 14.5783 7.28906C14.59 7.18359 14.5431 7.07813 14.4728 7.00781L8.28532 0.773437C8.07438 0.5625 7.80485 0.445312 7.51188 0.445312C7.21891 0.445312 6.94938 0.5625 6.73844 0.773437L0.515785 7.03125C0.445472 7.10156 0.410316 7.19531 0.410316 7.30078C0.410316 7.40625 0.468909 7.5 0.539222 7.55859C0.609534 7.60547 0.691566 7.62891 0.761878 7.62891Z" fill="white" fill-opacity="0.6"/>
<path d="M5.66016 14.625V14.1328H6.15234V13.2422C6.15234 12.4922 6.76172 11.8945 7.5 11.8945C8.25 11.8945 8.84766 12.5039 8.84766 13.2422V14.1328H9.33984V14.625H12.1172C12.7148 14.625 13.1953 14.1445 13.1953 13.5469V7.46484C13.1953 7.26562 13.043 7.11328 12.8438 7.11328C12.6445 7.11328 12.4922 7.26562 12.4922 7.46484V13.5469C12.4922 13.7578 12.3281 13.9219 12.1172 13.9219H9.55078V13.2539C9.55078 12.1172 8.625 11.2031 7.5 11.2031C6.375 11.2031 5.44922 12.1289 5.44922 13.2539V13.9219H2.88281C2.67188 13.9219 2.50781 13.7578 2.50781 13.5469V7.46484C2.50781 7.26562 2.35547 7.11328 2.15625 7.11328C1.95703 7.11328 1.80469 7.26562 1.80469 7.46484V13.5469C1.80469 14.1445 2.28516 14.625 2.88281 14.625H5.66016Z" fill="white" fill-opacity="0.6"/>
<path d="M6.15234 14.625V13.9219H5.44922V14.625H6.15234ZM9.55078 14.625V13.9219H8.84766V14.625H9.55078Z" fill="white" fill-opacity="0.6"/>
</g>
<defs>
<clipPath id="clip0_704_733">
<rect width="15" height="15" fill="white" transform="matrix(-1 0 0 1 15 0)"/>
</clipPath>
</defs>
</svg>
