<?xml version="1.0" encoding="UTF-8"?>
<svg width="16px" height="16px" viewBox="0 0 16 16" version="1.1" xmlns="http://www.w3.org/2000/svg" xmlns:xlink="http://www.w3.org/1999/xlink">
    <title>chat</title>
    <g id="Page-1" stroke="none" stroke-width="1" fill="none" fill-rule="evenodd">
        <g id="Coach_Order" transform="translate(-49.000000, -899.000000)" fill="#E6E7E8" fill-rule="nonzero">
            <g id="Group-4" transform="translate(49.000000, 898.000000)">
                <g id="chat" transform="translate(0.000000, 1.000000)">
                    <path d="M15.8404112,6.42085704 C15.4184892,4.32598786 14.2066938,2.52108231 12.4276585,1.33866573 C10.7279699,0.208935727 8.68498718,-0.226306569 6.67131807,0.1115937 C6.65797382,0.113593665 6.64466083,0.115593629 6.63131658,0.117593594 C2.28540394,0.872767729 -0.635424112,5.02250678 0.119760399,9.36683615 C0.179762644,9.71476749 0.264390811,10.0620113 0.369050978,10.3952554 C0.809629965,11.8262614 0.7010009,13.3599217 0.0637583029,14.7142728 C-0.0475583628,14.9488936 -0.010900741,15.2274824 0.15641802,15.4267914 C0.323736782,15.6260691 0.588996709,15.7080677 0.842287437,15.6407564 L3.82977424,14.824927 C5.09488408,15.5994133 6.52331253,16 7.98174211,16 C8.51163694,16 9.04556317,15.9473447 9.57745808,15.8400341 C11.6724427,15.4181353 13.4774478,14.2064067 14.6599295,12.4274695 C15.8424113,10.6485322 16.261677,8.51569496 15.8404112,6.42085704 Z M13.5494817,11.6889825 C12.5636636,13.1719876 11.0592323,14.1824072 9.31419823,14.5336822 C7.57050797,14.882926 5.79147265,14.5350259 4.3083859,13.5492309 C4.19772551,13.4759197 4.06909569,13.4379203 3.93912208,13.4379203 C3.88046363,13.4379203 3.82114891,13.4459202 3.76383427,13.4612637 L1.72885186,14.0164726 C2.07280224,12.7054333 2.04745754,11.3170829 1.64219237,9.99804373 C1.5535328,9.71676745 1.48287391,9.42883505 1.43290329,9.13890268 C0.805661067,5.52771659 3.22456409,2.07915263 6.82863646,1.43663275 C6.84063691,1.43528902 6.85263736,1.43328906 6.86463781,1.43128909 C8.55166969,1.140013 10.2647338,1.50194409 11.6898184,2.44839609 C13.1729051,3.4341599 14.1827242,4.93850827 14.5339873,6.68344614 C14.8852505,8.42907149 14.5352999,10.206665 13.5494817,11.6889825 Z" id="Shape"></path>
                    <path d="M10.6646238,5.99961449 L5.33220546,5.99961449 C4.96359792,5.99961449 4.66564927,6.29754672 4.66564927,6.66613395 C4.66564927,7.03472117 4.96359792,7.3326534 5.33220546,7.3326534 L10.6646238,7.3326534 C11.032575,7.3326534 11.33118,7.03472117 11.33118,6.66613395 C11.33118,6.29754672 11.0332313,5.99961449 10.6646238,5.99961449 Z" id="Path"></path>
                    <path d="M10.6646238,8.66566106 L5.33220546,8.66566106 C4.96359792,8.66566106 4.66564927,8.96359328 4.66564927,9.33218051 C4.66564927,9.70076774 4.96359792,9.99869996 5.33220546,9.99869996 L10.6646238,9.99869996 C11.032575,9.99869996 11.33118,9.70076774 11.33118,9.33218051 C11.33118,8.96359328 11.0332313,8.66566106 10.6646238,8.66566106 Z" id="Path"></path>
                </g>
            </g>
        </g>
    </g>
</svg>