<svg id="Layer_1" data-name="Layer 1" xmlns="http://www.w3.org/2000/svg" viewBox="0 0 144 144"><defs><style>.cls-1{fill:#fff;}</style></defs><rect width="144" height="144" rx="33.16"/><path class="cls-1" d="M49.41,31.47a21.12,21.12,0,0,0-7.59,1.7,16.9,16.9,0,0,0-9.15,10,24.84,24.84,0,0,0-1.24,8.51q0,20.25,0,40.5A28.88,28.88,0,0,0,32,98.23c1.46,6.85,5.53,11.37,12.22,13.46a25.27,25.27,0,0,0,7.6.93h37c2,0,4,0,6-.1a21.17,21.17,0,0,0,7.49-1.69,16.9,16.9,0,0,0,9.11-9.83,21,21,0,0,0,1.22-7.36V72.05q0-10.86,0-21.7a20.19,20.19,0,0,0-1.7-8.54,16.9,16.9,0,0,0-11.83-9.72,32.43,32.43,0,0,0-7.86-.72H55.45C53.43,31.37,51.42,31.34,49.41,31.47ZM79.73,42c2.11,0,4.21.05,6.31.26a17.75,17.75,0,0,1,9.49,3.45,15.92,15.92,0,0,1,5.92,10.24,46.28,46.28,0,0,1,.49,6.33c.11,3.23,0,6.47,0,9.7,0,2.59,0,5.19,0,7.78,0,2.13,0,4.27-.27,6.39a18.11,18.11,0,0,1-2.93,8.75,15.44,15.44,0,0,1-9.42,6.33,25.68,25.68,0,0,1-4.79.65c-6.49.31-13,.16-19.49.17q-3.13,0-6.26-.19a19.08,19.08,0,0,1-9-2.53,15.61,15.61,0,0,1-7.3-10.81A33.91,33.91,0,0,1,42,82.82c-.19-6.09-.11-12.17-.09-18.26,0-1.84.07-3.69.18-5.53A19.27,19.27,0,0,1,44.61,50,15.57,15.57,0,0,1,55.43,42.6,39.49,39.49,0,0,1,62.12,42C68,41.88,73.86,42,79.73,42Z"/><path class="cls-1" d="M47.62,57a42.18,42.18,0,0,0-.43,6.92c0,7.26-.26,14.52.25,21.77a12.72,12.72,0,0,0,1.61,5.58c1.85,3.2,4.8,4.7,8.34,5.18a52.48,52.48,0,0,0,7,.36c6.16,0,12.33.12,18.49-.09a27.75,27.75,0,0,0,4.27-.36A10.68,10.68,0,0,0,96.45,86a65.91,65.91,0,0,0,.29-7.17c0-2.29,0-4.57,0-7.52-.07-2.68.09-6-.07-9.36-.08-1.52-.08-3.05-.3-4.56a12.27,12.27,0,0,0-1.85-5.21,10.61,10.61,0,0,0-7.44-4.52,44.65,44.65,0,0,0-7.48-.44c-5.81,0-11.62-.12-17.44.06a45.76,45.76,0,0,0-4.69.29,12,12,0,0,0-5.72,2.15A10.76,10.76,0,0,0,47.62,57ZM88,52.4A3.57,3.57,0,0,1,91.56,56,3.54,3.54,0,1,1,88,52.4ZM72.17,56.62a15.38,15.38,0,1,1-15.6,15.27A15.34,15.34,0,0,1,72.17,56.62Z"/><path class="cls-1" d="M71.91,82.15A10.15,10.15,0,1,0,61.81,72,10.15,10.15,0,0,0,71.91,82.15Z"/></svg>