<?xml version="1.0" encoding="UTF-8"?>
<svg width="25px" height="25px" viewBox="0 0 25 25" version="1.1" xmlns="http://www.w3.org/2000/svg" xmlns:xlink="http://www.w3.org/1999/xlink">
    <title>Group 16 Copy</title>
    <g id="Page-1" stroke="none" stroke-width="1" fill="none" fill-rule="evenodd">
        <g id="Course-Details" transform="translate(-1131.000000, -1010.000000)">
            <g id="Group-2" transform="translate(392.000000, 822.000000)">
                <g id="Group-16-Copy" transform="translate(739.000000, 188.000000)">
                    <circle id="Oval" fill="#FF5E54" cx="12.5" cy="12.5" r="12.5"></circle>
                    <g id="lock" transform="translate(7.916667, 5.937500)" fill="#000000" fill-rule="nonzero">
                        <path d="M7.79296875,4.453125 L7.421875,4.453125 L7.421875,2.96875 C7.421875,1.33144379 6.09043121,0 4.453125,0 C2.81581879,0 1.484375,1.33144379 1.484375,2.96875 L1.484375,4.453125 L1.11328125,4.453125 C0.499744415,4.453125 0,4.95232583 0,5.56640625 L0,10.7617188 C0,11.3757992 0.499744415,11.875 1.11328125,11.875 L7.79296875,11.875 C8.40650558,11.875 8.90625,11.3757992 8.90625,10.7617188 L8.90625,5.56640625 C8.90625,4.95232583 8.40650558,4.453125 7.79296875,4.453125 Z M2.47398854,2.96875 C2.47398854,1.87721252 3.36158752,0.989613539 4.453125,0.989613539 C5.54466248,0.989613539 6.43226146,1.87721252 6.43226146,2.96875 L6.43226146,4.453125 L2.47398854,4.453125 L2.47398854,2.96875 Z" id="Shape"></path>
                    </g>
                </g>
            </g>
        </g>
    </g>
</svg>