<?xml version="1.0" encoding="UTF-8"?>
<svg width="24px" height="24px" viewBox="0 0 24 24" version="1.1" xmlns="http://www.w3.org/2000/svg" xmlns:xlink="http://www.w3.org/1999/xlink">
    <title>Shape</title>
    <g id="Page-1" stroke="none" stroke-width="1" fill="none" fill-rule="evenodd" opacity="0.755654978">
        <g id="Coach_products" transform="translate(-1396.000000, -33.000000)" fill="#FFFFFF" fill-rule="nonzero" stroke="#3C3D3D" stroke-width="0.4">
            <g id="bell-(4)" transform="translate(1397.000000, 34.000000)">
                <path d="M21.8125532,20.9078103 L16.8138171,15.9090741 C18.3480297,14.1595711 19.194547,11.9458641 19.194547,9.59727352 C19.194547,7.03362685 18.1960807,4.62368646 16.3834706,2.81107641 C14.5708606,0.998466363 12.1609202,0 9.59727352,0 C7.03362685,0 4.62368646,0.998466363 2.81107641,2.81107641 C0.998466363,4.62368646 0,7.03362685 0,9.59727352 C0,12.1609202 0.998466363,14.5708606 2.81107641,16.3834706 C4.62368646,18.1960807 7.03362685,19.194547 9.59727352,19.194547 C11.9458641,19.194547 14.1595711,18.3480297 15.9090741,16.8138171 L20.9078103,21.8125532 C21.0327748,21.9375177 21.1964783,22 21.3601818,22 C21.5238853,22 21.6875888,21.9375177 21.8125533,21.8125532 C22.0624822,21.5626242 22.0624822,21.1577393 21.8125532,20.9078103 L21.8125532,20.9078103 Z M3.71581932,15.4787276 C2.14501558,13.9076114 1.27963641,11.8188299 1.27963641,9.59727346 C1.27963641,7.37571706 2.14501558,5.28693548 3.71581932,3.71581932 C5.28693548,2.14501558 7.37571706,1.27963641 9.59727346,1.27963641 C11.8188299,1.27963641 13.9076114,2.14501558 15.4787276,3.71581932 C17.0495313,5.28693548 17.9149105,7.37571706 17.9149105,9.59727346 C17.9149105,11.8188299 17.0495313,13.9076114 15.4787276,15.4787276 C13.9076114,17.0495313 11.8188299,17.9149105 9.59727346,17.9149105 C7.37571706,17.9149105 5.28693548,17.0495313 3.71581932,15.4787276 Z" id="Shape"></path>
            </g>
        </g>
    </g>
</svg>