<svg width="14" height="15" viewBox="0 0 14 15" fill="none" xmlns="http://www.w3.org/2000/svg">
<path d="M9.34815 3.33345C10.6069 4.17462 11.4544 5.48635 11.8096 6.9426C12.1752 8.44089 12.0203 10.0933 11.258 11.543C10.5876 12.8177 9.5589 13.7243 8.39262 14.1976C11.4178 13.5768 13.7075 10.6618 13.7075 7.15988C13.7075 5.61375 13.1366 4.21365 12.214 3.20077C11.2914 2.18789 10.0163 1.56098 8.60831 1.56098C7.20012 1.56098 5.92526 2.18789 5.00263 3.20077C4.88365 3.33119 4.77086 3.46815 4.664 3.61116C5.35956 3.01421 6.23544 2.6582 7.18677 2.6582C7.93353 2.6582 8.63404 2.8775 9.23659 3.2612C9.27469 3.28411 9.31179 3.30828 9.34815 3.33345ZM3.08736 7.15988C3.08736 5.48585 3.7055 3.96993 4.70457 2.87296C5.70363 1.77625 7.08411 1.09747 8.60881 1.09747C9.94724 1.09747 11.1746 1.62065 12.1304 2.49027C10.9344 0.965544 9.16362 0 7.18726 0C5.99922 0 4.88538 0.348704 3.92688 0.959501C2.70767 1.73244 1.88868 2.97544 1.55104 4.35917C1.21365 5.74291 1.35662 7.2689 2.06059 8.60782C2.76481 9.94674 3.89671 10.8458 5.15673 11.2167C5.31825 11.2643 5.482 11.303 5.64723 11.3332C4.14604 10.6648 3.08736 9.04816 3.08736 7.15988ZM5.04715 11.6646C3.68274 11.2633 2.4571 10.2899 1.69476 8.83995C1.02393 7.56397 0.823327 6.13114 1.03407 4.78416C0.796118 5.52764 0.666504 6.32702 0.666504 7.15988C0.666504 9.80977 1.97748 12.1236 3.92664 13.3605C5.14584 14.1334 6.53573 14.2906 7.796 13.9199C9.05627 13.5491 10.1882 12.65 10.8921 11.3111C11.5961 9.97217 11.7393 8.44618 11.4017 7.06244C11.3584 6.88469 11.3069 6.70896 11.2478 6.53649C11.2736 6.74018 11.2867 6.94814 11.2867 7.15988C11.2867 8.8261 10.4622 10.2811 9.23659 11.0588C9.19454 11.0863 9.15175 11.1124 9.10846 11.1376C7.81999 11.9063 6.36778 12.0533 5.04715 11.6646Z" fill="#8F8F8F"/>
<mask id="mask0_731_461" style="mask-type:luminance" maskUnits="userSpaceOnUse" x="0" y="0" width="14" height="15">
<path d="M9.34815 3.33345C10.6069 4.17462 11.4544 5.48635 11.8096 6.9426C12.1752 8.44089 12.0203 10.0933 11.258 11.543C10.5876 12.8177 9.5589 13.7243 8.39262 14.1976C11.4178 13.5768 13.7075 10.6618 13.7075 7.15988C13.7075 5.61375 13.1366 4.21365 12.214 3.20077C11.2914 2.18789 10.0163 1.56098 8.60831 1.56098C7.20012 1.56098 5.92526 2.18789 5.00263 3.20077C4.88365 3.33119 4.77086 3.46815 4.664 3.61116C5.35956 3.01421 6.23544 2.6582 7.18677 2.6582C7.93353 2.6582 8.63404 2.8775 9.23659 3.2612C9.27469 3.28411 9.31179 3.30828 9.34815 3.33345ZM3.08736 7.15988C3.08736 5.48585 3.7055 3.96993 4.70457 2.87296C5.70363 1.77625 7.08411 1.09747 8.60881 1.09747C9.94724 1.09747 11.1746 1.62065 12.1304 2.49027C10.9344 0.965544 9.16362 0 7.18726 0C5.99922 0 4.88538 0.348704 3.92688 0.959501C2.70767 1.73244 1.88868 2.97544 1.55104 4.35917C1.21365 5.74291 1.35662 7.2689 2.06059 8.60782C2.76481 9.94674 3.89671 10.8458 5.15673 11.2167C5.31825 11.2643 5.482 11.303 5.64723 11.3332C4.14604 10.6648 3.08736 9.04816 3.08736 7.15988ZM5.04715 11.6646C3.68274 11.2633 2.4571 10.2899 1.69476 8.83995C1.02393 7.56397 0.823327 6.13114 1.03407 4.78416C0.796118 5.52764 0.666504 6.32702 0.666504 7.15988C0.666504 9.80977 1.97748 12.1236 3.92664 13.3605C5.14584 14.1334 6.53573 14.2906 7.796 13.9199C9.05627 13.5491 10.1882 12.65 10.8921 11.3111C11.5961 9.97217 11.7393 8.44618 11.4017 7.06244C11.3584 6.88469 11.3069 6.70896 11.2478 6.53649C11.2736 6.74018 11.2867 6.94814 11.2867 7.15988C11.2867 8.8261 10.4622 10.2811 9.23659 11.0588C9.19454 11.0863 9.15175 11.1124 9.10846 11.1376C7.81999 11.9063 6.36778 12.0533 5.04715 11.6646Z" fill="white"/>
</mask>
<g mask="url(#mask0_731_461)">
<path d="M13.708 0H0.666992V14.2906H13.708V0Z" fill="#8F8F8F"/>
</g>
</svg>
