<?xml version="1.0" encoding="UTF-8"?>
<svg width="14px" height="12px" viewBox="0 0 14 12" version="1.1" xmlns="http://www.w3.org/2000/svg" xmlns:xlink="http://www.w3.org/1999/xlink">
    <title>option</title>
    <g id="Page-1" stroke="none" stroke-width="1" fill="none" fill-rule="evenodd">
        <g id="Coach_products" transform="translate(-1293.000000, -147.000000)" fill="#FFFFFF" fill-rule="nonzero">
            <g id="option" transform="translate(1293.000000, 147.000000)">
                <path d="M4.375,1.76470588 C3.892,1.76470588 3.5,2.16 3.5,2.64705882 C3.5,3.13411765 3.892,3.52941176 4.375,3.52941176 C4.858,3.52941176 5.25,3.13411765 5.25,2.64705882 C5.25,2.16 4.858,1.76470588 4.375,1.76470588 Z M0.875,1.76470588 L1.899625,1.76470588 C2.260125,0.736764706 3.23225,0 4.375,0 C5.51775,0 6.489875,0.736764706 6.850375,1.76470588 L13.125,1.76470588 C13.608,1.76470588 14,2.16 14,2.64705882 C14,3.13411765 13.608,3.52941176 13.125,3.52941176 L6.850375,3.52941176 C6.489875,4.55735294 5.51775,5.29411765 4.375,5.29411765 C3.23225,5.29411765 2.260125,4.55735294 1.899625,3.52941176 L0.875,3.52941176 C0.392,3.52941176 0,3.13411765 0,2.64705882 C0,2.16 0.392,1.76470588 0.875,1.76470588 Z M13.125,8.47058824 C13.608,8.47058824 14,8.86588235 14,9.35294118 C14,9.84 13.608,10.2352941 13.125,10.2352941 L12.100375,10.2352941 C11.739875,11.2632353 10.76775,12 9.625,12 C8.48225,12 7.510125,11.2632353 7.149625,10.2352941 L0.875,10.2352941 C0.392,10.2352941 0,9.84 0,9.35294118 C0,8.86588235 0.392,8.47058824 0.875,8.47058824 L7.149625,8.47058824 C7.510125,7.44264706 8.48225,6.70588235 9.625,6.70588235 C10.76775,6.70588235 11.739875,7.44264706 12.100375,8.47058824 L13.125,8.47058824 Z M8.75,9.35294118 C8.75,9.84 9.142,10.2352941 9.625,10.2352941 C10.108,10.2352941 10.5,9.84 10.5,9.35294118 C10.5,8.86588235 10.108,8.47058824 9.625,8.47058824 C9.142,8.47058824 8.75,8.86588235 8.75,9.35294118 Z" id="Shape"></path>
            </g>
        </g>
    </g>
</svg>