<?xml version="1.0" encoding="UTF-8"?>
<svg width="16px" height="16px" viewBox="0 0 16 16" version="1.1" xmlns="http://www.w3.org/2000/svg" xmlns:xlink="http://www.w3.org/1999/xlink">
    <title>cart</title>
    <g id="Page-1" stroke="none" stroke-width="1" fill="none" fill-rule="evenodd">
        <g id="Coach_Order" transform="translate(-49.000000, -724.000000)" fill="#FFFFFF" fill-rule="nonzero">
            <g id="Group-19-Copy-3" transform="translate(49.000000, 723.000000)">
                <g id="cart" transform="translate(0.000000, 1.000000)">
                    <path d="M5.53362884,10.9820392 C5.17453899,10.9820392 4.88343915,11.2706527 4.88343915,11.6266756 C4.88343915,11.9826984 5.17453899,12.2713119 5.53362884,12.2713119 L13.3265499,12.2713119 C13.3893404,12.2713119 13.4498192,12.281125 13.5065113,12.2992886 C14.4557414,12.3884426 15.1975994,13.1807918 15.1975994,14.1449313 C15.1975994,15.1694575 14.359902,16 13.3265499,16 C12.2931978,16 11.4555004,15.1694575 11.4555004,14.1449313 C11.4555004,13.8916294 11.5067061,13.6501851 11.5994143,13.4302186 L8.58920957,13.4302186 C8.6819178,13.6501851 8.73312345,13.8916294 8.73312345,14.1449313 C8.73312345,15.1694575 7.89542607,16 6.86207397,16 C5.82872188,16 4.99102449,15.1694575 4.99102449,14.1449313 C4.99102449,13.8760176 5.04873661,13.6204681 5.1525508,13.3897938 C4.33074974,13.2176562 3.71403322,12.4935717 3.71403322,11.6266756 C3.71403322,10.8771644 4.17504038,10.2344076 4.83125784,9.96193176 C4.6650007,9.72523134 4.54139046,9.45421673 4.47180826,9.15943422 L3.69654405,6.04303173 C3.67730041,6.00226112 3.6626259,5.95874637 3.65322411,5.91306401 L2.81592947,2.30959309 C2.65670295,1.63357136 2.04733904,1.15640098 1.34715563,1.1594505 L0.584702963,1.1594505 C0.261780433,1.1594505 0,0.899905959 0,0.579741539 C0,0.259577118 0.261780433,1.62251604e-05 0.584702963,1.62251604e-05 L1.34715563,1.62251604e-05 C2.59149223,-0.00427719856 3.67397647,0.843927537 3.95726965,2.0452458 L4.20478357,3.11669908 C4.65075837,2.69295113 5.24891251,2.45369459 5.87509537,2.45794172 L13.5931745,2.45794172 C14.3296346,2.45294663 15.0273243,2.78477442 15.4842709,3.35742175 C15.9412175,3.93006908 16.106395,4.67958999 15.9319863,5.38900711 L14.9964616,9.16870956 C14.7362741,10.2442254 13.7590579,10.9973627 12.6436169,10.9820392 L5.53362884,10.9820392 Z M6.86207397,13.4307299 C6.46940018,13.4307299 6.15107517,13.746336 6.15107517,14.135656 C6.15107517,14.5249759 6.46940018,14.8405821 6.86207397,14.8405821 C7.25474777,14.8405821 7.57307278,14.5249759 7.57307278,14.135656 C7.57307278,13.746336 7.25474777,13.4307299 6.86207397,13.4307299 Z M13.3265499,13.4307299 C12.9344954,13.4332872 12.6185188,13.7500168 12.6202286,14.1387274 C12.6219523,14.5274381 12.9407144,14.841412 13.3327765,14.8405669 C13.7248386,14.8397183 14.0422264,14.5243703 14.0422264,14.135656 C14.0422264,13.9478916 13.9666801,13.7678845 13.8323286,13.6355511 C13.697977,13.5032177 13.5159277,13.4294946 13.3265499,13.4307299 Z M13.5791416,3.61741454 L5.84702963,3.61741454 C5.47245072,3.61854998 5.11896277,3.78946286 4.88741802,4.0813927 C4.68545015,4.33603222 4.5956087,4.65835417 4.63383145,4.97623962 L4.775,5.589 L5.59443795,8.89508693 C5.72489794,9.44047547 6.21721333,9.82481443 6.78255437,9.82263061 L12.6436169,9.82263061 C13.2089579,9.82481443 13.7012733,9.44047547 13.8317333,8.89508693 L14.767258,5.11538448 C14.8563942,4.75400665 14.7729672,4.37206279 14.5410199,4.07962546 C14.3090726,3.78718813 13.9543728,3.61674514 13.5791416,3.61741454 Z" id="Combined-Shape"></path>
                </g>
            </g>
        </g>
    </g>
</svg>