<?xml version="1.0" encoding="UTF-8"?>
<svg width="14px" height="14px" viewBox="0 0 14 14" version="1.1" xmlns="http://www.w3.org/2000/svg" xmlns:xlink="http://www.w3.org/1999/xlink">
    <title>Path</title>
    <g id="Page-1" stroke="none" stroke-width="1" fill="none" fill-rule="evenodd">
        <g id="Coach_products" transform="translate(-1356.000000, -146.000000)" fill="#FFFFFF" fill-rule="nonzero" stroke="#FFFFFF" stroke-width="0.5">
            <g id="Group-7" transform="translate(1342.000000, 130.000000)">
                <g id="Group-9" transform="translate(15.000000, 15.000000)">
                    <g id="add" transform="translate(0.000000, 2.000000)">
                        <path d="M0.75,6.75 L5.25,6.75 L5.25,11.25 C5.25,11.6636284 5.58637161,12 6,12 C6.41362839,12 6.75,11.6636284 6.75,11.25 L6.75,6.75 L11.25,6.75 C11.6636284,6.75 12,6.41362839 12,6 C12,5.58637161 11.6636284,5.25 11.25,5.25 L6.75,5.25 L6.75,0.75 C6.75,0.336371613 6.41362839,0 6,0 C5.58637161,0 5.25,0.336371613 5.25,0.75 L5.25,5.25 L0.75,5.25 C0.336371613,5.25 0,5.58637161 0,6 C0,6.41362839 0.336371613,6.75 0.75,6.75 Z" id="Path"></path>
                    </g>
                </g>
            </g>
        </g>
    </g>
</svg>