<?xml version="1.0" encoding="UTF-8"?>
<svg width="18px" height="15px" viewBox="0 0 18 15" version="1.1" xmlns="http://www.w3.org/2000/svg" xmlns:xlink="http://www.w3.org/1999/xlink">
    <title>box</title>
    <g id="Page-1" stroke="none" stroke-width="1" fill="none" fill-rule="evenodd">
        <g id="Coach_Order" transform="translate(-47.000000, -666.000000)" fill="#E6E7E8" fill-rule="nonzero">
            <g id="Group-19-Copy-2" transform="translate(47.990000, 664.000000)">
                <g id="box" transform="translate(0.000000, 2.990000)">
                    <path d="M15.4385714,0 C15.6926775,0 15.9123818,0.15570875 15.9901747,0.377052663 L16.0124849,0.462957354 L16.02,0.551666667 L16.02,3.80166667 C16.02,4.04298611 15.8556683,4.25137186 15.6225008,4.32508413 L15.5320228,4.34621471 L15.4385714,4.35333333 L14.8771429,4.34333333 L14.8771429,12.4683333 C14.8771429,12.7096528 14.7128112,12.9180385 14.4796436,12.9917508 L14.3891656,13.0128814 L14.2957143,13.02 L1.72428571,13.02 C1.47017966,13.02 1.25047537,12.8642912 1.17268247,12.6429473 L1.15037221,12.5570426 L1.14285714,12.4683333 L1.15285714,4.35333333 L0.581428571,4.35333333 C0.327322519,4.35333333 0.107618227,4.19762458 0.0298253297,3.97628067 L0.0075150695,3.89037598 L0,3.80166667 L0,0.551666667 C0,0.31034722 0.164331693,0.101961473 0.397499246,0.0282491991 L0.487977244,0.00711862597 L0.581428571,0 L15.4385714,0 Z M2.30571429,4.34333333 L2.29571429,11.9166667 L13.7142857,11.9266667 L13.714,4.353 L2.30571429,4.34333333 Z M9.72428571,5.41666667 C10.0452838,5.41666667 10.3057143,5.66353309 10.3057143,5.96833333 C10.3057143,6.20965278 10.1413826,6.41803853 9.90821504,6.4917508 L9.81773704,6.51288137 L9.72428571,6.52 L6.29571429,6.52 C5.97471623,6.52 5.71428571,6.27313358 5.71428571,5.96833333 C5.71428571,5.72701389 5.87861741,5.51862814 6.11178496,5.44491587 L6.20226296,5.42378529 L6.29571429,5.41666667 L9.72428571,5.41666667 Z M1.16285714,1.09333333 L1.15285714,3.25 L14.8571429,3.26 L14.857,1.103 L1.16285714,1.09333333 Z" id="Combined-Shape"></path>
                </g>
            </g>
        </g>
    </g>
</svg>