<svg width="33" height="26" viewBox="0 0 33 26" fill="none" xmlns="http://www.w3.org/2000/svg">
<path opacity="0.412853" fill-rule="evenodd" clip-rule="evenodd" d="M3.36 24.336C4.448 25.136 5.728 25.536 7.2 25.536C8.352 25.536 9.408 25.232 10.368 24.624C11.328 24.016 12.08 23.232 12.624 22.272C13.168 21.312 13.44 20.256 13.44 19.104C13.44 17.696 13.168 16.56 12.624 15.696C12.08 14.832 11.392 14.176 10.56 13.728C9.728 13.28 8.928 13.056 8.16 13.056C7.392 13.056 6.816 13.12 6.432 13.248C6.048 13.376 5.728 13.536 5.472 13.728L5.088 13.536C5.408 12.192 5.968 10.88 6.768 9.6C7.568 8.32 8.624 7.168 9.936 6.144C11.248 5.12 12.768 4.32 14.496 3.744L10.464 0C8.032 1.152 6.048 2.592 4.512 4.32C2.976 6.048 1.84 7.92 1.104 9.936C0.368 11.952 0 14.048 0 16.224C0 18.016 0.288 19.616 0.864 21.024C1.44 22.432 2.272 23.536 3.36 24.336ZM21.408 24.336C22.496 25.136 23.776 25.536 25.248 25.536C26.4 25.536 27.456 25.232 28.416 24.624C29.376 24.016 30.128 23.232 30.672 22.272C31.216 21.312 31.488 20.256 31.488 19.104C31.488 17.696 31.216 16.56 30.672 15.696C30.128 14.832 29.44 14.176 28.608 13.728C27.776 13.28 26.976 13.056 26.208 13.056C25.44 13.056 24.864 13.12 24.48 13.248C24.096 13.376 23.776 13.536 23.52 13.728L23.136 13.536C23.456 12.192 24.016 10.88 24.816 9.6C25.616 8.32 26.672 7.168 27.984 6.144C29.296 5.12 30.816 4.32 32.544 3.744L28.512 0C26.08 1.152 24.096 2.592 22.56 4.32C21.024 6.048 19.888 7.92 19.152 9.936C18.416 11.952 18.048 14.048 18.048 16.224C18.048 18.016 18.336 19.616 18.912 21.024C19.488 22.432 20.32 23.536 21.408 24.336Z" fill="white"/>
</svg>
