<svg width="16" height="16" viewBox="0 0 16 16" xmlns="http://www.w3.org/2000/svg">
    <path d="m14.88 14.305-3.18-3.181a6.058 6.058 0 0 0 1.515-4.017 6.067 6.067 0 0 0-1.79-4.318A6.067 6.067 0 0 0 7.108 1 6.067 6.067 0 0 0 2.79 2.789 6.067 6.067 0 0 0 1 7.107c0 1.632.635 3.165 1.789 4.319a6.067 6.067 0 0 0 4.318 1.789 6.058 6.058 0 0 0 4.017-1.515l3.181 3.18a.406.406 0 0 0 .576 0 .407.407 0 0 0 0-.575zM3.366 10.85c-1-1-1.55-2.329-1.55-3.743a5.26 5.26 0 0 1 1.55-3.742c1-1 2.329-1.55 3.742-1.55a5.26 5.26 0 0 1 3.743 1.55c1 1 1.55 2.329 1.55 3.742a5.26 5.26 0 0 1-1.55 3.743c-1 1-2.329 1.55-3.743 1.55a5.26 5.26 0 0 1-3.742-1.55z" fill="#fff" fill-rule="nonzero" stroke="#fff" stroke-width=".5" opacity=".34"/>
</svg>
