<?xml version="1.0" encoding="UTF-8"?>
<svg width="20px" height="21px" viewBox="0 0 20 21" version="1.1" xmlns="http://www.w3.org/2000/svg" xmlns:xlink="http://www.w3.org/1999/xlink">
    <title>setting</title>
    <g id="Page-1" stroke="none" stroke-width="1" fill="none" fill-rule="evenodd" stroke-linecap="round" stroke-linejoin="round">
        <g id="Creator_my_wallet" transform="translate(-217.000000, -364.000000)" stroke="#FFFFFF" stroke-width="1.5">
            <g id="Group-3" transform="translate(180.000000, 190.000000)">
                <g id="Group-5" transform="translate(38.000000, 34.000000)">
                    <g id="setting" transform="translate(0.000000, 141.000000)">
                        <path d="M17.5280932,5.3455381 L16.9056676,4.26544657 C16.3790935,3.35152539 15.2121443,3.03624438 14.2969719,3.56064107 L14.2969719,3.56064107 C13.8613385,3.8172682 13.3415183,3.89007673 12.8521429,3.76301084 C12.3627675,3.63594495 11.9440319,3.31944123 11.6882763,2.88329553 C11.5237425,2.606073 11.4353312,2.29031833 11.4319834,1.96796372 L11.4319834,1.96796372 C11.4468264,1.45114567 11.251846,0.950326124 10.8914594,0.579593484 C10.5310728,0.208860837 10.035971,-0.000212777501 9.51893993,0 L8.26493534,0 C7.75840235,0 7.27274809,0.201838324 6.91543514,0.560869134 C6.55812218,0.919899944 6.35860991,1.40651667 6.36104517,1.91304381 L6.36104517,1.91304381 C6.34603206,2.95884927 5.49391489,3.7987351 4.44800168,3.79862734 C4.12564706,3.79527954 3.8098924,3.70686823 3.53266987,3.54233443 L3.53266987,3.54233443 C2.61749757,3.01793774 1.45054834,3.33321876 0.9239742,4.24713993 L0.25578198,5.3455381 C-0.270154354,6.25831773 0.0408356151,7.42453011 0.95143416,7.95423377 L0.95143416,7.95423377 C1.54333804,8.29596442 1.90796685,8.92751522 1.90796685,9.61098438 C1.90796685,10.2944535 1.54333804,10.9260043 0.95143416,11.267735 L0.95143416,11.267735 C0.0419920141,11.7938635 -0.269337291,12.957252 0.25578198,13.8672773 L0.25578198,13.8672773 L0.88736093,14.9565222 C1.13408223,15.4017061 1.54803863,15.7302186 2.03762867,15.8693652 C2.5272187,16.0085118 3.05207527,15.94682 3.49605659,15.6979409 L3.49605659,15.6979409 C3.93251566,15.4432652 4.4526243,15.3734886 4.9407754,15.5041206 C5.42892651,15.6347526 5.84467086,15.9549688 6.09559894,16.3935931 C6.26013274,16.6708156 6.34854405,16.9865703 6.35189185,17.3089249 L6.35189185,17.3089249 C6.35189185,18.3654697 7.20839059,19.2219684 8.26493534,19.2219684 L9.51893993,19.2219684 C10.5719203,19.2219684 11.4269452,18.3710466 11.4319834,17.3180782 L11.4319834,17.3180782 C11.4295346,16.8099608 11.6303003,16.3219466 11.9895978,15.9626492 C12.3488952,15.6033517 12.8369094,15.4025859 13.3450269,15.4050347 C13.6666093,15.4136415 13.9810651,15.5016891 14.2603587,15.6613276 L14.2603587,15.6613276 C15.1731383,16.187264 16.3393507,15.876274 16.8690543,14.9656755 L16.8690543,14.9656755 L17.5280932,13.8672773 C17.7831894,13.4294211 17.8532049,12.9079342 17.7226353,12.418298 C17.5920656,11.9286618 17.2716852,11.5112804 16.8324411,11.2585816 L16.8324411,11.2585816 C16.393197,11.0058828 16.0728165,10.5885015 15.9422469,10.0988653 C15.8116772,9.60922908 15.8816928,9.08774212 16.1367889,8.64988595 C16.3026765,8.36025924 16.5428144,8.1201214 16.8324411,7.95423377 L16.8324411,7.95423377 C17.7375823,7.42481719 18.0478443,6.2654172 17.5280932,5.35469142 L17.5280932,5.35469142 L17.5280932,5.3455381 Z" id="Path"></path>
                        <circle id="Oval" cx="8.89645703" cy="9.61096828" r="2.636"></circle>
                    </g>
                </g>
            </g>
        </g>
    </g>
</svg>