<svg id="Layer_1" data-name="Layer 1" xmlns="http://www.w3.org/2000/svg" viewBox="0 0 144 144"><defs><style>.cls-1{fill:#fff;}</style></defs><rect width="144" height="144" rx="33.16"/><path class="cls-1" d="M116.63,93.94c-1-1.41-3.48-1.49-5-2a21.06,21.06,0,0,1-4.57-2.3,25.05,25.05,0,0,1-6.93-7.28,31.9,31.9,0,0,1-3.22-5.67A2.29,2.29,0,0,1,97,74.5a2.88,2.88,0,0,1,.26-.35,6.7,6.7,0,0,1,2.25-1.44c2.13-.94,4.55-1.33,6.46-2.74,2.23-1.64,2.42-4.53-.28-5.9a6,6,0,0,0-3.69-.45c-1.23.2-3.78,1.94-4.87,1-.6-.54-.67-1.94-.64-4.53,0-1.2,0-2.41,0-4.1.22-3.09.38-6.76-.77-10.11a22.65,22.65,0,0,0-9.53-12.08c-.3-.19-.6-.35-.89-.52s-.4-.24-.61-.35c-.37-.2-.74-.39-1.13-.58l-.15-.07A24.74,24.74,0,0,0,72,29.71a24.74,24.74,0,0,0-11.43,2.53l-.15.07c-.39.19-.76.38-1.13.58-.21.11-.41.23-.61.35s-.59.33-.89.52a22.65,22.65,0,0,0-9.53,12.08c-1.15,3.35-1,7-.77,10.11,0,1.69,0,2.9,0,4.1,0,2.59,0,4-.64,4.53-1.09,1-3.64-.76-4.87-1a6,6,0,0,0-3.69.45c-2.7,1.37-2.51,4.26-.28,5.9,1.91,1.41,4.33,1.8,6.46,2.74a6.7,6.7,0,0,1,2.25,1.44,2.88,2.88,0,0,1,.26.35,2.29,2.29,0,0,1,.13,2.16,31.9,31.9,0,0,1-3.22,5.67A25.05,25.05,0,0,1,37,89.61a21.06,21.06,0,0,1-4.57,2.3c-1.54.54-4,.62-5,2-1.44,1.92,1.71,3.75,3.08,4.44,2.66,1.36,5.68,1.64,8.53,2.41a.37.37,0,0,1,.12.07,2.48,2.48,0,0,1,.59,1.74c.13,3.71,2.68,4.56,6,3.63a13.85,13.85,0,0,1,10.62,1.14c.14.09.29.17.43.27,1.35.93,2.7,1.86,4.07,2.73A20.9,20.9,0,0,0,71,114.27c.26,0,.51,0,.77,0h.4c.26,0,.51,0,.77,0a20.9,20.9,0,0,0,10.26-3.9c1.37-.87,2.72-1.8,4.07-2.73.14-.1.29-.18.43-.27a13.85,13.85,0,0,1,10.62-1.14c3.28.93,5.83.08,6-3.63a2.48,2.48,0,0,1,.59-1.74.37.37,0,0,1,.12-.07c2.85-.77,5.87-1.05,8.53-2.41C114.92,97.69,118.07,95.86,116.63,93.94Z"/></svg>