<svg width="14" height="14" viewBox="0 0 14 14" fill="none" xmlns="http://www.w3.org/2000/svg">
    <path fill-rule="evenodd" clip-rule="evenodd" d="M0 1.49807C0 0.676357 0.6782 0 1.5 0H12.5C13.3218 0 14 0.676357 14 1.49807V4.50005C14 5.31191 13.6031 6.02915 13 6.48642V12.5C13 13.3223 12.3224 14 11.5 14H2.5C1.67765 14 1 13.3223 1 12.5V6.48642C0.396895 6.02911 0 5.31186 0 4.50005V1.49807ZM12.5 1.00002H1.50002C1.21383 1.00002 1.00002 1.21412 1.00002 1.49807V4.50006C1.00002 5.33971 1.66037 6.00007 2.50002 6.00007H3.00002C3.83967 6.00007 4.50002 5.33971 4.50002 4.50006C4.50932 3.84275 5.49073 3.84275 5.50002 4.50006C5.50002 5.33971 6.16037 6.00007 7.00002 6.00007C7.83967 6.00007 8.50002 5.33971 8.50002 4.50006C8.50932 3.84275 9.49073 3.84275 9.50002 4.50006C9.50002 5.33971 10.1604 6.00007 11 6.00007H11.5C12.3397 6.00007 13 5.33971 13 4.50006V1.49807C13 1.21412 12.7862 1.00002 12.5 1.00002ZM5 5.92094C5.4384 6.53529 6.1149 6.96495 6.91505 6.9942L6.91638 6.99434C6.91693 6.99444 6.91748 6.99456 6.91802 6.99469C6.91897 6.99491 6.91992 6.99513 6.92091 6.99517C6.9471 6.99887 6.97355 7.00051 7.00001 7.00006C7.02321 7.00004 7.04637 6.99842 7.06934 6.99517C7.87639 6.97109 8.55874 6.53935 8.99999 5.92096C9.45408 6.55732 10.1621 7.00007 11 7.00007H11.5C11.671 7.00007 11.8384 6.98233 12 6.94929V12.5004C12 12.786 11.7856 13.0004 11.5 13.0004H8.99999V10.5003C8.99999 9.67797 8.32234 9.00032 7.49999 9.00032H6.49999C5.67764 9.00032 4.99999 9.67797 4.99999 10.5003V13.0004H2.49999C2.21434 13.0004 1.99999 12.786 1.99999 12.5004V6.94929C2.16157 6.98233 2.32894 7.00007 2.49999 7.00007H2.99999C3.83784 7.00007 4.54589 6.5573 4.99999 5.92096L5 5.92094ZM7.49998 10.0001H6.49998C6.21433 10.0001 5.99998 10.2145 5.99998 10.5001V13.0002H7.99998V10.5001C7.99998 10.2145 7.78563 10.0001 7.49998 10.0001Z" fill="currentColor" fill-opacity="0.6"/>
</svg>
