<?xml version="1.0" encoding="UTF-8"?>
<svg width="16px" height="16px" viewBox="0 0 16 16" version="1.1" xmlns="http://www.w3.org/2000/svg" xmlns:xlink="http://www.w3.org/1999/xlink">
    <title>store</title>
    <g id="Page-1" stroke="none" stroke-width="1" fill="none" fill-rule="evenodd">
        <g id="Coach_Order" transform="translate(-48.000000, -551.000000)" fill="#E6E7E8" fill-rule="nonzero">
            <g id="Group-19-Copy-4" transform="translate(48.000000, 549.000000)">
                <g id="store" transform="translate(0.000000, 2.000000)">
                    <path d="M1.71428571,0 C0.775085714,0 0,0.77297971 0,1.71207549 L0,5.14291225 C0,6.07069361 0.453594286,6.89041668 1.14285714,7.41305085 L1.14285714,14.2856959 C1.14285714,15.2255346 1.91731429,16 2.85714286,16 L13.1428571,16 C14.0826857,16 14.8571429,15.2255346 14.8571429,14.2856959 L14.8571429,7.41305085 C15.5464,6.89045668 16,6.07075076 16,5.14291225 L16,1.71207549 C16,0.77297971 15.2249143,0 14.2857143,0 L1.71428571,0 L1.71428571,0 Z M1.71428571,1.14286939 L14.2857143,1.14286939 C14.6127943,1.14286939 14.8571429,1.3875463 14.8571429,1.71206977 L14.8571429,5.14290653 C14.8571429,6.10251681 14.1024571,6.85721061 13.1428571,6.85721061 L12.5714286,6.85721061 C11.6118286,6.85721061 10.8571429,6.10251681 10.8571429,5.14290653 C10.84652,4.39169848 9.72491429,4.39169848 9.71428571,5.14290653 C9.71428571,6.10251681 8.9596,6.85721061 8,6.85721061 C7.0404,6.85721061 6.28571429,6.10251681 6.28571429,5.14290653 C6.27509143,4.39169848 5.15348571,4.39169848 5.14285714,5.14290653 C5.14285714,6.10251681 4.38817143,6.85721061 3.42857143,6.85721061 L2.85714286,6.85721061 C1.89754286,6.85721061 1.14285714,6.10251681 1.14285714,5.14290653 L1.14285714,1.71206977 C1.14285714,1.3875463 1.38720571,1.14286939 1.71428571,1.14286939 Z M5.71428571,6.76681536 C6.21532,7.46893717 6.98845714,7.959971 7.90291429,7.99339993 C7.9052,7.99348279 7.90731371,7.99440165 7.90961086,7.99451594 C7.939548,7.99874456 7.96977657,8.00061086 8.00001086,8.00009657 C8.02652514,8.00007657 8.05299943,7.99823027 8.07925086,7.99451594 C9.00159371,7.96699165 9.78142229,7.47357322 10.285708,6.76681536 C10.8046623,7.49411058 11.6138794,8.000116 12.5714223,8.000116 L13.1428509,8.000116 C13.3383366,8.000116 13.5296223,7.97983807 13.7142794,7.94208109 L13.7142794,14.2861491 C13.7142794,14.6126097 13.469308,14.8575838 13.1428509,14.8575838 L10.285708,14.8575838 L10.285708,12.0004103 C10.285708,11.0605716 9.51125086,10.2861062 8.57142229,10.2861062 L7.42856514,10.2861062 C6.48873657,10.2861062 5.71427943,11.0605716 5.71427943,12.0004103 L5.71427943,14.8575838 L2.85713657,14.8575838 C2.53067943,14.8575838 2.285708,14.6126097 2.285708,14.2861491 L2.285708,7.94208109 C2.47036514,7.97983921 2.66165086,8.000116 2.85713657,8.000116 L3.42856514,8.000116 C4.386108,8.000116 5.195308,7.49408772 5.71427943,6.76681536 L5.71428571,6.76681536 Z M7.42857143,11.4286939 L8.57142857,11.4286939 C8.89788571,11.4286939 9.14285714,11.6736679 9.14285714,12.0001286 L9.14285714,14.857302 L6.85714286,14.857302 L6.85714286,12.0001286 C6.85714286,11.6736679 7.10211429,11.4286939 7.42857143,11.4286939 Z" id="Shape"></path>
                </g>
            </g>
        </g>
    </g>
</svg>