<?xml version="1.0" encoding="UTF-8"?>
<svg width="46px" height="46px" viewBox="0 0 46 46" version="1.1" xmlns="http://www.w3.org/2000/svg" xmlns:xlink="http://www.w3.org/1999/xlink">
    <title>palette-14</title>
    <defs>
        <linearGradient x1="-2.48051084%" y1="-20.4418215%" x2="100%" y2="50.0002819%" id="linearGradient-1">
            <stop stop-color="#2A2649" offset="0.0901442308%"></stop>
            <stop stop-color="#307872" offset="50.6009615%"></stop>
            <stop stop-color="#121E78" offset="100%"></stop>
        </linearGradient>
    </defs>
    <g id="Page-1" stroke="none" stroke-width="1" fill="none" fill-rule="evenodd">
        <g id="Vivid-Theme-Create" transform="translate(-93.000000, -1059.000000)" fill="url(#linearGradient-1)" fill-rule="nonzero">
            <g id="Group-3" transform="translate(51.000000, 946.000000)">
                <g id="palette-14" transform="translate(42.000000, 113.000000)">
                    <path d="M37.0555556,23 C34.938464,23 33.2222222,21.2837582 33.2222222,19.1666667 C33.2222222,17.0495751 34.938464,15.3333333 37.0555556,15.3333333 C39.1726471,15.3333333 40.8888889,17.0495751 40.8888889,19.1666667 C40.8888889,21.2837582 39.1726471,23 37.0555556,23 M29.3888889,12.7777778 C28.3722257,12.7777778 27.3972024,12.3739099 26.6783129,11.6550204 C25.9594235,10.936131 25.5555556,9.96110764 25.5555556,8.94444442 C25.5555556,6.82735288 27.2717974,5.11111109 29.3888889,5.11111109 C31.5059804,5.11111109 33.2222222,6.82735288 33.2222222,8.94444442 C33.2222222,11.061536 31.5059804,12.7777778 29.3888889,12.7777778 M16.6111111,12.7777778 C14.4940196,12.7777778 12.7777778,11.061536 12.7777778,8.94444442 C12.7777778,7.92778121 13.1816456,6.95275788 13.9005351,6.23386843 C14.6194245,5.51497898 15.5944479,5.11111109 16.6111111,5.11111109 C18.7282026,5.11111109 20.4444444,6.82735288 20.4444444,8.94444442 C20.4444444,11.061536 18.7282026,12.7777778 16.6111111,12.7777778 M8.94444442,23 C6.82735288,23 5.11111109,21.2837582 5.11111109,19.1666667 C5.11111109,17.0495751 6.82735288,15.3333333 8.94444442,15.3333333 C11.061536,15.3333333 12.7777778,17.0495751 12.7777778,19.1666667 C12.7777778,21.2837582 11.061536,23 8.94444442,23 M23,0 C10.2974508,0 0,10.2974508 0,23 C0,35.7025492 10.2974508,46 23,46 C25.1170915,46 26.8333333,44.2837582 26.8333333,42.1666667 C26.8333333,41.17 26.45,40.2755556 25.8366667,39.6111111 C25.2488889,38.9211111 24.8655556,38.0266667 24.8655556,37.0555556 C24.8655556,34.938464 26.5817974,33.2222222 28.6988889,33.2222222 L33.2222222,33.2222222 C36.6110996,33.2222222 39.8611774,31.8759959 42.2574756,29.4796978 C44.6537737,27.0833996 46,23.8333218 46,20.4444444 C46,9.14888885 35.7011111,0 23,0 L23,0 Z" id="Shape"></path>
                </g>
            </g>
        </g>
    </g>
</svg>