<svg id="Layer_1" data-name="Layer 1" xmlns="http://www.w3.org/2000/svg" viewBox="0 0 144 144"><defs><style>.cls-1{fill:#fff;}</style></defs><rect width="144" height="144" rx="33.16"/><path class="cls-1" d="M55.79,94.92a21.51,21.51,0,0,1-6.34-1.56A18.51,18.51,0,0,1,39.3,82.93c-.38-1-.3-1,.71-.92a17.45,17.45,0,0,0,6.76-.39,3,3,0,0,0-1.25-.52,18.47,18.47,0,0,1-13-16c-.14-2-.15-2,1.73-1.16a18.54,18.54,0,0,0,6.21,1.45c-1-.88-1.76-1.57-2.51-2.31a18.68,18.68,0,0,1-3.46-21.43c.51-1,.6-1,1.32-.19a52.24,52.24,0,0,0,16,12.75,50.37,50.37,0,0,0,19,5.59c2.28.19,2.31.18,2-2.12a18.47,18.47,0,0,1,15.94-20.3,18,18,0,0,1,15.31,5,1.69,1.69,0,0,0,1.78.46,36.85,36.85,0,0,0,9.71-3.74c.2-.11.42-.33.63-.19s.07.49,0,.72A18.51,18.51,0,0,1,109.78,48l-.56.41s0,.12-.11.32A35.7,35.7,0,0,0,119,45.92a18.35,18.35,0,0,1-2.4,3.37,33,33,0,0,1-5.86,5.6,1.92,1.92,0,0,0-.88,1.77,52.08,52.08,0,0,1-3.73,20.79,53.58,53.58,0,0,1-9,15.22,49.94,49.94,0,0,1-16.61,13,52.17,52.17,0,0,1-18.7,4.94A54.3,54.3,0,0,1,43,108.86a55.77,55.77,0,0,1-13.29-5.8c-.14-.09-.26-.21-.66-.52C39.08,103.38,48,101,55.79,94.92Z"/></svg>