<?xml version="1.0" encoding="utf-8"?>
<!-- Generator: Adobe Illustrator 26.3.1, SVG Export Plug-In . SVG Version: 6.00 Build 0)  -->
<svg version="1.1" id="Layer_1" xmlns="http://www.w3.org/2000/svg" xmlns:xlink="http://www.w3.org/1999/xlink" x="0px" y="0px"
	 viewBox="0 0 16 16" style="enable-background:new 0 0 16 16;" xml:space="preserve">
<style type="text/css">
	.st0{fill:#FFFFFF;}
</style>
<path class="st0" d="M6,2v1L4.8,3v5.2c0,0.9,0.2,1.5,0.7,2s1.1,0.7,1.9,0.7c0.8,0,1.5-0.2,2-0.7c0.5-0.4,0.8-1.1,0.8-2V3L9,3V2h4v1
	l-1.3,0v5.2c0,1.2-0.4,2.2-1.2,2.8s-1.8,1-3.1,1c-1.2,0-2.2-0.3-3-1c-0.8-0.7-1.2-1.6-1.2-2.8V3L2,3V2H6z M2,13h11v1H2V13z"/>
</svg>
