<?xml version="1.0" encoding="UTF-8"?>
<svg width="13px" height="16px" viewBox="0 0 13 16" version="1.1" xmlns="http://www.w3.org/2000/svg" xmlns:xlink="http://www.w3.org/1999/xlink">
    <title>user</title>
    <g id="Page-1" stroke="none" stroke-width="1" fill="none" fill-rule="evenodd">
        <g id="Creator_my_wallet" transform="translate(-222.000000, -226.000000)" fill="currentColor" fill-rule="nonzero">
            <g id="Group-3" transform="translate(180.000000, 190.000000)">
                <g id="Group-5" transform="translate(38.000000, 34.000000)">
                    <g id="Group-4" transform="translate(4.000000, 0.000000)">
                        <g id="user" transform="translate(0.000000, 2.000000)">
                            <path d="M9.21221881,4.03720226 C9.21221881,4.18643105 9.20192568,4.33565984 9.18305494,4.48319285 C9.19163255,4.42384049 9.20021016,4.36279235 9.20707225,4.30343999 C9.16589972,4.598506 9.08698571,4.88509311 8.97204574,5.15980974 C8.99434752,5.10554473 9.01836483,5.05127971 9.04066662,4.9970147 C8.92572664,5.26494821 8.77819175,5.5159239 8.59806194,5.74655021 C8.63408791,5.7007641 8.67011387,5.65497799 8.70613983,5.60919189 C8.52772554,5.83642664 8.32014738,6.04161622 8.09026744,6.21797752 C8.13658653,6.1823661 8.18290562,6.14675469 8.22922472,6.11114327 C7.99591373,6.28750457 7.74201647,6.43503757 7.470964,6.54865495 C7.5258607,6.52660978 7.58075741,6.50286884 7.63565411,6.48082368 C7.35773955,6.59444105 7.06781633,6.67244701 6.76931551,6.71314577 C6.82935878,6.70466686 6.89111757,6.69618795 6.95116084,6.68940483 C6.65094449,6.72840781 6.34901262,6.72840781 6.04879627,6.68940483 C6.10883954,6.69788374 6.17059833,6.70636264 6.2306416,6.71314577 C5.93214078,6.67244701 5.64221756,6.59444105 5.364303,6.48082368 C5.4191997,6.50286884 5.47409641,6.52660978 5.52899311,6.54865495 C5.25794064,6.43503757 5.00404338,6.28920035 4.77073239,6.11114327 C4.81705149,6.14675469 4.86337058,6.1823661 4.90968967,6.21797752 C4.67980973,6.04161622 4.47223157,5.83642664 4.29381728,5.60919189 C4.32984324,5.65497799 4.36586921,5.7007641 4.40189517,5.74655021 C4.22348088,5.5159239 4.07423047,5.26494821 3.95929049,4.9970147 C3.98159228,5.05127971 4.00560959,5.10554473 4.02791137,5.15980974 C3.9129714,4.88509311 3.83405739,4.598506 3.79288486,4.30343999 C3.80146247,4.36279235 3.81004008,4.42384049 3.81690217,4.48319285 C3.77744516,4.18643105 3.77744516,3.88797347 3.81690217,3.59121167 C3.80832456,3.65056403 3.79974695,3.71161218 3.79288486,3.77096453 C3.83405739,3.47589852 3.9129714,3.18931141 4.02791137,2.91459478 C4.00560959,2.96885979 3.98159228,3.02312481 3.95929049,3.07738982 C4.07423047,2.80945631 4.22176536,2.55848062 4.40189517,2.32785431 C4.36586921,2.37364042 4.32984324,2.41942653 4.29381728,2.46521263 C4.47223157,2.23797788 4.67980973,2.0327883 4.90968967,1.856427 C4.86337058,1.89203842 4.81705149,1.92764983 4.77073239,1.96326125 C5.00404338,1.78689995 5.25794064,1.63936695 5.52899311,1.52574957 C5.47409641,1.54779474 5.4191997,1.57153568 5.364303,1.59358084 C5.64221756,1.47996347 5.93214078,1.40195751 6.2306416,1.36125875 C6.17059833,1.36973766 6.10883954,1.37821657 6.04879627,1.38499969 C6.34901262,1.34599671 6.65094449,1.34599671 6.95116084,1.38499969 C6.89111757,1.37652078 6.82935878,1.36804188 6.76931551,1.36125875 C7.06781633,1.40195751 7.35773955,1.47996347 7.63565411,1.59358084 C7.58075741,1.57153568 7.5258607,1.54779474 7.470964,1.52574957 C7.74201647,1.63936695 7.99591373,1.78520417 8.22922472,1.96326125 C8.18290562,1.92764983 8.13658653,1.89203842 8.09026744,1.856427 C8.32014738,2.0327883 8.52772554,2.23797788 8.70613983,2.46521263 C8.67011387,2.41942653 8.63408791,2.37364042 8.59806194,2.32785431 C8.77647623,2.55848062 8.92572664,2.80945631 9.04066662,3.07738982 C9.01836483,3.02312481 8.99434752,2.96885979 8.97204574,2.91459478 C9.08698571,3.18931141 9.16589972,3.47589852 9.20707225,3.77096453 C9.19849464,3.71161218 9.18991703,3.65056403 9.18305494,3.59121167 C9.20192568,3.73874468 9.21050329,3.88797347 9.21221881,4.03720226 C9.21393434,4.39162063 9.52615934,4.73247275 9.89842761,4.71551494 C10.2689804,4.69855712 10.5863519,4.41705736 10.5846433,4.03720226 C10.5812054,3.22492283 10.3341702,2.3939898 9.85039299,1.73263494 C9.72001332,1.55457786 9.58105604,1.37991235 9.42665906,1.22220465 C9.27054656,1.06280117 9.09899436,0.925442854 8.92058008,0.791476101 C8.59634642,0.547283537 8.23437128,0.367530677 7.85009436,0.228476579 C6.30097801,-0.332827162 4.43277456,0.167428438 3.38459063,1.42909002 C3.24048678,1.60205975 3.10324502,1.78181261 2.98658953,1.97513172 C2.86993403,2.16675505 2.77901137,2.37024886 2.69495079,2.57713422 C2.53712277,2.96038089 2.45649324,3.36736849 2.42389832,3.77944344 C2.360424,4.58663553 2.57314873,5.42943903 2.99859818,6.12131796 C3.40860794,6.78945595 4.02791137,7.36263016 4.75186165,7.68652446 C4.96458638,7.78148824 5.18245767,7.86966889 5.40890657,7.93241281 C5.63363995,7.99346095 5.86180438,8.02737658 6.09339985,8.05450909 C6.51541825,8.10368676 6.94601427,8.06977112 7.36288611,7.98667782 C8.94631291,7.66787086 10.2724114,6.31972442 10.517731,4.7375601 C10.553757,4.50693379 10.5812054,4.27630748 10.5812054,4.04228961 C10.5829209,3.68787123 10.2638338,3.34701911 9.89499657,3.36397693 C9.52444382,3.3758474 9.21221881,3.65734716 9.21221881,4.03720226 Z M11.4887165,14.6409252 C11.1524742,14.6409252 10.8162319,14.6409252 10.4799896,14.6409252 C9.67884079,14.6409252 8.87940755,14.6409252 8.07825878,14.6409252 C7.11413543,14.6409252 6.15001207,14.6409252 5.18417319,14.6409252 C4.35214503,14.6409252 3.52011687,14.6409252 2.68637318,14.6409252 C2.29694969,14.6409252 1.9075262,14.6443167 1.51810271,14.6409252 C1.47521466,14.6409252 1.43232661,14.6375336 1.39115408,14.6324463 C1.45119735,14.6409252 1.51295614,14.6494041 1.57299941,14.6561872 C1.50437853,14.6460125 1.4391887,14.6273589 1.37571438,14.6019222 C1.43061109,14.6239674 1.48550779,14.6477083 1.5404045,14.6697535 C1.47178362,14.6409252 1.4083093,14.603618 1.34826603,14.5578319 C1.39458513,14.5934433 1.44090422,14.6290547 1.48722331,14.6646661 C1.43575765,14.6222716 1.38772304,14.5764855 1.34655051,14.525612 C1.38257647,14.5713981 1.41860243,14.6171842 1.4546284,14.6629703 C1.4083093,14.603618 1.37228334,14.5408741 1.34140394,14.4730428 C1.36370573,14.5273078 1.38772304,14.5815728 1.41002482,14.6358378 C1.38429199,14.5730939 1.36713677,14.5069584 1.35512812,14.4408229 C1.36370573,14.5001753 1.37228334,14.5612234 1.37914543,14.6205758 C1.35169708,14.4153862 1.37056782,14.1983262 1.37056782,13.9914408 C1.37056782,13.748944 1.37056782,13.508143 1.37056782,13.2656462 C1.37056782,13.0841976 1.38086095,12.9044447 1.40487826,12.7246919 C1.39630065,12.7840442 1.38772304,12.8450924 1.38086095,12.9044447 C1.42889557,12.5568095 1.52153375,12.2159574 1.66049103,11.8920631 C1.63818925,11.9463281 1.61417194,12.0005931 1.59187015,12.0548581 C1.72568087,11.7462258 1.89723307,11.4562472 2.10481123,11.1900094 C2.06878527,11.2357955 2.03275931,11.2815817 1.99673334,11.3273678 C2.2043115,11.0645216 2.44276906,10.8271122 2.71039049,10.6219226 C2.6640714,10.657534 2.6177523,10.6931454 2.57143321,10.7287568 C2.84077016,10.5235672 3.13412442,10.3539891 3.44634942,10.2217181 C3.39145272,10.2437633 3.33655601,10.2675042 3.28165931,10.2895494 C3.60932401,10.1538868 3.95242841,10.0606188 4.30582594,10.0131369 C4.24578267,10.0216159 4.18402388,10.0300948 4.12398061,10.0368779 C4.37787786,10.004658 4.63005959,10.0029623 4.88567237,10.0029623 C5.19961289,10.0029623 5.51355341,10.0029623 5.82749394,10.0029623 C6.56002183,10.0029623 7.29254971,10.0029623 8.0250776,10.0029623 C8.30813873,10.0029623 8.58948433,10.0012665 8.87254546,10.0368779 C8.81250219,10.028399 8.7507434,10.0199201 8.69070013,10.0131369 C9.04238214,10.0606188 9.38720206,10.152191 9.71486676,10.2895494 C9.65997005,10.2675042 9.60507335,10.2437633 9.55017665,10.2217181 C9.86240165,10.3539891 10.1557559,10.5235672 10.4250929,10.7287568 C10.3787738,10.6931454 10.3324547,10.657534 10.2861356,10.6219226 C10.5520415,10.8271122 10.7922146,11.0628258 10.9997927,11.3273678 C10.9637668,11.2815817 10.9277408,11.2357955 10.8917148,11.1900094 C11.099293,11.4562472 11.2708452,11.7462258 11.4046559,12.0548581 C11.3823541,12.0005931 11.3583368,11.9463281 11.336035,11.8920631 C11.4732768,12.2159574 11.5676305,12.5551137 11.6156651,12.9044447 C11.6070875,12.8450924 11.5985099,12.7840442 11.5916478,12.7246919 C11.6242427,12.9807549 11.6259582,13.2351222 11.6259582,13.492881 C11.6259582,13.772685 11.6259582,14.0524889 11.6259582,14.3322929 C11.6259582,14.4289525 11.6293893,14.525612 11.6173806,14.6205758 C11.6259582,14.5612234 11.6345359,14.5001753 11.6413979,14.4408229 C11.6311048,14.5086542 11.6122341,14.5730939 11.5865012,14.6358378 C11.608803,14.5815728 11.6328203,14.5273078 11.6551221,14.4730428 C11.6259582,14.5408741 11.5882168,14.603618 11.5418977,14.6629703 C11.5779236,14.6171842 11.6139496,14.5713981 11.6499756,14.525612 C11.6070875,14.5764855 11.5607684,14.6239674 11.5093028,14.6646661 C11.5556218,14.6290547 11.6019409,14.5934433 11.64826,14.5578319 C11.5882168,14.603618 11.5247425,14.6392294 11.4561216,14.6697535 C11.5110183,14.6477083 11.565915,14.6239674 11.6208117,14.6019222 C11.5573374,14.6273589 11.490432,14.6443167 11.4235267,14.6561872 C11.4835699,14.6477083 11.5453287,14.6392294 11.605372,14.6324463 C11.5676305,14.6375336 11.5281735,14.6392294 11.4887165,14.6409252 C11.3120177,14.642621 11.1301724,14.7155396 11.0032238,14.8393316 C10.8848528,14.9563406 10.7939301,15.1496597 10.8025077,15.3192379 C10.8196629,15.6821351 11.1044396,16.0026379 11.4887165,15.9975505 C12.1560545,15.9873758 12.7427631,15.5566473 12.9383326,14.9241207 C13.0155311,14.673145 12.9983758,14.4035157 12.9983758,14.1457569 C12.9983758,13.5556249 13.0172466,12.9705802 12.9143153,12.3855355 C12.7633493,11.5291658 12.3276067,10.7236695 11.7306051,10.0911429 C11.1336034,9.45861633 10.3307391,8.99397215 9.48155577,8.78708678 C8.99434752,8.66838206 8.50370823,8.64972846 8.00620686,8.64972846 C7.49498131,8.64972846 6.98547128,8.64972846 6.47424573,8.64972846 C5.96988226,8.64972846 5.46723432,8.64972846 4.96287086,8.64972846 C4.45336083,8.64972846 3.94728184,8.67346941 3.45149599,8.8040446 C2.60917469,9.02449622 1.81660353,9.49422775 1.23161054,10.1318417 C0.641470975,10.7745429 0.214306,11.581735 0.0753487195,12.4431921 C-0.0172894678,13.0214537 0.00158127407,13.601411 0.00158127407,14.1847599 C0.00158127407,14.4526934 -0.0138584238,14.7324974 0.0839263294,14.9885604 C0.210874956,15.3175421 0.413306551,15.5769967 0.710091854,15.7720116 C0.941687322,15.9229361 1.23504158,15.9958548 1.5095251,15.9992463 C1.64333581,16.0009421 1.77714653,15.9992463 1.91095724,15.9992463 C2.25406164,15.9992463 2.59545052,15.9992463 2.93855491,15.9992463 C3.42576316,15.9992463 3.91125588,15.9992463 4.39846412,15.9992463 C4.96458638,15.9992463 5.53070863,15.9992463 6.09683089,15.9992463 C6.67839284,15.9992463 7.25823927,15.9992463 7.83980123,15.9992463 C8.37161304,15.9992463 8.90170934,15.9992463 9.43352115,15.9992463 C9.85039299,15.9992463 10.2672648,15.9992463 10.6824212,15.9992463 C10.9208787,15.9992463 11.1593363,15.9992463 11.3977938,15.9992463 C11.4286732,15.9992463 11.4595526,15.9992463 11.490432,15.9992463 C11.8489761,15.9992463 12.193796,15.6872225 12.1766408,15.3209336 C12.1594856,14.9512532 11.8747089,14.6409252 11.4887165,14.6409252 Z" id="Shape"></path>
                        </g>
                    </g>
                </g>
            </g>
        </g>
    </g>
</svg>