<?xml version="1.0" encoding="UTF-8"?>
<svg width="18px" height="18px" viewBox="0 0 18 18" version="1.1" xmlns="http://www.w3.org/2000/svg" xmlns:xlink="http://www.w3.org/1999/xlink">
    <title>wallet</title>
    <g id="Page-1" stroke="none" stroke-width="1" fill="none" fill-rule="evenodd">
        <g id="Creator_my_wallet" transform="translate(-219.000000, -296.000000)" fill="#FFFFFF" fill-rule="nonzero">
            <g id="Group-3" transform="translate(180.000000, 190.000000)">
                <g id="Group-5" transform="translate(38.000000, 34.000000)">
                    <g id="Group-4-Copy-2" transform="translate(1.000000, 71.000000)">
                        <g id="wallet" transform="translate(0.000000, 1.000000)">
                            <path d="M16.213664,4.00314575 L11.9490965,0.335969941 C11.4563184,-0.0900672467 10.7370616,-0.113334234 10.2183468,0.279982524 L8.36990598,1.67966795 L7.20684212,0.503932192 C6.66679633,-0.038758872 5.79460215,-0.038758872 5.25455636,0.503932192 L1.79305678,4.03813789 C0.771102102,4.18063583 0.00751792678,5.05983109 0,6.10267389 L0,15.9004719 C0,17.0600092 0.92985969,18 2.07689975,18 L15.9228981,18 C17.0699381,18 17.9998999,17.0600092 17.9998999,15.9004719 L17.9998999,6.10267389 C18.0100579,5.04885348 17.245917,4.15063672 16.213664,4.00314575 Z M16.615198,12.4012583 L15.2305981,12.4012583 C14.4659048,12.4012583 13.8459983,11.7745978 13.8459983,11.0015729 C13.8459983,10.228548 14.4659048,9.60188745 15.2305981,9.60188745 L16.615198,9.60188745 L16.615198,12.4012583 Z M11.0767987,1.39973086 L14.0536883,4.00314575 L10.6683417,4.00314575 L9.35989486,2.68044303 L11.0767987,1.39973086 Z M6.23069924,1.49071042 L8.71605594,4.00314575 L3.74534254,4.00314575 L6.23069924,1.49071042 Z M15.9228981,16.6003146 L2.07689975,16.6003146 C1.69455306,16.6003146 1.38459983,16.2869843 1.38459983,15.9004719 L1.38459983,6.10267389 C1.38459983,5.71616143 1.69455306,5.40283118 2.07689975,5.40283118 L15.9228981,5.40283118 C16.3052447,5.40283118 16.615198,5.71616143 16.615198,6.10267389 L16.615198,8.20220203 L15.2305981,8.20220203 C13.7012114,8.20220203 12.4613985,9.45552305 12.4613985,11.0015729 C12.4613985,12.5476227 13.7012114,13.8009437 15.2305981,13.8009437 L16.615198,13.8009437 L16.615198,15.9004719 C16.615198,16.2869843 16.3052447,16.6003146 15.9228981,16.6003146 Z" id="Shape"></path>
                            <path d="M14.7390652,10.5046846 C14.6125587,10.6387981 14.5408483,10.8162776 14.5382982,11.0015729 C14.5382982,11.3880853 14.8482515,11.7014156 15.2305981,11.7014156 C15.6129448,11.7014156 15.9229099,11.3880853 15.9229099,11.0015729 C15.9245337,10.7172512 15.7558435,10.4601885 15.4960824,10.3511594 C15.2363212,10.2421303 14.9371256,10.302808 14.7390652,10.5046846 L14.7390652,10.5046846 Z" id="Path"></path>
                        </g>
                    </g>
                </g>
            </g>
        </g>
    </g>
</svg>