<?xml version="1.0" encoding="UTF-8"?>
<svg width="25px" height="33px" viewBox="0 0 25 33" version="1.1" xmlns="http://www.w3.org/2000/svg" xmlns:xlink="http://www.w3.org/1999/xlink">
    <title>shopping-bag_icon-icons.com_64600</title>
    <g id="Page-1" stroke="none" stroke-width="1" fill="none" fill-rule="evenodd">
        <g id="ME-Tab" transform="translate(-668.000000, -530.000000)" fill="#6B80CA" fill-rule="nonzero">
            <g id="Purchases-Tab" transform="translate(643.000000, 521.000000)">
                <g id="shopping-bag_icon-icons.com_64600" transform="translate(25.000000, 9.000000)">
                    <path d="M15,20.25 L10,20.25 C9.54,20.25 9.16666667,20.58525 9.16666667,21 C9.16666667,21.41475 9.54,21.75 10,21.75 L15,21.75 C15.4608333,21.75 15.8333333,21.41475 15.8333333,21 C15.8333333,20.58525 15.4608333,20.25 15,20.25 Z M17.5,17.25 L7.5,17.25 C7.04,17.25 6.66666667,17.58525 6.66666667,18 C6.66666667,18.41475 7.04,18.75 7.5,18.75 L17.5,18.75 C17.9608333,18.75 18.3333333,18.41475 18.3333333,18 C18.3333333,17.58525 17.9608333,17.25 17.5,17.25 Z M24.1666667,7.5 L20,7.5 L20,6.75 C20,3.02175 16.6425,0 12.5,0 C8.3575,0 5,3.02175 5,6.75 L5,7.5 L0.833333333,7.5 C0.373333333,7.5 0,7.83525 0,8.25 L0,30.75 C0,31.99275 1.11916667,33 2.5,33 L22.5,33 C23.88,33 25,31.99275 25,30.75 L25,8.25 C25,7.83525 24.6275,7.5 24.1666667,7.5 Z M6.66666667,6.75 C6.66666667,3.8505 9.27833333,1.5 12.5,1.5 C15.7216667,1.5 18.3333333,3.8505 18.3333333,6.75 L18.3333333,7.5 L6.66666667,7.5 L6.66666667,6.75 Z M23.3333333,30.75 C23.3333333,31.16475 22.9608333,31.5 22.5,31.5 L2.5,31.5 C2.04,31.5 1.66666667,31.16475 1.66666667,30.75 L1.66666667,9 L5,9 L5,11.25 C5,11.66475 5.37333333,12 5.83333333,12 C6.29333333,12 6.66666667,11.66475 6.66666667,11.25 L6.66666667,9 L18.3333333,9 L18.3333333,11.25 C18.3333333,11.66475 18.7058333,12 19.1666667,12 C19.6275,12 20,11.66475 20,11.25 L20,9 L23.3333333,9 L23.3333333,30.75 Z" id="Shape"></path>
                </g>
            </g>
        </g>
    </g>
</svg>