<?xml version="1.0" encoding="UTF-8"?>
<svg width="26px" height="25px" viewBox="0 0 26 25" version="1.1" xmlns="http://www.w3.org/2000/svg" xmlns:xlink="http://www.w3.org/1999/xlink">
    <title>dashboard icon</title>
    <g id="Page-1" stroke="none" stroke-width="1" fill="none" fill-rule="evenodd">
        <g id="ME-Tab" transform="translate(-669.000000, -309.000000)">
            <g id="Dashboard" transform="translate(639.000000, 295.000000)">
                <g id="dashboard-icon" transform="translate(31.000000, 14.000000)">
                    <polygon id="Path" points="1 0 24 0 24 23 1 23"></polygon>
                    <path d="M1.28801209,14 L8.71198791,14 C9.42039456,14 10,13.415 10,12.7 L10,2.3 C10,1.585 9.42039456,1 8.71198791,1 L1.28801209,1 C0.579605441,1 0,1.585 0,2.3 L0,12.7 C0,13.415 0.579605441,14 1.28801209,14 Z M1.28801209,24 L8.71198791,24 C9.42039456,24 10,23.4157557 10,22.7016793 L10,18.2983207 C10,17.5842443 9.42039456,17 8.71198791,17 L1.28801209,17 C0.579605441,17 0,17.5842443 0,18.2983207 L0,22.7016793 C0,23.4157557 0.579605441,24 1.28801209,24 Z M14.2880556,24 L21.7119444,24 C22.420375,24 23,23.415 23,22.7 L23,12.3 C23,11.585 22.420375,11 21.7119444,11 L14.5925006,11 C13.88407,11 13,11.585 13,12.3 L13,22.7 C13,23.415 13.579625,24 14.2880556,24 Z M13,2.28377663 L13,6.71622337 C13,7.42230052 13.579625,8 14.2880556,8 L21.7119444,8 C22.420375,8 23,7.42230052 23,6.71622337 L23,2.28377663 C23,1.57769948 22.420375,1 21.7119444,1 L14.2880556,1 C13.579625,1 13,1.57769948 13,2.28377663 Z" id="Shape" stroke="#706AFF" stroke-width="1.3" fill-rule="nonzero"></path>
                </g>
            </g>
        </g>
    </g>
</svg>