<?xml version="1.0" encoding="UTF-8"?>
<svg width="26px" height="28px" viewBox="0 0 26 28" version="1.1" xmlns="http://www.w3.org/2000/svg" xmlns:xlink="http://www.w3.org/1999/xlink">
    <title>icon-settings</title>
    <g id="Page-1" stroke="none" stroke-width="1" fill="none" fill-rule="evenodd" stroke-linecap="round" stroke-linejoin="round">
        <g id="ME-Tab" transform="translate(-673.000000, -683.000000)" stroke="#AC2929" stroke-width="1.5">
            <g id="Settings-Tab" transform="translate(643.000000, 673.000000)">
                <g id="icon-settings" transform="translate(31.000000, 11.000000)">
                    <path d="M23.6507792,7.23046733 L22.8109708,5.76951947 C22.100426,4.53333594 20.5257853,4.1068694 19.2910349,4.81618164 L19.2910349,4.81618164 C18.703142,5.16330368 18.0017725,5.26178771 17.3414219,5.0899107 C16.6812062,4.91803368 16.1161166,4.48993047 15.7710989,3.90000019 C15.5490031,3.52501424 15.4297244,3.09792549 15.4252717,2.66189594 L15.4252717,2.66189594 C15.4452414,1.96285006 15.1821266,1.28543253 14.6959715,0.78396338 C14.2096814,0.282507761 13.5416398,-0.000287887451 12.8439134,0 L11.151937,0 C10.4684592,0 9.81316852,0.273012391 9.3310478,0.758642394 C8.8489136,1.2442724 8.57971345,1.90248278 8.58300576,2.58761023 L8.58300576,2.58761023 C8.56273918,4.00219038 7.41298159,5.13823969 6.00171492,5.13809091 C5.56676596,5.13355964 5.14070893,5.01397479 4.76665418,4.79141522 L4.76665418,4.79141522 C3.53180932,4.08211651 1.95723608,4.50856953 1.24671825,5.74475306 L0.345125123,7.23046733 C-0.364521053,8.46510888 0.0551051794,10.0425441 1.28377021,10.7590252 L1.28377021,10.7590252 C2.08243823,11.2212549 2.57443587,12.0755136 2.57443587,13 C2.57443587,13.9245137 2.08243823,14.7786912 1.28377021,15.2408803 L1.28377021,15.2408803 C0.0566568819,15.9526273 -0.36341867,17.5262616 0.345125123,18.7571429 L0.345125123,18.7571429 L1.19732014,20.2304131 C1.53022104,20.8325981 2.08877997,21.2769327 2.74938695,21.465217 C3.40999393,21.653366 4.11819095,21.5699095 4.71725606,21.2332432 L4.71725606,21.2332432 C5.30617439,20.888867 6.00794871,20.7944543 6.66662618,20.9711061 C7.32529016,21.1478931 7.88625086,21.581001 8.22483234,22.1742587 C8.44683374,22.5492041 8.56612593,22.9763604 8.57064611,23.4123088 L8.57064611,23.4123088 C8.57064611,24.8414837 9.72632715,26 11.151937,26 L12.8439134,26 C14.2647331,26 15.4183902,24.8489231 15.4252717,23.4247529 L15.4252717,23.4247529 C15.4218984,22.7374883 15.6928392,22.0772761 16.177645,21.5912809 C16.6624508,21.1054209 17.3209124,20.8338155 18.0064951,20.8370617 C18.440432,20.8486942 18.8647889,20.9678598 19.2416502,21.1837374 L19.2416502,21.1837374 C20.4731623,21.8952139 22.0468585,21.47455 22.7615862,20.2428572 L22.7615862,20.2428572 L23.6507792,18.7571429 C23.9949873,18.164832 24.0894387,17.4594424 23.9132193,16.7972012 C23.7371348,16.13496 23.304817,15.5703778 22.7120666,15.2285715 L22.7120666,15.2285715 C22.1194512,14.8867653 21.6871334,14.322183 21.510914,13.6599418 C21.3348295,12.9975654 21.4292809,12.2921757 21.773489,11.6999866 C21.997339,11.3082282 22.3213074,10.9834108 22.7120666,10.7590252 L22.7120666,10.7590252 C23.9334589,10.0429364 24.3520138,8.47471246 23.6507792,7.24284378 L23.6507792,7.24284378 L23.6507792,7.23046733 Z" id="Path"></path>
                    <circle id="Oval" cx="12.5" cy="13.5" r="3.5"></circle>
                </g>
            </g>
        </g>
    </g>
</svg>