<?xml version="1.0" encoding="UTF-8"?>
<svg width="24px" height="23px" viewBox="0 0 24 23" version="1.1" xmlns="http://www.w3.org/2000/svg" xmlns:xlink="http://www.w3.org/1999/xlink">
    <title>wallet</title>
    <g id="Page-1" stroke="none" stroke-width="1" fill="none" fill-rule="evenodd">
        <g id="ME-Tab" transform="translate(-669.000000, -461.000000)" fill="#458224" fill-rule="nonzero">
            <g id="Wallet-Tab" transform="translate(641.000000, 447.000000)">
                <g id="wallet" transform="translate(28.000000, 14.000000)">
                    <path d="M21.6181008,5.11513068 L15.9320418,0.429294925 C15.2750079,-0.115085926 14.3160041,-0.144815966 13.6243881,0.357755447 L11.1598138,2.14624238 L9.60907044,0.643913357 C8.88901331,-0.0495252252 7.72609408,-0.0495252252 7.00603695,0.643913357 L2.39072934,5.15984286 C1.02813053,5.34192356 0.0100238477,6.46533973 0,7.79786108 L0,20.3172697 C0,21.7989006 1.23980616,23 2.76918457,23 L21.2304151,23 C22.7597934,23 23.9998691,21.7989006 23.9998691,20.3172697 L23.9998691,7.79786108 C24.0132796,6.45131278 22.9944306,5.30359136 21.6181008,5.11513068 Z M22.1534766,15.8460523 L20.3073534,15.8460523 C19.2877679,15.8460523 18.4612304,15.0453194 18.4612304,14.0575654 C18.4612304,13.0698113 19.2877679,12.2690784 20.3073534,12.2690784 L22.1534766,12.2690784 L22.1534766,15.8460523 Z M14.7689844,1.78854499 L18.7381489,5.11513068 L14.2243781,5.11513068 L12.4797918,3.42501054 L14.7689844,1.78854499 Z M8.3075537,1.90479665 L11.6213446,5.11513068 L4.99376283,5.11513068 L8.3075537,1.90479665 Z M21.2304151,21.2115131 L2.76918457,21.2115131 C2.25939176,21.2115131 1.84612304,20.8111466 1.84612304,20.3172697 L1.84612304,7.79786108 C1.84612304,7.30398405 2.25939176,6.90361762 2.76918457,6.90361762 L21.2304151,6.90361762 C21.7402077,6.90361762 22.1534766,7.30398405 22.1534766,7.79786108 L22.1534766,10.4805915 L20.3073534,10.4805915 C18.2681823,10.4805915 16.6151074,12.0820572 16.6151074,14.0575654 C16.6151074,16.0330735 18.2681823,17.6345392 20.3073534,17.6345392 L22.1534766,17.6345392 L22.1534766,20.3172697 C22.1534766,20.8111466 21.7402077,21.2115131 21.2304151,21.2115131 Z" id="Shape"></path>
                    <path d="M19.2899951,14.1474917 C19.1072646,14.2430294 19.0036835,14.3694594 19,14.5014571 C19,14.7767947 19.4477078,15 19.999983,15 C20.5522584,15 21,14.7767947 21,14.5014571 C21.0023287,14.2989165 20.7586665,14.1157943 20.3834581,14.0381258 C20.0082497,13.9604574 19.5760807,14.003682 19.2899951,14.1474917 L19.2899951,14.1474917 Z" id="Path"></path>
                </g>
            </g>
        </g>
    </g>
</svg>