<svg width="24" height="24" viewBox="0 0 24 24" fill="none" xmlns="http://www.w3.org/2000/svg">
<path d="M11.5928 9.23978L6.94931 13.6615C6.84182 13.7638 6.78261 13.9003 6.78261 14.0459C6.78261 14.1914 6.84182 14.328 6.94931 14.4302L7.29119 14.7559C7.51397 14.9678 7.87605 14.9678 8.09848 14.7559L11.9978 11.0428L15.9015 14.76C16.009 14.8623 16.1523 14.9187 16.3051 14.9187C16.458 14.9187 16.6013 14.8623 16.7089 14.76L17.0507 14.4344C17.1582 14.332 17.2174 14.1956 17.2174 14.05C17.2174 13.9044 17.1582 13.7679 17.0507 13.6656L12.4029 9.23978C12.2951 9.13727 12.1511 9.08096 11.9981 9.08129C11.8445 9.08096 11.7006 9.13727 11.5928 9.23978Z" fill="#141414"/>
</svg>
