<svg width="24" height="24" viewBox="0 0 24 24" fill="none" xmlns="http://www.w3.org/2000/svg">
<path d="M12.4072 14.7602L17.0507 10.3385C17.1582 10.2362 17.2174 10.0997 17.2174 9.95413C17.2174 9.80856 17.1582 9.67204 17.0507 9.56977L16.7088 9.24414C16.486 9.03225 16.124 9.03225 15.9015 9.24414L12.0022 12.9572L8.09848 9.24002C7.991 9.13775 7.84771 9.08128 7.69492 9.08128C7.54197 9.08128 7.39868 9.13775 7.29111 9.24002L6.94931 9.56565C6.84182 9.668 6.78261 9.80444 6.78261 9.95001C6.78261 10.0956 6.84182 10.2321 6.94931 10.3344L11.5971 14.7602C11.7049 14.8627 11.8489 14.919 12.0019 14.9187C12.1555 14.919 12.2994 14.8627 12.4072 14.7602Z" fill="#141414"/>
</svg>
