<?xml version="1.0" encoding="UTF-8"?>
<svg xmlns="http://www.w3.org/2000/svg" width="6" height="10" viewBox="0 0 6 10" fill="none">
  <path opacity="0.5" d="M5.84153 4.6098L1.4198 0.159755C1.31753 0.0567475 1.18101 0 1.03544 0C0.889873 0 0.753352 0.0567475 0.651083 0.159755L0.325453 0.487394C0.113563 0.700889 0.113563 1.04788 0.325453 1.26105L4.03849 4.99793L0.321333 8.73895C0.219064 8.84196 0.162598 8.97928 0.162598 9.1257C0.162598 9.27228 0.219064 9.4096 0.321333 9.51269L0.646963 9.84025C0.749313 9.94325 0.885753 10 1.03132 10C1.17689 10 1.31341 9.94325 1.41568 9.84025L5.84153 5.38614C5.94405 5.2828 6.00035 5.14484 6.00003 4.99817C6.00035 4.85094 5.94405 4.71305 5.84153 4.6098Z" fill="currentColor"></path>
</svg>
