<svg width="24" height="24" viewBox="0 0 24 24" fill="none" xmlns="http://www.w3.org/2000/svg">
<path d="M19.0017 5C18.4731 5.00415 17.9442 5.20753 17.5438 5.60659L12.5314 10.6004C12.4511 10.6807 12.3929 10.7803 12.3624 10.8897L11.6065 13.6054C11.5647 13.7554 11.5776 13.9154 11.6426 14.0569C11.7077 14.1985 11.8208 14.3123 11.9618 14.3783C12.103 14.4442 12.2628 14.458 12.4132 14.4173L15.1413 13.6603C15.2506 13.6301 15.3503 13.5723 15.4306 13.4923L20.44 8.49964C21.2408 7.70181 21.2594 6.38803 20.4597 5.59112C20.0597 5.19264 19.5304 4.99564 19.0018 5.00008L19.0017 5ZM19.0079 6.30752C19.1976 6.30589 19.3855 6.37966 19.5305 6.52424C19.8206 6.81324 19.8201 7.2582 19.5108 7.56631L19.3605 7.71563L18.3277 6.6839L18.4719 6.53977C18.6265 6.38572 18.8184 6.30899 19.008 6.3075L19.0079 6.30752ZM4.46516 6.6497C3.66245 6.6497 3 7.31215 3 8.11486V18.8655V18.8688C3.00044 19.3514 3.31255 19.7549 3.70094 19.9161C4.08932 20.0772 4.59296 20.0118 4.93588 19.6724L7.27516 17.7406H17.3197C18.1217 17.7406 18.7901 17.0813 18.7901 16.2786V12.4614C18.7895 12.3207 18.733 12.1859 18.633 12.0867C18.5332 11.9876 18.398 11.9322 18.2571 11.9328C17.9651 11.9332 17.7284 12.1695 17.7272 12.4614V16.2782C17.7272 16.5096 17.5542 16.6785 17.3197 16.6785H7.08743C6.963 16.6777 6.84227 16.7207 6.74628 16.7998L4.22661 18.885C4.21431 18.8962 4.20261 18.9079 4.19135 18.9202C4.15195 18.9592 4.14084 18.9493 4.1084 18.9359C4.07596 18.9225 4.06174 18.9199 4.06174 18.8654V8.11476C4.06174 7.88338 4.2312 7.71139 4.46511 7.71139H13.7732C14.0649 7.71021 14.301 7.47409 14.3021 7.18243C14.3027 7.04171 14.2473 6.90647 14.148 6.80648C14.0489 6.70649 13.9141 6.65005 13.7732 6.64946L4.46516 6.6497ZM17.5749 7.43361L18.6077 8.46636L14.6278 12.4337L13.1855 12.8381L13.5847 11.4113L17.5749 7.43361ZM5.93878 10.0788C5.79806 10.0794 5.66311 10.1358 5.56401 10.2358C5.46477 10.3356 5.40937 10.4709 5.40996 10.6117C5.41114 10.9033 5.64726 11.1394 5.93877 11.1405H10.7282C10.8691 11.1411 11.0043 11.0857 11.1042 10.9865C11.2042 10.8874 11.2606 10.7526 11.2612 10.6117C11.2618 10.4703 11.2058 10.3343 11.1057 10.2343C11.0057 10.1342 10.8697 10.0782 10.7282 10.0788L5.93878 10.0788ZM6.05699 13.2496C5.91552 13.249 5.77954 13.305 5.67956 13.4052C5.57942 13.5051 5.52343 13.6411 5.52402 13.7826C5.52461 13.9235 5.58105 14.0583 5.68103 14.1574C5.78087 14.2566 5.91612 14.312 6.05699 14.3114H9.89348C10.0343 14.312 10.1696 14.2566 10.2694 14.1574C10.3694 14.0583 10.4259 13.9235 10.4264 13.7826C10.427 13.6411 10.3711 13.5051 10.2709 13.4052C10.1709 13.305 10.0349 13.249 9.89348 13.2496H6.05699Z" fill="#141414"/>
</svg>
