<svg width="24" height="24" viewBox="0 0 24 24" fill="none" xmlns="http://www.w3.org/2000/svg">
<path fill-rule="evenodd" clip-rule="evenodd" d="M7.85188 4.00006C7.66611 3.99762 7.47937 4.0648 7.33559 4.20255C7.04207 4.48379 7.04148 4.94831 7.33422 5.23039L8.43071 6.31219L9.38447 7.25315L9.94407 7.80525H7.37115C6.3079 7.80525 5.43551 8.51228 4.87492 9.44966C4.31433 10.387 4 11.6046 4 12.9431V14.8628C4 16.2013 4.31433 17.4181 4.87492 18.3555C5.43551 19.2929 6.3079 19.9999 7.37115 19.9999H16.626C17.6893 19.9999 18.5645 19.2929 19.1251 18.3555C19.6857 17.4181 20 16.2013 20 14.8628V12.9431C20 11.6046 19.6857 10.387 19.1251 9.44966C18.5645 8.51228 17.6893 7.80525 16.626 7.80525H14.0559L14.6155 7.25315L15.5693 6.31219L16.6658 5.23039C16.9585 4.94831 16.9579 4.48379 16.6644 4.20255C16.5206 4.0648 16.3339 3.99764 16.1481 4.00006C15.9623 4.0025 15.7775 4.07442 15.6375 4.21586L14.541 5.29765L13.5873 6.23862L12 7.80525L10.4128 6.23862L9.45908 5.29765L8.36258 4.21586C8.22254 4.07442 8.03775 4.00248 7.85198 4.00006H7.85188ZM7.3711 9.23807H16.626C17.0277 9.23807 17.4762 9.51724 17.8716 10.1783C18.2669 10.8394 18.5448 11.8318 18.5448 12.9431V14.8628C18.5448 15.9741 18.2669 16.9665 17.8716 17.6276C17.4762 18.2887 17.0277 18.5671 16.626 18.5671H7.3711C6.96935 18.5671 6.52083 18.2887 6.12547 17.6276C5.73012 16.9665 5.45508 15.9741 5.45508 14.8628V12.9431C5.45508 11.8318 5.73012 10.8394 6.12547 10.1783C6.52083 9.51724 6.96935 9.23807 7.3711 9.23807ZM8.91358 12.8884C9.33647 12.4709 9.89682 12.2621 10.4568 12.262L10.4567 12.262C11.0167 12.2619 11.5761 12.4703 11.9992 12.8876L12.5134 13.3956L13.0275 13.9029C13.3178 14.1892 13.7665 14.1886 14.0565 13.9022L14.5707 13.3956C14.8508 13.1127 15.31 13.1068 15.5976 13.3823C15.8912 13.6636 15.8925 14.1281 15.5998 14.4102H15.5991L15.0856 14.9167C14.2399 15.7518 12.8455 15.7521 11.9993 14.9174L11.4851 14.4102L10.9709 13.9029C10.6807 13.6166 10.232 13.6165 9.94192 13.9029L9.42847 14.4095V14.4102C9.14253 14.6986 8.6716 14.6983 8.38666 14.4088C8.10742 14.1251 8.1134 13.672 8.40013 13.3957L8.91358 12.8884Z" fill="#141414"/>
<path d="M7.33559 4.20255L7.26641 4.13034L7.26641 4.13035L7.33559 4.20255ZM7.85188 4.00006L7.85057 4.10006H7.85188V4.00006ZM7.33422 5.23039L7.40446 5.1592L7.40361 5.15838L7.33422 5.23039ZM8.43071 6.31219L8.36048 6.38337L8.43071 6.31219ZM9.38447 7.25315L9.4547 7.18196V7.18196L9.38447 7.25315ZM9.94407 7.80525V7.90525H10.1878L10.0143 7.73407L9.94407 7.80525ZM4.87492 9.44966L4.7891 9.39834H4.7891L4.87492 9.44966ZM4.87492 18.3555L4.7891 18.4069H4.7891L4.87492 18.3555ZM19.1251 18.3555L19.2109 18.4069H19.2109L19.1251 18.3555ZM19.1251 9.44966L19.0393 9.50099H19.0393L19.1251 9.44966ZM14.0559 7.80525L13.9857 7.73407L13.8122 7.90525H14.0559V7.80525ZM14.6155 7.25315L14.5453 7.18196L14.6155 7.25315ZM15.5693 6.31219L15.6395 6.38337L15.5693 6.31219ZM16.6658 5.23039L16.5964 5.15838L16.5955 5.15921L16.6658 5.23039ZM16.6644 4.20255L16.7336 4.13035L16.7336 4.13034L16.6644 4.20255ZM16.1481 4.00006L16.1468 3.90007L16.1468 3.90007L16.1481 4.00006ZM15.6375 4.21586L15.7077 4.28705L15.7086 4.28622L15.6375 4.21586ZM14.541 5.29765L14.4708 5.22647L14.541 5.29765ZM13.5873 6.23862L13.517 6.16743L13.517 6.16745L13.5873 6.23862ZM12 7.80525L11.9298 7.87642L12 7.94576L12.0703 7.87642L12 7.80525ZM10.4128 6.23862L10.4831 6.16745L10.4831 6.16743L10.4128 6.23862ZM9.45908 5.29765L9.38885 5.36884L9.45908 5.29765ZM8.36258 4.21586L8.29152 4.28623L8.29235 4.28705L8.36258 4.21586ZM7.85198 4.00006L7.85328 3.90006H7.85198V4.00006ZM17.8716 10.1783L17.7858 10.2297L17.8716 10.1783ZM17.8716 17.6276L17.7858 17.5762H17.7858L17.8716 17.6276ZM10.4568 12.262L10.4568 12.362L10.6354 12.362L10.542 12.2098L10.4568 12.262ZM8.91358 12.8884L8.84332 12.8173L8.8433 12.8173L8.91358 12.8884ZM10.4567 12.262L10.4567 12.162L10.2781 12.162L10.3715 12.3143L10.4567 12.262ZM11.9992 12.8876L12.0695 12.8165L12.0694 12.8165L11.9992 12.8876ZM12.5134 13.3956L12.4431 13.4667L12.4431 13.4668L12.5134 13.3956ZM13.0275 13.9029L12.9573 13.9741L12.9573 13.9741L13.0275 13.9029ZM14.0565 13.9022L13.9864 13.8309L13.9863 13.831L14.0565 13.9022ZM14.5707 13.3956L14.6409 13.4669L14.6418 13.466L14.5707 13.3956ZM15.5976 13.3823L15.6668 13.3101L15.6668 13.3101L15.5976 13.3823ZM15.5998 14.4102V14.5102H15.6401L15.6692 14.4822L15.5998 14.4102ZM15.5991 14.4102V14.3102H15.5581L15.5289 14.339L15.5991 14.4102ZM15.0856 14.9167L15.0154 14.8455L15.0154 14.8456L15.0856 14.9167ZM11.9993 14.9174L11.929 14.9886L11.929 14.9886L11.9993 14.9174ZM11.4851 14.4102L11.5553 14.339L11.4851 14.4102ZM10.9709 13.9029L11.0412 13.8317L11.0412 13.8317L10.9709 13.9029ZM9.94192 13.9029L10.0122 13.9741L10.0122 13.9741L9.94192 13.9029ZM9.42847 14.4095L9.35824 14.3383L9.32847 14.3676V14.4095H9.42847ZM9.42847 14.4102L9.49949 14.4806L9.52847 14.4513V14.4102H9.42847ZM8.38666 14.4088L8.31539 14.479L8.3154 14.479L8.38666 14.4088ZM8.40013 13.3957L8.46953 13.4677L8.47041 13.4668L8.40013 13.3957ZM7.40477 4.27476C7.52867 4.15606 7.68969 4.09794 7.85057 4.10006L7.8532 3.90007C7.64252 3.89731 7.43008 3.97355 7.26641 4.13034L7.40477 4.27476ZM7.40361 5.15838C7.15175 4.9157 7.15227 4.5167 7.40478 4.27476L7.26641 4.13035C6.93187 4.45089 6.93121 4.98093 7.26483 5.3024L7.40361 5.15838ZM8.50095 6.241L7.40445 5.15921L7.26399 5.30158L8.36048 6.38337L8.50095 6.241ZM9.4547 7.18196L8.50095 6.241L8.36048 6.38337L9.31423 7.32433L9.4547 7.18196ZM10.0143 7.73407L9.4547 7.18196L9.31423 7.32433L9.87384 7.87644L10.0143 7.73407ZM7.37115 7.90525H9.94407V7.70525H7.37115V7.90525ZM4.96074 9.50099C5.51123 8.5805 6.35621 7.90525 7.37115 7.90525V7.70525C6.2596 7.70525 5.3598 8.44405 4.7891 9.39834L4.96074 9.50099ZM4.1 12.9431C4.1 11.6195 4.41094 10.4203 4.96074 9.50099L4.7891 9.39834C4.21772 10.3538 3.9 11.5898 3.9 12.9431H4.1ZM4.1 14.8628V12.9431H3.9V14.8628H4.1ZM4.96075 18.3042C4.41094 17.3849 4.1 16.1864 4.1 14.8628H3.9C3.9 16.2161 4.21772 17.4514 4.7891 18.4069L4.96075 18.3042ZM7.37115 19.8999C6.35621 19.8999 5.51123 19.2247 4.96074 18.3042L4.7891 18.4069C5.3598 19.3611 6.2596 20.0999 7.37115 20.0999V19.8999ZM16.626 19.8999H7.37115V20.0999H16.626V19.8999ZM19.0393 18.3042C18.4888 19.2246 17.641 19.8999 16.626 19.8999V20.0999C17.7375 20.0999 18.6401 19.3613 19.2109 18.4069L19.0393 18.3042ZM19.9 14.8628C19.9 16.1864 19.5891 17.3849 19.0393 18.3042L19.2109 18.4069C19.7823 17.4514 20.1 16.2161 20.1 14.8628H19.9ZM19.9 12.9431V14.8628H20.1V12.9431H19.9ZM19.0393 9.50099C19.5891 10.4203 19.9 11.6195 19.9 12.9431H20.1C20.1 11.5898 19.7823 10.3538 19.2109 9.39834L19.0393 9.50099ZM16.626 7.90525C17.641 7.90525 18.4888 8.58062 19.0393 9.50099L19.2109 9.39834C18.6401 8.44393 17.7375 7.70525 16.626 7.70525V7.90525ZM14.0559 7.90525H16.626V7.70525H14.0559V7.90525ZM14.5453 7.18196L13.9857 7.73407L14.1262 7.87644L14.6858 7.32433L14.5453 7.18196ZM15.4991 6.241L14.5453 7.18196L14.6858 7.32433L15.6395 6.38337L15.4991 6.241ZM16.5955 5.15921L15.4991 6.241L15.6395 6.38337L16.736 5.30158L16.5955 5.15921ZM16.5952 4.27475C16.8477 4.51669 16.8482 4.9157 16.5964 5.15839L16.7352 5.3024C17.0687 4.98092 17.0681 4.4509 16.7336 4.13035L16.5952 4.27475ZM16.1494 4.10006C16.3103 4.09796 16.4713 4.15607 16.5952 4.27476L16.7336 4.13034C16.5699 3.97354 16.3575 3.89733 16.1468 3.90007L16.1494 4.10006ZM15.7086 4.28622C15.8292 4.16438 15.9885 4.10217 16.1494 4.10006L16.1468 3.90007C15.9362 3.90284 15.7259 3.98446 15.5664 4.14551L15.7086 4.28622ZM14.6112 5.36884L15.7077 4.28705L15.5673 4.14468L14.4708 5.22647L14.6112 5.36884ZM13.6575 6.3098L14.6112 5.36884L14.4708 5.22647L13.517 6.16743L13.6575 6.3098ZM12.0703 7.87642L13.6575 6.30979L13.517 6.16745L11.9298 7.73408L12.0703 7.87642ZM10.3426 6.30979L11.9298 7.87642L12.0703 7.73408L10.4831 6.16745L10.3426 6.30979ZM9.38885 5.36884L10.3426 6.3098L10.4831 6.16743L9.52931 5.22647L9.38885 5.36884ZM8.29235 4.28705L9.38885 5.36884L9.52931 5.22647L8.43282 4.14468L8.29235 4.28705ZM7.85067 4.10006C8.01157 4.10215 8.17088 4.16438 8.29152 4.28622L8.43365 4.14551C8.2742 3.98446 8.06393 3.90282 7.85328 3.90007L7.85067 4.10006ZM7.85188 4.10006H7.85198V3.90006H7.85188V4.10006ZM16.626 9.13807H7.3711V9.33807H16.626V9.13807ZM17.9574 10.127C17.5533 9.45125 17.0778 9.13807 16.626 9.13807V9.33807C16.9776 9.33807 17.3992 9.58323 17.7858 10.2297L17.9574 10.127ZM18.6448 12.9431C18.6448 11.8168 18.3635 10.8061 17.9574 10.127L17.7858 10.2297C18.1704 10.8728 18.4448 11.8468 18.4448 12.9431H18.6448ZM18.6448 14.8628V12.9431H18.4448V14.8628H18.6448ZM17.9574 17.6789C18.3635 16.9998 18.6448 15.989 18.6448 14.8628H18.4448C18.4448 15.9591 18.1704 16.9331 17.7858 17.5762L17.9574 17.6789ZM16.626 18.6671C17.0778 18.6671 17.5532 18.3547 17.9574 17.6789L17.7858 17.5762C17.3992 18.2226 16.9777 18.4671 16.626 18.4671V18.6671ZM7.3711 18.6671H16.626V18.4671H7.3711V18.6671ZM6.03965 17.6789C6.44383 18.3547 6.9193 18.6671 7.3711 18.6671V18.4671C7.01941 18.4671 6.59783 18.2226 6.2113 17.5762L6.03965 17.6789ZM5.35508 14.8628C5.35508 15.9888 5.63345 16.9997 6.03965 17.6789L6.2113 17.5762C5.82678 16.9333 5.55508 15.9593 5.55508 14.8628H5.35508ZM5.35508 12.9431V14.8628H5.55508V12.9431H5.35508ZM6.03965 10.127C5.63345 10.8062 5.35508 11.8171 5.35508 12.9431H5.55508C5.55508 11.8466 5.82678 10.8726 6.2113 10.2297L6.03965 10.127ZM7.3711 9.13807C6.91923 9.13807 6.44378 9.45125 6.03965 10.127L6.2113 10.2297C6.59788 9.58323 7.01947 9.33807 7.3711 9.33807V9.13807ZM10.4568 12.162C9.87221 12.1621 9.2861 12.3801 8.84332 12.8173L8.98384 12.9596C9.38684 12.5617 9.92142 12.3621 10.4568 12.362L10.4568 12.162ZM10.3715 12.3143L10.3715 12.3143L10.542 12.2098L10.542 12.2097L10.3715 12.3143ZM12.0694 12.8165C11.6265 12.3795 11.0413 12.1619 10.4567 12.162L10.4567 12.362C10.9921 12.3619 11.5258 12.5611 11.929 12.9588L12.0694 12.8165ZM12.5836 13.3245L12.0695 12.8165L11.9289 12.9588L12.4431 13.4667L12.5836 13.3245ZM13.0977 13.8317L12.5836 13.3244L12.4431 13.4668L12.9573 13.9741L13.0977 13.8317ZM13.9863 13.831C13.735 14.0791 13.3489 14.0795 13.0977 13.8317L12.9573 13.9741C13.2866 14.2989 13.7979 14.2981 14.1268 13.9733L13.9863 13.831ZM14.5005 13.3244L13.9864 13.8309L14.1267 13.9734L14.6409 13.4668L14.5005 13.3244ZM15.6668 13.3101C15.3398 12.9969 14.8182 13.0036 14.4996 13.3252L14.6418 13.466C14.8834 13.2219 15.2802 13.2168 15.5284 13.4545L15.6668 13.3101ZM15.6692 14.4822C16.0029 14.1606 16.0013 13.6305 15.6668 13.3101L15.5284 13.4545C15.7811 13.6966 15.7821 14.0956 15.5304 14.3382L15.6692 14.4822ZM15.5991 14.5102H15.5998V14.3102H15.5991V14.5102ZM15.1559 14.9879L15.6693 14.4814L15.5289 14.339L15.0154 14.8455L15.1559 14.9879ZM11.929 14.9886C12.8142 15.8617 14.2712 15.8614 15.1559 14.9879L15.0154 14.8456C14.2085 15.6422 12.8767 15.6425 12.0695 14.8462L11.929 14.9886ZM11.4149 14.4814L11.929 14.9886L12.0695 14.8462L11.5553 14.339L11.4149 14.4814ZM10.9007 13.9741L11.4149 14.4814L11.5553 14.339L11.0412 13.8317L10.9007 13.9741ZM10.0122 13.9741C10.2633 13.7261 10.6494 13.7262 10.9007 13.9741L11.0412 13.8317C10.712 13.507 10.2007 13.5068 9.87166 13.8317L10.0122 13.9741ZM9.4987 14.4807L10.0122 13.9741L9.87169 13.8317L9.35824 14.3383L9.4987 14.4807ZM9.52847 14.4102V14.4095H9.32847V14.4102H9.52847ZM8.3154 14.479C8.6395 14.8082 9.17441 14.8085 9.49949 14.4806L9.35746 14.3398C9.11064 14.5887 8.7037 14.5883 8.45793 14.3387L8.3154 14.479ZM8.33074 13.3237C8.00395 13.6386 7.99711 14.1556 8.31539 14.479L8.45793 14.3387C8.21773 14.0946 8.22285 13.7054 8.46952 13.4677L8.33074 13.3237ZM8.8433 12.8173L8.32985 13.3245L8.47041 13.4668L8.98386 12.9596L8.8433 12.8173Z" fill="#141414"/>
</svg>
