<svg width="42" height="42" viewBox="0 0 42 42" fill="none" xmlns="http://www.w3.org/2000/svg">
<path fill-rule="evenodd" clip-rule="evenodd" d="M26.4283 18.4283C29.5842 18.4283 32.1425 15.87 32.1425 12.7142C32.1425 9.55832 29.5842 7 26.4283 7C23.2725 7 20.7142 9.55832 20.7142 12.7142C20.7179 15.8685 23.274 18.4246 26.4283 18.4283ZM26.4283 9.28567C28.3218 9.28567 29.8568 10.8207 29.8568 12.7142C29.8568 14.6077 28.3218 16.1427 26.4283 16.1427C24.5348 16.1427 22.9998 14.6077 22.9998 12.7142C23.0019 10.8215 24.5357 9.28775 26.4283 9.28567ZM21.2856 19.5712C21.2856 22.727 18.7273 25.2854 15.5714 25.2854C12.4171 25.2816 9.86095 22.7255 9.85723 19.5712C9.85723 16.4153 12.4156 13.857 15.5714 13.857C18.7273 13.857 21.2856 16.4153 21.2856 19.5712ZM18.9999 19.5712C18.9999 17.6777 17.4649 16.1427 15.5714 16.1427C13.6788 16.1448 12.145 17.6785 12.1429 19.5712C12.1429 21.4647 13.6779 22.9997 15.5714 22.9997C17.4649 22.9997 18.9999 21.4647 18.9999 19.5712ZM31.4021 18.4405C31.8055 18.3542 32.2241 18.4921 32.4974 18.8011C34.1293 20.6178 35.022 22.9796 34.9996 25.4215C34.9996 27.9504 31.315 29.8567 26.4283 29.8567C25.7972 29.8567 25.2855 29.345 25.2855 28.7139C25.2855 28.0827 25.7972 27.571 26.4283 27.571C30.3272 27.571 32.7139 26.1793 32.7139 25.4215C32.7355 23.5496 32.0559 21.7373 30.8088 20.3412C30.5261 20.0408 30.4273 19.6113 30.5502 19.2175C30.6731 18.8237 30.9987 18.5267 31.4021 18.4405ZM19.6546 26.376C19.6685 26.0733 19.8021 25.7885 20.0261 25.5844C20.2498 25.3798 20.5457 25.2726 20.8485 25.2865C21.1514 25.3003 21.4363 25.434 21.6404 25.6581C23.2726 27.4746 24.1654 29.8365 24.1427 32.2785C24.1427 34.8075 20.458 36.7137 15.5714 36.7137C10.6848 36.7137 7.00014 34.8075 7.00037 32.2784C6.9792 29.8531 7.85884 27.5063 9.4689 25.6925C9.74245 25.3893 10.157 25.2551 10.5564 25.3404C10.9557 25.4257 11.2793 25.7176 11.4051 26.1061C11.5309 26.4946 11.4399 26.9207 11.1663 27.2239C9.94368 28.6224 9.27481 30.4199 9.28581 32.2774C9.28581 33.0353 11.6725 34.428 15.5714 34.428C19.4703 34.428 21.857 33.0363 21.857 32.2785C21.8788 30.4065 21.1992 28.5942 19.9519 27.1982C19.7476 26.9744 19.6407 26.6786 19.6546 26.376Z" fill="white"/>
</svg>
