<svg width="24" height="24" viewBox="0 0 24 24" fill="none" xmlns="http://www.w3.org/2000/svg">
<path fill-rule="evenodd" clip-rule="evenodd" d="M15.1019 10.5305C16.9052 10.5305 18.3671 9.06858 18.3671 7.26524C18.3671 5.4619 16.9052 4 15.1019 4C13.2986 4 11.8367 5.4619 11.8367 7.26524C11.8388 9.0677 13.2994 10.5284 15.1019 10.5305ZM15.1019 5.3061C16.1839 5.3061 17.061 6.18324 17.061 7.26524C17.061 8.34725 16.1839 9.22439 15.1019 9.22439C14.0199 9.22439 13.1428 8.34725 13.1428 7.26524C13.1439 6.18373 14.0204 5.30728 15.1019 5.3061ZM12.1632 11.1835C12.1632 12.9869 10.7013 14.4488 8.89794 14.4488C7.09548 14.4466 5.63483 12.986 5.6327 11.1835C5.6327 9.38019 7.0946 7.91829 8.89794 7.91829C10.7013 7.91829 12.1632 9.38019 12.1632 11.1835ZM10.8571 11.1835C10.8571 10.1015 9.97995 9.22439 8.89794 9.22439C7.81643 9.22557 6.93999 10.102 6.9388 11.1835C6.9388 12.2655 7.81594 13.1427 8.89794 13.1427C9.97995 13.1427 10.8571 12.2655 10.8571 11.1835ZM17.9441 10.5374C18.1746 10.4881 18.4138 10.5669 18.5699 10.7435C19.5025 11.7816 20.0126 13.1312 19.9998 14.5266C19.9998 15.9717 17.8943 17.061 15.1019 17.061C14.7412 17.061 14.4489 16.7686 14.4489 16.4079C14.4489 16.0472 14.7412 15.7549 15.1019 15.7549C17.3298 15.7549 18.6937 14.9596 18.6937 14.5266C18.706 13.4569 18.3177 12.4213 17.605 11.6236C17.4435 11.4519 17.387 11.2065 17.4572 10.9814C17.5275 10.7564 17.7135 10.5867 17.9441 10.5374ZM11.2312 15.072C11.2391 14.899 11.3155 14.7363 11.4435 14.6197C11.5713 14.5028 11.7404 14.4415 11.9134 14.4494C12.0865 14.4573 12.2493 14.5337 12.366 14.6618C13.2987 15.6998 13.8088 17.0494 13.7958 18.4448C13.7958 19.89 11.6903 20.9793 8.89794 20.9793C6.10558 20.9793 4.00008 19.89 4.00021 18.4448C3.98812 17.0589 4.49076 15.7179 5.4108 14.6815C5.56712 14.5082 5.804 14.4315 6.03221 14.4802C6.26043 14.529 6.4453 14.6957 6.5172 14.9178C6.5891 15.1398 6.53709 15.3833 6.38077 15.5565C5.6821 16.3557 5.29989 17.3828 5.30618 18.4443C5.30618 18.8773 6.67001 19.6732 8.89794 19.6732C11.1259 19.6732 12.4897 18.8779 12.4897 18.4448C12.5022 17.3752 12.1138 16.3396 11.4011 15.5418C11.2844 15.414 11.2232 15.2449 11.2312 15.072Z" fill="#141414"/>
</svg>
