<svg width="24" height="24" viewBox="0 0 24 24" fill="none" xmlns="http://www.w3.org/2000/svg">
<path fill-rule="evenodd" clip-rule="evenodd" d="M8.57143 4C7.30906 4 6.28571 5.02335 6.28571 6.28571C6.28571 7.54808 7.30906 8.57143 8.57143 8.57143C9.07513 8.57143 9.54079 8.40849 9.91855 8.13246C9.93462 8.12017 9.9508 8.10801 9.96709 8.096C10.5085 7.67801 10.8571 7.02258 10.8571 6.28571C10.8571 5.02335 9.83379 4 8.57143 4ZM7.42857 6.28571C7.42857 5.65454 7.94025 5.14286 8.57143 5.14286C9.20261 5.14286 9.71429 5.65454 9.71429 6.28571C9.71429 6.91689 9.20261 7.42857 8.57143 7.42857C7.94025 7.42857 7.42857 6.91689 7.42857 6.28571ZM14.0329 8.096C13.4915 7.67801 13.1429 7.02258 13.1429 6.28571C13.1429 5.02335 14.1662 4 15.4286 4C16.691 4 17.7143 5.02335 17.7143 6.28571C17.7143 7.54808 16.691 8.57143 15.4286 8.57143C14.9249 8.57143 14.4592 8.4085 14.0815 8.13247C14.0654 8.12017 14.0492 8.10801 14.0329 8.096ZM14.2857 6.28571C14.2857 5.65454 14.7974 5.14286 15.4286 5.14286C16.0598 5.14286 16.5714 5.65454 16.5714 6.28571C16.5714 6.91689 16.0598 7.42857 15.4286 7.42857C14.7974 7.42857 14.2857 6.91689 14.2857 6.28571ZM5.71426 9.71429H8.76653C8.64017 10.0717 8.57143 10.4564 8.57143 10.8571H5.71426C5.39871 10.8571 5.14286 11.113 5.14286 11.4286C5.14286 12.3622 5.51375 13.0545 6.10069 13.5257C6.37056 13.7423 6.69376 13.9177 7.05911 14.0452C6.79374 14.328 6.58527 14.6648 6.45197 15.0373C6.06344 14.8792 5.70398 14.6727 5.38531 14.4169C4.52454 13.726 4 12.7041 4 11.4286C4 10.4818 4.7675 9.71429 5.71426 9.71429ZM9.71429 10.8571C9.71429 10.4408 9.82559 10.0505 10.0201 9.71429C10.4153 9.03109 11.154 8.57143 12 8.57143C12.846 8.57143 13.5847 9.03109 13.9799 9.71429C14.1744 10.0505 14.2857 10.4408 14.2857 10.8571C14.2857 11.8212 13.6889 12.6458 12.8446 12.9818C12.5833 13.0857 12.2983 13.1429 12 13.1429C11.7017 13.1429 11.4167 13.0857 11.1554 12.9818C10.3111 12.6458 9.71429 11.8212 9.71429 10.8571ZM11.7436 9.74317C11.826 9.72426 11.9118 9.71429 12 9.71429C12.0882 9.71429 12.174 9.72426 12.2564 9.74317C12.7641 9.85956 13.1429 10.3141 13.1429 10.8571C13.1429 10.9453 13.1329 11.0311 13.114 11.1136C12.9976 11.6213 12.543 12 12 12C11.457 12 11.0024 11.6213 10.886 11.1136C10.8671 11.0311 10.8571 10.9453 10.8571 10.8571C10.8571 10.3141 11.2359 9.85956 11.7436 9.74317ZM16.9409 14.0452C17.3063 13.9177 17.6295 13.7423 17.8993 13.5257C18.4863 13.0545 18.8571 12.3622 18.8571 11.4286C18.8571 11.113 18.6013 10.8571 18.2857 10.8571H15.4286C15.4286 10.4564 15.3598 10.0717 15.2335 9.71429H18.2857C19.2325 9.71429 20 10.4818 20 11.4286C20 12.7041 19.4754 13.726 18.6147 14.4169C18.296 14.6727 17.9366 14.8792 17.548 15.0373C17.4147 14.6648 17.2063 14.328 16.9409 14.0452ZM14.8571 14.2857C15.5725 14.2857 16.1854 14.7238 16.4424 15.3463C16.5255 15.5478 16.5714 15.7686 16.5714 16C16.5714 17.2755 16.0469 18.2975 15.1862 18.9883C14.339 19.6683 13.2035 20 12 20C10.7965 20 9.66105 19.6683 8.81389 18.9883C7.95311 18.2975 7.42857 17.2755 7.42857 16C7.42857 15.7686 7.47446 15.5478 7.55762 15.3463C7.81461 14.7238 8.42757 14.2857 9.14283 14.2857H14.8571ZM9.14283 15.4286H14.8571C15.1727 15.4286 15.4286 15.6845 15.4286 16C15.4286 16.9336 15.0577 17.6259 14.4707 18.097C13.8702 18.5791 13.0056 18.8571 12 18.8571C10.9944 18.8571 10.1298 18.5791 9.52926 18.097C8.94232 17.6259 8.57143 16.9336 8.57143 16C8.57143 15.6845 8.82728 15.4286 9.14283 15.4286Z" fill="#141414"/>
<path d="M9.91855 8.13246L9.94805 8.17284L9.94892 8.17218L9.91855 8.13246ZM9.96709 8.096L9.99677 8.13625L9.99764 8.13558L9.96709 8.096ZM14.0329 8.096L14.0024 8.13559L14.0032 8.13624L14.0329 8.096ZM14.0815 8.13247L14.0511 8.17218L14.052 8.17284L14.0815 8.13247ZM8.76653 9.71429L8.81367 9.73095L8.83723 9.66429H8.76653V9.71429ZM8.57143 10.8571V10.9071H8.62143V10.8571H8.57143ZM6.10069 13.5257L6.13198 13.4867L6.10069 13.5257ZM7.05911 14.0452L7.09557 14.0794L7.14819 14.0233L7.07558 13.998L7.05911 14.0452ZM6.45197 15.0373L6.43312 15.0836L6.48146 15.1032L6.49904 15.0541L6.45197 15.0373ZM5.38531 14.4169L5.35402 14.4559L5.38531 14.4169ZM10.0201 9.71429L10.0633 9.73932L10.0201 9.71429ZM13.9799 9.71429L13.9367 9.73932V9.73932L13.9799 9.71429ZM12.8446 12.9818L12.8631 13.0282H12.8631L12.8446 12.9818ZM11.1554 12.9818L11.137 13.0282H11.137L11.1554 12.9818ZM11.7436 9.74317L11.7547 9.7919L11.7548 9.7919L11.7436 9.74317ZM12.2564 9.74317L12.2452 9.7919L12.2453 9.7919L12.2564 9.74317ZM13.114 11.1136L13.0652 11.1024L13.0652 11.1024L13.114 11.1136ZM10.886 11.1136L10.8373 11.1247L10.8373 11.1247L10.886 11.1136ZM17.8993 13.5257L17.868 13.4867L17.868 13.4867L17.8993 13.5257ZM16.9409 14.0452L16.9244 13.998L16.8518 14.0233L16.9045 14.0794L16.9409 14.0452ZM15.4286 10.8571H15.3786V10.9071H15.4286V10.8571ZM15.2335 9.71429V9.66429H15.1628L15.1863 9.73094L15.2335 9.71429ZM18.6147 14.4169L18.646 14.4559L18.646 14.4559L18.6147 14.4169ZM17.548 15.0373L17.5009 15.0541L17.5185 15.1032L17.5668 15.0836L17.548 15.0373ZM16.4424 15.3463L16.4886 15.3272L16.4886 15.3272L16.4424 15.3463ZM15.1862 18.9883L15.2175 19.0273L15.2175 19.0273L15.1862 18.9883ZM8.81389 18.9883L8.84518 18.9493L8.84518 18.9493L8.81389 18.9883ZM7.55762 15.3463L7.51141 15.3272L7.51141 15.3272L7.55762 15.3463ZM14.4707 18.097L14.4394 18.058L14.4394 18.058L14.4707 18.097ZM9.52926 18.097L9.56056 18.058L9.56055 18.058L9.52926 18.097ZM6.33571 6.28571C6.33571 5.05096 7.33668 4.05 8.57143 4.05V3.95C7.28145 3.95 6.23571 4.99573 6.23571 6.28571H6.33571ZM8.57143 8.52143C7.33668 8.52143 6.33571 7.52047 6.33571 6.28571H6.23571C6.23571 7.57569 7.28145 8.62143 8.57143 8.62143V8.52143ZM9.88905 8.09209C9.51956 8.36207 9.06417 8.52143 8.57143 8.52143V8.62143C9.08609 8.62143 9.56201 8.45491 9.94805 8.17283L9.88905 8.09209ZM9.93741 8.05576C9.92088 8.06795 9.90447 8.08028 9.88818 8.09274L9.94892 8.17218C9.96476 8.16006 9.98072 8.14807 9.99676 8.13624L9.93741 8.05576ZM10.8071 6.28571C10.8071 7.00644 10.4662 7.6475 9.93653 8.05642L9.99764 8.13558C10.5507 7.70853 10.9071 7.03873 10.9071 6.28571H10.8071ZM8.57143 4.05C9.80618 4.05 10.8071 5.05096 10.8071 6.28571H10.9071C10.9071 4.99573 9.86141 3.95 8.57143 3.95V4.05ZM8.57143 5.09286C7.91264 5.09286 7.37857 5.62692 7.37857 6.28571H7.47857C7.47857 5.68215 7.96787 5.19286 8.57143 5.19286V5.09286ZM9.76429 6.28571C9.76429 5.62692 9.23022 5.09286 8.57143 5.09286V5.19286C9.17499 5.19286 9.66429 5.68215 9.66429 6.28571H9.76429ZM8.57143 7.47857C9.23022 7.47857 9.76429 6.9445 9.76429 6.28571H9.66429C9.66429 6.88928 9.17499 7.37857 8.57143 7.37857V7.47857ZM7.37857 6.28571C7.37857 6.94451 7.91264 7.47857 8.57143 7.47857V7.37857C7.96787 7.37857 7.47857 6.88928 7.47857 6.28571H7.37857ZM13.0929 6.28571C13.0929 7.03873 13.4493 7.70853 14.0024 8.13558L14.0635 8.05642C13.5338 7.6475 13.1929 7.00644 13.1929 6.28571H13.0929ZM15.4286 3.95C14.1386 3.95 13.0929 4.99573 13.0929 6.28571H13.1929C13.1929 5.05096 14.1938 4.05 15.4286 4.05V3.95ZM17.7643 6.28571C17.7643 4.99573 16.7186 3.95 15.4286 3.95V4.05C16.6634 4.05 17.6643 5.05096 17.6643 6.28571H17.7643ZM15.4286 8.62143C16.7186 8.62143 17.7643 7.57569 17.7643 6.28571H17.6643C17.6643 7.52047 16.6634 8.52143 15.4286 8.52143V8.62143ZM14.052 8.17284C14.438 8.45492 14.914 8.62143 15.4286 8.62143V8.52143C14.9359 8.52143 14.4804 8.36209 14.111 8.0921L14.052 8.17284ZM14.0032 8.13624C14.0193 8.14807 14.0352 8.16006 14.0511 8.17218L14.1118 8.09276C14.0955 8.08029 14.0791 8.06795 14.0626 8.05576L14.0032 8.13624ZM15.4286 5.09286C14.7698 5.09286 14.2357 5.62692 14.2357 6.28571H14.3357C14.3357 5.68215 14.825 5.19286 15.4286 5.19286V5.09286ZM16.6214 6.28571C16.6214 5.62692 16.0874 5.09286 15.4286 5.09286V5.19286C16.0322 5.19286 16.5214 5.68215 16.5214 6.28571H16.6214ZM15.4286 7.47857C16.0874 7.47857 16.6214 6.9445 16.6214 6.28571H16.5214C16.5214 6.88928 16.0322 7.37857 15.4286 7.37857V7.47857ZM14.2357 6.28571C14.2357 6.9445 14.7698 7.47857 15.4286 7.47857V7.37857C14.825 7.37857 14.3357 6.88928 14.3357 6.28571H14.2357ZM8.76653 9.66429H5.71426V9.76429H8.76653V9.66429ZM8.62143 10.8571C8.62143 10.4622 8.68918 10.0831 8.81367 9.73095L8.71938 9.69762C8.59116 10.0604 8.52143 10.4507 8.52143 10.8571H8.62143ZM5.71426 10.9071H8.57143V10.8071H5.71426V10.9071ZM5.19286 11.4286C5.19286 11.1406 5.42632 10.9071 5.71426 10.9071V10.8071C5.37109 10.8071 5.09286 11.0854 5.09286 11.4286H5.19286ZM6.13198 13.4867C5.55702 13.0252 5.19286 12.3472 5.19286 11.4286H5.09286C5.09286 12.3771 5.47047 13.0839 6.06939 13.5647L6.13198 13.4867ZM7.07558 13.998C6.715 13.8722 6.39695 13.6993 6.13198 13.4867L6.06939 13.5647C6.34417 13.7852 6.67252 13.9632 7.04263 14.0924L7.07558 13.998ZM6.49904 15.0541C6.62999 14.6882 6.8348 14.3573 7.09557 14.0794L7.02265 14.011C6.75267 14.2987 6.54054 14.6414 6.40489 15.0204L6.49904 15.0541ZM5.35402 14.4559C5.67676 14.715 6.04049 14.9238 6.43312 15.0836L6.47081 14.9909C6.08639 14.8346 5.73119 14.6304 5.41661 14.3779L5.35402 14.4559ZM3.95 11.4286C3.95 12.719 4.48126 13.7554 5.35402 14.4559L5.41661 14.3779C4.56782 13.6966 4.05 12.6891 4.05 11.4286H3.95ZM5.71426 9.66429C4.73988 9.66429 3.95 10.4542 3.95 11.4286H4.05C4.05 10.5095 4.79511 9.76429 5.71426 9.76429V9.66429ZM9.97679 9.68925C9.77802 10.0329 9.66429 10.4318 9.66429 10.8571H9.76429C9.76429 10.4498 9.87315 10.0681 10.0633 9.73932L9.97679 9.68925ZM12 8.52143C11.1354 8.52143 10.3806 8.99124 9.97679 9.68925L10.0633 9.73932C10.45 9.07094 11.1725 8.62143 12 8.62143V8.52143ZM14.0232 9.68925C13.6194 8.99124 12.8646 8.52143 12 8.52143V8.62143C12.8275 8.62143 13.55 9.07094 13.9367 9.73932L14.0232 9.68925ZM14.3357 10.8571C14.3357 10.4318 14.222 10.0329 14.0232 9.68925L13.9367 9.73932C14.1268 10.0681 14.2357 10.4498 14.2357 10.8571H14.3357ZM12.8631 13.0282C13.7258 12.685 14.3357 11.8424 14.3357 10.8571H14.2357C14.2357 11.8 13.652 12.6067 12.8261 12.9353L12.8631 13.0282ZM12 13.1929C12.3048 13.1929 12.596 13.1345 12.8631 13.0282L12.8261 12.9353C12.5706 13.0369 12.2919 13.0929 12 13.0929V13.1929ZM11.137 13.0282C11.404 13.1345 11.6952 13.1929 12 13.1929V13.0929C11.7081 13.0929 11.4294 13.0369 11.1739 12.9353L11.137 13.0282ZM9.66429 10.8571C9.66429 11.8424 10.2742 12.685 11.137 13.0282L11.1739 12.9353C10.348 12.6067 9.76429 11.8 9.76429 10.8571H9.66429ZM12 9.66429C11.9081 9.66429 11.8185 9.67469 11.7324 9.69443L11.7548 9.7919C11.8335 9.77383 11.9156 9.76429 12 9.76429V9.66429ZM12.2676 9.69443C12.1815 9.67469 12.0919 9.66429 12 9.66429V9.76429C12.0844 9.76429 12.1665 9.77383 12.2452 9.7919L12.2676 9.69443ZM13.1929 10.8571C13.1929 10.2903 12.7975 9.81591 12.2676 9.69443L12.2453 9.7919C12.7307 9.9032 13.0929 10.3379 13.0929 10.8571H13.1929ZM13.1627 11.1247C13.1825 11.0387 13.1929 10.9491 13.1929 10.8571H13.0929C13.0929 10.9415 13.0833 11.0236 13.0652 11.1024L13.1627 11.1247ZM12 12.05C12.5668 12.05 13.0412 11.6547 13.1627 11.1247L13.0652 11.1024C12.9539 11.5879 12.5192 11.95 12 11.95V12.05ZM10.8373 11.1247C10.9588 11.6547 11.4332 12.05 12 12.05V11.95C11.4808 11.95 11.0461 11.5879 10.9348 11.1024L10.8373 11.1247ZM10.8071 10.8571C10.8071 10.9491 10.8176 11.0387 10.8373 11.1247L10.9348 11.1024C10.9167 11.0236 10.9071 10.9415 10.9071 10.8571H10.8071ZM11.7324 9.69443C11.2025 9.81591 10.8071 10.2903 10.8071 10.8571H10.9071C10.9071 10.3379 11.2693 9.9032 11.7547 9.7919L11.7324 9.69443ZM17.868 13.4867C17.6031 13.6993 17.285 13.8721 16.9244 13.998L16.9574 14.0924C17.3275 13.9632 17.6559 13.7852 17.9306 13.5646L17.868 13.4867ZM18.8071 11.4286C18.8071 12.3472 18.443 13.0252 17.868 13.4867L17.9306 13.5647C18.5296 13.0839 18.9071 12.3771 18.9071 11.4286H18.8071ZM18.2857 10.9071C18.5736 10.9071 18.8071 11.1406 18.8071 11.4286H18.9071C18.9071 11.0854 18.6289 10.8071 18.2857 10.8071V10.9071ZM15.4286 10.9071H18.2857V10.8071H15.4286V10.9071ZM15.1863 9.73094C15.3108 10.0831 15.3786 10.4622 15.3786 10.8571H15.4786C15.4786 10.4507 15.4088 10.0604 15.2806 9.69763L15.1863 9.73094ZM18.2857 9.66429H15.2335V9.76429H18.2857V9.66429ZM20.05 11.4286C20.05 10.4542 19.2601 9.66429 18.2857 9.66429V9.76429C19.2048 9.76429 19.95 10.5094 19.95 11.4286H20.05ZM18.646 14.4559C19.5187 13.7554 20.05 12.719 20.05 11.4286H19.95C19.95 12.6891 19.4321 13.6966 18.5834 14.3779L18.646 14.4559ZM17.5668 15.0836C17.9595 14.9238 18.3232 14.715 18.646 14.4559L18.5835 14.3779C18.2688 14.6304 17.9136 14.8346 17.5292 14.9909L17.5668 15.0836ZM16.9045 14.0794C17.1652 14.3573 17.37 14.6882 17.5009 15.0541L17.5951 15.0204C17.4595 14.6414 17.2474 14.2987 16.9774 14.011L16.9045 14.0794ZM16.4886 15.3272C16.2241 14.6866 15.5934 14.2357 14.8571 14.2357V14.3357C15.5515 14.3357 16.1466 14.7609 16.3962 15.3654L16.4886 15.3272ZM16.6214 16C16.6214 15.7619 16.5742 15.5346 16.4886 15.3272L16.3962 15.3653C16.4768 15.5609 16.5214 15.7752 16.5214 16H16.6214ZM15.2175 19.0273C16.0901 18.3269 16.6214 17.2905 16.6214 16H16.5214C16.5214 17.2606 16.0036 18.2681 15.1549 18.9494L15.2175 19.0273ZM12 20.05C13.2122 20.05 14.3595 19.716 15.2175 19.0273L15.1549 18.9493C14.3185 19.6207 13.1949 19.95 12 19.95V20.05ZM8.78259 19.0273C9.64055 19.716 10.7878 20.05 12 20.05V19.95C10.8051 19.95 9.68155 19.6207 8.84518 18.9493L8.78259 19.0273ZM7.37857 16C7.37857 17.2905 7.90983 18.3269 8.78259 19.0273L8.84518 18.9493C7.99639 18.2681 7.47857 17.2606 7.47857 16H7.37857ZM7.51141 15.3272C7.42579 15.5346 7.37857 15.7619 7.37857 16H7.47857C7.47857 15.7752 7.52313 15.5609 7.60384 15.3654L7.51141 15.3272ZM9.14283 14.2357C8.40662 14.2357 7.77584 14.6866 7.51141 15.3272L7.60384 15.3654C7.85337 14.7609 8.44851 14.3357 9.14283 14.3357V14.2357ZM14.8571 14.2357H9.14283V14.3357H14.8571V14.2357ZM14.8571 15.3786H9.14283V15.4786H14.8571V15.3786ZM15.4786 16C15.4786 15.6568 15.2003 15.3786 14.8571 15.3786V15.4786C15.1451 15.4786 15.3786 15.7121 15.3786 16H15.4786ZM14.502 18.136C15.101 17.6553 15.4786 16.9486 15.4786 16H15.3786C15.3786 16.9186 15.0144 17.5966 14.4394 18.058L14.502 18.136ZM12 18.9071C13.0143 18.9071 13.8907 18.6267 14.502 18.136L14.4394 18.058C13.8497 18.5314 12.9969 18.8071 12 18.8071V18.9071ZM9.49796 18.136C10.1093 18.6267 10.9857 18.9071 12 18.9071V18.8071C11.0031 18.8071 10.1503 18.5314 9.56056 18.058L9.49796 18.136ZM8.52143 16C8.52143 16.9486 8.89905 17.6553 9.49796 18.136L9.56055 18.058C8.9856 17.5966 8.62143 16.9186 8.62143 16H8.52143ZM9.14283 15.3786C8.79966 15.3786 8.52143 15.6568 8.52143 16H8.62143C8.62143 15.7121 8.8549 15.4786 9.14283 15.4786V15.3786Z" fill="#141414"/>
</svg>
