<svg width="24" height="24" viewBox="0 0 24 24" fill="none" xmlns="http://www.w3.org/2000/svg">
<path d="M4.83222 4.00002H10.465C10.6014 3.99908 10.7361 4.02918 10.8591 4.08803C10.9806 4.14636 11.0878 4.23066 11.1731 4.335C11.2374 4.4153 11.2868 4.50652 11.3189 4.60429C11.3548 4.70142 11.373 4.80418 11.3727 4.90774V10.5156C11.3724 10.6374 11.3478 10.758 11.3005 10.8703C11.2524 10.9828 11.1818 11.0843 11.0929 11.1685C10.9255 11.3339 10.7004 11.4281 10.465 11.4312H4.83222C4.71726 11.4275 4.60405 11.4021 4.49855 11.3563C4.39099 11.314 4.29246 11.2516 4.20824 11.1724C4.12008 11.0877 4.04954 10.9863 4.00069 10.8742C3.95021 10.7614 3.92425 10.6392 3.9245 10.5156V4.90774C3.92482 4.79907 3.94485 4.69136 3.98361 4.58984C4.02138 4.48771 4.07747 4.39333 4.14913 4.31135L4.18723 4.27457C4.26525 4.19498 4.3569 4.13003 4.45783 4.08278C4.57543 4.02919 4.70299 4.00099 4.83222 4.00002ZM18.7395 13.4975C18.706 13.4617 18.6652 13.4335 18.6199 13.4147C18.5746 13.3959 18.5258 13.387 18.4768 13.3885C18.4291 13.3878 18.3817 13.3972 18.3378 13.416C18.2939 13.4348 18.2545 13.4625 18.222 13.4975L17.8279 13.8916C17.7228 13.8232 17.6126 13.763 17.4982 13.7116C17.3828 13.6616 17.2649 13.6177 17.1448 13.5803V12.9708C17.1469 12.922 17.1386 12.8734 17.1205 12.8281C17.1024 12.7828 17.0749 12.7419 17.0397 12.708C17.0056 12.6733 16.9646 12.6462 16.9194 12.6283C16.8741 12.6104 16.8256 12.6022 16.777 12.6043H16.0427C15.9958 12.6039 15.9494 12.6129 15.9061 12.6307C15.8628 12.6485 15.8235 12.6748 15.7905 12.708C15.755 12.7417 15.727 12.7826 15.7085 12.8279C15.6899 12.8731 15.6811 12.9218 15.6827 12.9708V13.5185C15.439 13.5741 15.2039 13.6625 14.9839 13.7813L14.5517 13.3596C14.5203 13.3247 14.4817 13.2969 14.4387 13.2781C14.3957 13.2593 14.3491 13.2499 14.3021 13.2506C14.2545 13.2505 14.2073 13.2601 14.1635 13.2788C14.1197 13.2976 14.0801 13.3251 14.0473 13.3596L13.5218 13.885C13.4874 13.9182 13.4601 13.958 13.4414 14.002C13.4227 14.0461 13.4131 14.0934 13.4131 14.1412C13.4131 14.189 13.4227 14.2363 13.4414 14.2803C13.4601 14.3244 13.4874 14.3641 13.5218 14.3974L13.9159 14.7914C13.8477 14.8971 13.7876 15.0078 13.736 15.1225C13.6859 15.2378 13.642 15.3558 13.6046 15.4758H12.9885C12.9398 15.4737 12.8911 15.482 12.8458 15.5001C12.8005 15.5182 12.7596 15.5458 12.7258 15.5809C12.6909 15.615 12.6635 15.6559 12.6455 15.7012C12.6274 15.7464 12.6189 15.795 12.6207 15.8437V16.5937C12.6206 16.6406 12.6298 16.6871 12.6479 16.7304C12.6659 16.7737 12.6924 16.813 12.7258 16.8459C12.7595 16.8814 12.8003 16.9094 12.8456 16.9279C12.8909 16.9465 12.9396 16.9553 12.9885 16.9537H13.5363C13.5645 17.0775 13.6019 17.1991 13.6479 17.3175C13.6932 17.4346 13.7449 17.5491 13.8029 17.6604L13.3826 18.0742C13.3478 18.1057 13.32 18.1442 13.3012 18.1872C13.2824 18.2303 13.273 18.2768 13.2736 18.3238C13.2731 18.3719 13.2826 18.4195 13.3013 18.4638C13.3201 18.5081 13.3477 18.5481 13.3826 18.5812L13.908 19.1146C13.9772 19.1796 14.0686 19.2158 14.1635 19.2158C14.2585 19.2158 14.3499 19.1796 14.419 19.1146L14.8131 18.7205C14.9191 18.7878 15.0297 18.8475 15.1442 18.8991C15.2593 18.9498 15.3773 18.9936 15.4975 19.0305V19.6321C15.4954 19.6809 15.5037 19.7295 15.5218 19.7748C15.5399 19.8201 15.5675 19.861 15.6026 19.8949C15.6357 19.9288 15.6754 19.9556 15.7192 19.9737C15.763 19.9918 15.8101 20.0007 15.8575 20H16.6088C16.6558 20.0001 16.7022 19.9908 16.7455 19.9728C16.7888 19.9547 16.8281 19.9282 16.8611 19.8949C16.8965 19.8612 16.9245 19.8203 16.943 19.775C16.9616 19.7298 16.9704 19.6811 16.9688 19.6321V19.0844C17.0926 19.0561 17.2143 19.0188 17.3327 18.9727C17.45 18.928 17.5645 18.8762 17.6755 18.8177L18.0998 19.2433C18.1323 19.2777 18.1715 19.3051 18.215 19.3238C18.2585 19.3425 18.3053 19.3522 18.3527 19.3522C18.4 19.3522 18.4469 19.3425 18.4903 19.3238C18.5338 19.3051 18.573 19.2777 18.6056 19.2433L19.1389 18.7179C19.206 18.6471 19.2424 18.5526 19.24 18.4551C19.2415 18.4068 19.2334 18.3587 19.216 18.3136C19.1986 18.2684 19.1724 18.2272 19.1389 18.1924L18.7448 17.7983C18.813 17.6926 18.8732 17.582 18.9248 17.4673C18.9749 17.3519 19.0187 17.234 19.0561 17.1139H19.6538C19.7025 17.1157 19.7511 17.1073 19.7963 17.0892C19.8416 17.0711 19.8825 17.0437 19.9166 17.0088C19.9517 16.975 19.9792 16.9341 19.9973 16.8888C20.0155 16.8435 20.0237 16.7948 20.0216 16.7461V16.0197C20.021 15.9243 19.9826 15.8331 19.9149 15.7659C19.8472 15.6988 19.7558 15.6611 19.6604 15.6611H19.1126C19.0834 15.5383 19.0461 15.4176 19.001 15.2998C18.957 15.1831 18.9052 15.0694 18.846 14.9596L19.2716 14.5287C19.3064 14.4972 19.3341 14.4587 19.3529 14.4157C19.3717 14.3726 19.3812 14.3261 19.3806 14.2791C19.3818 14.2301 19.3727 14.1815 19.3539 14.1362C19.3351 14.091 19.3071 14.0501 19.2716 14.0164L18.7461 13.491L18.7395 13.4975ZM16.3238 14.8308C16.5209 14.8299 16.7161 14.8688 16.8978 14.9451C17.0746 15.0182 17.2353 15.1254 17.3705 15.2606C17.5058 15.3959 17.613 15.5565 17.686 15.7333C17.7614 15.9151 17.8003 16.1099 17.8003 16.3067C17.8003 16.5035 17.7614 16.6983 17.686 16.8801C17.613 17.0569 17.5058 17.2175 17.3705 17.3528C17.2353 17.488 17.0746 17.5953 16.8978 17.6683C16.7151 17.7432 16.5193 17.7812 16.3218 17.78C16.1243 17.7789 15.929 17.7387 15.7471 17.6617C15.5703 17.5887 15.4097 17.4815 15.2744 17.3462C15.1392 17.211 15.032 17.0503 14.9589 16.8735C14.8835 16.6918 14.8447 16.4969 14.8447 16.3001C14.8447 16.1034 14.8835 15.9085 14.9589 15.7267C15.032 15.5499 15.1392 15.3893 15.2744 15.2541C15.4097 15.1188 15.5703 15.0116 15.7471 14.9386C15.9284 14.8623 16.1232 14.8235 16.3199 14.8243L16.3238 14.8308ZM4.83222 12.5727H10.465C10.6014 12.5718 10.7361 12.6019 10.8591 12.6607C10.9803 12.7196 11.0873 12.8038 11.1731 12.9077C11.2386 12.9856 11.2898 13.0746 11.3241 13.1704C11.3599 13.2676 11.3782 13.3703 11.378 13.4739V19.083C11.3774 19.2049 11.3528 19.3254 11.3058 19.4377C11.2099 19.6587 11.0311 19.8332 10.8079 19.9238C10.7008 19.9677 10.5861 19.9905 10.4703 19.9908H4.83222C4.71785 19.99 4.60465 19.9678 4.49855 19.9251C4.39067 19.8828 4.29206 19.8199 4.20824 19.7399C4.11993 19.6547 4.04939 19.5529 4.00069 19.4404C3.95115 19.33 3.92519 19.2106 3.9245 19.0896V13.4804C3.92621 13.2617 4.00585 13.0507 4.14913 12.8854L4.18723 12.8473C4.26603 12.7674 4.35859 12.7025 4.46046 12.6555C4.57805 12.6019 4.70562 12.5737 4.83484 12.5727H4.83222ZM10.465 13.4778H4.83222V19.0896H10.4703V13.4778H10.465ZM13.5258 4.00002H19.1625C19.2989 3.99922 19.4336 4.02931 19.5566 4.08803C19.6776 4.14652 19.7843 4.23082 19.8693 4.335C19.9354 4.41517 19.987 4.50631 20.0216 4.60429C20.0575 4.70142 20.0758 4.80418 20.0755 4.90774V10.5156C20.0754 10.6376 20.0503 10.7583 20.0019 10.8703C19.9539 10.9825 19.8837 11.0839 19.7957 11.1685C19.7086 11.25 19.6064 11.3138 19.4949 11.3563C19.3881 11.3998 19.2739 11.4225 19.1586 11.4233H13.5258C13.2939 11.4197 13.0716 11.3303 12.9018 11.1724C12.8131 11.0873 12.7421 10.9855 12.6929 10.8729C12.6435 10.7598 12.618 10.6377 12.6181 10.5143V4.90774C12.6184 4.79907 12.6384 4.69136 12.6772 4.58984C12.7145 4.48778 12.7701 4.3934 12.8414 4.31135L12.8782 4.27457C12.9567 4.19505 13.0488 4.13011 13.1501 4.08278C13.2681 4.02901 13.3961 4.00081 13.5258 4.00002ZM19.1625 4.90511H13.5258V10.5195H19.1652V4.90774L19.1625 4.90511ZM10.469 4.90511H4.83222V10.5169H10.4703V4.90511H10.469Z" fill="#141414"/>
</svg>
