<svg width="24" height="24" viewBox="0 0 24 24" fill="none" xmlns="http://www.w3.org/2000/svg">
<mask id="path-1-outside-1_877_203" maskUnits="userSpaceOnUse" x="1" y="5" width="22" height="15" fill="black">
<rect fill="white" x="1" y="5" width="22" height="15"/>
<path fill-rule="evenodd" clip-rule="evenodd" d="M3.26744 19.1199V11.3451L2.16899 10.866C2.05639 10.8098 2 10.7251 2 10.6125C2 10.5 2.05639 10.4155 2.16899 10.3591L12.1973 6.02107C12.2818 5.99298 12.3663 5.99298 12.4227 6.02107L22.451 10.3593C22.5636 10.4155 22.62 10.5002 22.62 10.6127C22.62 10.7253 22.5636 10.8098 22.451 10.8662L18.958 12.3873L18.9578 16.3592C18.9578 16.4718 18.9014 16.5563 18.7888 16.6127L12.4506 19.3451C12.4225 19.3732 12.3662 19.3732 12.3381 19.3732C12.31 19.3732 12.2536 19.3732 12.2255 19.3451L5.88733 16.6127C5.77474 16.5565 5.71835 16.4718 5.71835 16.3592V12.3873L3.83099 11.5705V19.1199C3.83099 19.2891 3.71821 19.4016 3.54922 19.4016C3.38004 19.4016 3.26744 19.2608 3.26744 19.1199ZM12.3098 18.8099L18.3663 16.1903L18.3661 12.6127L12.4223 15.2043C12.3942 15.2324 12.3378 15.2324 12.3098 15.2324H12.1972L6.25341 12.6408V16.1903L12.3098 18.8099ZM21.6339 10.6409L12.3098 6.58447L2.98575 10.6126L12.3098 14.6691L21.6339 10.6409Z"/>
</mask>
<path fill-rule="evenodd" clip-rule="evenodd" d="M3.26744 19.1199V11.3451L2.16899 10.866C2.05639 10.8098 2 10.7251 2 10.6125C2 10.5 2.05639 10.4155 2.16899 10.3591L12.1973 6.02107C12.2818 5.99298 12.3663 5.99298 12.4227 6.02107L22.451 10.3593C22.5636 10.4155 22.62 10.5002 22.62 10.6127C22.62 10.7253 22.5636 10.8098 22.451 10.8662L18.958 12.3873L18.9578 16.3592C18.9578 16.4718 18.9014 16.5563 18.7888 16.6127L12.4506 19.3451C12.4225 19.3732 12.3662 19.3732 12.3381 19.3732C12.31 19.3732 12.2536 19.3732 12.2255 19.3451L5.88733 16.6127C5.77474 16.5565 5.71835 16.4718 5.71835 16.3592V12.3873L3.83099 11.5705V19.1199C3.83099 19.2891 3.71821 19.4016 3.54922 19.4016C3.38004 19.4016 3.26744 19.2608 3.26744 19.1199ZM12.3098 18.8099L18.3663 16.1903L18.3661 12.6127L12.4223 15.2043C12.3942 15.2324 12.3378 15.2324 12.3098 15.2324H12.1972L6.25341 12.6408V16.1903L12.3098 18.8099ZM21.6339 10.6409L12.3098 6.58447L2.98575 10.6126L12.3098 14.6691L21.6339 10.6409Z" fill="#141414"/>
<path d="M3.26744 11.3451H3.56744V11.1487L3.38738 11.0701L3.26744 11.3451ZM2.16899 10.866L2.03501 11.1344L2.04195 11.1379L2.04905 11.141L2.16899 10.866ZM2.16899 10.3591L2.04988 10.0837L2.04216 10.0871L2.03464 10.0908L2.16899 10.3591ZM12.1973 6.02107L12.1026 5.7364L12.0902 5.74053L12.0782 5.74573L12.1973 6.02107ZM12.4227 6.02107L12.2889 6.28959L12.2961 6.2932L12.3036 6.29641L12.4227 6.02107ZM22.451 10.3593L22.585 10.0908L22.5777 10.0872L22.5701 10.0839L22.451 10.3593ZM22.451 10.8662L22.5708 11.1413L22.5782 11.1381L22.5854 11.1345L22.451 10.8662ZM18.958 12.3873L18.8382 12.1122L18.658 12.1907L18.658 12.3873L18.958 12.3873ZM18.9578 16.3592L18.6578 16.3592V16.3592H18.9578ZM18.7888 16.6127L18.9075 16.8882L18.9154 16.8848L18.9231 16.8809L18.7888 16.6127ZM12.4506 19.3451L12.3319 19.0696L12.2791 19.0924L12.2385 19.133L12.4506 19.3451ZM12.2255 19.3451L12.4376 19.133L12.397 19.0924L12.3442 19.0696L12.2255 19.3451ZM5.88733 16.6127L5.75336 16.8811L5.76086 16.8849L5.76857 16.8882L5.88733 16.6127ZM5.71835 12.3873H6.01835V12.1902L5.8375 12.112L5.71835 12.3873ZM3.83099 11.5705L3.95015 11.2951L3.53099 11.1137V11.5705H3.83099ZM18.3663 16.1903L18.4854 16.4656L18.6663 16.3873L18.6663 16.1902L18.3663 16.1903ZM12.3098 18.8099L12.1907 19.0853L12.3098 19.1368L12.4289 19.0853L12.3098 18.8099ZM18.3661 12.6127L18.6661 12.6127L18.6661 12.1546L18.2462 12.3377L18.3661 12.6127ZM12.4223 15.2043L12.3024 14.9293L12.2504 14.952L12.2102 14.9922L12.4223 15.2043ZM12.1972 15.2324L12.0773 15.5074L12.1346 15.5324H12.1972V15.2324ZM6.25341 12.6408L6.37331 12.3658L5.95341 12.1827V12.6408H6.25341ZM6.25341 16.1903H5.95341V16.3874L6.13431 16.4656L6.25341 16.1903ZM12.3098 6.58447L12.4295 6.30938L12.3103 6.25749L12.1909 6.30907L12.3098 6.58447ZM21.6339 10.6409L21.7529 10.9163L22.3881 10.6419L21.7536 10.3658L21.6339 10.6409ZM2.98575 10.6126L2.86677 10.3372L2.23153 10.6116L2.86607 10.8877L2.98575 10.6126ZM12.3098 14.6691L12.1902 14.9441L12.3094 14.996L12.4288 14.9445L12.3098 14.6691ZM2.96744 11.3451V19.1199H3.56744V11.3451H2.96744ZM2.04905 11.141L3.14751 11.6201L3.38738 11.0701L2.28892 10.591L2.04905 11.141ZM1.7 10.6125C1.7 10.7214 1.72812 10.83 1.79263 10.9268C1.85593 11.0218 1.9429 11.0885 2.03501 11.1344L2.30296 10.5976C2.29268 10.5925 2.28811 10.5889 2.28715 10.5881C2.28639 10.5875 2.28873 10.5893 2.29191 10.5941C2.29518 10.599 2.29763 10.6044 2.29902 10.6093C2.30034 10.6139 2.3 10.6155 2.3 10.6125H1.7ZM2.03464 10.0908C1.94283 10.1368 1.85595 10.2034 1.79268 10.2983C1.72814 10.3951 1.7 10.5036 1.7 10.6125H2.3C2.3 10.6096 2.30034 10.6112 2.29901 10.6159C2.2976 10.6208 2.29514 10.6263 2.29186 10.6312C2.28869 10.6359 2.28638 10.6377 2.28721 10.637C2.28825 10.6362 2.29292 10.6325 2.30334 10.6273L2.03464 10.0908ZM12.0782 5.74573L2.04988 10.0837L2.28809 10.6344L12.3164 6.29642L12.0782 5.74573ZM12.5565 5.75256C12.4041 5.67662 12.231 5.69372 12.1026 5.7364L12.292 6.30575C12.299 6.30342 12.3053 6.30192 12.3105 6.30103C12.3157 6.30014 12.3191 6.3 12.3205 6.3C12.322 6.3 12.3202 6.30016 12.3154 6.29918C12.3108 6.29823 12.3013 6.29578 12.2889 6.28959L12.5565 5.75256ZM22.5701 10.0839L12.5418 5.74573L12.3036 6.29641L22.3319 10.6346L22.5701 10.0839ZM22.92 10.6127C22.92 10.5039 22.8919 10.3953 22.8274 10.2985C22.7641 10.2035 22.6771 10.1368 22.585 10.0908L22.317 10.6277C22.3273 10.6328 22.3319 10.6364 22.3329 10.6372C22.3336 10.6378 22.3313 10.636 22.3281 10.6312C22.3248 10.6263 22.3224 10.6209 22.321 10.616C22.3197 10.6114 22.32 10.6098 22.32 10.6127H22.92ZM22.5854 11.1345C22.6772 11.0885 22.764 11.0219 22.8273 10.927C22.8919 10.8302 22.92 10.7216 22.92 10.6127H22.32C22.32 10.6157 22.3197 10.6141 22.321 10.6094C22.3224 10.6045 22.3249 10.599 22.3281 10.5941C22.3313 10.5894 22.3336 10.5876 22.3328 10.5883C22.3318 10.5891 22.3271 10.5928 22.3167 10.598L22.5854 11.1345ZM19.0777 12.6623L22.5708 11.1413L22.3312 10.5912L18.8382 12.1122L19.0777 12.6623ZM19.2578 16.3592L19.258 12.3873L18.658 12.3873L18.6578 16.3592L19.2578 16.3592ZM18.9231 16.8809C19.0149 16.835 19.1018 16.7684 19.1651 16.6735C19.2296 16.5767 19.2578 16.4681 19.2578 16.3592H18.6578C18.6578 16.3622 18.6574 16.3606 18.6588 16.3559C18.6602 16.351 18.6626 16.3455 18.6659 16.3406C18.6691 16.3358 18.6714 16.334 18.6705 16.3347C18.6695 16.3356 18.6648 16.3392 18.6544 16.3445L18.9231 16.8809ZM12.5694 19.6206L18.9075 16.8882L18.67 16.3372L12.3319 19.0696L12.5694 19.6206ZM12.3381 19.6732C12.3504 19.6732 12.3948 19.6738 12.4436 19.6657C12.4853 19.6587 12.5821 19.638 12.6628 19.5573L12.2385 19.133C12.2668 19.1047 12.295 19.0905 12.3117 19.0836C12.3285 19.0768 12.3409 19.0745 12.3451 19.0738C12.3517 19.0727 12.3538 19.0732 12.3381 19.0732V19.6732ZM12.0133 19.5573C12.094 19.638 12.1908 19.6587 12.2326 19.6657C12.2813 19.6738 12.3257 19.6732 12.3381 19.6732V19.0732C12.3223 19.0732 12.3244 19.0727 12.331 19.0738C12.3352 19.0745 12.3476 19.0768 12.3644 19.0836C12.3811 19.0905 12.4093 19.1047 12.4376 19.133L12.0133 19.5573ZM5.76857 16.8882L12.1067 19.6206L12.3442 19.0696L6.0061 16.3372L5.76857 16.8882ZM5.41835 16.3592C5.41835 16.4681 5.44646 16.5767 5.51098 16.6735C5.57428 16.7685 5.66125 16.8351 5.75336 16.8811L6.02131 16.3443C6.01103 16.3391 6.00646 16.3356 6.00549 16.3348C6.00474 16.3341 6.00708 16.336 6.01025 16.3407C6.01353 16.3456 6.01597 16.3511 6.01736 16.356C6.01869 16.3606 6.01835 16.3622 6.01835 16.3592H5.41835ZM5.41835 12.3873V16.3592H6.01835V12.3873H5.41835ZM3.71184 11.8458L5.59919 12.6626L5.8375 12.112L3.95015 11.2951L3.71184 11.8458ZM4.13099 19.1199V11.5705H3.53099V19.1199H4.13099ZM3.54922 19.7016C3.70183 19.7016 3.85238 19.6495 3.96555 19.5364C4.07875 19.4232 4.13099 19.2727 4.13099 19.1199H3.53099C3.53099 19.1288 3.52954 19.1307 3.53074 19.1276C3.53204 19.1242 3.53527 19.1181 3.5414 19.112C3.54753 19.1059 3.55355 19.1027 3.5569 19.1014C3.55998 19.1002 3.5581 19.1016 3.54922 19.1016V19.7016ZM2.96744 19.1199C2.96744 19.4065 3.19511 19.7016 3.54922 19.7016V19.1016C3.54899 19.1016 3.54979 19.1016 3.55137 19.102C3.55294 19.1023 3.55475 19.1029 3.55662 19.1037C3.56044 19.1054 3.56293 19.1075 3.56423 19.1089C3.56538 19.1102 3.5659 19.1111 3.56625 19.112C3.56659 19.1128 3.56744 19.1153 3.56744 19.1199H2.96744ZM18.2472 15.9149L12.1907 18.5346L12.4289 19.0853L18.4854 16.4656L18.2472 15.9149ZM18.0661 12.6127L18.0663 16.1903L18.6663 16.1902L18.6661 12.6127L18.0661 12.6127ZM12.5422 15.4793L18.486 12.8877L18.2462 12.3377L12.3024 14.9293L12.5422 15.4793ZM12.3098 15.5324C12.3221 15.5324 12.3665 15.5329 12.4153 15.5248C12.457 15.5179 12.5538 15.4971 12.6345 15.4164L12.2102 14.9922C12.2385 14.9639 12.2667 14.9496 12.2834 14.9428C12.3002 14.9359 12.3126 14.9337 12.3168 14.9329C12.3234 14.9319 12.3255 14.9324 12.3098 14.9324V15.5324ZM12.1972 15.5324H12.3098V14.9324H12.1972V15.5324ZM6.1335 12.9158L12.0773 15.5074L12.3171 14.9574L6.37331 12.3658L6.1335 12.9158ZM6.55341 16.1903V12.6408H5.95341V16.1903H6.55341ZM12.4289 18.5346L6.3725 15.9149L6.13431 16.4656L12.1907 19.0853L12.4289 18.5346ZM12.1902 6.85957L21.5142 10.916L21.7536 10.3658L12.4295 6.30938L12.1902 6.85957ZM3.10473 10.888L12.4288 6.85987L12.1909 6.30907L2.86677 10.3372L3.10473 10.888ZM12.4295 14.394L3.10543 10.3375L2.86607 10.8877L12.1902 14.9441L12.4295 14.394ZM21.5149 10.3655L12.1909 14.3937L12.4288 14.9445L21.7529 10.9163L21.5149 10.3655Z" fill="#141414" mask="url(#path-1-outside-1_877_203)"/>
</svg>
