<svg width="24" height="24" viewBox="0 0 24 24" fill="none" xmlns="http://www.w3.org/2000/svg">
<path d="M3.3999 13.0504H9.1638V11.7504H3.3999V13.0504ZM1.7499 11.4004C1.7499 12.3094 2.49092 13.0504 3.3999 13.0504V11.7504C3.20889 11.7504 3.0499 11.5914 3.0499 11.4004H1.7499ZM1.7499 3.40039V11.4004H3.0499V3.40039H1.7499ZM3.3999 1.75039C2.49092 1.75039 1.7499 2.49141 1.7499 3.40039H3.0499C3.0499 3.20938 3.20889 3.05039 3.3999 3.05039V1.75039ZM9.1638 1.75039H3.3999V3.05039H9.1638V1.75039ZM10.8138 3.40039C10.8138 2.49141 10.0728 1.75039 9.1638 1.75039V3.05039C9.35482 3.05039 9.5138 3.20938 9.5138 3.40039H10.8138ZM10.8138 11.4004V3.40039H9.5138V11.4004H10.8138ZM9.1638 13.0504C10.0728 13.0504 10.8138 12.3094 10.8138 11.4004H9.5138C9.5138 11.5914 9.35482 11.7504 9.1638 11.7504V13.0504ZM3.3999 21.0504H9.1638V19.7504H3.3999V21.0504ZM1.7499 19.4004C1.7499 20.3094 2.49092 21.0504 3.3999 21.0504V19.7504C3.20889 19.7504 3.0499 19.5914 3.0499 19.4004H1.7499ZM1.7499 16.0088V19.4004H3.0499V16.0088H1.7499ZM3.3999 14.3588C2.49092 14.3588 1.7499 15.0998 1.7499 16.0088H3.0499C3.0499 15.8178 3.20889 15.6588 3.3999 15.6588V14.3588ZM9.1638 14.3588H3.3999V15.6588H9.1638V14.3588ZM10.8138 16.0088C10.8138 15.0998 10.0728 14.3588 9.1638 14.3588V15.6588C9.35482 15.6588 9.5138 15.8178 9.5138 16.0088H10.8138ZM10.8138 19.4004V16.0088H9.5138V19.4004H10.8138ZM9.1638 21.0504C10.0728 21.0504 10.8138 20.3094 10.8138 19.4004H9.5138C9.5138 19.5914 9.35482 19.7504 9.1638 19.7504V21.0504ZM19.3999 19.7504H13.6363V21.0504H19.3999V19.7504ZM19.7499 19.4004C19.7499 19.5914 19.5909 19.7504 19.3999 19.7504V21.0504C20.3089 21.0504 21.0499 20.3094 21.0499 19.4004H19.7499ZM19.7499 11.4004V19.4004H21.0499V11.4004H19.7499ZM19.3999 11.0504C19.5909 11.0504 19.7499 11.2094 19.7499 11.4004H21.0499C21.0499 10.4914 20.3089 9.75039 19.3999 9.75039V11.0504ZM13.8726 11.0504H19.3999V9.75039H13.8726V11.0504ZM13.2863 11.4004C13.2863 11.3999 13.2862 11.3967 13.2885 11.3894C13.2908 11.3817 13.296 11.3687 13.307 11.3507C13.3299 11.3131 13.3724 11.2637 13.4396 11.2131C13.583 11.1049 13.7575 11.0504 13.8726 11.0504V9.75039C13.4378 9.75039 12.9941 9.92084 12.6568 10.1752C12.3254 10.4251 11.9863 10.8458 11.9863 11.4004H13.2863ZM13.2863 19.4004V11.4004H11.9863V19.4004H13.2863ZM13.6363 19.7504C13.4452 19.7504 13.2863 19.5914 13.2863 19.4004H11.9863C11.9863 20.3094 12.7273 21.0504 13.6363 21.0504V19.7504ZM11.9863 3.40039V6.85305H13.2863V3.40039H11.9863ZM13.6363 1.75039C12.7273 1.75039 11.9863 2.49141 11.9863 3.40039H13.2863C13.2863 3.20938 13.4452 3.05039 13.6363 3.05039V1.75039ZM19.3999 1.75039H13.6363V3.05039H19.3999V1.75039ZM21.0499 3.40039C21.0499 2.49141 20.3089 1.75039 19.3999 1.75039V3.05039C19.5909 3.05039 19.7499 3.20938 19.7499 3.40039H21.0499ZM21.0499 6.85305V3.40039H19.7499V6.85305H21.0499ZM19.3999 8.50305C20.3089 8.50305 21.0499 7.76204 21.0499 6.85305H19.7499C19.7499 7.04407 19.5909 7.20305 19.3999 7.20305V8.50305ZM13.6363 8.50305H19.3999V7.20305H13.6363V8.50305ZM11.9863 6.85305C11.9863 7.76204 12.7273 8.50305 13.6363 8.50305V7.20305C13.4452 7.20305 13.2863 7.04407 13.2863 6.85305H11.9863Z" fill="#2166E3"/>
</svg>
