<svg width="24" height="24" viewBox="0 0 24 24" fill="none" xmlns="http://www.w3.org/2000/svg">
<path fill-rule="evenodd" clip-rule="evenodd" d="M12.6009 4.36777L14.5517 8.24724C14.6474 8.44223 14.8356 8.57853 15.0547 8.6114L19.4213 9.23569C19.5985 9.25959 19.7585 9.35155 19.8659 9.49112C19.9732 9.63069 20.0189 9.80629 19.9928 9.97888C19.9709 10.1208 19.9012 10.2515 19.7947 10.3505L16.6322 13.3827C16.4723 13.5321 16.4007 13.7502 16.4416 13.9624L17.2037 18.2358C17.2588 18.5879 17.0149 18.9183 16.655 18.9789C16.5066 19.0016 16.3547 18.9782 16.2206 18.9121L12.3265 16.898C12.132 16.7935 11.8962 16.7935 11.7016 16.898L7.78467 18.9269C7.45604 19.0914 7.05289 18.9691 6.87782 18.6519C6.80956 18.524 6.7855 18.3781 6.80923 18.2358L7.57129 13.9624C7.60815 13.7505 7.5371 13.5343 7.38078 13.3827L4.19538 10.3505C3.93487 10.0929 3.93487 9.67904 4.19538 9.42148C4.30169 9.32549 4.43387 9.26103 4.5764 9.23569L8.943 8.6114C9.16102 8.57613 9.34825 8.44057 9.44595 8.24724L11.3968 4.36777C11.4739 4.21047 11.6129 4.0902 11.7822 4.03423C11.9515 3.97826 12.1368 3.99134 12.296 4.0705C12.4275 4.13549 12.5342 4.23962 12.6009 4.36777Z" stroke="#141414" stroke-width="1.26316" stroke-linecap="round" stroke-linejoin="round"/>
</svg>
