<svg width="38" height="38" viewBox="0 0 38 38" fill="none" xmlns="http://www.w3.org/2000/svg">
<path d="M31.9605 18.0617H26.9195C26.3888 18.0617 25.8582 18.4596 25.7255 18.8576L23.0724 26.5518L16.7047 7.5816C16.5721 7.18362 16.0414 6.78564 15.5108 6.78564C14.9802 6.78564 14.5822 7.18362 14.3169 7.5816L10.8677 18.0617H6.7553C6.09201 18.0617 5.42871 18.5923 5.42871 19.3882C5.42871 20.1842 5.95935 20.7148 6.7553 20.7148H11.7963C12.327 20.7148 12.8576 20.3169 12.9903 19.9189L15.6435 12.2247L22.0111 31.3276C22.1437 31.8582 22.6744 32.1235 23.205 32.1235C23.7356 32.1235 24.2663 31.7255 24.3989 31.3276L27.8481 20.8475H31.9605C32.6238 20.8475 33.2871 20.3169 33.2871 19.5209C33.2871 18.725 32.7565 18.0617 31.9605 18.0617Z" fill="#313131"/>
</svg>
