<svg width="24" height="24" viewBox="0 0 24 24" fill="none" xmlns="http://www.w3.org/2000/svg">
<path fill-rule="evenodd" clip-rule="evenodd" d="M17.6 5.6H16V4.8C16 4.35817 15.6418 4 15.2 4C14.7582 4 14.4 4.35817 14.4 4.8V5.6H9.6V4.8C9.6 4.35817 9.24183 4 8.8 4C8.35817 4 8 4.35817 8 4.8V5.6H6.4C5.07452 5.6 4 6.67452 4 8V17.6C4 18.9255 5.07452 20 6.4 20H17.6C18.9255 20 20 18.9255 20 17.6V8C20 6.67452 18.9255 5.6 17.6 5.6ZM18.4 17.6C18.4 18.0418 18.0418 18.4 17.6 18.4H6.4C5.95817 18.4 5.6 18.0418 5.6 17.6V12H18.4V17.6ZM5.6 10.4H18.4V8C18.4 7.55817 18.0418 7.2 17.6 7.2H16V8C16 8.44183 15.6418 8.8 15.2 8.8C14.7582 8.8 14.4 8.44183 14.4 8V7.2H9.6V8C9.6 8.44183 9.24183 8.8 8.8 8.8C8.35817 8.8 8 8.44183 8 8V7.2H6.4C5.95817 7.2 5.6 7.55817 5.6 8V10.4Z" fill="#141414"/>
<path d="M16 5.6H15.85V5.75H16V5.6ZM14.4 5.6V5.75H14.55V5.6H14.4ZM9.6 5.6H9.45V5.75H9.6V5.6ZM8 5.6V5.75H8.15V5.6H8ZM5.6 12V11.85H5.45V12H5.6ZM18.4 12H18.55V11.85H18.4V12ZM18.4 10.4V10.55H18.55V10.4H18.4ZM5.6 10.4H5.45V10.55H5.6V10.4ZM16 7.2V7.05H15.85V7.2H16ZM14.4 7.2H14.55V7.05H14.4V7.2ZM9.6 7.2V7.05H9.45V7.2H9.6ZM8 7.2H8.15V7.05H8V7.2ZM16 5.75H17.6V5.45H16V5.75ZM15.85 4.8V5.6H16.15V4.8H15.85ZM15.2 4.15C15.559 4.15 15.85 4.44101 15.85 4.8H16.15C16.15 4.27533 15.7247 3.85 15.2 3.85V4.15ZM14.55 4.8C14.55 4.44101 14.841 4.15 15.2 4.15V3.85C14.6753 3.85 14.25 4.27533 14.25 4.8H14.55ZM14.55 5.6V4.8H14.25V5.6H14.55ZM9.6 5.75H14.4V5.45H9.6V5.75ZM9.45 4.8V5.6H9.75V4.8H9.45ZM8.8 4.15C9.15899 4.15 9.45 4.44101 9.45 4.8H9.75C9.75 4.27533 9.32467 3.85 8.8 3.85V4.15ZM8.15 4.8C8.15 4.44101 8.44102 4.15 8.8 4.15V3.85C8.27533 3.85 7.85 4.27533 7.85 4.8H8.15ZM8.15 5.6V4.8H7.85V5.6H8.15ZM6.4 5.75H8V5.45H6.4V5.75ZM4.15 8C4.15 6.75736 5.15736 5.75 6.4 5.75V5.45C4.99167 5.45 3.85 6.59167 3.85 8H4.15ZM4.15 17.6V8H3.85V17.6H4.15ZM6.4 19.85C5.15736 19.85 4.15 18.8426 4.15 17.6H3.85C3.85 19.0083 4.99167 20.15 6.4 20.15V19.85ZM17.6 19.85H6.4V20.15H17.6V19.85ZM19.85 17.6C19.85 18.8426 18.8426 19.85 17.6 19.85V20.15C19.0083 20.15 20.15 19.0083 20.15 17.6H19.85ZM19.85 8V17.6H20.15V8H19.85ZM17.6 5.75C18.8426 5.75 19.85 6.75736 19.85 8H20.15C20.15 6.59167 19.0083 5.45 17.6 5.45V5.75ZM17.6 18.55C18.1247 18.55 18.55 18.1247 18.55 17.6H18.25C18.25 17.959 17.959 18.25 17.6 18.25V18.55ZM6.4 18.55H17.6V18.25H6.4V18.55ZM5.45 17.6C5.45 18.1247 5.87533 18.55 6.4 18.55V18.25C6.04101 18.25 5.75 17.959 5.75 17.6H5.45ZM5.45 12V17.6H5.75V12H5.45ZM18.4 11.85H5.6V12.15H18.4V11.85ZM18.55 17.6V12H18.25V17.6H18.55ZM18.4 10.25H5.6V10.55H18.4V10.25ZM18.25 8V10.4H18.55V8H18.25ZM17.6 7.35C17.959 7.35 18.25 7.64102 18.25 8H18.55C18.55 7.47533 18.1247 7.05 17.6 7.05V7.35ZM16 7.35H17.6V7.05H16V7.35ZM16.15 8V7.2H15.85V8H16.15ZM15.2 8.95C15.7247 8.95 16.15 8.52467 16.15 8H15.85C15.85 8.35899 15.559 8.65 15.2 8.65V8.95ZM14.25 8C14.25 8.52467 14.6753 8.95 15.2 8.95V8.65C14.841 8.65 14.55 8.35898 14.55 8H14.25ZM14.25 7.2V8H14.55V7.2H14.25ZM9.6 7.35H14.4V7.05H9.6V7.35ZM9.75 8V7.2H9.45V8H9.75ZM8.8 8.95C9.32467 8.95 9.75 8.52467 9.75 8H9.45C9.45 8.35898 9.15899 8.65 8.8 8.65V8.95ZM7.85 8C7.85 8.52467 8.27533 8.95 8.8 8.95V8.65C8.44102 8.65 8.15 8.35898 8.15 8H7.85ZM7.85 7.2V8H8.15V7.2H7.85ZM6.4 7.35H8V7.05H6.4V7.35ZM5.75 8C5.75 7.64102 6.04101 7.35 6.4 7.35V7.05C5.87533 7.05 5.45 7.47533 5.45 8H5.75ZM5.75 10.4V8H5.45V10.4H5.75Z" fill="white"/>
<path d="M9 15L9.84792 16.1306C10.1989 16.5986 10.875 16.6666 11.3123 16.278L15 13" stroke="#141414" stroke-linecap="round"/>
</svg>
