<svg width="24" height="24" viewBox="0 0 24 24" fill="none" xmlns="http://www.w3.org/2000/svg">
<path fill-rule="evenodd" clip-rule="evenodd" d="M11.6251 12.5C13.6961 12.5 15.3751 10.8211 15.3751 8.75C15.3751 6.67893 13.6961 5 11.6251 5C9.55401 5 7.87508 6.67893 7.87508 8.75C7.87752 10.8201 9.55502 12.4976 11.6251 12.5ZM11.6251 6.50006C12.8677 6.50006 13.8751 7.50742 13.8751 8.75006C13.8751 9.9927 12.8677 11.0001 11.6251 11.0001C10.3824 11.0001 9.37506 9.9927 9.37506 8.75006C9.37643 7.50799 10.383 6.50143 11.6251 6.50006ZM14.3047 13.2157C14.3139 13.017 14.4016 12.8302 14.5485 12.6962C14.6953 12.562 14.8895 12.4916 15.0883 12.5007C15.287 12.5098 15.474 12.5975 15.608 12.7446C16.6791 13.9367 17.265 15.4867 17.2501 17.0893C17.2501 18.7489 14.832 19.9999 11.6251 19.9999C8.41817 19.9999 6.0001 18.7489 6.00025 17.0892C5.98635 15.4976 6.56362 13.9575 7.62024 12.7672C7.79977 12.5682 8.07182 12.4801 8.33392 12.5361C8.59601 12.592 8.80833 12.7836 8.8909 13.0386C8.97347 13.2935 8.91375 13.5732 8.73422 13.7722C7.93183 14.69 7.49287 15.8695 7.50009 17.0886C7.50009 17.5859 9.06639 18.4999 11.6251 18.4999C14.1838 18.4999 15.7501 17.5866 15.7501 17.0893C15.7644 15.8608 15.3184 14.6714 14.4998 13.7553C14.3658 13.6084 14.2956 13.4143 14.3047 13.2157Z" fill="#141414"/>
</svg>
