<svg width="24" height="24" viewBox="0 0 24 24" fill="none" xmlns="http://www.w3.org/2000/svg">
<path fill-rule="evenodd" clip-rule="evenodd" d="M9.59444 12.895L8.77524 9.5853L8.63314 8.97033C8.59672 8.65434 8.68669 8.33441 8.88742 8.08134C9.11896 7.78941 9.47245 7.61849 9.84703 7.61736H17.5791C17.9544 7.61669 18.3091 7.78713 18.541 8.07957C18.773 8.37201 18.8564 8.75395 18.7673 9.11533L17.8317 12.895C17.7013 13.4404 17.209 13.8248 16.6436 13.8226H10.7826C10.2172 13.8248 9.7249 13.4404 9.59444 12.895ZM7.65322 9.91305C7.66329 9.96198 7.67941 10.0084 7.70072 10.0517L8.47181 13.1594C8.54132 13.4539 8.66475 13.7246 8.83031 13.9623C8.17459 14.235 7.71403 14.8775 7.71403 15.6267C7.71403 16.4932 8.33029 17.2171 9.15201 17.391C9.04854 17.6213 8.99102 17.8765 8.99102 18.1449C8.99102 19.1694 9.82872 20 10.8621 20C11.8954 20 12.7331 19.1694 12.7331 18.1449C12.7331 17.8918 12.682 17.6506 12.5894 17.4307H15.5992C15.5066 17.6506 15.4555 17.8918 15.4555 18.1449C15.4555 19.1694 16.2932 20 17.3266 20C18.3599 20 19.1976 19.1694 19.1976 18.1449C19.1976 17.1791 18.4532 16.3857 17.5021 16.2979C17.4467 16.2806 17.3877 16.2713 17.3265 16.2713H9.53363C9.17454 16.2713 8.88344 15.9827 8.88344 15.6267C8.88344 15.2707 9.17454 14.982 9.53363 14.982H10.7732C10.7759 14.982 10.7787 14.982 10.7814 14.982H16.6436C17.7591 14.9973 18.7363 14.2442 18.9965 13.1687L19.932 9.38895C20.1064 8.67953 19.9412 7.93001 19.4843 7.35737C19.0273 6.78472 18.3296 6.45289 17.5932 6.45794H9.8751C9.24893 6.45365 8.65079 6.69288 8.20482 7.11661L7.95727 6.04523C7.67398 4.84391 6.59149 3.99571 5.34716 4.00002H4.5847C4.26178 4.00002 4 4.25956 4 4.57973C4 4.89989 4.26178 5.15943 4.5847 5.15943H5.34716C6.04734 5.15638 6.6567 5.63356 6.81593 6.30958L7.65322 9.91305ZM17.3245 17.4307H17.3265C17.3285 17.4307 17.3304 17.4307 17.3323 17.4307C17.5196 17.431 17.6993 17.5045 17.8323 17.6355C17.9667 17.7679 18.0422 17.9479 18.0422 18.1356C18.0422 18.5244 17.7248 18.8397 17.3328 18.8405C16.9407 18.8414 16.622 18.5274 16.6202 18.1387C16.6185 17.7507 16.9334 17.4344 17.3245 17.4307ZM10.8572 17.4307H10.8669C11.2574 17.4333 11.5731 17.7479 11.5731 18.1356C11.5731 18.525 11.2547 18.8406 10.8621 18.8406C10.4694 18.8406 10.1511 18.525 10.1511 18.1356C10.1511 17.7479 10.4668 17.4333 10.8572 17.4307Z" fill="#141414"/>
</svg>
