<svg width="40" height="40" viewBox="0 0 40 40" fill="none" xmlns="http://www.w3.org/2000/svg">
<path d="M0 20C0 8.9543 8.95431 0 20 0V0C31.0457 0 40 8.9543 40 20V20C40 31.0457 31.0457 40 20 40V40C8.95431 40 0 31.0457 0 20V20Z" fill="url(#paint0_linear_165_3119)"/>
<path d="M10.412 21.25H18.8843V28.75C18.8843 29.4394 19.5176 30 20.2963 30C21.075 30 21.7083 29.4394 21.7083 28.75V21.25H30.1806C30.9593 21.25 31.5926 20.6894 31.5926 20C31.5926 19.3106 30.9593 18.75 30.1806 18.75H21.7083V11.25C21.7083 10.5606 21.075 10 20.2963 10C19.5176 10 18.8843 10.5606 18.8843 11.25V18.75H10.412C9.63329 18.75 9 19.3106 9 20C9 20.6894 9.63329 21.25 10.412 21.25Z" fill="white"/>
<defs>
<linearGradient id="paint0_linear_165_3119" x1="-31.1458" y1="12.3194" x2="12.4519" y2="51.0278" gradientUnits="userSpaceOnUse">
<stop stop-color="#00E0FC"/>
<stop offset="0.495555" stop-color="#FF73F8"/>
<stop offset="1" stop-color="#F5D1B5"/>
</linearGradient>
</defs>
</svg>
