<svg width="24" height="24" viewBox="0 0 24 24" fill="none" xmlns="http://www.w3.org/2000/svg">
<path d="M12.0508 14.2678C13.7604 14.2678 15.1592 12.8691 15.1592 11.1594V6.1084C15.1592 4.39878 13.7604 3 12.0508 3C10.3411 3 8.94238 4.39875 8.94238 6.1084V11.1594C8.94238 12.869 10.3411 14.2678 12.0508 14.2678ZM10.1081 6.10847C10.1081 5.03994 10.9823 4.16576 12.0508 4.16576C13.1193 4.16576 13.9935 5.03994 13.9935 6.10847V11.1595C13.9935 12.228 13.1193 13.1022 12.0508 13.1022C10.9823 13.1022 10.1081 12.228 10.1081 11.1595V6.10847Z" fill="#141414"/>
<path d="M11.4683 16.3657V18.1141H10.3998C10.0695 18.1141 9.81692 18.3667 9.81692 18.6969C9.81692 19.0272 10.0695 19.2798 10.3998 19.2798H13.7219C14.0521 19.2798 14.3047 19.0272 14.3047 18.6969C14.3047 18.3667 14.0521 18.1141 13.7219 18.1141H12.634V16.3657C15.14 16.1131 17.1022 14.2093 17.1022 11.9364C17.1022 11.6061 16.8496 11.3535 16.5194 11.3535C16.1891 11.3535 15.9365 11.6061 15.9365 11.9364C15.9365 13.7625 14.1881 15.2389 12.0511 15.2389C9.91406 15.2389 8.16569 13.7625 8.16569 11.9364C8.16569 11.6061 7.9131 11.3535 7.58285 11.3535C7.25259 11.3535 7 11.6061 7 11.9364C7 14.2093 8.9622 16.1132 11.4682 16.3657H11.4683Z" fill="#141414"/>
</svg>
