<svg width="24" height="24" viewBox="0 0 24 24" fill="none" xmlns="http://www.w3.org/2000/svg">
<path fill-rule="evenodd" clip-rule="evenodd" d="M19.9902 5.37705C19.9124 5.15571 19.6927 5 19.4386 5H4.58143L4.48798 5.00712L4.3975 5.02825C4.16433 5.10196 4 5.31035 4 5.55167V8.80167L4.00752 8.89038L4.02983 8.97628C4.10762 9.19762 4.32732 9.35333 4.58143 9.35333H5.15286L5.14286 17.4683L5.15037 17.557L5.17268 17.6429C5.25048 17.8643 5.47018 18.02 5.72429 18.02H18.2957L18.3892 18.0129L18.4796 17.9918C18.7128 17.918 18.8771 17.7097 18.8771 17.4683V9.34333L19.4386 9.35333L19.532 9.34621L19.6225 9.32508C19.8557 9.25137 20.02 9.04299 20.02 8.80167V5.55167L20.0125 5.46296L19.9902 5.37705ZM6.29571 16.9167L6.30571 9.34333L17.714 9.353L17.7143 16.9267L6.29571 16.9167ZM13.7243 10.4167C14.0453 10.4167 14.3057 10.6635 14.3057 10.9683C14.3057 11.2097 14.1414 11.418 13.9082 11.4918L13.8177 11.5129L13.7243 11.52H10.2957C9.97472 11.52 9.71429 11.2731 9.71429 10.9683C9.71429 10.727 9.87862 10.5186 10.1118 10.4449L10.2023 10.4238L10.2957 10.4167H13.7243ZM5.15286 8.25L5.16286 6.09333L18.857 6.103L18.8571 8.26L5.15286 8.25Z" fill="#141414"/>
</svg>
