<svg width="19" height="16" viewBox="0 0 19 16" fill="none" xmlns="http://www.w3.org/2000/svg">
<path fill-rule="evenodd" clip-rule="evenodd" d="M0.979238 15.8231C1.02483 15.8336 1.07087 15.8388 1.11646 15.8388C1.33888 15.8388 1.54859 15.7144 1.65128 15.5083C2.75829 13.2943 3.80641 11.1986 9.48707 11.0626V15.2409C9.48707 15.4786 9.62773 15.6934 9.84507 15.7887C10.0623 15.8844 10.3162 15.8424 10.4908 15.6801L18.2635 8.50525C18.3861 8.39254 18.4556 8.23306 18.4556 8.06609C18.4556 7.89913 18.3861 7.73964 18.2635 7.62708L10.4908 0.452272C10.3156 0.289942 10.0617 0.248985 9.84507 0.343603C9.62773 0.438819 9.48707 0.653615 9.48707 0.89128V5.08361C1.20584 5.28914 0.518555 9.80778 0.518555 15.2409C0.518555 15.5182 0.709435 15.7588 0.979238 15.8231ZM10.6829 10.4577C10.6829 10.1272 10.4155 9.85979 10.085 9.85979C5.12718 9.85979 3.01644 11.2436 1.77803 12.9071C2.0577 8.82692 3.47996 6.27239 10.085 6.27239C10.4155 6.27239 10.6829 6.00498 10.6829 5.67449V2.25704L16.9761 8.06609L10.6829 13.8751V10.4577Z" fill="#313131"/>
</svg>
