<svg width="25" height="24" viewBox="0 0 25 24" fill="none" xmlns="http://www.w3.org/2000/svg">
<path fill-rule="evenodd" clip-rule="evenodd" d="M4.90381 5.71208C4.90381 4.77298 5.67889 4 6.61809 4H19.1895C20.1287 4 20.9038 4.77298 20.9038 5.71208V9.14291C20.9038 10.0708 20.4502 10.8905 19.761 11.4131V18.2857C19.761 19.2255 18.9865 20 18.0467 20H7.76095C6.82112 20 6.04667 19.2255 6.04667 18.2857V11.4131C5.3574 10.8904 4.90381 10.0707 4.90381 9.14291V5.71208ZM19.1895 5.14287H6.61809C6.29101 5.14287 6.04667 5.38755 6.04667 5.71207V9.14291C6.04667 10.1025 6.80135 10.8572 7.76095 10.8572H8.33238C9.29198 10.8572 10.0467 10.1025 10.0467 9.14291C10.0573 8.3917 11.1789 8.3917 11.1895 9.14291C11.1895 10.1025 11.9442 10.8572 12.9038 10.8572C13.8634 10.8572 14.6181 10.1025 14.6181 9.14291C14.6287 8.3917 15.7503 8.3917 15.761 9.14291C15.761 10.1025 16.5156 10.8572 17.4752 10.8572H18.0467C19.0063 10.8572 19.761 10.1025 19.761 9.14291V5.71207C19.761 5.38755 19.5166 5.14287 19.1895 5.14287ZM10.6181 10.7668C11.1191 11.4689 11.8923 11.96 12.8067 11.9934C12.8079 11.9934 12.809 11.9937 12.8101 11.994L12.8101 11.994C12.8107 11.9941 12.8112 11.9942 12.8117 11.9943C12.8123 11.9944 12.8128 11.9945 12.8134 11.9945C12.8434 11.9987 12.8736 12.0006 12.9038 12.0001C12.9303 12.0001 12.9568 11.9982 12.9831 11.9945C13.9054 11.967 14.6852 11.4736 15.1895 10.7668C15.7085 11.4941 16.5177 12.0001 17.4752 12.0001H18.0467C18.2421 12.0001 18.4334 11.9798 18.6181 11.9421V18.2861C18.6181 18.6126 18.3731 18.8576 18.0467 18.8576H15.1895V16.0004C15.1895 15.0606 14.4151 14.2861 13.4752 14.2861H12.3324C11.3925 14.2861 10.6181 15.0606 10.6181 16.0004V18.8576H7.76095C7.43449 18.8576 7.18952 18.6126 7.18952 18.2861V11.9421C7.37417 11.9798 7.56546 12.0001 7.76095 12.0001H8.33237C9.28992 12.0001 10.0991 11.4941 10.6181 10.7668L10.6181 10.7668ZM14.0467 16.0001C14.0467 15.6737 13.8017 15.4287 13.4752 15.4287H12.3324C12.0059 15.4287 11.761 15.6737 11.761 16.0001V18.8573H14.0467V16.0001Z" fill="#141414"/>
</svg>
