<svg width="24" height="24" viewBox="0 0 24 24" fill="none" xmlns="http://www.w3.org/2000/svg">
<path d="M19.8081 13.2832C19.642 13.2482 19.4757 13.3561 19.4401 13.5239C18.7273 16.9153 15.6907 19.3772 12.2195 19.3772C9.1822 19.3772 6.46403 17.5092 5.35766 14.7035L6.72258 14.1181C6.82435 14.0745 6.89571 13.9799 6.90819 13.8697C6.92144 13.7594 6.87478 13.6514 6.78627 13.5848L3.9183 11.4404C3.82978 11.3743 3.71176 11.3604 3.61012 11.4039C3.50835 11.448 3.43699 11.5428 3.42451 11.6522L3.00222 15.2083C2.98897 15.3185 3.03563 15.4265 3.12492 15.4932C3.17925 15.5344 3.24451 15.5553 3.31053 15.5553C3.35174 15.5553 3.39359 15.5468 3.43323 15.5297L4.78801 14.949C5.99148 17.9824 8.93335 20.0004 12.2205 20.0004C15.9839 20.0004 19.2757 17.3311 20.049 13.6526C20.0837 13.4839 19.9765 13.3193 19.8081 13.2836L19.8081 13.2832ZM3.97706 12.2591L5.98328 13.759L3.68202 14.7458L3.97706 12.2591Z" fill="#141414" stroke="#141414" stroke-width="0.3"/>
<path d="M12.1904 8.36523C12.0188 8.36523 11.8799 8.50418 11.8799 8.67575V9.09195C11.5336 9.15252 11.2145 9.30472 10.9614 9.53999C10.6267 9.85129 10.4444 10.2651 10.4498 10.7046C10.4545 11.1433 10.6447 11.5532 10.9864 11.8567C11.3195 12.1533 11.7574 12.3148 12.2217 12.3093C12.5238 12.307 12.8187 12.4103 13.0369 12.6044C13.2466 12.7908 13.363 13.0384 13.3654 13.3C13.3685 13.5439 13.2698 13.7813 13.0889 13.9662C12.8761 14.1844 12.568 14.3109 12.2434 14.314C12.2387 14.314 12.234 14.3148 12.2294 14.3148C11.6105 14.3148 11.1044 13.8722 11.0982 13.3241C11.0966 13.1525 10.9211 13.0175 10.7845 13.0167C10.613 13.019 10.4756 13.1595 10.4771 13.3303C10.4857 14.109 11.0874 14.755 11.8794 14.9041V15.3219C11.8794 15.4935 12.0183 15.6324 12.1899 15.6324C12.3614 15.6324 12.5004 15.4927 12.5004 15.3219V14.9096C12.8948 14.8521 13.2621 14.6782 13.5323 14.401C13.8297 14.0966 13.9911 13.7038 13.9864 13.293C13.9817 12.8536 13.7908 12.4444 13.4499 12.1401C13.1174 11.8435 12.6965 11.6868 12.2152 11.6883C11.9039 11.6891 11.6174 11.5866 11.4 11.3933C11.1903 11.2069 11.0739 10.96 11.0715 10.6976C11.0692 10.4352 11.1802 10.186 11.3852 9.99499C11.598 9.79703 11.886 9.68603 12.1942 9.68213H12.2082C12.8262 9.68213 13.3324 10.1239 13.3386 10.6728C13.341 10.8436 13.4799 10.9802 13.6491 10.9802H13.653C13.8246 10.9787 13.9612 10.8374 13.9604 10.6666C13.9511 9.87148 13.3098 9.20848 12.5016 9.0842L12.5017 8.67582C12.5009 8.50503 12.362 8.36531 12.1904 8.36531V8.36523Z" fill="#141414" stroke="#141414" stroke-width="0.3"/>
<path d="M21.3532 8.46364C21.2647 8.39761 21.1459 8.38448 21.0458 8.42711L19.6428 9.02878C18.434 6.00938 15.4951 4 12.2189 4C8.43461 4 5.13877 6.68639 4.38177 10.3884C4.34759 10.5561 4.45625 10.7207 4.62405 10.7548C4.64498 10.7587 4.66604 10.761 4.68696 10.761C4.83137 10.761 4.96109 10.66 4.99137 10.5127C5.68937 7.09968 8.7291 4.62139 12.2196 4.62139C15.246 4.62139 17.9611 6.48087 19.0728 9.2745L17.7552 9.83977C17.6528 9.88396 17.5821 9.97872 17.5688 10.0882C17.5556 10.1984 17.603 10.307 17.6915 10.3739L20.5595 12.5175C20.6138 12.5587 20.6791 12.5796 20.7451 12.5796C20.7871 12.5796 20.8282 12.571 20.8678 12.554C20.9696 12.5104 21.0402 12.4158 21.0534 12.3056L21.4757 8.75121C21.4887 8.63865 21.4422 8.52999 21.3529 8.46396L21.3532 8.46364ZM20.5007 11.6966L18.4944 10.1966L20.7965 9.20985L20.5007 11.6966Z" fill="#141414" stroke="#141414" stroke-width="0.3"/>
</svg>
