<svg width="24" height="24" viewBox="0 0 24 24" fill="none" xmlns="http://www.w3.org/2000/svg">
<path d="M10.4669 8.72097L10.4748 8.72639L14.9867 11.8038L14.9868 11.8039C15.2221 11.9648 15.2832 12.2862 15.1219 12.5218C15.0832 12.5786 15.0347 12.626 14.9791 12.6621L10.4524 15.7497L10.4523 15.7498L10.396 15.6672C10.2061 15.7971 9.94688 15.748 9.81709 15.558C9.768 15.486 9.74452 15.4042 9.74452 15.3235L10.4669 8.72097ZM10.4669 8.72097C10.4575 8.71408 10.4478 8.7075 10.438 8.70124L10.3588 8.64726L10.3557 8.65876C10.2956 8.63424 10.2299 8.62066 10.1608 8.62066C9.87528 8.62066 9.64338 8.85258 9.64338 9.13807V15.3235V15.4235H9.65432L10.4669 8.72097ZM20.0889 5.72107L20.0889 5.72104C19.5823 5.2148 18.8833 4.9 18.1135 4.9H5.69654C4.92673 4.9 4.22721 5.21492 3.72107 5.72107L3.72104 5.72109C3.2148 6.2277 2.9 6.92668 2.9 7.69654V16.765C2.9 17.5348 3.21492 18.2343 3.72107 18.7405L3.72109 18.7405C4.2277 19.2467 4.92668 19.5615 5.69654 19.5615H18.1135C18.8833 19.5615 19.5828 19.2466 20.0889 18.7405L20.089 18.7404C20.5952 18.2338 20.91 17.5349 20.91 16.765V7.69654C20.91 6.92673 20.5951 6.22721 20.0889 5.72107ZM10.6783 14.3446V10.1158L13.7782 12.2302L10.6783 14.3446ZM5.69654 5.93436H18.1135C18.5975 5.93436 19.0374 6.13187 19.3572 6.45173C19.6772 6.77168 19.8753 7.21209 19.8753 7.6955V16.764C19.8753 17.2474 19.6772 17.6877 19.3573 18.0077C19.0373 18.327 18.5969 18.5251 18.1135 18.5251H5.69654C5.21254 18.5251 4.77264 18.3276 4.45277 18.0077C4.13282 17.6878 3.93475 17.2474 3.93475 16.764V7.6955C3.93475 7.21206 4.13285 6.77165 4.45277 6.45173C4.77274 6.13242 5.21316 5.93436 5.69654 5.93436Z" fill="#141414" stroke="#141414" stroke-width="0.2"/>
</svg>
