<?xml version="1.0" encoding="UTF-8"?>
<svg width="21px" height="19px" viewBox="0 0 21 19" version="1.1" xmlns="http://www.w3.org/2000/svg" xmlns:xlink="http://www.w3.org/1999/xlink">
    <title>activity_2</title>
    <g id="Page-1" stroke="none" stroke-width="1" fill="none" fill-rule="evenodd">
        <g id="PORTL-1" transform="translate(-107.000000, -831.000000)" fill="#99A4DF" fill-rule="nonzero">
            <g id="activity_2" transform="translate(107.000000, 831.000000)">
                <path d="M20.0404218,8.54693878 L16.2226128,8.54693878 C15.8084359,8.54693878 15.4475688,8.80816327 15.3163445,9.19591837 L13.3602812,15.0408163 L8.54188635,0.648979592 C8.41066198,0.26122449 8.04979496,0 7.63561804,0 C7.22144112,0 6.86057411,0.26122449 6.72934974,0.648979592 L4.08435852,8.54693878 L0.955477446,8.54693878 C0.426479203,8.54693878 0,8.97142857 0,9.49795918 C0,10.0244898 0.426479203,10.4489796 0.955477446,10.4489796 L4.77328647,10.4489796 C5.18746339,10.4489796 5.5483304,10.1877551 5.67955477,9.8 L7.63561804,3.95510204 L12.4581136,18.3510204 C12.589338,18.7387755 12.950205,19 13.364382,19 C13.7785589,19 14.1394259,18.7387755 14.2706503,18.3510204 L16.9156415,10.4530612 L20.0445226,10.4530612 C20.5735208,10.4530612 21,10.0285714 21,9.50204082 C20.9958992,8.97142857 20.56942,8.54693878 20.0404218,8.54693878 Z" id="Path"></path>
            </g>
        </g>
    </g>
</svg>