<?xml version="1.0" encoding="UTF-8"?>
<svg width="16px" height="17px" viewBox="0 0 16 17" version="1.1" xmlns="http://www.w3.org/2000/svg" xmlns:xlink="http://www.w3.org/1999/xlink">
    <title>dashboard_20</title>
    <g id="Page-1" stroke="none" stroke-width="1" fill="none" fill-rule="evenodd">
        <g id="PORTL-1" transform="translate(-341.000000, -32.000000)" fill="#99A4DF">
            <g id="dashboard_20" transform="translate(341.000000, 32.000000)">
                <path d="M0,9.44429688 L7.11125,9.44429688 L7.11125,0 L0,0 L0,9.44429688 Z M1.7778125,1.88892578 L5.3334375,1.88892578 L5.3334375,7.55570313 L1.7778125,7.55570313 L1.7778125,1.88892578 Z M8.88875,17 L16,17 L16,7.55570313 L8.88875,7.55570313 L8.88875,17 Z M10.6665625,9.44429687 L14.2221875,9.44429687 L14.2221875,15.1110742 L10.6665625,15.1110742 L10.6665625,9.44429687 Z M8.88875,0 L8.88875,5.66677734 L16,5.66677734 L16,0 L8.88875,0 Z M14.2221875,3.77785156 L10.6665625,3.77785156 L10.6665625,1.88892578 L14.2221875,1.88892578 L14.2221875,3.77785156 Z M0,17 L7.11125,17 L7.11125,11.3332227 L0,11.3332227 L0,17 Z M1.7778125,13.2221484 L5.3334375,13.2221484 L5.3334375,15.1110742 L1.7778125,15.1110742 L1.7778125,13.2221484 Z" id="Shape"></path>
            </g>
        </g>
    </g>
</svg>