<?xml version="1.0" encoding="UTF-8"?>
<svg width="21px" height="13px" viewBox="0 0 21 13" version="1.1" xmlns="http://www.w3.org/2000/svg" xmlns:xlink="http://www.w3.org/1999/xlink">
    <title>inbox_9</title>
    <g id="Page-1" stroke="none" stroke-width="1" fill="none" fill-rule="evenodd">
        <g id="WeShare-1" transform="translate(-260.000000, -36.000000)" fill="#99A4DF" fill-rule="nonzero">
            <g id="inbox_9" transform="translate(260.000000, 36.000000)">
                <path d="M5.02001107,0.7481244 C5.39359296,0.27431228 5.96012374,0 6.55539159,0 L14.4827172,0 C15.0820904,0 15.6445158,0.27431228 16.0180977,0.7481244 L20.8746623,6.89521322 C21.0881377,7.19030673 21.022453,7.6059314 20.7268717,7.82205623 C20.4518169,8.02155607 20.0741297,7.9799936 19.8483384,7.72230631 L14.9958792,1.57937373 C14.8727203,1.42143636 14.6838767,1.32999893 14.4827172,1.32999893 L6.55539159,1.32999893 C6.3583374,1.32999893 6.16949381,1.42143636 6.04222965,1.57937373 L1.18566507,7.72646255 C0.9721897,8.02155607 0.561660149,8.08805601 0.270184168,7.87608743 C-0.021291813,7.65996261 -0.0869765411,7.24433794 0.12239353,6.94924443 L0.163446485,6.89936947 L5.02001107,0.7481244 Z" id="Path"></path>
                <path d="M0.165690439,6.23639775 C0.28884892,6.08317699 0.469481357,6 0.65832436,6 L7.8754113,6 C8.23667617,6 8.53225653,6.315197 8.53225653,6.70043777 C8.53225653,7.86053784 9.4148923,8.80175109 10.5027922,8.80175109 C11.5906921,8.80175109 12.4733279,7.86053784 12.4733279,6.70043777 C12.4733279,6.315197 12.764803,6 13.1301731,6 L20.3431548,6 C20.7044196,6 21,6.315197 21,6.70043777 L20.9958947,6.7879925 L20.4827344,11.1613508 C20.3595759,12.2120075 19.5220982,13 18.5286198,13 L2.4728593,13 C1.47938089,13 0.641903229,12.2120075 0.518744749,11.1613508 L0.00558441523,6.7879925 C-0.0190472808,6.58661664 0.0384266766,6.38524078 0.165690439,6.23639775 L0.165690439,6.23639775 Z M1.40138052,7.40087555 L1.82011936,10.9862414 C1.86117218,11.3364603 2.1403314,11.5991245 2.4728593,11.5991245 L18.5286198,11.5991245 C18.8611477,11.5991245 19.1403069,11.3364603 19.1813598,10.9862414 L19.6000986,7.40087555 L13.7172285,7.40087555 C13.3559637,9.29643527 11.6235344,10.5178236 9.85005226,10.1325829 C8.55688822,9.85240775 7.55109397,8.77548468 7.28835588,7.40087555 L1.40138052,7.40087555 Z" id="Shape"></path>
            </g>
        </g>
    </g>
</svg>