<?xml version="1.0" encoding="UTF-8"?>
<svg width="32px" height="32px" viewBox="0 0 32 32" version="1.1" xmlns="http://www.w3.org/2000/svg" xmlns:xlink="http://www.w3.org/1999/xlink">
    <title>profile</title>
    <g id="Page-1" stroke="none" stroke-width="1" fill="none" fill-rule="evenodd">
        <g id="WeShare-1" transform="translate(-316.000000, -822.000000)" fill="#99A4DF">
            <g id="Dark---X---Tab-bar" transform="translate(-1.000000, 806.000000)">
                <g id="profile" transform="translate(317.000000, 16.000000)">
                    <path d="M20.0998902,8.71264884 C20.0159166,11.3722413 18.2524698,12.7802609 15.2294182,12.8584842 C14.305708,12.8584842 10.8627881,12.6238143 10.8627881,8.63442553 C10.8627881,5.74016312 13.4659715,4.33214357 15.4813392,4.33214357 C16.992865,4.41036688 20.1838639,4.95793004 20.0998902,8.71264884 Z M8.5115258,19.5074654 L8.5115258,24.5137571 L22.3671789,24.5137571 C22.3671789,24.5137571 22.3671789,21.7759413 22.3671789,19.5074654 C22.3671789,17.5518827 19.428101,14.5011737 15.4813392,14.5011737 C12.6262349,14.4229504 8.5115258,15.6745233 8.5115258,19.5074654 L7,19.5074654 C7.16794731,16.4567564 8.25960483,15.6745233 9.01536773,15.0487368 C10.2749726,13.9536105 12.2063666,13.6407173 12.2063666,13.6407173 C12.2063666,13.6407173 9.09934138,12.2326977 9.26728869,8.55620222 C9.435236,4.80148342 12.8781559,2.92412402 15.6492865,3.00234733 C18.4204171,3.08057063 21.6953897,5.42726989 21.611416,8.79087215 C21.5274424,12.1544744 18.9242591,13.562494 18.9242591,13.562494 C18.9242591,13.562494 18.5883644,13.7189406 18.6723381,13.7189406 C21.4434687,14.579397 23.7947311,17.0043195 23.9626784,19.0381256 C24.046652,20.0550286 23.9626784,21.1501549 23.9626784,21.1501549 C23.9626784,21.1501549 23.9626784,23.1057376 23.9626784,24.5137571 C23.9626784,26 22.3671789,26 22.3671789,26 L10.0230516,26 C10.0230516,26 10.0230516,26 8.5115258,26 C7,26 7,24.5137571 7,24.5137571 L7,19.5074654 L8.5115258,19.5074654 Z" id="Shape"></path>
                    <path d="M32,16 C32,20.4221106 30.2222222,24.4422111 27.3131313,27.3366834 C24.4040404,30.2311558 20.4444444,32 16,32 C11.5555556,32 7.5959596,30.2311558 4.68686869,27.3366834 C1.77777778,24.4422111 0,20.4221106 0,16 C0,13.6683417 0.484848485,11.4170854 1.37373737,9.40703518 C2.18181818,7.63819095 3.31313131,6.03015075 4.68686869,4.66331658 C7.5959596,1.76884422 11.5555556,0 16,0 C20.4444444,0 24.4040404,1.76884422 27.3131313,4.66331658 C30.2222222,7.55778894 32,11.5778894 32,16 Z M25.8585859,6.11055276 C23.3535354,3.53768844 19.7979798,1.92964824 15.9191919,1.92964824 C12.040404,1.92964824 8.48484848,3.53768844 5.97979798,6.03015075 C4.76767677,7.2361809 3.7979798,8.68341709 3.07070707,10.2110553 C2.26262626,11.9798995 1.85858586,13.9095477 1.85858586,16 C1.85858586,19.8592965 3.47474747,23.3969849 5.97979798,25.9698492 C8.56565657,28.5427136 12.040404,30.0703518 15.9191919,30.0703518 C19.7979798,30.0703518 23.3535354,28.4623116 25.8585859,25.9698492 C28.4444444,23.3969849 29.979798,19.8592965 29.979798,16 C29.979798,12.1407035 28.4444444,8.68341709 25.8585859,6.11055276 Z" id="Shape" fill-rule="nonzero"></path>
                </g>
            </g>
        </g>
    </g>
</svg>