<?xml version="1.0" encoding="UTF-8"?>
<svg width="31px" height="31px" viewBox="0 0 31 31" version="1.1" xmlns="http://www.w3.org/2000/svg" xmlns:xlink="http://www.w3.org/1999/xlink">
    <title>Shape</title>
    <g id="Page-1" stroke="none" stroke-width="1" fill="none" fill-rule="evenodd">
        <g id="PORTL-1" transform="translate(-171.000000, -822.000000)" fill="#99A4DF" fill-rule="nonzero">
            <g id="Dark---X---Tab-bar" transform="translate(-1.000000, 806.000000)">
                <g id="addition-color-outline-icon" transform="translate(172.000000, 16.000000)">
                    <path d="M15.5,0 C19.7794531,0 23.6550586,1.73530733 26.4595898,4.53989336 C29.265332,7.34508486 31,11.2201606 31,15.4996973 C31,19.779234 29.2647266,23.6549151 26.4595898,26.4601066 C23.6550586,29.2646927 19.7794531,31 15.5,31 C11.2205469,31 7.34494141,29.2646927 4.53980469,26.4601066 C1.73527344,23.6549151 0,19.779234 0,15.4996973 C0,11.2201606 1.73466797,7.34508486 4.54041016,4.53989336 C7.34494141,1.73530733 11.2205469,0 15.5,0 Z M22.5676367,14.2984238 L22.5676367,16.7015762 C22.5676367,17.2701225 22.1002148,17.7381589 21.5316797,17.7381589 L17.7378125,17.7381589 L17.7378125,21.5321002 C17.7378125,22.101252 17.2709961,22.5680775 16.7018555,22.5680775 L14.2981445,22.5680775 C13.7290039,22.5680775 13.2621875,22.1024629 13.2621875,21.5321002 L13.2621875,17.7381589 L9.46832031,17.7381589 C8.89978516,17.7381589 8.43236328,17.2719389 8.43236328,16.7015762 L8.43236328,14.2984238 C8.43236328,13.7286666 8.89796875,13.2624465 9.46832031,13.2624465 L13.2621875,13.2624465 L13.2621875,9.46789976 C13.2621875,8.89814254 13.7283984,8.4319225 14.2981445,8.4319225 L16.7018555,8.4319225 C17.2716016,8.4319225 17.7378125,8.89874802 17.7378125,9.46789976 L17.7378125,13.2624465 L21.5316797,13.2624465 C22.1020313,13.2624465 22.5676367,13.7322995 22.5676367,14.2984238 Z M24.8272461,6.17226899 C22.4410937,3.78607004 19.1425,2.30930292 15.5,2.30930292 C11.8575,2.30930292 8.55890625,3.78607004 6.17275391,6.17226899 C3.78599609,8.55907342 2.30925781,11.8571261 2.30925781,15.4996973 C2.30925781,19.1422684 3.78599609,22.4409266 6.17214844,24.827731 C8.55890625,27.21393 11.8575,28.6906971 15.5,28.6906971 C19.1425,28.6906971 22.4410937,27.21393 24.8272461,24.827731 C27.2140039,22.4409266 28.6907422,19.1422684 28.6907422,15.4996973 C28.6907422,11.8571261 27.2140039,8.55907342 24.8272461,6.17226899 Z" id="Shape"></path>
                </g>
            </g>
        </g>
    </g>
</svg>