<?xml version="1.0" encoding="UTF-8"?>
<svg width="24px" height="24px" viewBox="0 0 24 24" version="1.1" xmlns="http://www.w3.org/2000/svg" xmlns:xlink="http://www.w3.org/1999/xlink">
    <title>addition-color-outline-icon</title>
    <g id="Page-1" stroke="none" stroke-width="1" fill="none" fill-rule="evenodd">
        <g id="Discover-New" transform="translate(-1303.000000, -34.000000)" fill="#99A4DF" fill-rule="nonzero">
            <g id="Right-Header-Buttons" transform="translate(1294.000000, 25.000000)">
                <g id="addition-color-outline-icon" transform="translate(9.000000, 9.000000)">
                    <path d="M12,0 C15.313125,0 18.3135937,1.34346374 20.4848437,3.51475615 C22.6570313,5.68651731 24,8.68657591 24,11.9997656 C24,15.3129553 22.6565625,18.3134827 20.4848437,20.4852439 C18.3135937,22.6565363 15.313125,24 12,24 C8.686875,24 5.68640625,22.6565363 3.5146875,20.4852439 C1.3434375,18.3134827 0,15.3129553 0,11.9997656 C0,8.68657591 1.34296875,5.68651731 3.51515625,3.51475615 C5.68640625,1.34346374 8.686875,0 12,0 Z M18,10.5649976 L18,12.4350024 C18,12.8774147 17.6362546,13.2416156 17.1938234,13.2416156 L14.2414546,13.2416156 L14.2414546,16.1938579 C14.2414546,16.6367413 13.8781804,17 13.435278,17 L11.564722,17 C11.1218196,17 10.7585454,16.6376836 10.7585454,16.1938579 L10.7585454,13.2416156 L7.80617665,13.2416156 C7.3637454,13.2416156 7,12.8788281 7,12.4350024 L7,10.5649976 C7,10.121643 7.36233188,9.75885553 7.80617665,9.75885553 L10.7585454,9.75885553 L10.7585454,6.80614212 C10.7585454,6.36278751 11.1213484,6 11.564722,6 L13.435278,6 C13.8786516,6 14.2414546,6.36325866 14.2414546,6.80614212 L14.2414546,9.75885553 L17.1938234,9.75885553 C17.6376681,9.75885553 18,10.12447 18,10.5649976 Z M19.0710548,4.9285534 C17.2620949,3.119552 14.7614064,2 12,2 C9.23859359,2 6.73790508,3.119552 4.92894519,4.9285534 C3.1195263,6.73801382 2,9.2383007 2,11.9997705 C2,14.7612403 3.1195263,17.2619862 4.92848618,19.0714466 C6.73790508,20.880448 9.23859359,22 12,22 C14.7614064,22 17.2620949,20.880448 19.0710548,19.0714466 C20.8804737,17.2619862 22,14.7612403 22,11.9997705 C22,9.2383007 20.8804737,6.73801382 19.0710548,4.9285534 Z" id="Shape"></path>
                </g>
            </g>
        </g>
    </g>
</svg>