<svg width="21" height="21" viewBox="0 0 21 21" xmlns="http://www.w3.org/2000/svg">
    <g fill="#FFF" fill-rule="nonzero">
        <path d="M15.094 1.75H14V.875a.875.875 0 1 0-1.75 0v.875h-7V.875a.875.875 0 1 0-1.75 0v.875H2.406A2.408 2.408 0 0 0 0 4.156V14a2.628 2.628 0 0 0 2.625 2.625H7a.875.875 0 1 0 0-1.75H2.625A.876.876 0 0 1 1.75 14V7h14a.875.875 0 1 0 1.75 0V4.156a2.408 2.408 0 0 0-2.406-2.406z"/>
        <path d="M15.312 9.625a5.694 5.694 0 0 0-5.687 5.687A5.694 5.694 0 0 0 15.312 21 5.694 5.694 0 0 0 21 15.312a5.694 5.694 0 0 0-5.688-5.687zm2.188 6.563h-1.312V17.5a.875.875 0 0 1-1.75 0v-1.312h-1.313a.875.875 0 0 1 0-1.75h1.313v-1.313a.875.875 0 0 1 1.75 0v1.313H17.5a.875.875 0 0 1 0 1.75z"/>
    </g>
</svg>
