<svg width="11" height="20" viewBox="0 0 11 20" xmlns="http://www.w3.org/2000/svg">
    <path d="M11 9.994c0-.195-.036-.376-.108-.542a1.63 1.63 0 0 0-.324-.474L2.15.373A1.177 1.177 0 0 0 1.264 0c-.23 0-.443.058-.637.175a1.275 1.275 0 0 0-.46.469A1.32 1.32 0 0 0 0 1.31c0 .354.13.67.389.949l7.585 7.735L.39 17.73c-.26.279-.389.599-.389.96 0 .24.056.461.167.66.112.2.265.358.46.475.194.117.407.175.637.175.353 0 .649-.128.886-.384l8.418-8.605a1.63 1.63 0 0 0 .324-.475c.072-.165.108-.346.108-.542z" fill="#979797" fill-rule="nonzero"/>
</svg>
