<svg version="1.2" xmlns="http://www.w3.org/2000/svg" viewBox="0 0 35 35" width="35" height="35">
	<title>group-copy-4-svg</title>
	<style>
		.s0 { fill: #ffffff } 
		.s1 { fill: #313131 } 
	</style>
	<g id="Layer">
		<path id="Layer" class="s0" d="m35 17.6c0 9.6-7.9 17.4-17.6 17.4-9.6 0-17.4-7.9-17.4-17.6 0-9.6 7.9-17.4 17.6-17.4 9.6 0 17.4 7.9 17.4 17.6z"/>
		<path id="Layer" class="s1" d="m17 21.3l-5.3-5.4q0 0 0-0.1-0.1 0-0.1-0.1 0 0 0-0.1 0-0.1 0-0.1 0-0.1 0-0.1 0-0.1 0-0.2 0 0 0.1-0.1 0 0 0-0.1l0.4-0.4q0.1-0.1 0.2-0.1 0.2-0.1 0.3-0.1 0.1 0 0.2 0.1 0.2 0 0.3 0.1l4.4 4.5 4.5-4.4q0-0.1 0.1-0.1 0-0.1 0.1-0.1 0 0 0.1 0 0.1 0 0.1 0 0.1 0 0.2 0 0 0 0.1 0 0 0.1 0.1 0.1 0 0 0.1 0.1l0.4 0.4q0 0 0.1 0.1 0 0 0 0.1 0 0 0.1 0.1 0 0.1 0 0.1 0 0.3-0.2 0.5l-5.4 5.3q-0.1 0.2-0.4 0.2-0.3 0-0.5-0.2z"/>
	</g>
</svg>