<svg width="11" height="20" viewBox="0 0 11 20" xmlns="http://www.w3.org/2000/svg">
    <path d="M0 9.994c0-.195.036-.376.108-.542a1.63 1.63 0 0 1 .324-.474L8.85.373C9.087.124 9.383 0 9.736 0c.23 0 .443.058.637.175.195.117.348.273.46.469.111.195.167.418.167.666 0 .354-.13.67-.389.949L3.026 9.994l7.585 7.736c.26.279.389.599.389.96 0 .24-.056.461-.167.66-.112.2-.265.358-.46.475a1.216 1.216 0 0 1-.637.175 1.16 1.16 0 0 1-.886-.384L.432 11.011a1.63 1.63 0 0 1-.324-.475A1.344 1.344 0 0 1 0 9.994z" fill="#979797" fill-rule="nonzero"/>
</svg>
