<svg width="20" height="19" viewBox="0 0 20 19" xmlns="http://www.w3.org/2000/svg">
    <path d="M17.938 1.877a6.271 6.271 0 0 0-8.947 0L1.32 9.656c-1.762 1.787-1.761 4.695 0 6.482a4.472 4.472 0 0 0 3.196 1.34 4.474 4.474 0 0 0 3.196-1.34l7.03-7.13c.512-.52.794-1.21.794-1.945 0-.735-.282-1.426-.794-1.945a2.688 2.688 0 0 0-3.835 0L6.311 9.781a.926.926 0 0 0 0 1.297.895.895 0 0 0 1.278 0l4.597-4.664a.896.896 0 0 1 1.279 0c.17.174.264.404.264.649a.917.917 0 0 1-.264.648l-7.03 7.13a2.688 2.688 0 0 1-3.835 0 2.782 2.782 0 0 1 0-3.889l7.67-7.779a4.48 4.48 0 0 1 6.39 0 4.587 4.587 0 0 1 1.324 3.241c0 1.225-.47 2.376-1.324 3.242l-7.67 7.779a.926.926 0 0 0 0 1.296.894.894 0 0 0 1.28 0l7.668-7.779a6.422 6.422 0 0 0 1.854-4.538 6.422 6.422 0 0 0-1.854-4.537z" fill="#000" fill-rule="nonzero"/>
</svg>
