<svg width="21" height="20" viewBox="0 0 21 20" xmlns="http://www.w3.org/2000/svg">
    <path d="M20.62 10.788c-.156-3.278-.29-6.527-.128-9.808.014-.281-.36-.376-.52-.203-.311-.519-1.274-.46-1.762-.494C16.197.144 14.176.096 12.16.051 9.924.001 7.682-.036 5.448.06 4.064.12 2.446.098 1.12.562a.277.277 0 0 0-.173.202.35.35 0 0 0-.069.13C-.341 5.032.455 9.44.364 13.688.333 15.125.209 16.55.074 17.98c-.04.424-.228 1.3.213 1.617.033.114.122.207.266.195 4.043-.324 8.066.298 12.11.196 1.672-.043 3.338-.136 5.01-.137.75 0 1.603.116 2.34-.069a.521.521 0 0 0 .175-.061l.002-.001a.405.405 0 0 0 .199-.378.464.464 0 0 0-.007-.086.367.367 0 0 0 .053-.123c.558-2.71.316-5.601.185-8.346zm-2.947 8.046c-1.672 0-3.339.072-5.01.133-3.864.142-7.83-.673-11.647.134l.01-.077a.233.233 0 0 0-.018-.118c-.005-.101-.013-.205-.01-.264.022-.454.075-.909.118-1.362.116-1.195.177-2.392.211-3.592.12-4.213-.56-8.44.178-12.621v-.01c3.215-.38 6.628-.067 9.846-.01 1.936.035 3.872.095 5.806.192.62.032 1.24.072 1.86.122.277.023.773.07.528-.092a.303.303 0 0 0 .295.018c-.481 2.695-.358 5.443-.23 8.167.148 3.156.192 6.232.016 9.381-.639-.078-1.33-.001-1.953-.001z" fill="#3B3129" fill-rule="nonzero"/>
</svg>
