<svg width="20" height="20" viewBox="0 0 20 20" xmlns="http://www.w3.org/2000/svg">
    <path d="M17.422 1.563h-1.797V.625a.625.625 0 0 0-1.25 0v.938h-8.75V.625a.625.625 0 0 0-1.25 0v.938H2.578A2.581 2.581 0 0 0 0 4.14v13.28A2.581 2.581 0 0 0 2.578 20h14.844A2.581 2.581 0 0 0 20 17.422V4.14a2.581 2.581 0 0 0-2.578-2.579zm1.328 15.859c0 .733-.595 1.328-1.328 1.328H2.578a1.328 1.328 0 0 1-1.328-1.328V7.07c0-.108.087-.195.195-.195h17.11c.108 0 .195.087.195.195v10.352z" fill="#313131" fill-rule="nonzero"/>
</svg>
