<svg width="17" height="22" viewBox="0 0 17 22" xmlns="http://www.w3.org/2000/svg">
    <g fill="#021730" fill-rule="nonzero">
        <path d="M14.855 22H2.145a2.116 2.116 0 0 1-1.554-.683 2.234 2.234 0 0 1-.588-1.627L.58 7.047c.05-1.177.994-2.105 2.142-2.104h11.554c1.148-.001 2.092.927 2.142 2.104l.578 12.643c.03.602-.183 1.19-.588 1.627a2.116 2.116 0 0 1-1.554.683zM2.723 6.417a.724.724 0 0 0-.714.733l-.578 12.613c-.01.201.06.397.196.543a.705.705 0 0 0 .518.227h12.71a.705.705 0 0 0 .518-.227.745.745 0 0 0 .196-.543l-.578-12.642a.724.724 0 0 0-.714-.734l-11.554.03z"/>
        <path d="M12.784 5.683h-1.428V4.4c0-1.62-1.279-2.933-2.856-2.933S5.644 2.78 5.644 4.4v1.283H4.216V4.4C4.216 1.97 6.134 0 8.5 0c2.366 0 4.284 1.97 4.284 4.4v1.283z"/>
    </g>
</svg>
