<svg width="26" height="26" viewBox="0 0 26 26" xmlns="http://www.w3.org/2000/svg">
    <path d="M6.26 0a1.187 1.187 0 0 0-.84.33A1.155 1.155 0 0 0 5.418 2L7.2 3.756l1.55 1.53.91.897H5.477c-1.728 0-3.145 1.149-4.056 2.672C.51 10.379 0 12.358 0 14.533v3.12c0 2.174.51 4.152 1.422 5.675C2.332 24.85 3.75 26 5.478 26h15.04c1.727 0 3.15-1.149 4.06-2.672.911-1.523 1.422-3.5 1.422-5.676v-3.12c0-2.174-.51-4.153-1.422-5.676-.91-1.523-2.333-2.672-4.06-2.672H16.34l.91-.898 1.55-1.529L20.58 2A1.155 1.155 0 0 0 20.58.33 1.187 1.187 0 0 0 19.74 0c-.301.004-.601.121-.83.35L17.13 2.11l-1.55 1.529L13 6.184l-2.58-2.546-1.549-1.53L7.089.352A1.186 1.186 0 0 0 6.26 0zm-.782 8.512h15.04c.652 0 1.38.454 2.023 1.528.643 1.074 1.094 2.687 1.094 4.493v3.12c0 1.805-.451 3.418-1.094 4.492-.642 1.074-1.371 1.527-2.024 1.527H5.478c-.653 0-1.382-.453-2.024-1.527-.643-1.074-1.09-2.687-1.09-4.493v-3.12c0-1.805.447-3.418 1.09-4.492.642-1.074 1.371-1.528 2.024-1.528zm5.014 4.914c-.91 0-1.82.34-2.507 1.018l-.835.824a1.155 1.155 0 0 0-.022 1.646c.463.47 1.229.471 1.693.003v-.002l.835-.823a1.176 1.176 0 0 1 1.672 0l.835.825.836.824c1.375 1.356 3.64 1.356 5.015-.001l.835-.823a1.155 1.155 0 0 0-.003-1.67 1.193 1.193 0 0 0-1.669.021l-.835.823c-.472.466-1.2.466-1.672.001l-.836-.824-.835-.825a3.558 3.558 0 0 0-2.507-1.017z" fill="#313131" fill-rule="nonzero"/>
</svg>
