<svg width="15" height="12" viewBox="0 0 15 12" xmlns="http://www.w3.org/2000/svg">
    <path d="M3.05 10.728a.98.98 0 0 0 1.383.102l.115-.102C5.962 9.51 7.352 8.255 8.575 6.834c.255-.217.51-.434.752-.65 1.568-1.409 3.085-2.868 4.385-4.532.37-.471.516-1.026.077-1.408-.402-.344-.975-.325-1.453.064-.854.694-1.728 1.389-2.499 2.18-1.242 1.267-2.409 2.606-3.6 3.912-.86.536-1.651 1.16-2.397 1.823C2.852 7.24 1.845 6.286.915 5.259c-.096-.108-.414-.108-.574-.05-.318.12-.376.433-.325.77.166 1.103.733 2.078 1.46 2.913l1.574 1.836z" fill="#3B3129" fill-rule="nonzero"/>
</svg>
