<svg width="29" height="29" viewBox="0 0 29 29" xmlns="http://www.w3.org/2000/svg">
    <defs>
        <linearGradient x1="-6.766%" y1="-10.778%" x2="100%" y2="93.682%" id="351g6n03ha">
            <stop stop-color="#00E0FC" offset="0%"/>
            <stop stop-color="#FF73F8" offset="49.555%"/>
            <stop stop-color="#F5D1B5" offset="100%"/>
        </linearGradient>
    </defs>
    <g fill-rule="nonzero" fill="none">
        <path d="M24.753 4.247A14.405 14.405 0 0 0 14.5 0 14.405 14.405 0 0 0 4.247 4.247 14.405 14.405 0 0 0 0 14.5c0 3.873 1.508 7.514 4.247 10.253A14.405 14.405 0 0 0 14.5 29c3.873 0 7.514-1.508 10.253-4.247A14.405 14.405 0 0 0 29 14.5c0-3.873-1.508-7.514-4.247-10.253z" fill="url(#351g6n03ha)"/>
        <path d="M23.967 14.5a9.467 9.467 0 1 1-18.935 0 9.467 9.467 0 0 1 18.935 0z" fill="#EBF7FF"/>
        <path d="m17.72 16.864-2.37-2.685V9.705a.85.85 0 0 0-1.7 0V14.5a.85.85 0 0 0 .213.562l2.582 2.926a.847.847 0 0 0 1.2.075.85.85 0 0 0 .074-1.199z" fill="#31394A"/>
    </g>
</svg>
