<svg width="17" height="18" viewBox="0 0 17 18" xmlns="http://www.w3.org/2000/svg">
    <path d="M15.984 1.223c-2.426.05-5.028 2.628-6.822 4.017-.657.506-1.34 1.037-1.997 1.567-1.415-2.021-2.93-3.967-4.599-5.71-.278-.279-.808.1-.555.429 1.465 1.92 2.855 3.967 4.194 6.064-1.82 1.517-3.588 3.16-5.079 4.953-.404.48.253 1.163.708.708a68.206 68.206 0 0 1 5.003-4.7c1.39 2.173 2.729 4.371 4.119 6.519-.177.202-.228.53-.025.758.631.708.53.657 1.313 1.087.607.328 1.39-.354.986-.986-1.794-2.653-3.512-5.483-5.382-8.212 2.628-2.148 5.458-4.043 8.465-5.484.48-.202.202-1.036-.329-1.01z" fill="#C52323" fill-rule="nonzero" stroke="#D70012" stroke-width=".6"/>
</svg>
