<svg version="1.2" xmlns="http://www.w3.org/2000/svg" viewBox="0 0 13 13" width="13" height="13">
	<title>close-icon-svg</title>
	<style>
		.s0 { opacity: .4;fill: #ffffff } 
	</style>
	<path id="Layer" class="s0" d="m12.2 11.9q0.2 0.1 0.2 0.4 0 0.2-0.1 0.3-0.2 0.2-0.4 0.2-0.2 0-0.4-0.2l-5.3-5.3-5.3 5.3q-0.2 0.2-0.4 0.2-0.2 0-0.4-0.2-0.1-0.1-0.1-0.3 0-0.3 0.2-0.4l5.3-5.3-5.3-5.4q-0.2-0.1-0.2-0.3 0-0.2 0.2-0.4 0.1-0.1 0.3-0.1 0.2 0 0.4 0.1l5.3 5.4 5.3-5.4q0.2-0.1 0.4-0.1 0.2 0 0.4 0.1 0.1 0.2 0.1 0.4 0 0.2-0.2 0.3l-5.3 5.4c0 0 5.3 5.3 5.3 5.3z"/>
	<path id="Layer copy" class="s0" d="m12.2 11.9q0.2 0.1 0.2 0.4 0 0.2-0.1 0.3-0.2 0.2-0.4 0.2-0.2 0-0.4-0.2l-5.3-5.3-5.3 5.3q-0.2 0.2-0.4 0.2-0.2 0-0.4-0.2-0.1-0.1-0.1-0.3 0-0.3 0.2-0.4l5.3-5.3-5.3-5.4q-0.2-0.1-0.2-0.3 0-0.2 0.2-0.4 0.1-0.1 0.3-0.1 0.2 0 0.4 0.1l5.3 5.4 5.3-5.4q0.2-0.1 0.4-0.1 0.2 0 0.4 0.1 0.1 0.2 0.1 0.4 0 0.2-0.2 0.3l-5.3 5.4c0 0 5.3 5.3 5.3 5.3z"/>
	<path id="Layer copy 2" class="s0" d="m12.2 11.9q0.2 0.1 0.2 0.4 0 0.2-0.1 0.3-0.2 0.2-0.4 0.2-0.2 0-0.4-0.2l-5.3-5.3-5.3 5.3q-0.2 0.2-0.4 0.2-0.2 0-0.4-0.2-0.1-0.1-0.1-0.3 0-0.3 0.2-0.4l5.3-5.3-5.3-5.4q-0.2-0.1-0.2-0.3 0-0.2 0.2-0.4 0.1-0.1 0.3-0.1 0.2 0 0.4 0.1l5.3 5.4 5.3-5.4q0.2-0.1 0.4-0.1 0.2 0 0.4 0.1 0.1 0.2 0.1 0.4 0 0.2-0.2 0.3l-5.3 5.4c0 0 5.3 5.3 5.3 5.3z"/>
	<path id="Layer copy 3" class="s0" d="m12.2 11.9q0.2 0.1 0.2 0.4 0 0.2-0.1 0.3-0.2 0.2-0.4 0.2-0.2 0-0.4-0.2l-5.3-5.3-5.3 5.3q-0.2 0.2-0.4 0.2-0.2 0-0.4-0.2-0.1-0.1-0.1-0.3 0-0.3 0.2-0.4l5.3-5.3-5.3-5.4q-0.2-0.1-0.2-0.3 0-0.2 0.2-0.4 0.1-0.1 0.3-0.1 0.2 0 0.4 0.1l5.3 5.4 5.3-5.4q0.2-0.1 0.4-0.1 0.2 0 0.4 0.1 0.1 0.2 0.1 0.4 0 0.2-0.2 0.3l-5.3 5.4c0 0 5.3 5.3 5.3 5.3z"/>
	<path id="Layer copy 4" class="s0" d="m12.2 11.9q0.2 0.1 0.2 0.4 0 0.2-0.1 0.3-0.2 0.2-0.4 0.2-0.2 0-0.4-0.2l-5.3-5.3-5.3 5.3q-0.2 0.2-0.4 0.2-0.2 0-0.4-0.2-0.1-0.1-0.1-0.3 0-0.3 0.2-0.4l5.3-5.3-5.3-5.4q-0.2-0.1-0.2-0.3 0-0.2 0.2-0.4 0.1-0.1 0.3-0.1 0.2 0 0.4 0.1l5.3 5.4 5.3-5.4q0.2-0.1 0.4-0.1 0.2 0 0.4 0.1 0.1 0.2 0.1 0.4 0 0.2-0.2 0.3l-5.3 5.4c0 0 5.3 5.3 5.3 5.3z"/>
</svg>