<svg width="15" height="15" viewBox="0 0 15 15" xmlns="http://www.w3.org/2000/svg">
    <path d="M13.066 1.172H11.72V.469a.469.469 0 0 0-.938 0v.703H4.22V.469a.469.469 0 0 0-.938 0v.703H1.934A1.936 1.936 0 0 0 0 3.105v9.961C0 14.133.867 15 1.934 15h11.132A1.936 1.936 0 0 0 15 13.066v-9.96a1.936 1.936 0 0 0-1.934-1.934zm.996 11.894c0 .55-.445.996-.996.996H1.934a.996.996 0 0 1-.996-.996V5.303c0-.081.065-.147.146-.147h12.832c.08 0 .146.066.146.147v7.763z" fill="#313131" fill-rule="nonzero"/>
</svg>
