<svg width="15" height="16" viewBox="0 0 15 16" fill="none" xmlns="http://www.w3.org/2000/svg">
<path d="M6.15396 6.15393C5.81365 6.15393 5.53857 6.42901 5.53857 6.76932V11.6924C5.53857 12.0327 5.81365 12.3078 6.15396 12.3078C6.49427 12.3078 6.76934 12.0327 6.76934 11.6924V6.76932C6.76934 6.42901 6.49427 6.15393 6.15396 6.15393Z" fill="#FF5353"/>
<path d="M8.61538 6.15393C8.27508 6.15393 8 6.42901 8 6.76932V11.6924C8 12.0327 8.27508 12.3078 8.61538 12.3078C8.95569 12.3078 9.23077 12.0327 9.23077 11.6924V6.76932C9.23077 6.42901 8.95569 6.15393 8.61538 6.15393Z" fill="#FF5353"/>
<path d="M9.23077 0H5.53846C4.85969 0 4.30769 0.552 4.30769 1.23077V2.46154H2.46154H0.615385C0.275077 2.46154 0 2.73662 0 3.07692C0 3.41723 0.275077 3.69231 0.615385 3.69231H1.84615V14.1538C1.84615 15.1717 2.67446 16 3.69231 16H11.0769C12.0948 16 12.9231 15.1717 12.9231 14.1538V3.69231H14.1538C14.4942 3.69231 14.7692 3.41723 14.7692 3.07692C14.7692 2.73662 14.4942 2.46154 14.1538 2.46154H12.3077H10.4615V1.23077C10.4615 0.552 9.90954 0 9.23077 0ZM11.6923 14.1538C11.6923 14.4935 11.4166 14.7692 11.0769 14.7692H3.69231C3.35262 14.7692 3.07692 14.4935 3.07692 14.1538V3.69231H11.6923V14.1538ZM5.53846 2.46154V1.23077H9.23077V2.46154H5.53846Z" fill="#FF5353"/>
</svg>
