<svg width="36" height="23" viewBox="0 0 36 23" xmlns="http://www.w3.org/2000/svg">
    <defs>
        <linearGradient x1="-6.766%" y1="30.55%" x2="100%" y2="63.979%" id="aapm3kivfa">
            <stop stop-color="#00E0FC" offset="0%"/>
            <stop stop-color="#FF73F8" offset="49.555%"/>
            <stop stop-color="#F5D1B5" offset="100%"/>
        </linearGradient>
    </defs>
    <g fill-rule="nonzero" fill="none">
        <path d="M35.889 18.763a.752.752 0 0 0-.64-.363H.75a.747.747 0 0 0-.637.363.778.778 0 0 0-.033.746C1.132 21.663 3.25 23 5.604 23h24.792c2.353 0 4.47-1.337 5.526-3.49a.79.79 0 0 0-.033-.747z" fill="#92A2FA"/>
        <path d="M20.056 3.226c.123-.284.194-.596.194-.926C20.25 1.032 19.24 0 18 0s-2.25 1.032-2.25 2.3c0 .33.07.642.193.926-6.796.955-12.163 6.549-12.852 13.64h29.816c-.689-7.088-6.057-12.685-12.85-13.64zM17.3 7.666c-4.195.283-7.809 3.083-9.202 7.132a.753.753 0 0 1-.957.47.773.773 0 0 1-.46-.979c1.594-4.63 5.723-7.83 10.52-8.154a.767.767 0 0 1 .798.714.76.76 0 0 1-.699.816z" fill="url(#aapm3kivfa)"/>
    </g>
</svg>
