<svg version="1.2" xmlns="http://www.w3.org/2000/svg" viewBox="0 0 35 35" width="35" height="35">
	<title>upArrow-svg</title>
	<style>
		.s0 { fill: #ffffff } 
		.s1 { fill: #313131 } 
	</style>
	<g id="Layer">
		<rect id="Layer" class="s0" width="35" height="35" rx="17.5"></rect>
		<path id="Layer" class="s1" d="m17 20.4l-5.3-5.3q0-0.1 0-0.1-0.1-0.1-0.1-0.2 0 0 0-0.1-0.1 0-0.1-0.1 0-0.1 0.1-0.1 0-0.1 0-0.2 0 0 0.1-0.1 0 0 0-0.1l0.4-0.4q0.1-0.1 0.2-0.1 0.2-0.1 0.3-0.1 0.1 0 0.2 0.1 0.2 0 0.2 0.1l4.5 4.5 4.5-4.5q0 0 0.1 0 0-0.1 0.1-0.1 0 0 0.1 0 0.1-0.1 0.1-0.1 0.1 0 0.1 0.1 0.1 0 0.2 0 0 0 0.1 0.1 0 0 0.1 0l0.4 0.4q0 0.1 0 0.1 0.1 0.1 0.1 0.1 0 0.1 0 0.2 0.1 0 0.1 0.1 0 0.3-0.2 0.4l-5.3 5.4q-0.2 0.1-0.5 0.1-0.3 0-0.5-0.1z"/>
	</g>
</svg>