<svg version="1.2" xmlns="http://www.w3.org/2000/svg" viewBox="0 0 10 6" width="10" height="6">
	<title>drop-down-svg</title>
	<style>
		.s0 { fill: #313131 } 
	</style>
	<path id="Layer" fill-rule="evenodd" class="s0" d="m5.4 0.2l4.4 4.5q0.1 0 0.1 0.1 0 0 0.1 0.1 0 0 0 0.1 0 0 0 0.1 0 0.1 0 0.1 0 0.1 0 0.1-0.1 0.1-0.1 0.1 0 0.1-0.1 0.1l-0.3 0.3q-0.1 0.1-0.2 0.2-0.1 0-0.2 0-0.1 0-0.2 0-0.1-0.1-0.2-0.2l-3.7-3.8-3.7 3.8q-0.1 0.1-0.2 0.2-0.1 0-0.2 0-0.1 0-0.2 0-0.1-0.1-0.2-0.2l-0.3-0.3q-0.1 0-0.1-0.1 0 0-0.1-0.1 0 0 0-0.1 0 0 0-0.1 0-0.2 0.2-0.4l4.4-4.5q0.1-0.1 0.1-0.1 0 0 0.1-0.1 0 0 0.1 0 0 0 0.1 0 0.1 0 0.1 0 0.1 0 0.1 0 0.1 0.1 0.1 0.1 0.1 0 0.1 0.1z"/>
</svg>