<svg width="22" height="28" viewBox="0 0 22 28" xmlns="http://www.w3.org/2000/svg">
    <defs>
        <linearGradient x1="16.99%" y1="-10.778%" x2="79.075%" y2="93.682%" id="zpzhp4641a">
            <stop stop-color="#00E0FC" offset="0%"/>
            <stop stop-color="#FF73F8" offset="49.555%"/>
            <stop stop-color="#F5D1B5" offset="100%"/>
        </linearGradient>
    </defs>
    <g fill-rule="nonzero" fill="none">
        <path d="M4.173 24.821C2.905 23.398 1.636 21.918.83 20.153a10.46 10.46 0 0 1-.634-6.092c.403-2.049 1.326-3.985 2.652-5.635-.115 1.423.404 2.903 1.384 3.985-.577-2.733.346-5.693 2.19-7.857C8.268 2.391 10.805.968 13.457 0c-1.326 1.366-1.499 3.53-.98 5.351.52 1.822 1.615 3.416 2.595 5.067.98 1.65 1.903 3.359 1.96 5.237.52-.967 1.096-1.935 1.442-3.017.346-1.081.519-2.22.23-3.302 1.038 1.253 1.615 2.505 1.903 4.1.288 1.593.23 3.244.058 4.838-.23 1.765-.692 3.587-1.672 5.067-1.153 1.765-2.999 3.017-5.017 3.7-3.575.627-7.092.114-9.802-2.22z" fill="url(#zpzhp4641a)" transform="matrix(-1 0 0 1 21.204 .542)"/>
        <path d="M12.725 27.461c-4.873 1.875-9.686-3.807-7.012-8.2 0-.059.06-.059.06-.118-.238 2.402.356 4.16 1.485 5.155-.594-1.406-.178-3.046.535-4.452.713-1.347 1.723-2.577 2.496-3.866.773-1.347 1.367-2.87 1.01-4.393 1.427 1.054 2.437 2.636 2.853 4.335.416 1.698.178 3.573-.595 5.155.892-.645 1.546-1.7 1.605-2.812.951 1.113 1.545 2.577 1.486 4.042 0 2.284-1.842 4.334-3.923 5.154z" fill="#F8F0FF"/>
    </g>
</svg>
