<svg width="14" height="19" viewBox="0 0 14 19" xmlns="http://www.w3.org/2000/svg">
    <defs>
        <linearGradient x1="-6.766%" y1="6.327%" x2="100%" y2="81.389%" id="osk0j3j86a">
            <stop stop-color="#00E0FC" offset="0%"/>
            <stop stop-color="#FF73F8" offset="49.555%"/>
            <stop stop-color="#F5D1B5" offset="100%"/>
        </linearGradient>
    </defs>
    <g fill-rule="nonzero" fill="none">
        <path d="M13.25 0c.418 0 .742.34.69.725l-.77 5.773-1.494.698-2.036.285-2.19-.604-1.907-1.525-1.167-.182v.001l-1.04-.16-2.502.887L.669 5.7.005.725C-.046.34.278 0 .696 0z" fill="#F1E0FF"/>
        <path d="m2.237 15.37-.322-.331L.67 5.7c.653-.4 2.052-1.098 3.654-.926l-.157-.013.106.008.051.005c.853.092 1.764.43 2.65 1.19 2.49 2.137 5.168.942 6.227.312l-1.169 8.763-.281.331H2.237z" fill="url(#osk0j3j86a)"/>
        <path d="M3.673 18.573c-.833 0-1.535-.908-1.638-2.116l-.12-1.418h10.116l-.12 1.418c-.102 1.208-.805 2.116-1.637 2.116z" fill="#F197C7"/>
    </g>
</svg>
