<svg width="26" height="26" viewBox="0 0 26 26" fill="none" xmlns="http://www.w3.org/2000/svg">
<path d="M24.8404 1.9507C21.3159 3.48083 18.1959 5.81335 15.6836 8.72141H17.6267C19.8787 6.37984 22.58 4.50588 25.5654 3.20981C26.4151 2.84105 25.6823 1.5853 24.8404 1.9507Z" fill="white"/>
<path d="M15.0753 9.45117H0.373047C0.373047 16.5779 6.06611 22.3553 13.0888 22.3553C20.1115 22.3553 25.8046 16.5779 25.8046 9.45117H16.9541H15.0753Z" fill="white"/>
<rect x="0.373047" y="23.8132" width="25.4315" height="2.18716" fill="white"/>
<path d="M9.04664 5.88277C9.06011 5.85101 9.06803 5.8211 9.07824 5.7915C9.08928 5.76205 9.10912 5.73461 9.12321 5.7078C9.1416 5.68141 9.14549 5.65501 9.16776 5.63157C9.18786 5.60791 9.20408 5.58519 9.22004 5.56348C9.23309 5.54161 9.25309 5.52063 9.27537 5.50092C9.29635 5.48125 9.31401 5.4617 9.32997 5.4423C9.3725 5.40381 9.42193 5.36648 9.45602 5.32684C9.5129 5.28788 9.56134 5.24635 9.60626 5.20408C9.65915 5.17537 9.70443 5.14415 9.74365 5.10698C9.74764 5.10114 9.77639 5.08116 9.79996 5.06413L9.87166 5.01234C9.91995 4.97822 9.96688 4.94221 10.0139 4.90619L10.1192 4.82659L10.3029 4.6827C10.5426 4.47608 10.7664 4.22498 10.9444 3.93414C11.1231 3.6444 11.2497 3.31323 11.3053 2.98485C11.3625 2.65637 11.3497 2.33571 11.2912 2.05696C11.234 1.77685 11.1289 1.53832 11.015 1.34058C10.7814 0.945011 10.4989 0.711001 10.2869 0.574938C10.1822 0.505698 10.0861 0.465583 10.0259 0.437035C9.96331 0.409749 9.92637 0.400391 9.92637 0.400391C9.92637 0.400391 9.92523 0.437035 9.92321 0.505803C9.92394 0.571153 9.9143 0.670992 9.90969 0.785605C9.89632 1.01657 9.87177 1.32975 9.80623 1.63495C9.77551 1.78705 9.72836 1.93678 9.67335 2.06942C9.6176 2.20302 9.55139 2.31879 9.47866 2.42068C9.4055 2.52288 9.32645 2.61357 9.23584 2.7091C9.14492 2.80405 9.03954 2.90247 8.91857 3.00625L8.82299 3.08422L8.79926 3.10409L8.79335 3.10903L8.73948 3.15178L8.73533 3.15556L8.7188 3.1706L8.65275 3.23027C8.60861 3.26991 8.56468 3.30955 8.5223 3.35083L8.45822 3.41192C8.43666 3.43263 8.41843 3.44825 8.38465 3.48773C8.26394 3.62201 8.15043 3.76112 8.0464 3.90065C7.95833 4.04633 7.8786 4.19302 7.80747 4.33791C7.77587 4.41841 7.74841 4.50037 7.72271 4.58055C7.69795 4.66219 7.6694 4.73685 7.65619 4.82171C7.64241 4.9063 7.6306 4.98968 7.62257 5.07165C7.61868 5.11218 7.61485 5.15261 7.61097 5.19267C7.60879 5.23289 7.61299 5.27458 7.61444 5.3147C7.62174 5.4761 7.63526 5.62836 7.68008 5.76863C7.7008 5.83845 7.71748 5.90732 7.74287 5.97015C7.77032 6.03245 7.79529 6.09291 7.8255 6.14953C7.87964 6.26546 7.95268 6.35846 8.01656 6.44715C8.08578 6.53243 8.15696 6.60378 8.22446 6.66807C8.29818 6.72722 8.36253 6.78179 8.42936 6.82438C8.49774 6.86549 8.5568 6.90282 8.61602 6.92995C8.73082 6.9871 8.83195 7.01349 8.89604 7.03263C8.96271 7.04982 9.00048 7.05271 9.00048 7.05271C9.00048 7.05271 8.99607 7.01628 8.98768 6.94803C8.97773 6.88342 8.97432 6.78342 8.96629 6.67144C8.96484 6.61634 8.96323 6.55509 8.96142 6.48858C8.96354 6.4266 8.96582 6.35951 8.96825 6.28796C8.98255 6.14985 9.00053 6.00926 9.04664 5.88277Z" fill="white"/>
<path d="M13.1648 5.88277C13.1783 5.85101 13.1861 5.8211 13.1963 5.7915C13.2075 5.76205 13.2272 5.73461 13.2414 5.7078C13.2597 5.68141 13.2635 5.65501 13.2858 5.63157C13.306 5.60791 13.3221 5.58519 13.3381 5.56348C13.3512 5.54161 13.3712 5.52063 13.3933 5.50092C13.4144 5.48125 13.4321 5.4617 13.448 5.4423C13.4906 5.40381 13.5399 5.36648 13.5741 5.32684C13.631 5.28788 13.6793 5.24635 13.7243 5.20408C13.7772 5.17537 13.8225 5.14415 13.8617 5.10698C13.8656 5.10114 13.8945 5.08116 13.918 5.06413L13.9897 5.01234C14.038 4.97822 14.085 4.94221 14.1319 4.90619L14.2372 4.82659L14.4209 4.6827C14.6607 4.47608 14.8844 4.22498 15.0624 3.93414C15.2412 3.6444 15.3678 3.31323 15.4234 2.98485C15.4806 2.65637 15.4677 2.33571 15.4093 2.05696C15.3521 1.77685 15.247 1.53832 15.1332 1.34058C14.8995 0.945011 14.6171 0.711001 14.4051 0.574938C14.3005 0.505698 14.2045 0.465583 14.1442 0.437035C14.0815 0.409749 14.0446 0.400391 14.0446 0.400391C14.0446 0.400391 14.0435 0.437035 14.0414 0.505803C14.0421 0.571153 14.0325 0.670992 14.0279 0.785605C14.0145 1.01657 13.99 1.32975 13.9244 1.63495C13.8937 1.78705 13.8465 1.93678 13.7916 2.06942C13.7359 2.20302 13.6696 2.31879 13.5969 2.42068C13.5237 2.52288 13.4447 2.61357 13.3541 2.7091C13.263 2.80405 13.1577 2.90247 13.0367 3.00625L12.9412 3.08422L12.9175 3.10409L12.9116 3.10903L12.8577 3.15178L12.8535 3.15556L12.837 3.1706L12.7709 3.23027C12.7268 3.26991 12.6828 3.30955 12.6405 3.35083L12.5764 3.41192C12.5548 3.43263 12.5366 3.44825 12.5029 3.48773C12.3822 3.62201 12.2686 3.76112 12.1646 3.90065C12.0765 4.04633 11.9968 4.19302 11.9257 4.33791C11.8941 4.41841 11.8666 4.50037 11.8409 4.58055C11.8162 4.66219 11.7876 4.73685 11.7744 4.82171C11.7606 4.9063 11.7488 4.98968 11.7408 5.07165C11.7369 5.11218 11.7331 5.15261 11.7291 5.19267C11.727 5.23289 11.7312 5.27458 11.7325 5.3147C11.7399 5.4761 11.7534 5.62836 11.7982 5.76863C11.8189 5.83845 11.8356 5.90732 11.861 5.97015C11.8885 6.03245 11.9135 6.09291 11.9437 6.14953C11.998 6.26546 12.0708 6.35846 12.1347 6.44715C12.204 6.53243 12.2751 6.60378 12.3426 6.66807C12.4163 6.72722 12.4807 6.78179 12.5475 6.82438C12.6159 6.86549 12.675 6.90282 12.7342 6.92995C12.849 6.9871 12.9501 7.01349 13.0142 7.03263C13.0809 7.04982 13.1187 7.05271 13.1187 7.05271C13.1187 7.05271 13.1142 7.01628 13.1058 6.94803C13.096 6.88342 13.0925 6.78342 13.0845 6.67144C13.083 6.61634 13.0814 6.55509 13.0795 6.48858C13.0817 6.4266 13.084 6.35951 13.0864 6.28796C13.1006 6.14985 13.1184 6.00926 13.1648 5.88277Z" fill="white"/>
</svg>
