<svg width="26" height="26" viewBox="0 0 26 26" xmlns="http://www.w3.org/2000/svg">
    <defs>
        <linearGradient x1="-20.724%" y1="21.873%" x2="161.16%" y2="96.063%" id="x5guy8cj2a">
            <stop stop-color="#00E0FC" offset="0%"/>
            <stop stop-color="#FF73F8" offset="49.555%"/>
            <stop stop-color="#F5D1B5" offset="100%"/>
        </linearGradient>
        <linearGradient x1="-6.766%" y1="49.55%" x2="100%" y2="50.323%" id="jotuhbboob">
            <stop stop-color="#00E0FC" offset="0%"/>
            <stop stop-color="#FF73F8" offset="49.555%"/>
            <stop stop-color="#F5D1B5" offset="100%"/>
        </linearGradient>
    </defs>
    <g fill-rule="nonzero" fill="none">
        <path d="M24.84 1.95c-3.524 1.53-6.644 3.863-9.157 6.771h1.944a24.618 24.618 0 0 1 7.938-5.511c.85-.369.117-1.625-.725-1.26z" fill="#41C5FB"/>
        <path d="M14.702 9.05H0c0 7.127 5.693 12.905 12.716 12.905 7.022 0 12.716-5.778 12.716-12.904h-10.73z" fill="url(#x5guy8cj2a)" transform="translate(.374 .4)"/>
        <path fill="url(#jotuhbboob)" d="M0 23.413h25.432V25.6H0z" transform="translate(.374 .4)"/>
        <path d="M9.047 5.882c.013-.031.021-.061.031-.09.011-.03.031-.058.045-.085.019-.026.023-.052.045-.076.02-.023.036-.046.052-.068a.28.28 0 0 1 .056-.062.612.612 0 0 0 .054-.06c.043-.038.092-.075.126-.115.057-.039.106-.08.15-.122a.64.64 0 0 0 .138-.097c.004-.006.033-.026.056-.043l.072-.052c.048-.034.095-.07.142-.106l.105-.08.184-.144c.24-.206.464-.457.642-.748.178-.29.305-.621.36-.95.058-.328.045-.649-.014-.927a2.39 2.39 0 0 0-.276-.717 2.265 2.265 0 0 0-.728-.765c-.105-.07-.2-.11-.26-.138-.064-.028-.1-.037-.1-.037l-.004.105c.001.066-.009.166-.013.28a5.68 5.68 0 0 1-.104.85c-.03.152-.077.301-.132.434-.056.134-.122.25-.195.351a2.687 2.687 0 0 1-.243.289c-.09.095-.196.193-.317.297l-.096.078-.024.02-.005.005-.054.042-.004.004-.017.015-.066.06-.13.12-.065.062c-.021.02-.04.036-.073.075-.12.135-.234.274-.338.413a5.714 5.714 0 0 0-.24.438c-.03.08-.058.162-.084.242-.025.082-.053.156-.067.241a3.964 3.964 0 0 0-.033.25l-.012.121c-.002.04.002.082.004.122.007.162.02.314.065.454.021.07.038.139.063.202.028.062.052.123.083.18.054.115.127.208.19.297.07.085.141.156.209.22.073.06.138.114.205.157.068.041.127.078.186.106.115.057.216.083.28.102.067.017.105.02.105.02l-.013-.104c-.01-.065-.013-.165-.022-.277l-.004-.183.006-.2c.015-.139.033-.28.079-.406zM13.165 5.882c.014-.031.022-.061.032-.09.011-.03.03-.058.045-.085.018-.026.022-.052.045-.076.02-.023.036-.046.052-.068a.285.285 0 0 1 .055-.062.607.607 0 0 0 .055-.06c.042-.038.092-.075.126-.115.057-.039.105-.08.15-.122a.64.64 0 0 0 .137-.097c.004-.006.033-.026.057-.043l.071-.052c.049-.034.096-.07.143-.106l.105-.08.184-.144c.24-.206.463-.457.641-.748.179-.29.306-.621.361-.95.057-.328.044-.649-.014-.927a2.39 2.39 0 0 0-.276-.717 2.265 2.265 0 0 0-.728-.765c-.105-.07-.2-.11-.261-.138-.063-.028-.1-.037-.1-.037s0 .037-.003.105c0 .066-.009.166-.013.28a5.673 5.673 0 0 1-.104.85c-.03.152-.078.301-.133.434-.055.134-.122.25-.194.351a2.687 2.687 0 0 1-.243.289 4.497 4.497 0 0 1-.318.297l-.095.078-.024.02-.006.005-.054.042-.004.004-.016.015-.066.06c-.045.04-.088.08-.13.12l-.065.062c-.021.02-.04.036-.073.075-.121.135-.235.274-.339.413a5.714 5.714 0 0 0-.239.438c-.031.08-.059.162-.084.242-.025.082-.054.156-.067.241a3.964 3.964 0 0 0-.033.25l-.012.121c-.002.04.002.082.003.122.008.162.021.314.066.454.02.07.037.139.063.202.027.062.052.123.082.18.055.115.128.208.191.297.07.085.14.156.208.22.074.06.138.114.205.157.069.041.128.078.187.106.115.057.216.083.28.102.067.017.104.02.104.02l-.012-.104c-.01-.065-.014-.165-.022-.277l-.005-.183.007-.2c.014-.139.032-.28.078-.406z" fill="#FD86EA"/>
    </g>
</svg>
