<svg width="12" height="10" viewBox="0 0 12 10" fill="none" xmlns="http://www.w3.org/2000/svg">
<path d="M4.44408 9.74057C4.7411 10.0375 5.22267 10.0374 5.51958 9.74057C5.8167 9.44345 5.8167 8.96198 5.51948 8.66486L2.59699 5.74247L11.06 5.74166C11.48 5.74156 11.8204 5.40114 11.8204 4.98092C11.8203 4.5609 11.4799 4.22058 11.0599 4.22058L2.59658 4.22139L5.51978 1.29839C5.8168 1.00138 5.8168 0.519701 5.51978 0.222787C5.37123 0.07433 5.17663 0 4.98193 0C4.78734 0 4.59274 0.07433 4.44418 0.222686L0.222787 4.44398C0.08011 4.58655 0 4.77993 0 4.98173C0.000101405 5.18353 0.0802114 5.3768 0.222888 5.51968L4.44408 9.74057Z" fill="#021730"/>
</svg>
