<svg width="17" height="17" viewBox="0 0 17 17" xmlns="http://www.w3.org/2000/svg">
    <g stroke="#000" stroke-width="1.417" fill="none" fill-rule="evenodd">
        <path d="M7.152 3H2.546C1.692 3 1 3.692 1 4.546v9.9a1.546 1.546 0 0 0 1.554 1.546l9.908-.05A1.546 1.546 0 0 0 14 14.396v-4.36h0" stroke-linecap="round"/>
        <path d="m6.038 8.264 7.102-6.998a1.834 1.834 0 0 1 2.572-.003 1.796 1.796 0 0 1 .02 2.545l-6.725 6.793a.773.773 0 0 1-.31.19l-3.035.993a.386.386 0 0 1-.495-.46L5.83 8.63a.773.773 0 0 1 .208-.366z"/>
    </g>
</svg>
