<svg width="18" height="18" viewBox="0 0 18 18" xmlns="http://www.w3.org/2000/svg">
    <path d="M8.991 0A8.977 8.977 0 0 0 1.25 4.413a8.994 8.994 0 0 0-.132 8.918L.035 16.947a.819.819 0 0 0 1.018 1.019l3.613-1.085a8.984 8.984 0 0 0 10.215-1.066 9.006 9.006 0 0 0 2.552-9.959A8.992 8.992 0 0 0 8.991 0zm0 16.364a7.323 7.323 0 0 1-3.799-1.069.823.823 0 0 0-.659-.083l-2.496.75.749-2.5a.819.819 0 0 0-.082-.654 7.362 7.362 0 0 1 1.022-8.929 7.345 7.345 0 0 1 8.887-1.278 7.36 7.36 0 0 1 3.492 8.28 7.351 7.351 0 0 1-7.114 5.483z" fill="#9D9D9D" fill-rule="nonzero"/>
</svg>
