<svg width="23" height="29" viewBox="0 0 23 29" fill="none" xmlns="http://www.w3.org/2000/svg">
<path d="M21.2447 3.98755H1.75525C0.786805 3.98755 0 4.71255 0 5.67923V27.3084C0 28.2146 0.786862 29.0001 1.75525 29.0001H21.3052C22.2737 29.0001 23 28.2146 23 27.3084V5.67923C23 4.71255 22.2131 3.98755 21.2447 3.98755Z" fill="white"/>
<path d="M2.60254 26.4019V6.5249H20.3973V26.4019H2.60254Z" fill="#F8F0FF"/>
<rect x="5.20508" y="22.4143" width="12.5895" height="1.38956" fill="#E2D5EE"/>
<rect x="10.5918" y="17.2791" width="7.20262" height="1.38956" fill="#E2D5EE"/>
<path d="M6.53669 18.4874L5.44722 17.3999C5.20509 17.1582 5.20509 16.7353 5.44722 16.4937C5.68934 16.252 6.11299 16.252 6.35511 16.4937L7.02088 17.1582L8.6551 15.527C8.89722 15.2853 9.32087 15.2853 9.56299 15.527C9.80512 15.7687 9.80512 16.1915 9.56299 16.4332L7.44459 18.5478C7.14198 18.7291 6.77882 18.7291 6.53669 18.4874Z" fill="#FD86EA"/>
<rect x="10.5918" y="12.0833" width="7.20262" height="1.38956" fill="#E2D5EE"/>
<path d="M6.53669 13.2916L5.44722 12.2041C5.20509 11.9624 5.20509 11.5395 5.44722 11.2978C5.68934 11.0562 6.11299 11.0562 6.35511 11.2978L7.02088 11.9624L8.6551 10.3312C8.89722 10.0895 9.32087 10.0895 9.56299 10.3312C9.80512 10.5729 9.80512 10.9957 9.56299 11.2374L7.44459 13.2916C7.14198 13.5332 6.77882 13.5332 6.53669 13.2916Z" fill="#FD86EA"/>
<path d="M16.7054 7.85417V3.92706C16.7054 3.32287 16.2212 2.83956 15.6159 2.83956H14.3449C14.3449 1.26875 13.0738 0 11.5002 0C9.9265 0 8.65545 1.26875 8.65545 2.83956H7.3844C6.77911 2.83956 6.29492 3.32287 6.29492 3.92706V7.85411H16.7054V7.85417Z" fill="#FFD15C"/>
</svg>
