<svg width="27" height="33" viewBox="0 0 27 33" xmlns="http://www.w3.org/2000/svg">
    <defs>
        <linearGradient x1=".442%" y1="-10.778%" x2="93.651%" y2="93.682%" id="9ddmmi0h3a">
            <stop stop-color="#00E0FC" offset="0%"/>
            <stop stop-color="#FF73F8" offset="49.555%"/>
            <stop stop-color="#F5D1B5" offset="100%"/>
        </linearGradient>
    </defs>
    <g fill-rule="nonzero" fill="none">
        <path d="M24.053 4.443H1.987C.891 4.443 0 5.251 0 6.328v24.1c0 1.01.89 1.885 1.987 1.885h22.135a1.899 1.899 0 0 0 1.919-1.885v-24.1c0-1.077-.891-1.885-1.988-1.885z" fill="url(#9ddmmi0h3a)"/>
        <path fill="#F8F0FF" d="M2.947 29.419V7.27h20.147v22.148z"/>
        <g fill="#E2D5EE">
            <path d="M5.893 24.975h14.254v1.548H5.893zM11.992 19.253h8.155v1.548h-8.155z"/>
        </g>
        <path d="m7.401 20.6-1.233-1.212a.723.723 0 0 1 0-1.01.755.755 0 0 1 1.027 0l.754.74 1.85-1.817a.755.755 0 0 1 1.028 0c.275.27.275.74 0 1.01L8.43 20.667c-.343.202-.754.202-1.028-.067z" fill="#FD86EA"/>
        <path fill="#E2D5EE" d="M11.992 13.464h8.155v1.548h-8.155z"/>
        <path d="M7.401 14.81 6.168 13.6a.723.723 0 0 1 0-1.01.755.755 0 0 1 1.027 0l.754.74 1.85-1.817a.755.755 0 0 1 1.028 0c.275.269.275.74 0 1.01L8.43 14.81c-.343.27-.754.27-1.028 0z" fill="#FD86EA"/>
        <path d="M18.914 8.752V4.376c0-.673-.548-1.212-1.234-1.212h-1.439c0-1.75-1.439-3.164-3.22-3.164C11.238 0 9.8 1.414 9.8 3.164H8.36c-.685 0-1.233.539-1.233 1.212v4.376h11.787z" fill="#FFD15C"/>
    </g>
</svg>
