<svg width="23" height="30" viewBox="0 0 23 30" xmlns="http://www.w3.org/2000/svg">
    <defs>
        <linearGradient x1="16.634%" y1="-10.778%" x2="79.389%" y2="93.682%" id="e8b2vusdxa">
            <stop stop-color="#00E0FC" offset="0%"/>
            <stop stop-color="#FF73F8" offset="49.555%"/>
            <stop stop-color="#F5D1B5" offset="100%"/>
        </linearGradient>
    </defs>
    <g fill-rule="nonzero" fill="none">
        <path d="M4.613 27.289C3.21 25.724 1.808 24.097.916 22.157a11.443 11.443 0 0 1-.701-6.697c.446-2.254 1.466-4.382 2.932-6.197-.128 1.565.446 3.192 1.53 4.382-.638-3.005.382-6.26 2.421-8.638C9.138 2.63 11.942 1.064 14.874 0c-1.466 1.502-1.657 3.88-1.084 5.883.574 2.003 1.785 3.756 2.868 5.57 1.084 1.816 2.104 3.694 2.167 5.76.574-1.065 1.211-2.129 1.594-3.318.382-1.19.573-2.441.255-3.63 1.147 1.377 1.784 2.754 2.103 4.506.319 1.753.255 3.568.064 5.32-.255 1.94-.765 3.943-1.849 5.57-1.274 1.94-3.314 3.318-5.544 4.069-3.952.688-7.84.125-10.835-2.441z" fill="url(#e8b2vusdxa)"/>
        <path d="M9.147 29.596c5.386 2.06 10.707-4.186 7.751-9.017 0-.064-.066-.064-.066-.128.263 2.64-.394 4.572-1.642 5.667.657-1.546.197-3.349-.591-4.895-.788-1.48-1.905-2.833-2.759-4.25-.854-1.481-1.51-3.156-1.117-4.83-1.576 1.16-2.693 2.898-3.153 4.766-.46 1.867-.197 3.928.657 5.667-.985-.708-1.708-1.868-1.773-3.091-1.052 1.223-1.708 2.833-1.643 4.443 0 2.512 2.037 4.766 4.336 5.668z" fill="#FFF"/>
    </g>
</svg>
