<svg width="21" height="28" viewBox="0 0 21 28" xmlns="http://www.w3.org/2000/svg">
    <defs>
        <linearGradient x1="21.849%" y1="-10.778%" x2="74.796%" y2="93.682%" id="gowcbra3ga">
            <stop stop-color="#00E0FC" offset="0%"/>
            <stop stop-color="#FF73F8" offset="49.555%"/>
            <stop stop-color="#F5D1B5" offset="100%"/>
        </linearGradient>
    </defs>
    <g fill-rule="nonzero" fill="none">
        <path d="M15.361 0s2.468 6.052-8.11 10.116c-5.748 2.208-10.163 7.868-4.892 16.61.437-3.907 2.309-12.524 10.358-14.49 0 0-7.492 2.808-8.154 15.516 3.85.541 12.878.905 15.559-6.946C23.662 10.432 15.36 0 15.36 0z" fill="#979FFF"/>
        <path d="M4.567 27.699c8.172-3.269 14.118-10.926 14.939-20.066C17.836 3.116 15.361 0 15.361 0s2.468 6.052-8.11 10.116c-5.748 2.208-10.163 7.868-4.892 16.61.437-3.907 2.309-12.524 10.358-14.49 0 0-7.47 2.8-8.15 15.463z" fill="url(#gowcbra3ga)"/>
    </g>
</svg>
