<svg width="25" height="25" viewBox="0 0 25 25" xmlns="http://www.w3.org/2000/svg">
    <g fill="none" fill-rule="evenodd">
        <circle fill="#FF5E54" cx="12.5" cy="12.5" r="12.5"/>
        <path d="M15.71 10.39h-.371V8.907a2.972 2.972 0 0 0-2.97-2.969 2.972 2.972 0 0 0-2.968 2.97v1.484H9.03c-.614 0-1.113.499-1.113 1.113v5.195c0 .614.5 1.113 1.113 1.113h6.68c.613 0 1.113-.499 1.113-1.113v-5.195c0-.614-.5-1.113-1.113-1.113zm-5.32-1.484c0-1.091.888-1.979 1.98-1.979 1.091 0 1.979.888 1.979 1.98v1.484H10.39V8.906z" fill="#FFF" fill-rule="nonzero"/>
    </g>
</svg>
