<svg width="32" height="25" viewBox="0 0 32 25" xmlns="http://www.w3.org/2000/svg">
    <defs>
        <linearGradient x1="36.448%" y1="-10.778%" x2="61.936%" y2="93.682%" id="99rezz0r9a">
            <stop stop-color="#00E0FC" offset="0%"/>
            <stop stop-color="#FF73F8" offset="49.555%"/>
            <stop stop-color="#F5D1B5" offset="100%"/>
        </linearGradient>
        <linearGradient x1="36.449%" y1="-10.778%" x2="61.936%" y2="93.682%" id="hckz6cyldb">
            <stop stop-color="#00E0FC" offset="0%"/>
            <stop stop-color="#FF73F8" offset="49.555%"/>
            <stop stop-color="#F5D1B5" offset="100%"/>
        </linearGradient>
    </defs>
    <g fill-rule="nonzero" fill="none">
        <path d="M4.895 0h-.003a1.14 1.14 0 0 0-1.14 1.145l.001 17.17c0 .63.514 1.144 1.147 1.146 2.665.006 7.13.562 10.211 3.785V5.276c0-.213-.054-.413-.157-.58C12.425.626 7.566.007 4.895 0z" fill="url(#99rezz0r9a)"/>
        <path d="M28.247 18.316V1.146A1.14 1.14 0 0 0 27.107 0h-.002c-2.671.006-7.53.625-10.059 4.697a1.097 1.097 0 0 0-.157.58v17.97c3.08-3.225 7.546-3.78 10.212-3.786a1.149 1.149 0 0 0 1.146-1.145z" fill="url(#hckz6cyldb)"/>
        <path d="M30.855 3.96h-.83v14.356a2.93 2.93 0 0 1-2.92 2.922c-2.261.006-5.989.448-8.629 2.947 4.566-1.118 9.38-.392 12.123.234A1.143 1.143 0 0 0 32 23.303V5.105c0-.631-.514-1.145-1.145-1.145zM1.975 18.316V3.96h-.83C.514 3.96 0 4.474 0 5.105v18.198a1.142 1.142 0 0 0 1.401 1.116c2.743-.626 7.557-1.353 12.123-.235-2.64-2.498-6.368-2.94-8.629-2.946a2.93 2.93 0 0 1-2.92-2.922z" fill="#FD86EA"/>
    </g>
</svg>
