<svg width="18" height="17" viewBox="0 0 18 17" xmlns="http://www.w3.org/2000/svg">
    <path d="M5.42 1.564c1.1.024 2.17.551 2.938 1.951.286.52.998.52 1.284 0 .768-1.4 1.84-1.927 2.939-1.951 1.1-.025 2.225.52 2.92 1.399 1.339 1.696 1.51 4.662-.451 6.74L9 15.188 2.95 9.702C.99 7.625 1.16 4.66 2.5 2.962c.695-.878 1.82-1.423 2.92-1.398zM5.452 0C3.881-.034 2.356.704 1.36 1.964c-1.843 2.333-1.954 6.211.543 8.848l.041.041 6.573 5.958c.278.252.69.252.967 0l6.573-5.958a.973.973 0 0 0 .041-.041c2.496-2.637 2.384-6.515.542-8.848C15.645.704 14.12-.034 12.548.001 11.246.03 9.99.791 9 2.04 8.011.792 6.755.03 5.452.001z" fill="#9D9D9D" fill-rule="nonzero"/>
</svg>
