<?xml version="1.0" encoding="utf-8"?>
<!-- Generator: Adobe Illustrator 26.0.1, SVG Export Plug-In . SVG Version: 6.00 Build 0)  -->
<svg version="1.1" id="Layer_1" xmlns="http://www.w3.org/2000/svg" xmlns:xlink="http://www.w3.org/1999/xlink" x="0px" y="0px"
	 viewBox="0 0 300 300" style="enable-background:new 0 0 300 300;" xml:space="preserve">
<style type="text/css">
	.st0{fill:#000100;}
</style>
<path class="st0" d="M201.81,96.37l-65.57,124.84l-9.1-50.38l-50.38-9.1l124.84-65.57"/>
<path class="st0" d="M285.16,149.65c0-75.78-61.43-137.21-137.21-137.21S10.75,73.88,10.75,149.65
	c0,75.78,61.43,137.21,137.21,137.21c32.66,0,62.48-11.6,86.02-30.67h-31.46v-32.35c-15.28,11.27-34.11,18-54.56,18
	c-50.91,0-92.19-41.27-92.19-92.19s41.27-92.19,92.19-92.19c50.91,0,92.19,41.27,92.19,92.19c0,18.08-5.26,34.91-14.27,49.12
	l-12.01-12.44v58.33h56.29l-12.5-12.96C274.84,208.82,285.16,180.49,285.16,149.65z"/>
</svg>
