<svg width="22" height="22" viewBox="0 0 22 22" fill="none" xmlns="http://www.w3.org/2000/svg">
<path d="M16.58 2.6041L16.8287 2.22986L16.58 2.6041C18.8229 4.09486 20.3493 6.36834 20.8814 9.00973C21.4125 11.651 20.8843 14.3376 19.3934 16.5805C17.9027 18.8233 15.629 20.3496 12.9875 20.8817H12.9873C12.3162 21.0171 11.643 21.0834 10.9752 21.0834C9.13828 21.0834 7.33884 20.5791 5.74351 19.6025L5.56651 19.4941L5.36631 19.5487L1.4247 20.6252C1.42431 20.6253 1.42391 20.6254 1.42351 20.6255C1.266 20.6668 1.10881 20.6155 1.0101 20.4979C0.908928 20.3774 0.888024 20.2104 0.953836 20.0717L0.954487 20.0703C1.84682 18.1737 1.99899 16.0254 1.38204 14.0216L1.38205 14.0215L1.38124 14.019C1.24933 13.599 1.14268 13.1613 1.06715 12.7232L1.06704 12.7227C0.115603 7.2494 3.79456 2.02015 9.26886 1.06588L9.28976 1.06275L9.31607 1.0588V1.05887L9.32432 1.05748C11.8631 0.631464 14.4374 1.17993 16.58 2.6041Z" stroke="#021730" stroke-width="1.5"/>
</svg>
