<svg width="12" height="11" viewBox="0 0 12 11" xmlns="http://www.w3.org/2000/svg">
    <path d="M11.853 10.231a.422.422 0 0 1 .13.433.468.468 0 0 1-.346.318.517.517 0 0 1-.473-.12L6.002 6.13.839 10.862a.516.516 0 0 1-.475.124.468.468 0 0 1-.348-.32.422.422 0 0 1 .135-.435l5.162-4.733L.151.766A.42.42 0 0 1 .16.144a.519.519 0 0 1 .678-.01l5.163 4.733L11.165.135a.517.517 0 0 1 .472-.12c.17.04.302.162.347.318a.422.422 0 0 1-.131.433L6.69 5.498l5.163 4.733z" fill="#141414" fill-rule="nonzero" opacity=".401"/>
</svg>
