<svg width="20" height="33" viewBox="0 0 20 33" fill="none" xmlns="http://www.w3.org/2000/svg">
<path d="M2.125 18.4375H8.875V30.0625C8.875 31.131 9.37956 32 10 32C10.6204 32 11.125 31.131 11.125 30.0625V18.4375H17.875C18.4954 18.4375 19 17.5685 19 16.5C19 15.4315 18.4954 14.5625 17.875 14.5625H11.125V2.9375C11.125 1.86896 10.6204 1 10 1C9.37956 1 8.875 1.86896 8.875 2.9375V14.5625H2.125C1.50456 14.5625 1 15.4315 1 16.5C1 17.5685 1.50456 18.4375 2.125 18.4375Z" fill="#AAB3C2" stroke="black" stroke-width="0.9375"/>
</svg>
