<svg width="20" height="28" viewBox="0 0 20 28" xmlns="http://www.w3.org/2000/svg">
    <defs>
        <linearGradient x1="16.407%" y1="-10.778%" x2="79.589%" y2="93.682%" id="ddln0r0ona">
            <stop stop-color="#00E0FC" offset="0%"/>
            <stop stop-color="#FF73F8" offset="49.555%"/>
            <stop stop-color="#F5D1B5" offset="100%"/>
        </linearGradient>
    </defs>
    <g fill-rule="nonzero" fill="none">
        <path d="M14.594 2.001v1.383c0 1.381-1.085 2.5-2.425 2.5H7.831c-1.34 0-2.425-1.119-2.425-2.5V2.002h2.132c.273-1.173 1.291-2 2.462-2 1.17 0 2.189.827 2.462 2h2.132z" fill="#717BF9"/>
        <path d="M20 4.501V25.5c0 1.38-1.086 2.5-2.425 2.5H2.425C1.085 28 0 26.88 0 25.5V4.501c0-1.38 1.086-2.5 2.425-2.5h2.98v1.383c0 1.381 1.086 2.5 2.426 2.5h4.338c1.34 0 2.425-1.119 2.425-2.5V2.002h2.98c1.34 0 2.426 1.12 2.426 2.5z" fill="url(#ddln0r0ona)"/>
        <path d="M10 5.884H7.831c-1.34 0-2.425-1.119-2.425-2.5V2.002h-2.98C1.085 2.001 0 3.121 0 4.501V25.5C0 26.88 1.086 28 2.425 28H10V5.884z" fill="#979FFF" opacity=".265"/>
        <path d="M10 0C8.826-.01 7.802.822 7.538 2.001H5.406v1.383c0 1.381 1.085 2.5 2.425 2.5H10V0z" fill="#5560E6"/>
        <path d="M8.845 19.367a.702.702 0 0 1-.5-.21l-2.882-2.9a.753.753 0 0 1-.012-1.041.7.7 0 0 1 1.01-.013l2.384 2.398 4.693-4.723a.7.7 0 0 1 1.009.014c.275.29.27.755-.01 1.04l-5.193 5.226a.702.702 0 0 1-.5.21z" fill="#FFF"/>
    </g>
</svg>
