<svg width="20" height="22" viewBox="0 0 20 22" xmlns="http://www.w3.org/2000/svg">
    <path d="m19.59 16.23-1.358-1.933a1.559 1.559 0 0 1-.286-.895V7.856C17.946 3.517 14.388 0 10 0S2.054 3.517 2.054 7.856v5.546c0 .32-.1.633-.286.895L.41 16.23a1.557 1.557 0 0 0-.273 1.69 1.59 1.59 0 0 0 1.45.934h4.52C6.484 20.684 8.112 22 10 22c1.89 0 3.517-1.316 3.893-3.146h4.522a1.59 1.59 0 0 0 1.449-.935 1.557 1.557 0 0 0-.273-1.689zM10 20.425a2.382 2.382 0 0 1-2.24-1.571h4.48a2.382 2.382 0 0 1-2.24 1.57zm-8.415-3.142a.638.638 0 0 0 .096-.11l1.39-1.98c.371-.525.57-1.15.572-1.791V7.856C3.643 4.385 6.49 1.57 10 1.57c3.51 0 6.357 2.814 6.357 6.285v5.546c.001.64.2 1.266.572 1.791l1.39 1.98c.028.04.06.077.096.11H1.585z" fill="#000" fill-rule="nonzero" opacity=".756"/>
</svg>
