<?xml version="1.0" encoding="utf-8"?>
<!-- Generator: Adobe Illustrator 26.0.1, SVG Export Plug-In . SVG Version: 6.00 Build 0)  -->
<svg version="1.1" id="Layer_1" xmlns="http://www.w3.org/2000/svg" xmlns:xlink="http://www.w3.org/1999/xlink" x="0px" y="0px"
	 viewBox="0 0 300 300" style="enable-background:new 0 0 300 300;" xml:space="preserve">
<style type="text/css">
	.st0{fill-rule:evenodd;clip-rule:evenodd;fill:#000100;}
</style>
<path class="st0" d="M29.99,91.43C30,90.9,41.16,55.62,91.1,30.28c1.26-0.64,54.88,30.96,63.84,39.43
	C154.94,69.71,74.07,73.52,29.99,91.43z M205.62,28.88c0.53-0.01,36.12,10.12,62.91,59.29c0.67,1.24-29.34,55.76-37.54,64.96
	C230.99,153.13,224.81,72.42,205.62,28.88z M192.1,276.71c-0.38,0.37-33.2,17.45-86.45,0.11c-1.34-0.44-16.97-60.68-17.33-73
	C88.32,203.82,148.26,258.25,192.1,276.71z M23.04,191.9c-0.37-0.38-17.18-33.35,0.6-86.44c0.45-1.34,60.82-16.47,73.14-16.73
	C96.78,88.73,41.87,148.21,23.04,191.9z M89.21,269.73c-0.53-0.01-35.68-11.59-60.43-61.81c-0.62-1.26,31.6-54.51,40.17-63.38
	C68.94,144.54,71.82,225.45,89.21,269.73z M274.86,104.79c0.38,0.37,18.3,32.75,2.32,86.42c-0.4,1.35-60.23,18.51-72.54,19.19
	C204.64,210.39,257.52,149.09,274.86,104.79z M105.41,24.27c0.38-0.37,33.01-17.81,86.44-1.04c1.34,0.42,17.62,60.5,18.11,72.81
	C209.96,96.04,149.45,42.26,105.41,24.27z M270.65,207.5c0,0.53-10.71,35.95-60.32,61.92c-1.25,0.65-55.27-30.26-64.33-38.61
	C145.99,230.81,226.8,225.96,270.65,207.5z"/>
</svg>
