<svg version="1.2" xmlns="http://www.w3.org/2000/svg" viewBox="0 0 7 11" width="7" height="11">
	<title>next-arrow-svg</title>
	<style>
		.s0 { fill: #272727 } 
	</style>
	<path id="Layer" class="s0" d="m0.7 5.5q0 0 0-0.1 0 0 0-0.1 0 0 0 0 0-0.1 0-0.1 0.1 0 0.1-0.1 0 0 0 0 0-0.1 0.1-0.1 0 0 0-0.1l4.9-4.7q0 0 0.1-0.1 0 0 0.1-0.1 0.1 0 0.1 0 0.1 0 0.2 0 0.1 0 0.3 0.1 0.1 0 0.2 0.1 0.1 0.1 0.1 0.2 0.1 0.2 0.1 0.3 0 0.3-0.2 0.5l-4.4 4.3 4.4 4.3q0.1 0 0.1 0.1 0.1 0.2 0.1 0.3 0 0.1 0 0.2 0 0.1-0.1 0.2 0 0.1-0.1 0.2-0.1 0.1-0.2 0.1 0 0.1-0.1 0.1-0.1 0-0.2 0-0.3 0-0.5-0.2l-4.9-4.7q0-0.1 0-0.1-0.1 0-0.1-0.1 0 0 0 0 0-0.1-0.1-0.1 0 0 0-0.1 0 0 0-0.1 0 0 0 0 0-0.1 0-0.1z"/>
</svg>