<svg width="151" height="156" viewBox="0 0 151 156" xmlns="http://www.w3.org/2000/svg">
    <g fill="none" fill-rule="evenodd">
        <path d="M74.5 2C115.645 2 149 35.355 149 76.5S115.645 151 74.5 151 0 117.645 0 76.5 33.355 2 74.5 2zm0 16.932c-31.794 0-57.568 25.774-57.568 57.568 0 31.794 25.774 57.568 57.568 57.568 31.794 0 57.568-25.774 57.568-57.568 0-31.794-25.774-57.568-57.568-57.568z" fill="#BD48B7" opacity=".2"/>
        <path d="M74.5 19.9c31.26 0 56.6 25.34 56.6 56.6s-25.34 56.6-56.6 56.6-56.6-25.34-56.6-56.6 25.34-56.6 56.6-56.6zm0 16.931c-21.908 0-39.669 17.76-39.669 39.669 0 21.908 17.76 39.669 39.669 39.669 21.908 0 39.669-17.76 39.669-39.669 0-21.908-17.76-39.669-39.669-39.669z" fill="#00E0FC" opacity=".2"/>
        <path d="M74.5 37.799c21.374 0 38.701 17.327 38.701 38.701S95.874 115.201 74.5 115.201 35.799 97.874 35.799 76.5 53.126 37.799 74.5 37.799zm0 16.932c-12.023 0-21.77 9.746-21.77 21.769 0 12.023 9.747 21.77 21.77 21.77s21.77-9.747 21.77-21.77-9.747-21.77-21.77-21.77z" fill="#FF4D4A" opacity=".2"/>
        <path d="m74.22.175 20.115 2.163 22.711 9.3 19.9 19.035 12.112 25.74 1.082 36.554-16.222 35.04-11.248 12.545-23.576 11.896-28.984 2.596-28.335-7.787L26.85 136.66l-1.669-4.264a8.466 8.466 0 1 1 11.463-12.325l1.021-.715 9.95 4.326 15.573 6.705 26.389-2.812 28.118-18.385 9.95-17.304-1.081-31.147-13.627-22.495-10.815-9.733-26.605-7.787-.115-1.817A8.466 8.466 0 1 1 74.336 2.01L74.22.176z" fill="#FF73F8"/>
        <path d="m74.756 17.16 40.28 9.276 23.127 50.7-11.182 37.485-21.856 14.232-9.911 2.922-.709-2.39a8.466 8.466 0 0 1-4.956-16.193l-2.468-6.068L74.756 38.38l-.001-1.55-.013.001a8.466 8.466 0 0 1-8.462-8.212l-.004-.254a8.466 8.466 0 0 1 8.466-8.466h.014v-2.74z" fill="#00E0FC"/>
        <path d="m80.81 31.569 34.32 15.815v36.793l-2.561-.525a8.466 8.466 0 1 1-16.588-3.406l-1.292-.265-19.473-22.377-.057-2.884a8.466 8.466 0 1 1-.336-16.921l-.037-1.927-2.69-3.012 8.715-1.291z" fill="#FF5E54"/>
    </g>
</svg>
