<svg width="21" height="25" viewBox="0 0 21 25" fill="none" xmlns="http://www.w3.org/2000/svg">
<path fill-rule="evenodd" clip-rule="evenodd" d="M3.25 9.55882L3.75 0H12.375H20.9999V9.55882V19.1176L16.6874 19.6078L12.375 19.1176L8.06248 19.6078L3.75 19.1176L3.25 9.55882Z" fill="white"/>
<path fill-rule="evenodd" clip-rule="evenodd" d="M0.75 22.0594C0.75 20.8893 1.6979 19.8535 3.74999 19.8535H12.375H17.294C18.5123 19.8535 19.4999 20.8411 19.4999 22.0594C19.4999 23.2777 18.5123 24.2653 17.294 24.2653H12.375H2.99999C1.7573 24.2653 0.75 23.2776 0.75 22.0594Z" fill="url(#paint0_linear_169_8465)"/>
<path d="M3.74998 19.1176C3.74998 18.5782 3.74998 0.538824 3.74998 0C3.48769 0 3.26229 0 2.99999 0C1.34584 0 0 1.31936 0 2.94118V22.0588L3.74998 19.1176Z" fill="white"/>
<path d="M3.74998 19.1176C3.74998 18.5782 3.74998 0.538824 3.74998 0C3.48769 0 3.26229 0 2.99999 0C1.34584 0 0 1.31936 0 2.94118V22.0588L3.74998 19.1176Z" fill="black" fill-opacity="0.0614731"/>
<path fill-rule="evenodd" clip-rule="evenodd" d="M10.0257 13.8654C9.20059 13.6497 8.62499 12.9043 8.62499 12.0514V11.9881C8.62499 11.0924 7.95633 10.3542 7.30279 9.74162C6.73292 9.20745 6.375 8.45464 6.375 7.61684C6.375 5.99503 7.72084 4.67567 9.37499 4.67567C9.37543 4.67567 9.37585 4.67546 9.37611 4.67511C10.0947 3.73761 11.2147 3.20508 12.375 3.20508C13.5831 3.20508 14.6843 3.77545 15.3741 4.67539C15.3742 4.67556 15.3744 4.67567 15.3746 4.67567H15.375C17.0292 4.67567 18.375 5.99513 18.375 7.61684C18.375 8.454 18.0173 9.20713 17.4471 9.74161C16.7936 10.3542 16.125 11.0924 16.125 11.9881V12.0514C16.125 12.9043 15.5494 13.6497 14.7242 13.8654C14.4133 13.9467 14.0867 13.9467 13.7757 13.8654L13.3125 13.7443C12.6978 13.5836 12.0521 13.5836 11.4375 13.7443L10.9742 13.8654C10.6633 13.9467 10.3367 13.9467 10.0257 13.8654Z" fill="url(#paint1_linear_169_8465)"/>
<path fill-rule="evenodd" clip-rule="evenodd" d="M7.125 14.2353C7.125 14.6414 7.4542 14.9706 7.86029 14.9706H12.375H16.8897C17.2958 14.9706 17.625 14.6414 17.625 14.2353C17.625 13.8292 17.2958 13.5 16.8897 13.5H12.375H7.86029C7.4542 13.5 7.125 13.8292 7.125 14.2353Z" fill="url(#paint2_linear_169_8465)"/>
<path fill-rule="evenodd" clip-rule="evenodd" d="M1.50008 22.0584C1.50008 21.2475 2.17293 20.5878 3.00008 20.5878H12.375H20.2647C20.6708 20.5878 21 20.2586 21 19.8525C21 19.4464 20.6745 19.1172 20.2685 19.1172H12.375H3.00008C2.17298 19.1172 1.42298 19.447 0.879784 19.9796C-0.292811 21.1291 -0.293711 22.9867 0.879784 24.1371C1.42298 24.6697 2.17298 24.9995 3.00008 24.9995H7.68756H12.375V24.9999H20.2647C20.6708 24.9999 21 24.6707 21 24.2646C21 23.8585 20.6702 23.5293 20.2641 23.5293H12.3753L12.375 23.529H3.00008C2.58653 23.529 2.21153 23.3641 1.93993 23.0977C1.66828 22.8315 1.50008 22.4639 1.50008 22.0584Z" fill="white"/>
<defs>
<linearGradient id="paint0_linear_169_8465" x1="-4.9249" y1="24.5591" x2="-0.636232" y2="12.7898" gradientUnits="userSpaceOnUse">
<stop stop-color="#00E0FC"/>
<stop offset="0.652517" stop-color="#FF73F8"/>
<stop offset="1" stop-color="#F5D1B5"/>
</linearGradient>
<linearGradient id="paint1_linear_169_8465" x1="2.74306" y1="14.7075" x2="18.1862" y2="3.61162" gradientUnits="userSpaceOnUse">
<stop stop-color="#00E0FC"/>
<stop offset="0.652517" stop-color="#FF73F8"/>
<stop offset="1" stop-color="#F5D1B5"/>
</linearGradient>
<linearGradient id="paint2_linear_169_8465" x1="3.94706" y1="15.0685" x2="4.86766" y2="10.8242" gradientUnits="userSpaceOnUse">
<stop stop-color="#00E0FC"/>
<stop offset="0.652517" stop-color="#FF73F8"/>
<stop offset="1" stop-color="#F5D1B5"/>
</linearGradient>
</defs>
</svg>
