<svg width="21" height="25" viewBox="0 0 21 25" xmlns="http://www.w3.org/2000/svg" xmlns:xlink="http://www.w3.org/1999/xlink">
    <defs>
        <linearGradient x1="3.482%" y1="-10.778%" x2="90.974%" y2="93.682%" id="yr2qcj44pa">
            <stop stop-color="#00E0FC" offset="0%"/>
            <stop stop-color="#FF73F8" offset="49.555%"/>
            <stop stop-color="#F5D1B5" offset="100%"/>
        </linearGradient>
        <linearGradient x1="48.359%" y1="-10.778%" x2="51.445%" y2="93.682%" id="747ssfifkb">
            <stop stop-color="#00E0FC" offset="0%"/>
            <stop stop-color="#FF73F8" offset="49.555%"/>
            <stop stop-color="#F5D1B5" offset="100%"/>
        </linearGradient>
        <path d="M3.75 19.118V0H3C1.346 0 0 1.32 0 2.941V22.06l3.75-2.941z" id="q301v1uyuc"/>
    </defs>
    <g fill-rule="nonzero" fill="none">
        <path d="m8.063 19.608-4.313-.49-.5-9.56L3.75 0H21v19.118l-4.312.49-4.313-.49-4.312.49z" fill="url(#yr2qcj44pa)"/>
        <path d="M3 24.265c-1.243 0-2.25-.988-2.25-2.206 0-1.17.948-2.206 3-2.206H19.5v4.412z" fill="#FFF5F5"/>
        <g>
            <use fill="url(#747ssfifkb)" xlink:href="#q301v1uyuc"/>
            <use fill-opacity=".061" fill="#000" xlink:href="#q301v1uyuc"/>
        </g>
        <path d="m10.5 12.99-1.875-.49V9.466c-1.284-.325-2.25-1.472-2.25-2.848 0-1.622 1.346-2.942 3-2.942l.14-.17a3.788 3.788 0 0 1 2.86-1.3l.225.007a3.78 3.78 0 0 1 2.774 1.463l.177.005c1.573.09 2.824 1.373 2.824 2.937 0 1.374-.964 2.522-2.25 2.848V12.5l-1.875.49-1.875-.49-1.875.49z" fill="#F8F0FF"/>
        <path d="M7.125 13.97V12.5h10.5v1.47h-10.5z" fill="#EFE3F9"/>
        <path d="M11.625 16.912h-5.25v-1.47h5.25v1.47z" fill="#FFF"/>
        <path d="M3 20.588c-.827 0-1.5.66-1.5 1.47 0 .406.168.774.44 1.04A1.51 1.51 0 0 0 3 23.53h18V25H3a3.02 3.02 0 0 1-2.12-.862 2.896 2.896 0 0 1 0-4.158A3.02 3.02 0 0 1 3 19.118h18v1.47z" fill="#EE75D4"/>
    </g>
</svg>
