<svg width="19" height="19" viewBox="0 0 19 19" xmlns="http://www.w3.org/2000/svg">
    <g fill="#FFF" fill-rule="nonzero" stroke="#FFF">
        <path d="M15.674 11.205v5.39a.566.566 0 0 1-.567.567H2.375a.566.566 0 0 1-.566-.566V3.847a.57.57 0 0 1 .566-.566H7.74a.404.404 0 1 0 0-.809H2.375A1.378 1.378 0 0 0 1 3.847v12.749a1.375 1.375 0 0 0 1.375 1.359h12.732c.754 0 1.367-.606 1.375-1.36v-5.38a.404.404 0 1 0-.808-.01z"/>
        <path d="M17.987 1.388a.398.398 0 0 0-.08-.233l-.056-.058A.398.398 0 0 0 17.583 1H11.56a.401.401 0 0 0-.278.11.44.44 0 0 0-.081.126.382.382 0 0 0-.03.15c0 .05.01.1.03.148.019.05.049.093.087.13l2.725 2.724-4.95 4.95a.408.408 0 0 0 .284.693.417.417 0 0 0 .288-.12l4.95-4.95 2.725 2.724A.404.404 0 0 0 18 7.397V1.388h-.013z"/>
    </g>
</svg>
