<svg width="18" height="16" viewBox="0 0 18 16" xmlns="http://www.w3.org/2000/svg">
    <path d="M17.028 15.266a.588.588 0 0 0 .587-.587c0-5.336-.675-9.773-8.808-9.975V.587a.587.587 0 0 0-.985-.431L.189 7.202a.585.585 0 0 0 0 .862l7.633 7.046a.587.587 0 0 0 .986-.431v-4.103c5.578.133 6.607 2.191 7.694 4.366.101.202.307.324.526.324zM8.22 9.394a.587.587 0 0 0-.587.588v3.356l-6.18-5.705 6.18-5.705v3.356c0 .325.263.588.587.588 6.487 0 7.883 2.508 8.158 6.515-1.216-1.634-3.289-2.993-8.158-2.993z" fill="#9D9D9D" fill-rule="nonzero"/>
</svg>
