<svg width="21" height="21" viewBox="0 0 21 21" xmlns="http://www.w3.org/2000/svg">
    <g fill-rule="nonzero" fill="none">
        <circle fill="#FABE2C" cx="10.5" cy="10.5" r="10.5"/>
        <circle fill="#FED843" cx="10.5" cy="10.5" r="7.998"/>
        <path d="M14.742 9.244a.487.487 0 0 0-.393-.332l-2.307-.335-1.032-2.09a.475.475 0 0 0-.436-.25.475.475 0 0 0-.437.25l-1.032 2.09-2.306.335a.487.487 0 0 0-.27.83l1.669 1.628-.394 2.298a.487.487 0 0 0 .706.513l2.064-1.085 2.063 1.085a.487.487 0 0 0 .706-.513l-.394-2.298 1.67-1.627a.487.487 0 0 0 .123-.5z" fill="#FABE2C"/>
    </g>
</svg>
