<svg version="1.2" xmlns="http://www.w3.org/2000/svg" viewBox="0 0 16 16" width="16" height="16">
	<title>send-svg</title>
	<style>
		.s0 { opacity: .3;fill: #ffffff } 
	</style>
	<path id="Layer" class="s0" d="m4.6 12.4l2.7 0.9-1.8 2.5q-0.1 0.1-0.3 0.2-0.1 0-0.3 0-0.1-0.1-0.2-0.2-0.1-0.1-0.1-0.3c0 0 0-3.1 0-3.1zm10.7-12.3q0-0.1 0.1-0.1 0.1 0 0.1 0 0.1 0 0.2 0 0 0.1 0.1 0.1c0.1 0.1 0.2 0.3 0.2 0.5l-1.8 12.4q-0.1 0.1-0.1 0.2 0 0.1-0.1 0.1-0.1 0.1-0.2 0.1 0 0-0.1 0-0.1 0-0.1 0 0 0 0 0 0 0-0.1 0 0 0 0 0l-7-2.4 6.9-8.3-8.9 7.6-4.2-1.4q-0.1-0.1-0.2-0.2-0.1-0.1-0.1-0.3 0-0.1 0.1-0.2 0-0.2 0.2-0.3z"/>
	<path id="Layer copy" class="s0" d="m4.6 12.4l2.7 0.9-1.8 2.5q-0.1 0.1-0.3 0.2-0.1 0-0.3 0-0.1-0.1-0.2-0.2-0.1-0.1-0.1-0.3c0 0 0-3.1 0-3.1zm10.7-12.3q0-0.1 0.1-0.1 0.1 0 0.1 0 0.1 0 0.2 0 0 0.1 0.1 0.1c0.1 0.1 0.2 0.3 0.2 0.5l-1.8 12.4q-0.1 0.1-0.1 0.2 0 0.1-0.1 0.1-0.1 0.1-0.2 0.1 0 0-0.1 0-0.1 0-0.1 0 0 0 0 0 0 0-0.1 0 0 0 0 0l-7-2.4 6.9-8.3-8.9 7.6-4.2-1.4q-0.1-0.1-0.2-0.2-0.1-0.1-0.1-0.3 0-0.1 0.1-0.2 0-0.2 0.2-0.3z"/>
	<path id="Layer copy 2" class="s0" d="m4.6 12.4l2.7 0.9-1.8 2.5q-0.1 0.1-0.3 0.2-0.1 0-0.3 0-0.1-0.1-0.2-0.2-0.1-0.1-0.1-0.3c0 0 0-3.1 0-3.1zm10.7-12.3q0-0.1 0.1-0.1 0.1 0 0.1 0 0.1 0 0.2 0 0 0.1 0.1 0.1c0.1 0.1 0.2 0.3 0.2 0.5l-1.8 12.4q-0.1 0.1-0.1 0.2 0 0.1-0.1 0.1-0.1 0.1-0.2 0.1 0 0-0.1 0-0.1 0-0.1 0 0 0 0 0 0 0-0.1 0 0 0 0 0l-7-2.4 6.9-8.3-8.9 7.6-4.2-1.4q-0.1-0.1-0.2-0.2-0.1-0.1-0.1-0.3 0-0.1 0.1-0.2 0-0.2 0.2-0.3z"/>
	<path id="Layer copy 3" class="s0" d="m4.6 12.4l2.7 0.9-1.8 2.5q-0.1 0.1-0.3 0.2-0.1 0-0.3 0-0.1-0.1-0.2-0.2-0.1-0.1-0.1-0.3c0 0 0-3.1 0-3.1zm10.7-12.3q0-0.1 0.1-0.1 0.1 0 0.1 0 0.1 0 0.2 0 0 0.1 0.1 0.1c0.1 0.1 0.2 0.3 0.2 0.5l-1.8 12.4q-0.1 0.1-0.1 0.2 0 0.1-0.1 0.1-0.1 0.1-0.2 0.1 0 0-0.1 0-0.1 0-0.1 0 0 0 0 0 0 0-0.1 0 0 0 0 0l-7-2.4 6.9-8.3-8.9 7.6-4.2-1.4q-0.1-0.1-0.2-0.2-0.1-0.1-0.1-0.3 0-0.1 0.1-0.2 0-0.2 0.2-0.3z"/>
	<path id="Layer copy 4" class="s0" d="m4.6 12.4l2.7 0.9-1.8 2.5q-0.1 0.1-0.3 0.2-0.1 0-0.3 0-0.1-0.1-0.2-0.2-0.1-0.1-0.1-0.3c0 0 0-3.1 0-3.1zm10.7-12.3q0-0.1 0.1-0.1 0.1 0 0.1 0 0.1 0 0.2 0 0 0.1 0.1 0.1c0.1 0.1 0.2 0.3 0.2 0.5l-1.8 12.4q-0.1 0.1-0.1 0.2 0 0.1-0.1 0.1-0.1 0.1-0.2 0.1 0 0-0.1 0-0.1 0-0.1 0 0 0 0 0 0 0-0.1 0 0 0 0 0l-7-2.4 6.9-8.3-8.9 7.6-4.2-1.4q-0.1-0.1-0.2-0.2-0.1-0.1-0.1-0.3 0-0.1 0.1-0.2 0-0.2 0.2-0.3z"/>
</svg>