<svg width="25" height="26" viewBox="0 0 25 26" xmlns="http://www.w3.org/2000/svg">
    <defs>
        <linearGradient x1="24.814%" y1="9.668%" x2="74.549%" y2="84.893%" id="eja6y2lgxa">
            <stop stop-color="#00E0FC" offset="0%"/>
            <stop stop-color="#FF73F8" offset="49.555%"/>
            <stop stop-color="#F5D1B5" offset="100%"/>
        </linearGradient>
    </defs>
    <path d="M12.5 8.478c-2.466 0-4.465 2.025-4.465 4.522 0 2.497 2 4.522 4.465 4.522 2.466 0 4.465-2.025 4.465-4.522-.008-2.494-2.002-4.514-4.465-4.522zM22.14 13a9.473 9.473 0 0 1-.092 1.263l2.717 2.154a.66.66 0 0 1 .147.836l-2.57 4.494a.646.646 0 0 1-.79.279l-3.195-1.3a9.825 9.825 0 0 1-2.166 1.281l-.478 3.436a.668.668 0 0 1-.642.557H9.929a.672.672 0 0 1-.642-.539l-.478-3.435a9.421 9.421 0 0 1-2.166-1.283l-3.195 1.3a.646.646 0 0 1-.79-.278l-2.57-4.494a.66.66 0 0 1 .147-.835l2.717-2.155A9.991 9.991 0 0 1 2.861 13c.002-.423.033-.844.091-1.263L.235 9.583a.66.66 0 0 1-.147-.836l2.57-4.494a.646.646 0 0 1 .79-.279l3.195 1.3a9.825 9.825 0 0 1 2.166-1.281L9.287.557A.668.668 0 0 1 9.93 0h5.142c.311.006.578.23.642.539l.478 3.435c.776.328 1.505.76 2.169 1.283l3.192-1.3a.646.646 0 0 1 .79.278l2.57 4.494a.66.66 0 0 1-.147.836l-2.717 2.154c.058.425.088.853.091 1.281z" fill="url(#eja6y2lgxa)" fill-rule="nonzero"/>
</svg>
