<svg width="18" height="16" viewBox="0 0 18 16" xmlns="http://www.w3.org/2000/svg">
    <path d="M.587 15.266A.588.588 0 0 1 0 14.68c0-5.336.675-9.773 8.807-9.975V.587a.587.587 0 0 1 .986-.431l7.633 7.046a.585.585 0 0 1 0 .862L9.793 15.11a.587.587 0 0 1-.986-.431v-4.103c-5.578.133-6.607 2.191-7.695 4.366a.587.587 0 0 1-.525.324zm8.808-5.872c.324 0 .587.263.587.588v3.356l6.18-5.705-6.18-5.705v3.356a.587.587 0 0 1-.587.588c-6.487 0-7.884 2.508-8.158 6.515 1.216-1.634 3.289-2.993 8.158-2.993z" fill="#9D9D9D" fill-rule="nonzero"/>
</svg>
