<svg version="1.2" xmlns="http://www.w3.org/2000/svg" viewBox="0 0 17 21" width="17" height="21">
	<title>bag-svg</title>
	<style>
		.s0 { fill: #ffffff } 
	</style>
	<g id="Layer">
		<path id="Layer" fill-rule="evenodd" class="s0" d="m16 18.1q0 0.4-0.1 0.8-0.2 0.4-0.5 0.7-0.3 0.3-0.7 0.5-0.3 0.2-0.8 0.2h-10.8q-0.5 0-0.8-0.2-0.4-0.2-0.7-0.5-0.3-0.3-0.5-0.7-0.1-0.4-0.1-0.8l0.6-10.9q0-0.2 0.1-0.3 0-0.1 0.1-0.2 0.1-0.1 0.2-0.1 0.2-0.1 0.3-0.1h2.8v-2.1c-0.1-0.9 0.3-1.8 0.9-2.4 0.7-0.7 1.6-1.1 2.5-1.1 0.9 0 1.8 0.4 2.5 1.1 0.6 0.6 1 1.5 0.9 2.4v2.1h2.8q0.1 0 0.2 0.1 0.2 0 0.3 0.1 0.1 0.1 0.1 0.2 0.1 0.1 0.1 0.3zm-9.6-11.6h4.1v-2.1c0-0.5-0.2-1.1-0.6-1.5-0.3-0.3-0.9-0.6-1.4-0.6-0.6 0-1.1 0.3-1.5 0.6-0.4 0.4-0.6 1-0.6 1.5z"/>
	</g>
</svg>