<svg width="14" height="8" viewBox="0 0 14 8" fill="none" xmlns="http://www.w3.org/2000/svg">
<path d="M12.6249 0.875H1.37487C1.25127 0.875026 1.13046 0.911696 1.02771 0.980374C0.924949 1.04905 0.844862 1.14665 0.797568 1.26084C0.750274 1.37503 0.737897 1.50067 0.762002 1.6219C0.786107 1.74312 0.845611 1.85447 0.932992 1.94188L6.55799 7.56688C6.61601 7.62493 6.68489 7.67098 6.76071 7.7024C6.83653 7.73382 6.9178 7.75 6.99987 7.75C7.08194 7.75 7.16321 7.73382 7.23903 7.7024C7.31485 7.67098 7.38373 7.62493 7.44174 7.56688L13.0667 1.94188C13.1541 1.85447 13.2136 1.74312 13.2377 1.6219C13.2618 1.50067 13.2495 1.37503 13.2022 1.26084C13.1549 1.14665 13.0748 1.04905 12.972 0.980374C12.8693 0.911696 12.7485 0.875026 12.6249 0.875Z" fill="black"/>
</svg>
