<svg width="14" height="8" viewBox="0 0 14 8" fill="none" xmlns="http://www.w3.org/2000/svg">
<path d="M1.37487 7.12502H12.6249C12.7485 7.125 12.8693 7.08833 12.972 7.01965C13.0748 6.95097 13.1549 6.85337 13.2022 6.73918C13.2495 6.62499 13.2618 6.49935 13.2377 6.37813C13.2136 6.25691 13.1541 6.14555 13.0667 6.05815L7.44174 0.433147C7.38373 0.375086 7.31485 0.329026 7.23903 0.2976C7.16321 0.266175 7.08194 0.25 6.99987 0.25C6.91779 0.25 6.83652 0.266175 6.7607 0.2976C6.68488 0.329026 6.616 0.375086 6.55799 0.433147L0.932992 6.05815C0.845611 6.14555 0.786107 6.25691 0.762002 6.37813C0.737897 6.49935 0.750274 6.62499 0.797568 6.73918C0.844862 6.85337 0.924949 6.95097 1.02771 7.01965C1.13046 7.08833 1.25127 7.125 1.37487 7.12502Z" fill="black"/>
</svg>
