<svg width="12" height="14" viewBox="0 0 12 14" xmlns="http://www.w3.org/2000/svg">
    <g fill="#313131" fill-rule="nonzero">
        <path d="M3.225 7.335V4.509c0-.415.337-.752.752-.752h2.66l-.209 1.084c0 .375.452.564.718.299l.755-.755L9.356 2.93a.426.426 0 0 0 .125-.3.425.425 0 0 0-.125-.297L7.901.878 7.146.124a.421.421 0 0 0-.718.299l.209 1.083H3.08A2.107 2.107 0 0 0 .974 3.613v3.769c0 .633.523 1.144 1.16 1.125.616-.019 1.091-.556 1.091-1.172zM9.723 5.689v2.825a.752.752 0 0 1-.752.752h-2.66l.209-1.083a.421.421 0 0 0-.718-.3l-.755.755-1.455 1.455a.426.426 0 0 0-.125.3c0 .107.042.213.125.297l1.455 1.455.755.755a.421.421 0 0 0 .718-.3l-.209-1.083h3.556a2.107 2.107 0 0 0 2.107-2.107V5.642c0-.633-.523-1.144-1.16-1.125-.616.018-1.091.555-1.091 1.172z"/>
    </g>
</svg>
