<svg width="35" height="35" viewBox="0 0 35 35" xmlns="http://www.w3.org/2000/svg">
    <g transform="matrix(1 0 0 -1 0 35)" fill="none" fill-rule="evenodd">
        <rect fill="#FFF" width="35" height="35" rx="17.5"/>
        <path d="m17.965 21.267 5.302-5.302a.647.647 0 0 0 .19-.46.647.647 0 0 0-.19-.462l-.39-.39a.653.653 0 0 0-.922 0l-4.453 4.452-4.457-4.457a.648.648 0 0 0-.46-.19.648.648 0 0 0-.462.19l-.39.39a.647.647 0 0 0-.19.461c0 .175.067.339.19.461l5.307 5.307c.123.123.287.19.462.19.176 0 .34-.067.463-.19z" fill="#313131" fill-rule="nonzero"/>
    </g>
</svg>
