<svg version="1.2" xmlns="http://www.w3.org/2000/svg" viewBox="0 0 16 4" width="16" height="4">
	<title>group-7-svg</title>
	<defs>
		<filter x="-50%" y="-50%" width="200%" height="200%" id="f1" ><feDropShadow dx="-1.8369701987210297e-16" dy="3" stdDeviation="5" flood-color="#000000" flood-opacity=".1"/></filter>
		<filter x="-50%" y="-50%" width="200%" height="200%" id="f2" ><feDropShadow dx="-1.8369701987210297e-16" dy="3" stdDeviation="5" flood-color="#000000" flood-opacity=".1"/></filter>
		<filter x="-50%" y="-50%" width="200%" height="200%" id="f3" ><feDropShadow dx="-1.8369701987210297e-16" dy="3" stdDeviation="5" flood-color="#000000" flood-opacity=".1"/></filter>
		<filter x="-50%" y="-50%" width="200%" height="200%" id="f4" ><feDropShadow dx="-1.8369701987210297e-16" dy="3" stdDeviation="5" flood-color="#000000" flood-opacity=".1"/></filter>
		<filter x="-50%" y="-50%" width="200%" height="200%" id="f5" ><feDropShadow dx="-1.8369701987210297e-16" dy="3" stdDeviation="5" flood-color="#000000" flood-opacity=".1"/></filter>
		<filter x="-50%" y="-50%" width="200%" height="200%" id="f6" ><feDropShadow dx="-1.8369701987210297e-16" dy="3" stdDeviation="5" flood-color="#000000" flood-opacity=".1"/></filter>
	</defs>
	<style>
		.s0 { filter: url(#f1);fill: #000000 } 
		.s1 { filter: url(#f2);fill: #5a7fa0 } 
		.s2 { filter: url(#f3);fill: #000000 } 
		.s3 { filter: url(#f4);fill: #5a7fa0 } 
		.s4 { filter: url(#f5);fill: #000000 } 
		.s5 { filter: url(#f6);fill: #5a7fa0 } 
	</style>
	<g id="Layer">
		<g id="Layer">
			<path id="b3osi9tmob" class="s0" d="m2 4c-1.1 0-2-0.9-2-2 0-1.1 0.9-2 2-2 1.1 0 2 0.9 2 2 0 1.1-0.9 2-2 2z"/>
			<path id="b3osi9tmob" class="s1" d="m2 4c-1.1 0-2-0.9-2-2 0-1.1 0.9-2 2-2 1.1 0 2 0.9 2 2 0 1.1-0.9 2-2 2z"/>
		</g>
		<g id="Layer">
			<path id="ugkve1mzad" class="s2" d="m8 4c-1.1 0-2-0.9-2-2 0-1.1 0.9-2 2-2 1.1 0 2 0.9 2 2 0 1.1-0.9 2-2 2z"/>
			<path id="ugkve1mzad" class="s3" d="m8 4c-1.1 0-2-0.9-2-2 0-1.1 0.9-2 2-2 1.1 0 2 0.9 2 2 0 1.1-0.9 2-2 2z"/>
		</g>
		<g id="Layer">
			<path id="1elp83xu6f" class="s4" d="m14 4c-1.1 0-2-0.9-2-2 0-1.1 0.9-2 2-2 1.1 0 2 0.9 2 2 0 1.1-0.9 2-2 2z"/>
			<path id="1elp83xu6f" class="s5" d="m14 4c-1.1 0-2-0.9-2-2 0-1.1 0.9-2 2-2 1.1 0 2 0.9 2 2 0 1.1-0.9 2-2 2z"/>
		</g>
	</g>
</svg>