<svg viewBox="0 0 161.396 112.713" xml:space="preserve" xmlns="http://www.w3.org/2000/svg"><path d="M37.306 112.806c-6.537-.666-11.306-2.096-16.404-4.92C9.826 101.751 2.412 90.702.912 78.094c-.526-4.429-.526-38.517 0-42.946 1.045-8.779 4.875-16.755 11.03-22.97 3.202-3.233 6.41-5.552 10.415-7.531 3.814-1.884 5.617-2.542 9.08-3.313C36.208.27 38.174.233 83.212.324c47.608.097 44.497-.006 50.226 1.655 13.769 3.99 24.24 15.348 27.476 29.803l.615 2.746v44.186l-.615 2.746c-3.237 14.46-13.703 25.812-27.476 29.803-5.747 1.666-2.49 1.563-51.02 1.602-24.301.02-44.601-.007-45.11-.06zm90.387-7.109c8.965-1.528 16.95-6.774 21.938-14.416 2.846-4.36 4.513-8.906 5.14-14.016.368-3.002.368-38.286 0-41.289-1.76-14.36-12.833-26.028-26.958-28.411-2.21-.374-7.508-.421-46.699-.42-48.197 0-46.093-.061-51.05 1.498C18.632 12.24 9.728 22.486 7.8 34.263c-.574 3.507-.574 41.209 0 44.715 2.201 13.45 13.188 24.434 26.711 26.707 1.732.292 10.487.364 46.483.386 38.473.023 44.66-.026 46.699-.374zM65.21 79.625c-.442-.13-1.157-.604-1.588-1.054l-.783-.818V35.489l.78-.815c.945-.986 2.36-1.423 3.525-1.09.46.133 3.074 1.543 5.807 3.135a3036.57 3036.57 0 0 0 11.319 6.548c20.307 11.683 19.447 11.092 19.447 13.354 0 1.849-.797 2.595-5.953 5.572C77.542 73.869 72.547 76.75 70.247 78.069c-2.854 1.635-3.787 1.924-5.037 1.556z" style="fill: currentColor; stroke-width: 0.264583;"></path></svg>