<svg width="25" height="32" viewBox="0 0 25 32" xmlns="http://www.w3.org/2000/svg">
    <defs>
        <linearGradient x1="-6.766%" y1="2.551%" x2="100%" y2="84.102%" id="yp1wtkluca">
            <stop stop-color="#00E0FC" offset="0%"/>
            <stop stop-color="#FF73F8" offset="49.555%"/>
            <stop stop-color="#F5D1B5" offset="100%"/>
        </linearGradient>
    </defs>
    <g fill-rule="nonzero" fill="none">
        <path d="M23.433.316c.729 0 1.293.618 1.203 1.318l-1.342 10.487-2.605 1.267-3.548.518-3.816-1.097-3.324-2.771-2.308-.373-1.538-.248-4.36 1.613-.287-.36L.35 1.635C.261.934.826.316 1.555.316z" fill="#F8F0FF"/>
        <path d="m3.898 27.919-.56-.602-2.172-16.963c1.138-.728 3.576-1.995 6.368-1.682l-.273-.025c.088.006.176.015.264.024l.009.001.253.033c1.412.206 2.907.826 4.365 2.13 4.339 3.88 9.007 1.709 10.852.564l-2.037 15.918-.491.602H3.898z" fill="url(#yp1wtkluca)" transform="translate(.342 .316)"/>
        <path d="M6.742 31.709c-1.451 0-2.675-1.047-2.854-2.44l-.209-1.636h17.63l-.21 1.636c-.178 1.393-1.402 2.44-2.854 2.44z" fill="#F197C7"/>
    </g>
</svg>
