<svg width="375" height="133" viewBox="0 0 375 133" xmlns="http://www.w3.org/2000/svg" xmlns:xlink="http://www.w3.org/1999/xlink">
    <defs>
        <path id="k25dn0xrza" d="M0 0h375v133H0z"/>
    </defs>
    <g fill="none" fill-rule="evenodd">
        <mask id="iwz2s4q83b" fill="#fff">
            <use xlink:href="#k25dn0xrza"/>
        </mask>
        <g mask="url(#iwz2s4q83b)" fill="#FFF">
            <path d="M-28.235 68.406c100.035 33.345 171.171 40.57 213.408 21.675C248.53 61.737 368.571.049 448.6 68.406c53.352 45.572 53.352 85.03 0 118.375H-28.235V68.406z" opacity=".1"/>
            <path d="M-38 79.452c98.924-44.46 178.952-56.687 240.084-36.68 91.699 30.01 158.389-41.68 215.075 8.337 37.791 33.345 37.791 82.806 0 148.385L-38 204.496V79.452z" opacity=".2"/>
            <path d="M-5.465 41.674c82.251-28.899 147.274-28.899 195.068 0 56.853 34.376 170.854 32.309 205.072 38.347 18.896 3.335 36.68 12.227 53.352 26.676V209.59l-453.492-1.667V41.674z" opacity=".1"/>
        </g>
    </g>
</svg>
