<?xml version="1.0" encoding="UTF-8"?>
<svg
   xmlns="http://www.w3.org/2000/svg"
   xmlns:xlink="http://www.w3.org/1999/xlink"
   version="1.1"
   x="0px"
   y="0px"
   viewBox="0 0 21 19"
   style="enable-background:new 0 0 21 19;"
   xml:space="preserve"
>
  <g>
    <g transform="translate(-107.000000, -831.000000)">
      <g transform="translate(107.000000, 831.000000)">
        <path
          d="M20,8.5h-3.8c-0.4,0-0.8,0.3-0.9,0.6l-2,5.8L8.5,0.6C8.4,0.3,8,0,7.6,0S6.9,0.3,6.7,0.6L4.1,8.5H1     c-0.5,0-1,0.4-1,1s0.4,1,1,1h3.8c0.4,0,0.8-0.3,0.9-0.6l2-5.8l4.8,14.4c0.1,0.4,0.5,0.6,0.9,0.6s0.8-0.3,0.9-0.6l2.6-7.9H20     c0.5,0,1-0.4,1-1C21,9,20.6,8.5,20,8.5z"
          fill="currentColor"
        >
        </path>
      </g>
    </g>
  </g>
</svg>
