<?xml version="1.0" encoding="UTF-8"?>
<svg width="31px" height="26px" viewBox="0 0 31 26" version="1.1" xmlns="http://www.w3.org/2000/svg" xmlns:xlink="http://www.w3.org/1999/xlink">
    <title>account-details-1</title>
    <g id="Page-1" stroke="none" stroke-width="1" fill="none" fill-rule="evenodd">
        <g id="My-Settings" transform="translate(-672.000000, -958.000000)" fill="#539B97" fill-rule="nonzero">
            <g id="Account-Details" transform="translate(641.000000, 946.000000)">
                <g id="account-details-1" transform="translate(31.000000, 12.000000)">
                    <path d="M19.5234087,15.7333333 C17.9296611,15.3666667 16.3359134,15 14.5429473,15 C7.96873825,15 1.99218456,19.2166667 0,25.0833333 C0,25.45 0.199218456,25.8166667 0.597655369,26 C0.597655369,26 0.796873825,26 0.796873825,26 C1.19531074,26 1.39452919,25.8166667 1.59374765,25.45 C3.1874953,20.1333333 8.56639362,16.4666667 14.7421658,16.4666667 C16.3359134,16.4666667 17.7304426,16.65 19.1249718,17.2 C19.3241903,17.2 19.9218456,17.0166667 19.9218456,16.65 C20.1210641,16.2833333 19.9218456,15.9166667 19.5234087,15.7333333 Z" id="Path"></path>
                    <path d="M8,6.5 C8,10.0898509 10.9101491,13 14.5,13 C18.0898509,13 21,10.0898509 21,6.5 C21,2.91014913 18.0898509,0 14.5,0 C10.9101491,0 8,2.91014913 8,6.5 L8,6.5 Z" id="Path"></path>
                    <path d="M28.962963,13 L23.037037,13 C21.9259259,13 21,13.9848485 21,15.1666667 L21,23.8333333 C21,25.0151515 21.9259259,26 23.037037,26 L28.962963,26 C30.0740741,26 31,25.0151515 31,23.8333333 L31,15.1666667 C31,13.9848485 30.0740741,13 28.962963,13 Z M29.5185185,23.8333333 C29.5185185,24.2272727 29.1481481,24.6212121 28.7777778,24.6212121 L22.8518519,24.6212121 C22.4814815,24.6212121 22.1111111,24.2272727 22.1111111,23.8333333 L22.1111111,15.1666667 C22.1111111,14.7727273 22.4814815,14.3787879 22.8518519,14.3787879 L28.7777778,14.3787879 C29.1481481,14.3787879 29.5185185,14.7727273 29.5185185,15.1666667 L29.5185185,23.8333333 Z" id="Shape"></path>
                    <path d="M28.5555556,20 L23.4444444,20 C23.2222222,20 23,20.25 23,20.5 C23,20.75 23.2222222,21 23.4444444,21 L28.5555556,21 C28.7777778,21 29,20.75 29,20.5 C29,20.25 28.7777778,20 28.5555556,20 Z" id="Path"></path>
                    <path d="M28.625,18 L26.375,18 C26.1875,18 26,18.25 26,18.5 C26,18.75 26.1875,19 26.375,19 L28.625,19 C28.8125,19 29,18.75 29,18.5 C29,18.25 28.8125,18 28.625,18 Z" id="Path"></path>
                </g>
            </g>
        </g>
    </g>
</svg>