<?xml version="1.0" encoding="UTF-8"?>
<svg width="28px" height="27px" viewBox="0 0 28 27" version="1.1" xmlns="http://www.w3.org/2000/svg" xmlns:xlink="http://www.w3.org/1999/xlink">
    <title>address-20</title>
    <g id="Page-1" stroke="none" stroke-width="1" fill="none" fill-rule="evenodd">
        <g id="My-Settings" transform="translate(-669.000000, -819.000000)" fill="#55A66A" fill-rule="nonzero">
            <g id="Addresses" transform="translate(641.000000, 806.000000)">
                <g id="address-20" transform="translate(28.000000, 13.000000)">
                    <path d="M27.7141333,6.464 L24.3363556,3.536 C24.1443556,3.3872 23.8755556,3.2544 23.5953778,3.1568 C23.3137778,3.0592 23.0222222,3 22.7889778,3 L13.0666667,3 L14.2058667,11 L22.7889778,11 C23.0222222,11 23.3137778,10.9408 23.5939556,10.8432 C23.8741333,10.7456 24.1443556,10.6112 24.3349333,10.4656 L27.7127111,7.5344 C27.9047111,7.3888 28,7.1952 28,7 C28,6.8048 27.9047111,6.6112 27.7141333,6.464 Z M12.3407407,0 L10.8888889,0 C10.4881778,0 10.162963,0.336 10.162963,0.75 L10.162963,6 L5.31958519,6 C5.07857778,6 4.7824,6.0555 4.49638519,6.1485 C4.20891852,6.2385 3.93451852,6.363 3.73997037,6.5025 L0.291822222,9.2475 C0.0958222222,9.384 0,9.567 0,9.75 C0,9.9315 0.0958222222,10.113 0.291822222,10.2525 L3.73997037,13.0005 C3.93451852,13.137 4.20891852,13.263 4.49638519,13.353 C4.7824,13.4445 5.07857778,13.5 5.31958519,13.5 L10.162963,13.5 L10.162963,26.25 C10.162963,26.664 10.4881778,27 10.8888889,27 L12.3407407,27 C12.7414519,27 13.0666667,26.664 13.0666667,26.25 L13.0666667,0.75 C13.0666667,0.336 12.7414519,0 12.3407407,0 Z" id="Shape"></path>
                </g>
            </g>
        </g>
    </g>
</svg>