<?xml version="1.0" encoding="UTF-8"?>
<svg width="26px" height="26px" viewBox="0 0 26 26" version="1.1" xmlns="http://www.w3.org/2000/svg" xmlns:xlink="http://www.w3.org/1999/xlink">
    <title>blocked-5</title>
    <g id="Page-1" stroke="none" stroke-width="1" fill="none" fill-rule="evenodd">
        <g id="My-Settings" transform="translate(-668.000000, -533.000000)" fill="#885FFF" fill-rule="nonzero">
            <g id="Blocked-members" transform="translate(641.000000, 520.000000)">
                <g id="blocked-5" transform="translate(27.000000, 13.000000)">
                    <path d="M22.192625,3.807375 C19.73725,1.352 16.472625,0 13,0 C9.527375,0 6.26275,1.352 3.807375,3.807375 C1.352,6.26275 0,9.527375 0,13 C0,16.472625 1.352,19.73725 3.807375,22.192625 C6.26275,24.648 9.527375,26 13,26 C16.472625,26 19.73725,24.648 22.192625,22.192625 C24.648,19.73725 26,16.472625 26,13 C26,9.527375 24.648,6.26275 22.192625,3.807375 Z M22.75,13 C22.75,15.10275 22.0805,17.0519375 20.944625,18.6460625 L7.3539375,5.055375 C8.9480625,3.9186875 10.89725,3.25 13,3.25 C18.3763125,3.25 22.75,7.6236875 22.75,13 Z M3.25,13 C3.25,10.89725 3.9195,8.9480625 5.055375,7.3539375 L18.6460625,20.944625 C17.0519375,22.0813125 15.10275,22.75 13,22.75 C7.6236875,22.75 3.25,18.3763125 3.25,13 Z" id="Shape"></path>
                </g>
            </g>
        </g>
    </g>
</svg>