<?xml version="1.0" encoding="UTF-8"?>
<svg width="39px" height="26px" viewBox="0 0 39 26" version="1.1" xmlns="http://www.w3.org/2000/svg" xmlns:xlink="http://www.w3.org/1999/xlink">
    <title>cloud-47</title>
    <g id="Page-1" stroke="none" stroke-width="1" fill="none" fill-rule="evenodd">
        <g id="My-Settings" transform="translate(-665.000000, -679.000000)" fill="#B18BF6" fill-rule="nonzero">
            <g id="Export-Data" transform="translate(641.000000, 666.000000)">
                <g id="cloud-47" transform="translate(24.000000, 13.000000)">
                    <path d="M30.5010406,9.074885 C30.2991425,9.074885 30.1068585,9.11793928 29.9097675,9.13229071 C28.6503076,3.89880405 23.9489652,0 18.3006244,0 C13.0464656,0 8.62874198,3.39172033 7.02317105,8.07985281 C6.99432846,8.12769089 6.96067877,8.17074517 6.93183618,8.22336707 C2.90348755,9.1849126 0,12.7536339 0,16.9681693 C0,21.9481141 4.07161251,26 9.07580215,26 C10.969799,26 29.9289959,26 30.5010406,26 C35.1975759,26 39,22.2112236 39,17.5422263 C39.004798,12.8636615 35.1975759,9.074885 30.5010406,9.074885 Z M30.5010406,22.9335787 L9.07580215,22.9335787 C5.76851832,22.9335787 3.0765431,20.2546458 3.0765431,16.9633855 C3.0765431,14.2126955 4.95611865,11.8399264 7.65290097,11.198896 C8.45568643,11.0075437 9.14790863,10.50046 9.57093331,9.80202392 C9.61900429,9.72548298 9.68149657,9.625023 9.71514626,9.5676173 C9.80167404,9.40975161 9.87858762,9.24231831 9.9362728,9.0701012 C11.1716971,5.4774609 14.5318591,3.06163753 18.3054315,3.06163753 C22.4155008,3.06163753 25.9583324,5.85059798 26.9197521,9.84986201 C27.2514419,11.2323827 28.4964805,12.1987121 29.9097675,12.1987121 C29.9818739,12.1987121 30.0539804,12.1939282 30.1260869,12.1891444 C30.275107,12.1795768 30.424127,12.1604416 30.5010406,12.1365225 C33.4910559,12.1365225 35.9234549,14.5571297 35.9234549,17.5326587 C35.9282549,20.5129715 33.495863,22.9335787 30.5010406,22.9335787 Z" id="Shape"></path>
                    <path d="M22.2400442,14.840625 L21.1173502,15.88125 L21.1173502,7.5 C21.1173502,6.6703125 20.3941735,6 19.4990527,6 C18.6039319,6 17.8807552,6.6703125 17.8807552,7.5 L17.8807552,15.88125 L16.7580613,14.840625 C16.1259138,14.2546875 15.0993064,14.2546875 14.4722161,14.840625 C13.8451258,15.4265625 13.8400686,16.378125 14.4722161,16.959375 L18.3561301,20.559375 C18.6696753,20.85 19.084364,21 19.4990527,21 C19.9137415,21 20.3284302,20.8546875 20.6419754,20.559375 L24.5258894,16.959375 C25.1580369,16.3734375 25.1580369,15.421875 24.5258894,14.840625 C23.8937419,14.259375 22.8721916,14.2546875 22.2400442,14.840625 Z" id="Path"></path>
                </g>
            </g>
        </g>
    </g>
</svg>