<?xml version="1.0" encoding="UTF-8"?>
<svg width="33px" height="26px" viewBox="0 0 33 26" version="1.1" xmlns="http://www.w3.org/2000/svg" xmlns:xlink="http://www.w3.org/1999/xlink">
    <title>credit-card-22</title>
    <g id="Page-1" stroke="none" stroke-width="1" fill="none" fill-rule="evenodd">
        <g id="My-Settings" transform="translate(-671.000000, -890.000000)" fill="#7C91FF" fill-rule="nonzero">
            <g id="Payment-Methods" transform="translate(641.000000, 876.000000)">
                <g id="credit-card-22" transform="translate(30.000000, 14.000000)">
                    <path d="M31.8214286,0 L1.17857143,0 C0.526674107,0 0,0.528125 0,1.18181818 L0,24.8181818 C0,25.471875 0.526674107,26 1.17857143,26 L31.8214286,26 C32.4733259,26 33,25.471875 33,24.8181818 L33,1.18181818 C33,0.528125 32.4733259,0 31.8214286,0 Z M2.65178571,2.65909091 L30.3482143,2.65909091 L30.3482143,7.09090909 L2.65178571,7.09090909 L2.65178571,2.65909091 Z M30.3482143,23.3409091 L2.65178571,23.3409091 L2.65178571,10.3409091 L30.3482143,10.3409091 L30.3482143,23.3409091 Z" id="Shape"></path>
                    <path d="M21.3093923,22 L27.6906077,22 C27.8607735,22 28,21.8363636 28,21.6363636 L28,18.3636364 C28,18.1636364 27.8607735,18 27.6906077,18 L21.3093923,18 C21.1392265,18 21,18.1636364 21,18.3636364 L21,21.6363636 C21,21.8363636 21.1392265,22 21.3093923,22 Z" id="Path"></path>
                </g>
            </g>
        </g>
    </g>
</svg>