<?xml version="1.0" encoding="UTF-8"?>
<svg width="39px" height="21px" viewBox="0 0 39 21" version="1.1" xmlns="http://www.w3.org/2000/svg" xmlns:xlink="http://www.w3.org/1999/xlink">
    <title>group-add-5</title>
    <g id="Page-1" stroke="none" stroke-width="1" fill="none" fill-rule="evenodd">
        <g id="My-Settings" transform="translate(-664.000000, -610.000000)" fill="#76F2FF" fill-rule="nonzero">
            <g id="Group-invites" transform="translate(641.000000, 596.000000)">
                <g id="group-add-5" transform="translate(23.000000, 14.000000)">
                    <path d="M13,8.0769231 L8.12499999,8.0769231 L8.12499999,3.23076925 L4.875,3.23076925 L4.875,8.0769231 L0,8.0769231 L0,11.3076923 L4.875,11.3076923 L4.875,16.1538462 L8.12499999,16.1538462 L8.12499999,11.3076923 L13,11.3076923 L13,8.0769231 Z M29.25,9.69230769 C31.939375,9.69230769 34.10875,7.51961537 34.10875,4.84615384 C34.10875,2.17269232 31.939375,0 29.25,0 C28.73,0 28.234375,0.0807692181 27.763125,0.234230782 C28.68125,1.54269232 29.23375,3.13384618 29.23375,4.84615384 C29.23375,6.55846151 28.68125,8.14961537 27.763125,9.4580769 C28.234375,9.61153843 28.73,9.69230769 29.25,9.69230769 Z M21.125,9.69230769 C23.814375,9.69230769 25.98375,7.51961537 25.98375,4.84615384 C25.98375,2.17269232 23.814375,0 21.125,0 C18.435625,0 16.25,2.17269232 16.25,4.84615384 C16.25,7.51961537 18.435625,9.69230769 21.125,9.69230769 Z M31.8825,13.1815385 C33.23125,14.3526923 34.125,15.8630769 34.125,17.7692307 L34.125,21 L39,21 L39,17.7692307 C39,15.2815384 35.140625,13.755 31.8825,13.1815385 Z M21.125,12.9230769 C17.875,12.9230769 11.375,14.5384616 11.375,17.7692308 L11.375,21 L30.875,21 L30.875,17.7692308 C30.875,14.5384616 24.375,12.9230769 21.125,12.9230769 Z" id="Shape"></path>
                </g>
            </g>
        </g>
    </g>
</svg>