<?xml version="1.0" encoding="UTF-8"?>
<svg width="27px" height="31px" viewBox="0 0 27 31" version="1.1" xmlns="http://www.w3.org/2000/svg" xmlns:xlink="http://www.w3.org/1999/xlink">
    <title>privacy-clause</title>
    <g id="Page-1" stroke="none" stroke-width="1" fill="none" fill-rule="evenodd">
        <g id="My-Settings" transform="translate(-668.000000, -453.000000)" fill="#B56464" fill-rule="nonzero">
            <g id="Privacy" transform="translate(641.000000, 444.000000)">
                <g id="privacy-clause" transform="translate(27.000000, 9.000000)">
                    <path d="M22.3420533,10.085293 C22.9380824,10.6241602 23.0185373,11.5241895 22.5508744,12.1587207 L22.4568597,12.2743652 L15.7932659,19.7128516 C14.1633762,21.5322852 11.4209792,21.762666 9.51688002,20.2771484 L9.34090376,20.1327441 L4.87791703,16.2892285 C4.23096325,15.7321973 4.15593228,14.7537598 4.710378,14.1037891 C5.23228017,13.4919629 6.12572124,13.3893359 6.76845641,13.844043 L6.8859748,13.9357715 L11.3489615,17.7789844 C11.9474013,18.2942383 12.8281866,18.2697168 13.3967948,17.7435645 L13.4998493,17.6391211 L20.1634432,10.2006348 C20.7332567,9.56428711 21.7086593,9.51282227 22.3420533,10.085293 L22.3420533,10.085293 Z M13.499548,3.84291016 C10.4826401,6.17214844 6.8519246,7.73910156 2.89306162,8.25738281 L2.89276029,17.4375 C2.89276029,23.3226563 7.64170842,28.09375 13.499548,28.09375 C19.3573876,28.09375 24.1063357,23.3226563 24.1063357,17.4375 L24.1066371,8.25738281 C20.3059719,7.75999023 16.8078413,6.29566406 13.8641563,4.11839844 L13.499548,3.84291016 L13.499548,3.84291016 Z M13.5001507,0 L13.7927413,0.282451172 C17.1420153,3.44602539 21.6173566,5.42045898 26.5504168,5.53368164 L27,5.53882813 L26.999096,17.4375 C26.999096,24.9277539 20.955035,31 13.499548,31 C6.04406102,31 0,24.9277539 0,17.4375 L0,5.53913086 C5.25608518,5.53913086 10.0213051,3.42634766 13.5001507,0 Z" id="Shape"></path>
                </g>
            </g>
        </g>
    </g>
</svg>