<?xml version="1.0" encoding="UTF-8"?>
<svg width="29px" height="29px" viewBox="0 0 29 29" version="1.1" xmlns="http://www.w3.org/2000/svg" xmlns:xlink="http://www.w3.org/1999/xlink">
    <title>trash-85</title>
    <g id="Page-1" stroke="none" stroke-width="1" fill="none" fill-rule="evenodd">
        <g id="My-Settings" transform="translate(-670.000000, -746.000000)" fill="#1A6B7B" fill-rule="nonzero">
            <g id="Delete-Account" transform="translate(641.000000, 736.000000)">
                <g id="trash-85" transform="translate(29.000000, 10.000000)">
                    <path d="M0.905455633,5.09060887 L3.7166486,5.09060887 L5.02534291,28.1453818 C5.05164035,28.6247796 5.4495115,29 5.92981956,29 L23.0883085,29 C23.5686503,29 23.9665214,28.6239018 23.9927851,28.1445041 L25.2805832,5.09057511 L28.0936667,5.09057511 C28.5948371,5.09057511 29,4.68456734 29,4.18434093 C29,3.68404701 28.5948371,3.27803924 28.0936667,3.27803924 L20.9965311,3.27803924 L20.5539982,0.90633545 C20.5539982,0.406041522 20.1489028,0 19.6476311,0 L9.35047849,0 C8.84930802,0 8.44421267,0.406041522 8.44421267,0.90633545 L8.00167975,3.27803924 L0.906299582,3.27803924 C0.405095355,3.27803924 0,3.68404701 0,4.18434093 C0,4.6846011 0.404217648,5.09060887 0.905421875,5.09060887 L0.905455633,5.09060887 Z M10.2567781,1.8126709 L18.7414328,1.8126709 L19.1839319,3.27814051 L9.81427891,3.27814051 L10.2568118,1.8126709 L10.2567781,1.8126709 Z M23.4653172,5.09060887 L22.2310254,27.1883756 L6.7862249,27.1883756 L5.53191465,5.09060887 L23.4653172,5.09060887 L23.4653172,5.09060887 Z M10.0116616,25.4890979 C10.0298234,25.4890979 10.0460947,25.4890979 10.0642227,25.4882202 C10.5644818,25.4601335 10.9460141,25.0314404 10.9170497,24.5320241 L9.96365782,7.73423355 C9.93553746,7.23397338 9.49509753,6.85784147 9.00749776,6.88052686 C8.50727251,6.90864729 8.12567269,7.33727293 8.15467076,7.83665539 L9.10809644,24.634446 C9.13527158,25.1166119 9.53496567,25.4890979 10.0116616,25.4890979 Z M18.9021881,25.488254 C18.9203836,25.4891317 18.9366887,25.4891317 18.9547492,25.4891317 C19.4314452,25.4891317 19.8311393,25.1166794 19.8583482,24.6344797 L20.8117401,7.83668915 C20.8398605,7.33734045 20.4583281,6.90871481 19.9589468,6.88056062 C19.4667897,6.85969816 19.0317849,7.23400714 19.0027868,7.73426731 L18.0493949,24.5320579 C18.0212745,25.0314741 18.4028406,25.4601335 18.9021543,25.488254 L18.9021881,25.488254 Z M14.499578,25.4890979 C15.0007823,25.4890979 15.4058776,25.0831239 15.4058776,24.58283 L15.4058776,7.78500562 C15.4058776,7.28477921 15.0007823,6.87870392 14.499578,6.87870392 C13.9984076,6.87870392 13.5933122,7.28477921 13.5933122,7.78500562 L13.5933122,24.58283 C13.5933122,25.0831239 13.9984076,25.4890979 14.499578,25.4890979 Z" id="Shape"></path>
                </g>
            </g>
        </g>
    </g>
</svg>