<?xml version="1.0" encoding="UTF-8"?>
<svg width="29px" height="23px" viewBox="0 0 29 23" version="1.1" xmlns="http://www.w3.org/2000/svg" xmlns:xlink="http://www.w3.org/1999/xlink">
    <title>users-95</title>
    <g id="Page-1" stroke="none" stroke-width="1" fill="none" fill-rule="evenodd">
        <g id="My-Settings" transform="translate(-666.000000, -311.000000)" fill="#2593AE" fill-rule="nonzero">
            <g id="Login-Information" transform="translate(639.000000, 294.000000)">
                <g id="users-95" transform="translate(27.000000, 17.000000)">
                    <path d="M9.0625,8.4736842 C10.1418095,8.47378889 11.1391773,7.89699926 11.6788622,6.9606109 C12.2185471,6.02422254 12.2185471,4.87051428 11.6788622,3.93412592 C11.1391773,2.99773756 10.1418095,2.42094793 9.0625,2.42105262 C7.39425404,2.42121444 6.04195915,3.77609478 6.04195915,5.44736841 C6.04195915,7.11864205 7.39425404,8.47352238 9.0625,8.4736842 L9.0625,8.4736842 Z M9.0625,10.8947369 C11.0051317,10.8947369 12.8001974,9.85647433 13.7715132,8.17105266 C14.742829,6.48563099 14.742829,4.40910586 13.7715132,2.72368419 C12.8001974,1.03826252 11.0051317,0 9.0625,0 C6.05945167,0 3.625,2.43886992 3.625,5.44736843 C3.625,8.45586693 6.05945167,10.8947369 9.0625,10.8947369 Z M20.5416667,9.68421052 C21.4050585,9.68421052 22.2028655,9.22276052 22.6345614,8.47368422 C23.0662574,7.72460792 23.0662574,6.80170785 22.6345614,6.05263155 C22.2028655,5.30355525 21.4050585,4.84210525 20.5416667,4.84210525 C19.2069785,4.84210525 18.125,5.92604746 18.125,7.26315789 C18.125,8.60026832 19.2069785,9.68421052 20.5416667,9.68421052 Z M20.5416667,12.1052631 C22.2685385,12.1053956 23.8642904,11.1825245 24.7277644,9.68431752 C25.5912385,8.18611055 25.5912385,6.34020522 24.7277644,4.84199825 C23.8642904,3.34379129 22.2685385,2.4209202 20.5416667,2.42105262 C17.8724349,2.42125732 15.7087033,4.58908173 15.7087033,7.26315789 C15.7087033,9.93723404 17.8724349,12.1050585 20.5416667,12.1052631 L20.5416667,12.1052631 Z M13.1025625,14.5263158 L5.74139584,14.5263158 C4.53815981,14.5263158 3.51825132,15.4131852 3.34889584,16.6066053 L2.78460416,20.5789474 L16.3469375,20.5789474 L15.4660625,16.4419737 C15.2280249,15.3247719 14.2428623,14.5263158 13.1025625,14.5263158 Z M17.8295625,15.9365789 C17.3534873,13.7021753 15.3831621,12.1052631 13.1025625,12.1052631 L5.74139584,12.1052631 C3.33492377,12.1052631 1.29510678,13.8790021 0.956395843,16.2658421 L0,23 L19.3333333,23 L17.8289583,15.9365789 L17.8295625,15.9365789 Z M29,23 L27.7765625,17.1628421 C27.3066382,14.9208499 25.3326737,13.3155767 23.0459375,13.3157895 L19.55325,13.3157895 C19.6807292,13.5373158 19.7749792,13.7818421 19.8281458,14.0439211 L20.1719167,15.7368421 L23.0465417,15.7368421 C24.189683,15.737022 25.1763345,16.5395946 25.41125,17.6603684 L26.0232708,20.5789474 L21.1555,20.5789474 L21.6466875,23 L29,23 Z" id="Shape"></path>
                </g>
            </g>
        </g>
    </g>
</svg>