<svg width="25" height="25" viewBox="0 0 25 25" fill="none" xmlns="http://www.w3.org/2000/svg">
<path fill-rule="evenodd" clip-rule="evenodd" d="M23.2333 12.5281L24.4997 14.0511C25.1713 14.7617 25.1662 15.9327 24.4877 16.6513L14.7479 25H11V20.9945L20.774 12.5435C21.1158 12.1842 21.5618 12.0027 22.0079 12C22.4522 11.9973 22.8966 12.1734 23.2333 12.5281ZM12.7585 23.1412H14.1241L23.2487 15.3721L21.9977 13.8335L21.9959 13.8354C21.9942 13.8354 21.9942 13.8371 21.9942 13.8381L12.7585 21.6526V23.1412Z" fill="black"/>
<path fill-rule="evenodd" clip-rule="evenodd" d="M14.6667 1.78567H1.83334V23.2143H9.16665V25H1.83334C0.825291 25 0 24.1961 0 23.2143V1.7857C0 0.803932 0.825291 0 1.83334 0H14.6667L22 7.14276V10.7142H20.1667V8.92846H14.6667V1.78567ZM20.2042 7.18029L16.6146 3.68299V7.18029H20.2042Z" fill="black"/>
</svg>
