<?xml version="1.0" encoding="UTF-8"?>
<svg width="21px" height="27px" viewBox="0 0 21 27" version="1.1" xmlns="http://www.w3.org/2000/svg" xmlns:xlink="http://www.w3.org/1999/xlink">
    <title>edit-icon</title>
    <g id="Page-1" stroke="none" stroke-width="1" fill="none" fill-rule="evenodd">
        <g id="Studio" transform="translate(-60.000000, -304.000000)" fill="#E21494" fill-rule="nonzero">
            <g id="Create-Tab" transform="translate(34.000000, 292.000000)">
                <g id="edit-icon" transform="translate(26.000000, 12.000000)">
                    <path d="M19.3460678,0.832339009 C18.8026304,0.465969813 18.2682741,0.215576874 17.7331126,0 L17.1585399,0.788233604 L20.4254272,3.15480744 L21,2.36657384 C20.4390713,1.67899332 19.8895052,1.19869482 19.3460678,0.832339009 L19.3460678,0.832339009 Z M16.7888521,1.29537887 L16.2142793,2.08361247 L19.4811667,4.45018631 L20.0557395,3.66195271 L16.7888521,1.29537887 Z M15.7956518,2.65796385 L8.04133488,13.2958843 L9.81716919,13.8709938 L17.3035251,3.74681882 L15.7956518,2.65796385 Z M17.6224389,4.00168474 L10.177239,14.1053456 L11.1847991,15.6829723 L19.0625839,5.02453769 L17.6224389,4.00168474 Z M7.84253377,13.7516996 L7,18 L10.7236736,15.9525994 L9.66650264,14.3806364 L7.84253377,13.7516996 Z" id="path11535"></path>
                    <path d="M3.28630361,1.00061628 C1.46857313,1.00061628 0,2.43299426 0,4.20582558 L0,23.808525 C0,25.5814004 1.46861826,27 3.28630361,27 L16.7136964,27 C18.5314269,27 20,25.5814004 20,23.808525 L20,8.47007632 L17.9971746,11.111297 L17.9971746,23.0654616 C17.9971746,24.1577384 17.1001796,25.0463771 15.9802222,25.0463771 L4.01968749,25.0463771 C2.89977523,25.0463771 2.00273513,24.1577384 2.00273513,23.0654616 L2.00273513,4.93436228 C2.00273513,3.84208548 2.8997301,2.96718114 4.01968749,2.96718114 L13.5551674,2.96718114 L14.8378332,1 L3.28630361,1.00061628 Z" id="rect4819"></path>
                </g>
            </g>
        </g>
    </g>
</svg>