<svg width="31" height="31" viewBox="0 0 31 31" fill="none" xmlns="http://www.w3.org/2000/svg">
<g id="Meetings Icon">
<path fill-rule="evenodd" clip-rule="evenodd" d="M25.65 3.9H22.75V2.45C22.75 1.64919 22.1008 1 21.3 1C20.4992 1 19.85 1.64919 19.85 2.45V3.9H11.15V2.45C11.15 1.64919 10.5008 1 9.7 1C8.89919 1 8.25 1.64919 8.25 2.45V3.9H5.35C2.94756 3.9 1 5.84756 1 8.25V25.65C1 28.0524 2.94756 30 5.35 30H25.65C28.0524 30 30 28.0524 30 25.65V8.25C30 5.84756 28.0524 3.9 25.65 3.9ZM27 25.625C27 26.3844 26.3564 27 25.5625 27H5.4375C4.64359 27 4 26.3844 4 25.625V16H27V25.625ZM4 12H27V7.5C27 6.67157 26.3564 6 25.5625 6H22.6875V7.5C22.6875 8.32843 22.0439 9 21.25 9C20.4561 9 19.8125 8.32843 19.8125 7.5V6H11.1875V7.5C11.1875 8.32843 10.5439 9 9.75 9C8.95609 9 8.3125 8.32843 8.3125 7.5V6H5.4375C4.64359 6 4 6.67157 4 7.5V12Z" fill="#609AD3"/>
<path d="M22.75 3.9H22.6V4.05H22.75V3.9ZM19.85 3.9V4.05H20V3.9H19.85ZM11.15 3.9H11V4.05H11.15V3.9ZM8.25 3.9V4.05H8.4V3.9H8.25ZM4 16V15.85H3.85V16H4ZM27 16H27.15V15.85H27V16ZM27 12V12.15H27.15V12H27ZM4 12H3.85V12.15H4V12ZM22.6875 6V5.85H22.5375V6H22.6875ZM19.8125 6H19.9625V5.85H19.8125V6ZM11.1875 6V5.85H11.0375V6H11.1875ZM8.3125 6H8.4625V5.85H8.3125V6ZM22.75 4.05H25.65V3.75H22.75V4.05ZM22.6 2.45V3.9H22.9V2.45H22.6ZM21.3 1.15C22.018 1.15 22.6 1.73203 22.6 2.45H22.9C22.9 1.56634 22.1837 0.85 21.3 0.85V1.15ZM20 2.45C20 1.73203 20.582 1.15 21.3 1.15V0.85C20.4163 0.85 19.7 1.56634 19.7 2.45H20ZM20 3.9V2.45H19.7V3.9H20ZM11.15 4.05H19.85V3.75H11.15V4.05ZM11 2.45V3.9H11.3V2.45H11ZM9.7 1.15C10.418 1.15 11 1.73203 11 2.45H11.3C11.3 1.56634 10.5837 0.85 9.7 0.85V1.15ZM8.4 2.45C8.4 1.73203 8.98203 1.15 9.7 1.15V0.85C8.81634 0.85 8.1 1.56634 8.1 2.45H8.4ZM8.4 3.9V2.45H8.1V3.9H8.4ZM5.35 4.05H8.25V3.75H5.35V4.05ZM1.15 8.25C1.15 5.9304 3.0304 4.05 5.35 4.05V3.75C2.86472 3.75 0.85 5.76472 0.85 8.25H1.15ZM1.15 25.65V8.25H0.85V25.65H1.15ZM5.35 29.85C3.0304 29.85 1.15 27.9696 1.15 25.65H0.85C0.85 28.1353 2.86472 30.15 5.35 30.15V29.85ZM25.65 29.85H5.35V30.15H25.65V29.85ZM29.85 25.65C29.85 27.9696 27.9696 29.85 25.65 29.85V30.15C28.1353 30.15 30.15 28.1353 30.15 25.65H29.85ZM29.85 8.25V25.65H30.15V8.25H29.85ZM25.65 4.05C27.9696 4.05 29.85 5.9304 29.85 8.25H30.15C30.15 5.76472 28.1353 3.75 25.65 3.75V4.05ZM25.5625 27.15C26.4329 27.15 27.15 26.4734 27.15 25.625H26.85C26.85 26.2953 26.2799 26.85 25.5625 26.85V27.15ZM5.4375 27.15H25.5625V26.85H5.4375V27.15ZM3.85 25.625C3.85 26.4734 4.5671 27.15 5.4375 27.15V26.85C4.72008 26.85 4.15 26.2953 4.15 25.625H3.85ZM3.85 16V25.625H4.15V16H3.85ZM27 15.85H4V16.15H27V15.85ZM27.15 25.625V16H26.85V25.625H27.15ZM27 11.85H4V12.15H27V11.85ZM26.85 7.5V12H27.15V7.5H26.85ZM25.5625 6.15C26.2676 6.15 26.85 6.74833 26.85 7.5H27.15C27.15 6.59481 26.4452 5.85 25.5625 5.85V6.15ZM22.6875 6.15H25.5625V5.85H22.6875V6.15ZM22.8375 7.5V6H22.5375V7.5H22.8375ZM21.25 9.15C22.1327 9.15 22.8375 8.40519 22.8375 7.5H22.5375C22.5375 8.25167 21.9551 8.85 21.25 8.85V9.15ZM19.6625 7.5C19.6625 8.40519 20.3673 9.15 21.25 9.15V8.85C20.5449 8.85 19.9625 8.25167 19.9625 7.5H19.6625ZM19.6625 6V7.5H19.9625V6H19.6625ZM11.1875 6.15H19.8125V5.85H11.1875V6.15ZM11.3375 7.5V6H11.0375V7.5H11.3375ZM9.75 9.15C10.6327 9.15 11.3375 8.40519 11.3375 7.5H11.0375C11.0375 8.25167 10.4551 8.85 9.75 8.85V9.15ZM8.1625 7.5C8.1625 8.40519 8.8673 9.15 9.75 9.15V8.85C9.04489 8.85 8.4625 8.25167 8.4625 7.5H8.1625ZM8.1625 6V7.5H8.4625V6H8.1625ZM5.4375 6.15H8.3125V5.85H5.4375V6.15ZM4.15 7.5C4.15 6.74833 4.73239 6.15 5.4375 6.15V5.85C4.5548 5.85 3.85 6.59481 3.85 7.5H4.15ZM4.15 12V7.5H3.85V12H4.15Z" fill="black"/>
</g>
</svg>
