<svg width="27" height="22" viewBox="0 0 27 22" fill="none" xmlns="http://www.w3.org/2000/svg">
<path id="Product Icon" fill-rule="evenodd" clip-rule="evenodd" d="M26.9497 0.637109C26.8186 0.263102 26.4483 0 26.0201 0H0.979936L0.822434 0.0120284L0.669943 0.0477329C0.276964 0.172285 0 0.524396 0 0.932156V6.42371L0.0126658 6.5736L0.0502674 6.71875C0.181379 7.09276 0.551667 7.35586 0.979936 7.35586H1.94302L1.92616 21.0678L1.93883 21.2177L1.97643 21.3629C2.10754 21.7369 2.47783 22 2.9061 22H24.0939L24.2514 21.988L24.4039 21.9523C24.7969 21.8277 25.0738 21.4756 25.0738 21.0678V7.33897L26.0201 7.35586L26.1776 7.34383L26.3301 7.30813C26.723 7.18358 27 6.83147 27 6.42371V0.932156L26.9873 0.782263L26.9497 0.637109ZM3 19.9829L3.01752 7L22.9995 7.01657L23 20L3 19.9829ZM16.1136 9C16.603 9 17 9.44749 17 10C17 10.4374 16.7495 10.8152 16.394 10.9488L16.256 10.9871L16.1136 11H10.8864C10.397 11 10 10.5525 10 10C10 9.56256 10.2505 9.18482 10.606 9.05121L10.744 9.0129L10.8864 9H16.1136ZM1 5.98615L1.01751 3L24.9998 3.01338L25 6L1 5.98615Z" fill="#3D88D3"/>
</svg>
