<svg width="30" height="25" viewBox="0 0 30 25" fill="none" xmlns="http://www.w3.org/2000/svg">
<path fill-rule="evenodd" clip-rule="evenodd" d="M2.30769 10H7.69227C8.96475 10 9.99997 8.96478 10 7.69233V2.3077C10 1.03522 8.96478 0 7.69231 0H2.30769C1.03522 0 0 1.03522 0 2.3077V7.6923C0 8.96478 1.03522 10 2.30769 10ZM1.53844 2.3077C1.53844 1.88354 1.88354 1.53845 2.30769 1.53845H7.69231C8.11646 1.53845 8.46156 1.88354 8.46156 2.3077V7.69233C8.46156 8.11649 8.11646 8.46159 7.69231 8.46159H2.30769C1.88354 8.46159 1.53844 8.11649 1.53844 7.69233V2.3077Z" fill="black"/>
<path fill-rule="evenodd" clip-rule="evenodd" d="M2.30769 25H7.69227C8.96475 25 9.99997 23.9648 10 22.6923V17.3077C10 16.0352 8.96478 15 7.69231 15H2.30769C1.03522 15 0 16.0352 0 17.3077V22.6923C0 23.9648 1.03522 25 2.30769 25ZM1.53844 17.3077C1.53844 16.8836 1.88354 16.5385 2.30769 16.5385V16.5385H7.69231C8.11646 16.5385 8.46156 16.8836 8.46156 17.3077V22.6923C8.46156 23.1165 8.11646 23.4616 7.69231 23.4616H2.30769C1.88354 23.4616 1.53844 23.1165 1.53844 22.6923V17.3077Z" fill="black"/>
<path d="M29.15 4H13.85C13.3805 4 13 3.55229 13 3C13 2.44771 13.3805 2 13.85 2H29.15C29.6194 2 30 2.44771 30 3C30 3.55229 29.6194 4 29.15 4Z" fill="black"/>
<path d="M29.15 9H13.85C13.3805 9 13 8.55229 13 8C13 7.44771 13.3805 7 13.85 7H29.15C29.6194 7 30 7.44771 30 8C30 8.55229 29.6194 9 29.15 9Z" fill="black"/>
<path d="M29.15 18H13.85C13.3805 18 13 17.5523 13 17C13 16.4477 13.3805 16 13.85 16H29.15C29.6194 16 30 16.4477 30 17C30 17.5523 29.6194 18 29.15 18Z" fill="black"/>
<path d="M29.15 23H13.85C13.3805 23 13 22.5523 13 22C13 21.4477 13.3805 21 13.85 21H29.15C29.6194 21 30 21.4477 30 22C30 22.5523 29.6194 23 29.15 23Z" fill="black"/>
</svg>
