<svg class="svg-icon" style="width: 2.3rem; height: 2.3rem;vertical-align: middle;fill: currentColor;overflow: hidden;" viewBox="0 0 1024 1024" version="1.1" xmlns="http://www.w3.org/2000/svg"><path d="M834.485 82h-644.969c-14.854 0-26.875 12.021-26.875 26.875v806.237a26.893 26.893 0 0 0 14.172 23.673c8.768 4.724 19.289 4.199 27.582-1.287l307.609-204.307 307.592 204.307a26.876 26.876 0 0 0 14.883 4.489c4.352 0 8.711-1.05 12.705-3.202a26.873 26.873 0 0 0 14.176-23.673v-806.237c0.005-14.854-12.02-26.875-26.875-26.875z m-26.875 783.01l-269.645-179.113c-15.379-10.236-36.324-10.288-51.807-0.059l-269.768 179.172v-729.261h591.219v729.261z"  /><path d="M377.637 431.403h107.492v107.524c0 14.829 12.02 26.875 26.875 26.875s26.875-12.046 26.875-26.875v-107.524h107.49c14.855 0 26.875-12.021 26.875-26.874 0-14.861-12.02-26.908-26.875-26.908h-107.49v-107.499c0-14.854-12.02-26.874-26.875-26.874s-26.875 12.021-26.875 26.874v107.499h-107.492c-14.828 0-26.875 12.047-26.875 26.908 0 14.853 12.047 26.874 26.875 26.874z"  /></svg>