<svg width="28" height="28" viewBox="0 0 28 28" fill="none" xmlns="http://www.w3.org/2000/svg">
<g id="addition-color-outline-icon">
<g id="Shape">
<path fill-rule="evenodd" clip-rule="evenodd" d="M14 1C17.5892 1 20.8397 2.45542 23.1919 4.80765C25.5451 7.16039 27 10.4105 27 13.9997C27 17.589 25.5446 20.8396 23.1919 23.1923C20.8397 25.5446 17.5892 27 14 27C10.4108 27 7.16027 25.5446 4.80758 23.1923C2.45539 20.8396 1 17.589 1 13.9997C1 10.4105 2.45488 7.16039 4.80809 4.80765C7.16027 2.45542 10.4108 1 14 1ZM20.5001 12.4454V14.4713C20.5001 14.9505 20.1061 15.3451 19.6268 15.3451H16.4284V18.5433C16.4284 19.0231 16.0348 19.4167 15.555 19.4167H13.5286C13.0488 19.4167 12.6552 19.0242 12.6552 18.5433V15.3451H9.45682C8.97752 15.3451 8.58347 14.9521 8.58347 14.4713V12.4454C8.58347 11.9651 8.97599 11.5721 9.45682 11.5721H12.6552V8.37332C12.6552 7.89302 13.0483 7.5 13.5286 7.5H15.555C16.0353 7.5 16.4284 7.89353 16.4284 8.37332V11.5721H19.6268C20.1076 11.5721 20.5001 11.9682 20.5001 12.4454ZM13.9999 3.16673C16.9914 3.16673 19.7005 4.37958 21.6602 6.33933C23.6204 8.29958 24.8332 11.0082 24.8332 13.9998C24.8332 16.9914 23.6204 19.7006 21.6602 21.6608C19.7005 23.6206 16.9914 24.8334 13.9999 24.8334C11.0083 24.8334 8.29926 23.6206 6.33906 21.6608C4.37935 19.7006 3.16653 16.9914 3.16653 13.9998C3.16653 11.0082 4.37935 8.29958 6.33956 6.33933C8.29926 4.37958 11.0083 3.16673 13.9999 3.16673Z" fill="#A7A7A7"/>
<path d="M23.1919 4.80765L22.8384 5.1612L22.8384 5.16124L23.1919 4.80765ZM23.1919 23.1923L22.8384 22.8388L23.1919 23.1923ZM4.80758 23.1923L4.45398 23.5459L4.45406 23.5459L4.80758 23.1923ZM4.80809 4.80765L5.1616 5.16124L5.16164 5.1612L4.80809 4.80765ZM16.4284 15.3451V14.8451H15.9284V15.3451H16.4284ZM12.6552 15.3451H13.1552V14.8451H12.6552V15.3451ZM12.6552 11.5721V12.0721H13.1552V11.5721H12.6552ZM16.4284 11.5721H15.9284V12.0721H16.4284V11.5721ZM21.6602 6.33933L21.3066 6.69288V6.69288L21.6602 6.33933ZM21.6602 21.6608L21.3066 21.3072L21.6602 21.6608ZM6.33906 21.6608L5.98546 22.0143L5.98555 22.0144L6.33906 21.6608ZM6.33956 6.33933L6.69312 6.69288L6.33956 6.33933ZM23.5455 4.4541C21.1034 2.01194 17.7272 0.5 14 0.5V1.5C17.4513 1.5 20.5761 2.8989 22.8384 5.1612L23.5455 4.4541ZM27.5 13.9997C27.5 10.2725 25.9886 6.89676 23.5454 4.45406L22.8384 5.16124C25.1016 7.42403 26.5 10.5484 26.5 13.9997H27.5ZM23.5455 23.5459C25.9881 21.1032 27.5 17.727 27.5 13.9997H26.5C26.5 17.4511 25.1011 20.576 22.8384 22.8388L23.5455 23.5459ZM14 27.5C17.7272 27.5 21.1034 25.9881 23.5455 23.5459L22.8384 22.8388C20.5761 25.1011 17.4513 26.5 14 26.5V27.5ZM4.45406 23.5459C6.89666 25.9881 10.2728 27.5 14 27.5V26.5C10.5487 26.5 7.42389 25.1011 5.1611 22.8388L4.45406 23.5459ZM0.5 13.9997C0.5 17.727 2.01191 21.1032 4.45398 23.5459L5.16117 22.8388C2.89887 20.576 1.5 17.4511 1.5 13.9997H0.5ZM4.45457 4.45406C2.0114 6.89676 0.5 10.2725 0.5 13.9997H1.5C1.5 10.5484 2.89837 7.42403 5.1616 5.16124L4.45457 4.45406ZM14 0.5C10.2728 0.5 6.89664 2.01194 4.45453 4.4541L5.16164 5.1612C7.42391 2.8989 10.5487 1.5 14 1.5V0.5ZM21.0001 14.4713V12.4454H20.0001V14.4713H21.0001ZM19.6268 15.8451C20.3826 15.8451 21.0001 15.2263 21.0001 14.4713H20.0001C20.0001 14.6748 19.8296 14.8451 19.6268 14.8451V15.8451ZM16.4284 15.8451H19.6268V14.8451H16.4284V15.8451ZM16.9284 18.5433V15.3451H15.9284V18.5433H16.9284ZM15.555 19.9167C16.311 19.9167 16.9284 19.2993 16.9284 18.5433H15.9284C15.9284 18.747 15.7587 18.9167 15.555 18.9167V19.9167ZM13.5286 19.9167H15.555V18.9167H13.5286V19.9167ZM12.1552 18.5433C12.1552 19.3007 12.773 19.9167 13.5286 19.9167V18.9167C13.3245 18.9167 13.1552 18.7476 13.1552 18.5433H12.1552ZM12.1552 15.3451V18.5433H13.1552V15.3451H12.1552ZM9.45682 15.8451H12.6552V14.8451H9.45682V15.8451ZM8.08347 14.4713C8.08347 15.2284 8.70159 15.8451 9.45682 15.8451V14.8451C9.25346 14.8451 9.08347 14.6757 9.08347 14.4713H8.08347ZM8.08347 12.4454V14.4713H9.08347V12.4454H8.08347ZM9.45682 11.0721C8.69968 11.0721 8.08347 11.6891 8.08347 12.4454H9.08347C9.08347 12.2411 9.2523 12.0721 9.45682 12.0721V11.0721ZM12.6552 11.0721H9.45682V12.0721H12.6552V11.0721ZM12.1552 8.37332V11.5721H13.1552V8.37332H12.1552ZM13.5286 7C12.7721 7 12.1552 7.61686 12.1552 8.37332H13.1552C13.1552 8.16918 13.3244 8 13.5286 8V7ZM15.555 7H13.5286V8H15.555V7ZM16.9284 8.37332C16.9284 7.61756 16.3117 7 15.555 7V8C15.759 8 15.9284 8.1695 15.9284 8.37332H16.9284ZM16.9284 11.5721V8.37332H15.9284V11.5721H16.9284ZM19.6268 11.0721H16.4284V12.0721H19.6268V11.0721ZM21.0001 12.4454C21.0001 11.6933 20.3851 11.0721 19.6268 11.0721V12.0721C19.8302 12.0721 20.0001 12.243 20.0001 12.4454H21.0001ZM22.0137 5.98578C19.9641 3.93607 17.1293 2.66673 13.9999 2.66673V3.66673C16.8535 3.66673 19.4369 4.82309 21.3066 6.69288L22.0137 5.98578ZM25.3332 13.9998C25.3332 10.8703 24.0639 8.03596 22.0137 5.98578L21.3066 6.69288C23.1769 8.5632 24.3332 11.1462 24.3332 13.9998H25.3332ZM22.0137 22.0143C24.0639 19.9642 25.3332 17.1293 25.3332 13.9998H24.3332C24.3332 16.8535 23.1769 19.4369 21.3066 21.3072L22.0137 22.0143ZM13.9999 25.3334C17.1293 25.3334 19.9641 24.0641 22.0137 22.0143L21.3066 21.3072C19.4369 23.177 16.8535 24.3334 13.9999 24.3334V25.3334ZM5.98555 22.0144C8.03568 24.0641 10.8704 25.3334 13.9999 25.3334V24.3334C11.1463 24.3334 8.56285 23.177 6.69257 21.3072L5.98555 22.0144ZM2.66653 13.9998C2.66653 17.1293 3.93585 19.9641 5.98546 22.0143L6.69266 21.3073C4.82286 19.437 3.66653 16.8535 3.66653 13.9998H2.66653ZM5.986 5.98578C3.93587 8.03596 2.66653 10.8703 2.66653 13.9998H3.66653C3.66653 11.1462 4.82284 8.5632 6.69312 6.69288L5.986 5.98578ZM13.9999 2.66673C10.8704 2.66673 8.03566 3.93607 5.986 5.98578L6.69312 6.69288C8.56287 4.82309 11.1462 3.66673 13.9999 3.66673V2.66673Z" fill="black"/>
</g>
</g>
</svg>
