<svg width="22" height="19" viewBox="0 0 22 19" fill="none" xmlns="http://www.w3.org/2000/svg">
    <path d="M4.82578 2.53415L4.98934 3.33375H5.80549H19.9718L18.3048 10.6687H7.71494H6.48971L6.73522 11.8691L6.97388 13.036L7.13743 13.8356H7.9536H17.585L17.5092 14.1694H16.0745H8.4298H6.86505L4.40314 2.13335L4.23959 1.33375H3.42343H1V1H4.51197L4.82578 2.53415ZM18.2827 10.766C18.2827 10.7658 18.2828 10.7656 18.2828 10.7654L18.2827 10.7659L18.2827 10.766ZM16.7743 15.8837L17.2987 15.37L17.9569 15.6896C18.3072 15.8596 18.5452 16.217 18.5452 16.628C18.5452 17.2035 18.0786 17.67 17.5031 17.67C16.9276 17.67 16.4611 17.2035 16.4611 16.628C16.4611 16.3366 16.5797 16.0744 16.7743 15.8837ZM7.10941 15.364L7.08685 15.2537L7.73002 15.8837C7.9247 16.0744 8.04328 16.3366 8.04328 16.628C8.04328 17.2035 7.57675 17.67 7.00125 17.67C6.42575 17.67 5.95922 17.2035 5.95922 16.628C5.95922 16.2432 6.16772 15.9056 6.48354 15.7239L7.10941 15.364ZM4.49154 0.900163L4.49158 0.900328L4.49154 0.900163Z" stroke="currentColor" stroke-width="1"/>
</svg>
