<svg width="22" height="19" viewBox="0 0 22 19" fill="none" xmlns="http://www.w3.org/2000/svg">
<path d="M19.2578 10.9876L20.9816 3.40286C21.1061 2.85523 20.6898 2.33375 20.1282 2.33375H5.80549L5.47126 0.69976C5.38797 0.292485 5.0296 0 4.61386 0H0.875156C0.391815 0 0 0.391815 0 0.875156V1.45859C0 1.94194 0.391815 2.33375 0.875156 2.33375H3.42343L5.98501 14.8571C5.37218 15.2095 4.95922 15.8703 4.95922 16.628C4.95922 17.7558 5.87346 18.67 7.00125 18.67C8.12903 18.67 9.04328 17.7558 9.04328 16.628C9.04328 16.0564 8.80819 15.54 8.4298 15.1694H16.0745C15.6962 15.54 15.4611 16.0564 15.4611 16.628C15.4611 17.7558 16.3753 18.67 17.5031 18.67C18.6309 18.67 19.5452 17.7558 19.5452 16.628C19.5452 15.8195 19.0752 15.1208 18.3936 14.79L18.5948 13.9047C18.7193 13.3571 18.303 12.8356 17.7414 12.8356H7.9536L7.71494 11.6687H18.4044C18.813 11.6687 19.1673 11.386 19.2578 10.9876Z" fill="#D1D1D1"/>
</svg>
