<svg width="19" height="20" viewBox="0 0 19 20" fill="none" xmlns="http://www.w3.org/2000/svg">
<path d="M1.94536 11.65H7.39429V10.35H1.94536V11.65ZM0.35 10C0.35 10.8741 1.03249 11.65 1.94536 11.65V10.35C1.81833 10.35 1.65 10.2259 1.65 10H0.35ZM0.35 2V10H1.65V2H0.35ZM1.94536 0.35C1.03249 0.35 0.35 1.12591 0.35 2H1.65C1.65 1.77409 1.81833 1.65 1.94536 1.65V0.35ZM7.39429 0.35H1.94536V1.65H7.39429V0.35ZM8.98965 2C8.98965 1.12591 8.30715 0.35 7.39429 0.35V1.65C7.52132 1.65 7.68965 1.77409 7.68965 2H8.98965ZM8.98965 10V2H7.68965V10H8.98965ZM7.39429 11.65C8.30715 11.65 8.98965 10.8741 8.98965 10H7.68965C7.68965 10.2259 7.52132 10.35 7.39429 10.35V11.65ZM1.94536 19.65H7.39429V18.35H1.94536V19.65ZM0.35 18C0.35 18.8741 1.03249 19.65 1.94536 19.65V18.35C1.81833 18.35 1.65 18.226 1.65 18H0.35ZM0.35 14.6085V18H1.65V14.6085H0.35ZM1.94536 12.9585C1.03249 12.9585 0.35 13.7344 0.35 14.6085H1.65C1.65 14.3826 1.81833 14.2585 1.94536 14.2585V12.9585ZM7.39429 12.9585H1.94536V14.2585H7.39429V12.9585ZM8.98965 14.6085C8.98965 13.7344 8.30715 12.9585 7.39429 12.9585V14.2585C7.52132 14.2585 7.68965 14.3826 7.68965 14.6085H8.98965ZM8.98965 18V14.6085H7.68965V18H8.98965ZM7.39429 19.65C8.30715 19.65 8.98965 18.8741 8.98965 18H7.68965C7.68965 18.226 7.52132 18.35 7.39429 18.35V19.65ZM17.071 18.35H11.6223V19.65H17.071V18.35ZM17.3664 18C17.3664 18.2259 17.198 18.35 17.071 18.35V19.65C17.9839 19.65 18.6664 18.8741 18.6664 18H17.3664ZM17.3664 9.99998V18H18.6664V9.99998H17.3664ZM17.071 9.64998C17.198 9.64998 17.3664 9.77406 17.3664 9.99998H18.6664C18.6664 9.12589 17.9839 8.34998 17.071 8.34998V9.64998ZM11.8458 9.64998H17.071V8.34998H11.8458V9.64998ZM11.327 9.99998C11.327 9.98882 11.3388 9.90788 11.4717 9.80185C11.6029 9.6972 11.7558 9.64998 11.8458 9.64998V8.34998C11.4158 8.34998 10.9843 8.52775 10.661 8.7856C10.3395 9.04207 10.027 9.46113 10.027 9.99998H11.327ZM11.327 18V9.99998H10.027V18H11.327ZM11.6223 18.35C11.4953 18.35 11.327 18.2259 11.327 18H10.027C10.027 18.8741 10.7095 19.65 11.6223 19.65V18.35ZM10.027 2V5.45266H11.327V2H10.027ZM11.6223 0.35C10.7095 0.35 10.027 1.12591 10.027 2H11.327C11.327 1.77409 11.4953 1.65 11.6223 1.65V0.35ZM17.071 0.35H11.6223V1.65H17.071V0.35ZM18.6664 2C18.6664 1.12591 17.9839 0.35 17.071 0.35V1.65C17.198 1.65 17.3664 1.77409 17.3664 2H18.6664ZM18.6664 5.45266V2H17.3664V5.45266H18.6664ZM17.071 7.10266C17.9839 7.10266 18.6664 6.32675 18.6664 5.45266H17.3664C17.3664 5.67857 17.198 5.80266 17.071 5.80266V7.10266ZM11.6223 7.10266H17.071V5.80266H11.6223V7.10266ZM10.027 5.45266C10.027 6.32675 10.7095 7.10266 11.6223 7.10266V5.80266C11.4953 5.80266 11.327 5.67857 11.327 5.45266H10.027Z" fill="white"/>
</svg>
