<svg width="12" height="15" viewBox="0 0 12 15" fill="none" xmlns="http://www.w3.org/2000/svg">
<path fill-rule="evenodd" clip-rule="evenodd" d="M5.62508 7.5C7.69615 7.5 9.37508 5.82107 9.37508 3.75C9.37508 1.67893 7.69615 0 5.62508 0C3.55401 0 1.87508 1.67893 1.87508 3.75C1.87752 5.82006 3.55502 7.49756 5.62508 7.5ZM5.62506 1.50006C6.8677 1.50006 7.87506 2.50742 7.87506 3.75006C7.87506 4.9927 6.8677 6.00006 5.62506 6.00006C4.38242 6.00006 3.37506 4.9927 3.37506 3.75006C3.37643 2.50799 4.38299 1.50143 5.62506 1.50006ZM8.30473 8.21567C8.31386 8.01704 8.40156 7.83017 8.54852 7.69622C8.69534 7.56196 8.88953 7.49161 9.08828 7.50068C9.28702 7.50975 9.474 7.59751 9.60797 7.7446C10.6791 8.93668 11.265 10.4867 11.2501 12.0893C11.2501 13.7489 8.83202 14.9999 5.62509 14.9999C2.41817 14.9999 9.50611e-05 13.7489 0.000245061 12.0892C-0.013648 10.4976 0.563622 8.9575 1.62024 7.76717C1.79977 7.56818 2.07182 7.48008 2.33392 7.53606C2.59601 7.59203 2.80833 7.78359 2.8909 8.03856C2.97347 8.29353 2.91375 8.57318 2.73422 8.77217C1.93183 9.68995 1.49287 10.8695 1.50009 12.0886C1.50009 12.5859 3.06639 13.4999 5.62509 13.4999C8.18379 13.4999 9.75009 12.5866 9.75009 12.0893C9.7644 10.8608 9.3184 9.67145 8.49984 8.7553C8.36579 8.60843 8.2956 8.41431 8.30473 8.21567Z" fill="white"/>
</svg>
