<svg width="24" height="19" viewBox="0 0 24 19" fill="none" xmlns="http://www.w3.org/2000/svg">
<path d="M5.54615 1.07424C5.95932 0.393506 6.5846 0 7.24192 0H16.0002C16.6631 0 17.2839 0.393506 17.696 1.07424L23.0617 9.90228C23.1749 10.1074 23.2212 10.3624 23.1906 10.6117C23.16 10.861 23.0549 11.0845 22.8982 11.2336C22.752 11.3724 22.571 11.4347 22.3911 11.4081C22.2112 11.3815 22.0456 11.268 21.9271 11.09L16.567 2.26912C16.4997 2.15736 16.4137 2.06704 16.3154 2.00507C16.2172 1.9431 16.1094 1.9111 16.0002 1.91152H7.24192C7.13282 1.91253 7.02528 1.9453 6.92721 2.00744C6.82914 2.06957 6.74302 2.15948 6.67519 2.27056L1.3106 11.0943C1.25516 11.195 1.18497 11.2805 1.10405 11.3459C1.02313 11.4113 0.933072 11.4552 0.839051 11.4752C0.74503 11.4953 0.648894 11.4909 0.55616 11.4625C0.463427 11.4341 0.375921 11.3822 0.298664 11.3097C0.143623 11.159 0.0398376 10.9357 0.00931484 10.6871C-0.0212079 10.4386 0.0239323 10.1844 0.135164 9.9784L0.180458 9.90659L5.54615 1.07712V1.07424Z" fill="#D1D1D1"/>
<path d="M0.183574 8.95588C0.248778 8.84995 0.331499 8.76447 0.425594 8.7058C0.519689 8.64712 0.622743 8.61675 0.727103 8.61694H8.69997C9.09988 8.61694 9.42578 9.06933 9.42578 9.62225C9.42578 11.2882 10.4013 12.641 11.6021 12.641C12.8052 12.641 13.7795 11.2896 13.7795 9.62225C13.7795 9.06933 14.1021 8.61694 14.5053 8.61694H22.4738C22.8726 8.61694 23.1996 9.06933 23.1996 9.62225L23.1952 9.74863L22.6284 16.0289C22.4926 17.5383 21.5679 18.67 20.4698 18.67H2.73219C1.63409 18.67 0.709427 17.5383 0.573545 16.0289L0.00681655 9.74863C-0.00751004 9.60779 0.000802026 9.46461 0.0312271 9.32815C0.0616521 9.19169 0.113528 9.06493 0.183574 8.95588ZM1.54682 10.629L2.0108 15.7776C2.05499 16.2803 2.36432 16.658 2.73109 16.658H20.4687C20.8355 16.658 21.1437 16.2803 21.189 15.7776L21.653 10.629H15.1527C14.7539 13.3505 12.8405 15.1055 10.8807 14.5526C9.45229 14.1504 8.34093 12.6023 8.05038 10.629H1.54792H1.54682Z" fill="#D1D1D1"/>
</svg>
