<svg width="22" height="22" viewBox="0 0 22 22" fill="none" xmlns="http://www.w3.org/2000/svg">
<path d="M18.6484 15.7266H17.1381C17.035 15.7266 16.9383 15.7717 16.8738 15.8512C16.7234 16.0338 16.5623 16.21 16.3926 16.3776C15.6922 17.0758 14.8779 17.6258 13.9713 18.0082C13.0346 18.4035 12.0377 18.6055 11.0086 18.6055C9.97948 18.6055 8.98261 18.4035 8.04589 18.0082C7.13925 17.6258 6.32499 17.0758 5.6246 16.3776C4.92421 15.6793 4.37636 14.8651 3.99179 13.9606C3.59433 13.0239 3.39452 12.0291 3.39452 11C3.39452 9.97093 3.59647 8.97621 3.99179 8.03949C4.37421 7.13499 4.92421 6.32074 5.6246 5.62249C6.32499 4.92425 7.13925 4.37425 8.04589 3.99183C8.98261 3.59652 9.97948 3.39456 11.0086 3.39456C12.0377 3.39456 13.0346 3.59437 13.9713 3.99183C14.8779 4.37425 15.6922 4.92425 16.3926 5.62249C16.5623 5.79222 16.7213 5.96839 16.8738 6.14886C16.9383 6.22835 17.0371 6.27347 17.1381 6.27347H18.6484C18.7838 6.27347 18.8676 6.12308 18.7924 6.00921C17.1445 3.44828 14.2613 1.75316 10.985 1.76175C5.83729 1.77464 1.71015 5.95335 1.76171 11.0946C1.81327 16.1541 5.93397 20.2383 11.0086 20.2383C14.2764 20.2383 17.1467 18.5453 18.7924 15.9909C18.8654 15.877 18.7838 15.7266 18.6484 15.7266Z" fill="white"/>
<path d="M20.5584 10.8647L17.5098 8.45847C17.3959 8.36823 17.2305 8.44987 17.2305 8.59382V10.2266H10.4844C10.3898 10.2266 10.3125 10.304 10.3125 10.3985V11.6016C10.3125 11.6962 10.3898 11.7735 10.4844 11.7735H17.2305V13.4063C17.2305 13.5503 17.398 13.6319 17.5098 13.5417L20.5584 11.1354C20.6465 11.0667 20.6465 10.9335 20.5584 10.8647Z" fill="white"/>
</svg>
