<svg width="17" height="19" viewBox="0 0 17 19" fill="none" xmlns="http://www.w3.org/2000/svg">
<path d="M8.16815 18.67C9.45609 18.67 10.5008 17.6253 10.5008 16.3363H5.83549C5.83549 17.6253 6.88021 18.67 8.16815 18.67ZM16.0223 13.2108C15.3178 12.4538 13.9996 11.315 13.9996 7.58469C13.9996 4.75137 12.013 2.48326 9.3343 1.9268V1.16688C9.3343 0.522541 8.81212 0 8.16815 0C7.52418 0 7.00201 0.522541 7.00201 1.16688V1.9268C4.3233 2.48326 2.33669 4.75137 2.33669 7.58469C2.33669 11.315 1.01849 12.4538 0.313988 13.2108C0.0951984 13.446 -0.00179803 13.7272 2.52114e-05 14.0025C0.00403634 14.6005 0.473339 15.1694 1.17055 15.1694H15.1658C15.863 15.1694 16.3326 14.6005 16.3363 14.0025C16.3381 13.7272 16.2411 13.4457 16.0223 13.2108Z" fill="#D1D1D1"/>
</svg>
