<svg width="16" height="18" viewBox="0 0 16 18" fill="none" xmlns="http://www.w3.org/2000/svg">
    <path d="M15.2065 13.0776L15.2063 13.0774C15.167 13.0352 15.1244 12.9905 15.0792 12.943C14.7513 12.599 14.2825 12.1071 13.8943 11.321C13.451 10.4234 13.1222 9.17095 13.1222 7.3125C13.1222 4.83077 11.3861 2.83818 9.02263 2.34721L8.62432 2.26446V1.85766V1.125C8.62432 0.779626 8.34444 0.5 8.00002 0.5C7.65561 0.5 7.37573 0.779626 7.37573 1.125V1.85766V2.26446L6.97742 2.34721C4.6139 2.83818 2.87784 4.83077 2.87784 7.3125C2.87784 9.17095 2.54907 10.4234 2.1058 11.321C1.71758 12.1071 1.24873 12.599 0.920874 12.943C0.875615 12.9905 0.833042 13.0352 0.793739 13.0774C0.672375 13.2079 0.624082 13.3548 0.625013 13.4966C0.625013 13.4967 0.625013 13.4967 0.625013 13.4967M15.2065 13.0776L15.875 13.5C15.8715 14.0766 15.4187 14.625 14.7465 14.625H1.25354C0.581352 14.625 0.128891 14.0766 0.125024 13.5L0.625013 13.4967M15.2065 13.0776C15.3275 13.2075 15.376 13.3546 15.375 13.4967L15.375 13.497C15.373 13.8285 15.1148 14.125 14.7465 14.125H1.25354C0.88556 14.125 0.627262 13.8287 0.625013 13.4967M15.2065 13.0776L0.625013 13.4967M9.67654 16.25C9.46146 16.973 8.79194 17.5 8.00002 17.5C7.20811 17.5 6.53859 16.973 6.32351 16.25H9.67654Z" fill="black" stroke="white"/>
</svg>
