<svg width="23" height="22" viewBox="0 0 23 22" fill="none" xmlns="http://www.w3.org/2000/svg">
<path d="M9.17748 0.705051C4.71224 1.50075 1.114 4.7779 0.233534 8.84255C-1.42858 16.5125 6.14974 22.2301 11.8593 21.422C13.7101 21.1595 14.6175 19.1826 13.7685 17.6609C12.7308 15.7988 14.2132 13.625 16.5042 13.625H20.0845C21.6927 13.625 22.9954 12.4109 22.9999 10.9467C22.9775 4.48259 16.5357 -0.603348 9.17748 0.705051ZM4.31244 13.625C3.51732 13.625 2.87494 13.0384 2.87494 12.3125C2.87494 11.5865 3.51732 11 4.31244 11C5.10756 11 5.74994 11.5865 5.74994 12.3125C5.74994 13.0384 5.10756 13.625 4.31244 13.625ZM5.74994 8.37497C4.95482 8.37497 4.31244 7.78845 4.31244 7.06247C4.31244 6.3365 4.95482 5.74997 5.74994 5.74997C6.54506 5.74997 7.18744 6.3365 7.18744 7.06247C7.18744 7.78845 6.54506 8.37497 5.74994 8.37497ZM11.4999 5.74997C10.7048 5.74997 10.0624 5.16345 10.0624 4.43747C10.0624 3.7115 10.7048 3.12497 11.4999 3.12497C12.2951 3.12497 12.9374 3.7115 12.9374 4.43747C12.9374 5.16345 12.2951 5.74997 11.4999 5.74997ZM17.2499 8.37497C16.4548 8.37497 15.8124 7.78845 15.8124 7.06247C15.8124 6.3365 16.4548 5.74997 17.2499 5.74997C18.0451 5.74997 18.6874 6.3365 18.6874 7.06247C18.6874 7.78845 18.0451 8.37497 17.2499 8.37497Z" fill="#D1D1D1"/>
</svg>
