<svg width="17" height="22" viewBox="0 0 17 22" fill="none" xmlns="http://www.w3.org/2000/svg">
<path d="M15.2561 22.0002H2.20275C1.90435 22.0006 1.60899 21.9402 1.33464 21.8229C1.06029 21.7055 0.812691 21.5335 0.606897 21.3174C0.401102 21.1014 0.241418 20.8457 0.137557 20.5659C0.0336969 20.2862 -0.0121684 19.9882 0.00275192 19.6902L0.596752 7.04754C0.621336 6.48074 0.86393 5.94536 1.27388 5.55317C1.68382 5.16099 2.22942 4.94234 2.79675 4.94287H14.6621C15.2294 4.94234 15.775 5.16099 16.185 5.55317C16.5949 5.94536 16.8375 6.48074 16.8621 7.04754L17.4561 19.6902C17.471 19.9882 17.4251 20.2862 17.3213 20.5659C17.2174 20.8457 17.0577 21.1014 16.8519 21.3174C16.6461 21.5335 16.3985 21.7055 16.1242 21.8229C15.8498 21.9402 15.5545 22.0006 15.2561 22.0002ZM2.79675 6.41687C2.60226 6.41687 2.41573 6.49413 2.27821 6.63166C2.14068 6.76919 2.06342 6.95571 2.06342 7.15021L1.46942 19.7635C1.46445 19.8629 1.47973 19.9622 1.51435 20.0554C1.54897 20.1487 1.6022 20.2339 1.6708 20.306C1.7394 20.378 1.82193 20.4353 1.91338 20.4744C2.00483 20.5136 2.10328 20.5337 2.20275 20.5335H15.2561C15.3556 20.5337 15.454 20.5136 15.5455 20.4744C15.6369 20.4353 15.7194 20.378 15.788 20.306C15.8566 20.2339 15.9099 20.1487 15.9445 20.0554C15.9791 19.9622 15.9944 19.8629 15.9894 19.7635L15.3954 7.12087C15.3954 6.92638 15.3182 6.73985 15.1806 6.60233C15.0431 6.4648 14.8566 6.38754 14.6621 6.38754L2.79675 6.41687Z" fill="white"/>
<path d="M13.1281 5.68333H11.6615V4.4C11.6615 3.62203 11.3524 2.87593 10.8023 2.32582C10.2522 1.77571 9.50609 1.46667 8.72812 1.46667C7.95016 1.46667 7.20405 1.77571 6.65394 2.32582C6.10384 2.87593 5.79479 3.62203 5.79479 4.4V5.68333H4.32812V4.4C4.32812 3.23305 4.7917 2.11389 5.61686 1.28873C6.44202 0.46357 7.56117 0 8.72812 0C9.89508 0 11.0142 0.46357 11.8394 1.28873C12.6646 2.11389 13.1281 3.23305 13.1281 4.4V5.68333Z" fill="white"/>
</svg>
