<svg width="12" height="18" viewBox="0 0 12 18" fill="none" xmlns="http://www.w3.org/2000/svg">
<path fill-rule="evenodd" clip-rule="evenodd" d="M11.9999 3.60141C11.9999 2.64616 11.6204 1.73022 10.945 1.05497C10.2695 0.379544 9.35374 0 8.39852 0H3.60141C2.64616 0 1.73022 0.379578 1.0547 1.05497C0.379269 1.7304 0 2.6462 0 3.60141V17.4001C0 17.6293 0.130427 17.8385 0.336359 17.9389C0.542295 18.0397 0.787401 18.0144 0.968301 17.8735L6.00006 13.9602L11.0318 17.8735C11.2127 18.0142 11.4581 18.0397 11.664 17.9389C11.8697 17.8383 12.0004 17.6293 12.0004 17.4001V3.60141H11.9999ZM10.7999 3.60141V16.1731L6.368 12.7263C6.15143 12.5578 5.84818 12.5578 5.63134 12.7263L1.19983 16.1731V3.60141C1.19983 2.96465 1.45274 2.35383 1.9031 1.90334C2.35317 1.45298 2.96413 1.20007 3.60117 1.20007H8.39828C9.03504 1.20007 9.64586 1.45298 10.0964 1.90334C10.5467 2.35369 10.7996 2.96465 10.7996 3.60141H10.7999Z" fill="black"/>
</svg>
