<svg width="21" height="19" viewBox="0 0 21 19" fill="none" xmlns="http://www.w3.org/2000/svg">
<path d="M19.5497 8.30864H15.8353C15.4443 8.30864 15.0533 8.60188 14.9556 8.89513L13.0006 14.5646L8.30864 0.586492C8.21089 0.293246 7.81989 0 7.4289 0C7.03791 0 6.74466 0.293246 6.54916 0.586492L4.0077 8.30864H0.977487C0.488743 8.30864 0 8.69963 0 9.28613C0 9.87262 0.390995 10.2636 0.977487 10.2636H4.69194C5.08293 10.2636 5.47393 9.97037 5.57168 9.67712L7.52665 4.0077L12.2186 18.0835C12.3163 18.4745 12.7073 18.67 13.0983 18.67C13.4893 18.67 13.8803 18.3768 13.9781 18.0835L16.5195 10.3614H19.5497C20.0385 10.3614 20.5272 9.97037 20.5272 9.38387C20.5272 8.79738 20.1362 8.30864 19.5497 8.30864Z" fill="#D1D1D1"/>
</svg>
