<svg width="29" height="26" viewBox="0 0 29 26" fill="none" xmlns="http://www.w3.org/2000/svg">
    <path d="M2.5999 14.5052H12.7999V23.5347C12.7999 24.3647 13.5623 25.0396 14.4999 25.0396C15.4375 25.0396 16.1999 24.3647 16.1999 23.5347V14.5052H26.3999C27.3375 14.5052 28.0999 13.8303 28.0999 13.0003C28.0999 12.1703 27.3375 11.4954 26.3999 11.4954H16.1999V2.46586C16.1999 1.63589 15.4375 0.960938 14.4999 0.960938C13.5623 0.960938 12.7999 1.63589 12.7999 2.46586V11.4954H2.5999C1.66234 11.4954 0.899902 12.1703 0.899902 13.0003C0.899902 13.8303 1.66234 14.5052 2.5999 14.5052Z" fill="white"/>
</svg>
