<?xml version="1.0" encoding="UTF-8"?>
<svg width="31px" height="31px" viewBox="0 0 31 31" version="1.1" xmlns="http://www.w3.org/2000/svg" xmlns:xlink="http://www.w3.org/1999/xlink">
    <title>add-wallet</title>
    <g id="Page-1" stroke="none" stroke-width="1" fill="none" fill-rule="evenodd">
        <g id="Wallet" transform="translate(-664.000000, -373.000000)" fill="#BC52AB" fill-rule="nonzero">
            <g id="Topup" transform="translate(639.000000, 364.000000)">
                <g id="add-wallet" transform="translate(25.000000, 9.000000)">
                    <path d="M15.5,0 C6.93838583,0 0,6.93838583 0,15.5 C0,24.0616142 6.93838583,31 15.5,31 C24.0616142,31 31,24.0616142 31,15.5 C31,6.93838583 24.058563,0 15.5,0 Z M22.2798926,16.2245108 L16.2261576,16.2245108 L16.2261576,22.277034 C16.2261576,22.6786818 15.9016848,23 15.5030468,23 C15.1013186,23 14.779936,22.6755922 14.779936,22.277034 L14.779936,16.2245108 L8.72311077,16.2245108 C8.32138256,16.2245108 8,15.900103 8,15.5015448 C8,15.099897 8.32447278,14.7785788 8.72311077,14.7785788 L14.7768458,14.7785788 L14.7768458,8.72296601 C14.7768458,8.32131823 15.1013186,8 15.4999566,8 C15.9016848,8 16.2230673,8.32440783 16.2230673,8.72296601 L16.2230673,14.7785788 L22.2768024,14.7785788 C22.6785306,14.7785788 23,15.1029866 23,15.5015448 C23.0060936,15.900103 22.6816208,16.2245108 22.2798926,16.2245108 Z" id="Shape"></path>
                </g>
            </g>
        </g>
    </g>
</svg>