<?xml version="1.0" encoding="UTF-8"?>
<svg width="34px" height="25px" viewBox="0 0 34 25" version="1.1" xmlns="http://www.w3.org/2000/svg" xmlns:xlink="http://www.w3.org/1999/xlink">
    <title>transfer-4</title>
    <g id="Page-1" stroke="none" stroke-width="1" fill="none" fill-rule="evenodd">
        <g id="Wallet" transform="translate(-666.000000, -447.000000)" fill="#337BC5" fill-rule="nonzero">
            <g id="TRansfer" transform="translate(641.000000, 438.000000)">
                <g id="transfer-4" transform="translate(25.000000, 9.000000)">
                    <path d="M22.5781144,5.95945858 L30.4911482,5.95945858 L25.3103352,9.02180143 C24.9505107,9.23447001 24.8331311,9.69544388 25.0480554,10.0514276 C25.1901996,10.2867531 25.4419603,10.4172805 25.7003198,10.4172805 C25.83276,10.4172805 25.9669082,10.3829494 26.0888293,10.3108694 L33.6303162,5.85316272 C33.8596413,5.71764314 34,5.47283236 34,5.20862875 C34,4.94442511 33.8596413,4.69961433 33.6303162,4.56409478 L26.0888293,0.106426488 C25.7288495,-0.106318867 25.2630573,0.00988462908 25.0480554,0.365868324 C24.8331311,0.721851981 24.9505107,1.18282589 25.3103352,1.39549447 L30.4911482,4.45779889 L22.5781144,4.45779885 C18.2469064,4.45779885 14.7232269,7.94390436 14.7232269,12.2289186 C14.7232269,15.6858772 11.8804193,18.4983403 8.38616229,18.4983403 L0.758930832,18.4983403 C0.33979546,18.4983403 0,18.8345086 0,19.2491701 C0,19.6638316 0.339795422,20 0.758930832,20 L8.38616233,20 C12.7174091,20 16.2410886,16.5139329 16.2410886,12.2289186 C16.2410886,8.77192161 19.0838574,5.95945858 22.5781144,5.95945858 Z" id="Path"></path>
                    <path d="M0.773926239,6.42444997 L8.55186111,6.42444997 C10.079645,6.42444997 11.5619876,6.92404929 12.7258457,7.83126913 C12.8713131,7.94459423 13.0489219,8 13.2256995,8 C13.4453454,8 13.6635663,7.91443247 13.8166336,7.7481058 C14.0928832,7.44794552 14.0523898,6.99854291 13.7262657,6.74428093 C12.2831894,5.61948127 10.44555,5 8.55186111,5 L0.773926239,5 C0.346509341,5 0,5.31888385 0,5.71222498 C0,6.10560249 0.346509302,6.42444997 0.773926239,6.42444997 Z" id="Path"></path>
                    <path d="M33.6279721,19.3813387 L26.038665,15.1021039 C25.6764026,14.897992 25.2076568,15.0094665 24.9912915,15.351189 C24.7750044,15.6929114 24.8931284,16.135418 25.2552345,16.3396036 L30.4688988,19.2792643 L22.5056887,19.2792643 C20.9422652,19.2792643 19.4383724,18.7401023 18.2711172,17.7610509 C17.9559638,17.4966676 17.4731946,17.5234303 17.1928846,17.8209537 C16.9126918,18.1184771 16.94109,18.5740702 17.2563997,18.8385272 C18.7035352,20.0523237 20.5677373,20.7207652 22.5056887,20.7207652 L30.4688597,20.7207652 L25.2552344,23.6603523 C24.8931283,23.8645379 24.7750044,24.3070445 24.9912915,24.6487669 C25.1343371,24.8746281 25.3876942,25 25.6476919,25 C25.7809719,25 25.9159707,24.9670442 26.0386649,24.8978519 L33.6279721,20.6187646 C33.8587513,20.4886373 34,20.2536708 34,20.0000147 C34,19.7463587 33.8587122,19.5113923 33.6279721,19.3813387 Z" id="Path"></path>
                </g>
            </g>
        </g>
    </g>
</svg>