<?xml version="1.0" encoding="UTF-8"?>
<svg width="28px" height="28px" viewBox="0 0 28 28" version="1.1" xmlns="http://www.w3.org/2000/svg" xmlns:xlink="http://www.w3.org/1999/xlink">
    <title>issued-transactions</title>
    <g id="Page-1" stroke="none" stroke-width="1" fill="none" fill-rule="evenodd">
        <g id="Wallet" transform="translate(-667.000000, -527.000000)" fill="#A32AFF" fill-rule="nonzero">
            <g id="TRansactions" transform="translate(641.000000, 514.000000)">
                <g id="issued-transactions" transform="translate(26.000000, 13.000000)">
                    <path d="M2.15320002,3.94800032 C2.15320002,2.95680036 2.95680003,2.15320042 3.94940001,2.15320042 L24.052,2.15320042 C25.0418,2.15320042 25.8468,2.9568004 25.8468,3.94940033 L25.8468,24.0519994 C25.8468,25.0417994 25.0418,25.8467993 24.052,25.8467993 L3.948,25.8467993 C2.95675935,25.8467993 2.15320002,25.04324 2.15320002,24.0519994 L2.15320002,3.94800032 Z M3.94940001,2.48257834e-07 C2.90208276,-0.000370895155 1.89753381,0.415413931 1.15683736,1.15584778 C0.416140915,1.89628162 0,2.90068305 0,3.94800032 L0,24.0519994 C0,26.2324195 1.76757981,28.0000002 3.948,28.0000002 L24.052,28.0000002 C26.2324202,28.0000002 28,26.2324195 28,24.0519994 L28,3.94800032 C28,1.76758022 26.2324202,2.48257834e-07 24.052,2.48257834e-07 L3.948,2.48257834e-07 L3.94940001,2.48257834e-07 Z M10.4104,7.17920018 C10.0162556,7.16498939 9.64581421,7.36715691 9.44452507,7.70632423 C9.24323593,8.04549156 9.24323593,8.46750871 9.44452507,8.80667604 C9.64581421,9.14584336 10.0162556,9.34801088 10.4104,9.33380009 L21.8974,9.33380009 C22.2915445,9.34801088 22.6619858,9.14584336 22.8632749,8.80667604 C23.0645641,8.46750871 23.0645641,8.04549156 22.8632749,7.70632423 C22.6619858,7.36715691 22.2915445,7.16498939 21.8974,7.17920018 L10.4104,7.17920018 L10.4104,7.17920018 Z M10.4104,12.9233999 C10.012668,12.90311 9.63615014,13.1037559 9.43119482,13.4452171 C9.2262395,13.7866783 9.2262395,14.2133215 9.43119482,14.5547827 C9.63615014,14.8962439 10.012668,15.0968897 10.4104,15.0765998 L21.8974,15.0765998 C22.295132,15.0968897 22.6716499,14.8962439 22.8766052,14.5547827 C23.0815605,14.2133215 23.0815605,13.7866783 22.8766052,13.4452171 C22.6716499,13.1037559 22.295132,12.90311 21.8974,12.9233999 L10.4104,12.9233999 L10.4104,12.9233999 Z M10.4104,18.6661997 C9.83052979,18.6871068 9.37124184,19.1632526 9.37124184,19.7434996 C9.37124184,20.3237466 9.83052979,20.7998925 10.4104,20.8207996 L21.8974,20.8207996 C22.2915445,20.8350104 22.6619858,20.6328428 22.8632749,20.2936755 C23.0645641,19.9545082 23.0645641,19.532491 22.8632749,19.1933237 C22.6619858,18.8541564 22.2915445,18.6519889 21.8974,18.6661997 L10.4104,18.6661997 Z M6.46240002,9.33380009 C6.85654448,9.34801088 7.22698582,9.14584336 7.42827496,8.80667604 C7.6295641,8.46750871 7.6295641,8.04549156 7.42827496,7.70632423 C7.22698582,7.36715691 6.85654448,7.16498939 6.46240002,7.17920018 C5.88252979,7.20010728 5.42324184,7.67625316 5.42324184,8.25650014 C5.42324184,8.83674711 5.88252979,9.312893 6.46240002,9.33380009 Z M7.53760002,13.9999999 C7.55181081,14.3941443 7.34964328,14.7645856 7.01047594,14.9658748 C6.6713086,15.1671639 6.24929143,15.1671639 5.91012409,14.9658748 C5.57095675,14.7645856 5.36878923,14.3941443 5.38300002,13.9999999 C5.40390711,13.4201297 5.88005302,12.9608417 6.46030002,12.9608417 C7.04054702,12.9608417 7.51669292,13.4201297 7.53760002,13.9999999 Z M6.45959999,20.8207996 C6.85374446,20.8350104 7.2241858,20.6328428 7.42547494,20.2936755 C7.62676408,19.9545082 7.62676408,19.532491 7.42547494,19.1933237 C7.2241858,18.8541564 6.85374446,18.6519889 6.45959999,18.6661997 C5.87972977,18.6871068 5.42044182,19.1632526 5.42044182,19.7434996 C5.42044182,20.3237466 5.87972977,20.7998925 6.45959999,20.8207996 Z" id="Shape"></path>
                </g>
            </g>
        </g>
    </g>
</svg>