<?xml version="1.0" encoding="UTF-8"?>
<svg width="28px" height="27px" viewBox="0 0 28 27" version="1.1" xmlns="http://www.w3.org/2000/svg" xmlns:xlink="http://www.w3.org/1999/xlink">
    <title>withdrawal-9</title>
    <g id="Page-1" stroke="none" stroke-width="1" fill="none" fill-rule="evenodd">
        <g id="Wallet" transform="translate(-670.000000, -599.000000)" fill="#3586FF" fill-rule="nonzero">
            <g id="Withdrawal" transform="translate(641.000000, 590.000000)">
                <g id="withdrawal-9" transform="translate(29.000000, 9.000000)">
                    <path d="M5.44446965,9.25740001 L5.44446965,17.7426 L22.5555303,17.7426 L22.5555303,9.25740001 L28,9.25740001 L28,25.2 C28,26.1941125 27.187476,27 26.1851768,27 L1.8148232,27 C0.812524019,27 0,26.1941125 0,25.2 L0,9.25740001 L5.44446965,9.25740001 Z M19.8332955,11.5713 L19.8332955,14.6574 L8.16670448,14.6574 L8.16670448,11.5713 L19.8332955,11.5713 L19.8332955,11.5713 Z M8.16670448,4.62869999 L13.8062676,0 L19.4467382,4.62869999 L16.5285024,4.62869999 L16.5285024,9.5499 L11.0840328,9.5499 L11.0840328,4.62869999 L8.16670448,4.62869999 Z" id="Shape"></path>
                </g>
            </g>
        </g>
    </g>
</svg>